%TF.GenerationSoftware,KiCad,Pcbnew,7.0.11-7.0.11~ubuntu22.04.1*%
%TF.CreationDate,2024-09-03T00:59:23+02:00*%
%TF.ProjectId,JTAGFinder,4a544147-4669-46e6-9465-722e6b696361,rev?*%
%TF.SameCoordinates,Original*%
%TF.FileFunction,Soldermask,Bot*%
%TF.FilePolarity,Negative*%
%FSLAX46Y46*%
G04 Gerber Fmt 4.6, Leading zero omitted, Abs format (unit mm)*
G04 Created by KiCad (PCBNEW 7.0.11-7.0.11~ubuntu22.04.1) date 2024-09-03 00:59:23*
%MOMM*%
%LPD*%
G01*
G04 APERTURE LIST*
G04 Aperture macros list*
%AMRoundRect*
0 Rectangle with rounded corners*
0 $1 Rounding radius*
0 $2 $3 $4 $5 $6 $7 $8 $9 X,Y pos of 4 corners*
0 Add a 4 corners polygon primitive as box body*
4,1,4,$2,$3,$4,$5,$6,$7,$8,$9,$2,$3,0*
0 Add four circle primitives for the rounded corners*
1,1,$1+$1,$2,$3*
1,1,$1+$1,$4,$5*
1,1,$1+$1,$6,$7*
1,1,$1+$1,$8,$9*
0 Add four rect primitives between the rounded corners*
20,1,$1+$1,$2,$3,$4,$5,0*
20,1,$1+$1,$4,$5,$6,$7,0*
20,1,$1+$1,$6,$7,$8,$9,0*
20,1,$1+$1,$8,$9,$2,$3,0*%
G04 Aperture macros list end*
%ADD10R,1.700000X1.700000*%
%ADD11O,1.700000X1.700000*%
%ADD12C,3.500000*%
%ADD13RoundRect,0.250000X-0.600000X-0.600000X0.600000X-0.600000X0.600000X0.600000X-0.600000X0.600000X0*%
%ADD14C,1.700000*%
%ADD15R,1.800000X1.800000*%
%ADD16C,1.800000*%
%ADD17R,1.050000X1.500000*%
%ADD18O,1.050000X1.500000*%
%ADD19C,1.500000*%
%ADD20C,2.350000*%
%ADD21C,1.200000*%
%ADD22C,0.650000*%
%ADD23O,2.100000X1.000000*%
%ADD24O,1.600000X1.000000*%
G04 APERTURE END LIST*
D10*
%TO.C,J11*%
X120250000Y-98710000D03*
D11*
X120250000Y-101250000D03*
%TD*%
D12*
%TO.C,H1*%
X177000000Y-124000000D03*
%TD*%
D10*
%TO.C,J5*%
X138200000Y-100750000D03*
D11*
X140740000Y-100750000D03*
X143280000Y-100750000D03*
X145820000Y-100750000D03*
%TD*%
D10*
%TO.C,J7*%
X192000000Y-68380000D03*
D11*
X192000000Y-70920000D03*
X192000000Y-73460000D03*
X192000000Y-76000000D03*
X192000000Y-78540000D03*
%TD*%
D12*
%TO.C,H2*%
X177000000Y-63000000D03*
%TD*%
D10*
%TO.C,J8*%
X180750000Y-68380000D03*
D11*
X180750000Y-70920000D03*
X180750000Y-73460000D03*
X180750000Y-76000000D03*
X180750000Y-78540000D03*
%TD*%
D13*
%TO.C,J1*%
X186000000Y-109000000D03*
D14*
X188540000Y-109000000D03*
X186000000Y-111540000D03*
X188540000Y-111540000D03*
X186000000Y-114080000D03*
X188540000Y-114080000D03*
X186000000Y-116620000D03*
X188540000Y-116620000D03*
X186000000Y-119160000D03*
X188540000Y-119160000D03*
%TD*%
D10*
%TO.C,J10*%
X188250000Y-68380000D03*
D11*
X188250000Y-70920000D03*
X188250000Y-73460000D03*
X188250000Y-76000000D03*
X188250000Y-78540000D03*
%TD*%
D13*
%TO.C,J2*%
X186000000Y-87000000D03*
D14*
X188540000Y-87000000D03*
X186000000Y-89540000D03*
X188540000Y-89540000D03*
X186000000Y-92080000D03*
X188540000Y-92080000D03*
X186000000Y-94620000D03*
X188540000Y-94620000D03*
X186000000Y-97160000D03*
X188540000Y-97160000D03*
%TD*%
D12*
%TO.C,H4*%
X109000000Y-124000000D03*
%TD*%
D10*
%TO.C,J9*%
X184500000Y-68380000D03*
D11*
X184500000Y-70920000D03*
X184500000Y-73460000D03*
X184500000Y-76000000D03*
X184500000Y-78540000D03*
%TD*%
D10*
%TO.C,J3*%
X126170000Y-101000000D03*
D11*
X128710000Y-101000000D03*
X131250000Y-101000000D03*
X133790000Y-101000000D03*
%TD*%
D15*
%TO.C,D2*%
X106527600Y-70510400D03*
D16*
X109067600Y-70510400D03*
X111607600Y-70510400D03*
%TD*%
D12*
%TO.C,H3*%
X109000000Y-63000000D03*
%TD*%
D17*
%TO.C,Q1*%
X114834998Y-67475000D03*
D18*
X116104998Y-67475000D03*
X117374998Y-67475000D03*
%TD*%
D19*
%TO.C,Y1*%
X119522000Y-79895000D03*
X119522000Y-75015000D03*
%TD*%
D20*
%TO.C,J6*%
X167565000Y-63275000D03*
X158415000Y-63275000D03*
D21*
X146765000Y-69775000D03*
X147765000Y-67775000D03*
X148765000Y-69775000D03*
X149765000Y-67775000D03*
X150765000Y-69775000D03*
X151765000Y-67775000D03*
X152765000Y-69775000D03*
X153765000Y-67775000D03*
X155765000Y-67775000D03*
X154765000Y-69775000D03*
X156765000Y-69775000D03*
X159765000Y-67775000D03*
X160765000Y-69775000D03*
X161765000Y-67775000D03*
X162765000Y-69775000D03*
X163765000Y-67775000D03*
X164765000Y-69775000D03*
X165765000Y-67775000D03*
X146765000Y-72275000D03*
X147765000Y-74275000D03*
X148765000Y-72275000D03*
X149765000Y-74275000D03*
X150765000Y-72275000D03*
X151765000Y-74275000D03*
X152765000Y-72275000D03*
X153765000Y-74275000D03*
X154765000Y-72275000D03*
X155765000Y-74275000D03*
X156765000Y-72275000D03*
X159765000Y-74275000D03*
X160765000Y-72275000D03*
X161765000Y-74275000D03*
X162765000Y-72275000D03*
X163765000Y-74275000D03*
X164765000Y-72275000D03*
X165765000Y-74275000D03*
%TD*%
D22*
%TO.C,J4*%
X110584000Y-89310000D03*
X110584000Y-95090000D03*
D23*
X111114000Y-87880000D03*
D24*
X106934000Y-87880000D03*
D23*
X111114000Y-96520000D03*
D24*
X106934000Y-96520000D03*
%TD*%
M02*
