%TF.GenerationSoftware,KiCad,Pcbnew,7.0.11-7.0.11~ubuntu22.04.1*%
%TF.CreationDate,2024-09-03T00:59:23+02:00*%
%TF.ProjectId,JTAGFinder,4a544147-4669-46e6-9465-722e6b696361,rev?*%
%TF.SameCoordinates,Original*%
%TF.FileFunction,Paste,Top*%
%TF.FilePolarity,Positive*%
%FSLAX46Y46*%
G04 Gerber Fmt 4.6, Leading zero omitted, Abs format (unit mm)*
G04 Created by KiCad (PCBNEW 7.0.11-7.0.11~ubuntu22.04.1) date 2024-09-03 00:59:23*
%MOMM*%
%LPD*%
G01*
G04 APERTURE LIST*
G04 Aperture macros list*
%AMRoundRect*
0 Rectangle with rounded corners*
0 $1 Rounding radius*
0 $2 $3 $4 $5 $6 $7 $8 $9 X,Y pos of 4 corners*
0 Add a 4 corners polygon primitive as box body*
4,1,4,$2,$3,$4,$5,$6,$7,$8,$9,$2,$3,0*
0 Add four circle primitives for the rounded corners*
1,1,$1+$1,$2,$3*
1,1,$1+$1,$4,$5*
1,1,$1+$1,$6,$7*
1,1,$1+$1,$8,$9*
0 Add four rect primitives between the rounded corners*
20,1,$1+$1,$2,$3,$4,$5,0*
20,1,$1+$1,$4,$5,$6,$7,0*
20,1,$1+$1,$6,$7,$8,$9,0*
20,1,$1+$1,$8,$9,$2,$3,0*%
G04 Aperture macros list end*
%ADD10R,0.750000X1.000000*%
%ADD11RoundRect,0.250000X0.850000X0.350000X-0.850000X0.350000X-0.850000X-0.350000X0.850000X-0.350000X0*%
%ADD12RoundRect,0.250000X1.275000X1.125000X-1.275000X1.125000X-1.275000X-1.125000X1.275000X-1.125000X0*%
%ADD13RoundRect,0.250000X-0.650000X0.325000X-0.650000X-0.325000X0.650000X-0.325000X0.650000X0.325000X0*%
%ADD14RoundRect,0.250000X-0.550000X1.050000X-0.550000X-1.050000X0.550000X-1.050000X0.550000X1.050000X0*%
%ADD15RoundRect,0.250000X0.650000X-0.325000X0.650000X0.325000X-0.650000X0.325000X-0.650000X-0.325000X0*%
%ADD16R,1.750000X0.450000*%
%ADD17RoundRect,0.137500X0.600000X0.137500X-0.600000X0.137500X-0.600000X-0.137500X0.600000X-0.137500X0*%
%ADD18RoundRect,0.137500X0.137500X0.600000X-0.137500X0.600000X-0.137500X-0.600000X0.137500X-0.600000X0*%
%ADD19RoundRect,0.250000X-0.312500X-0.625000X0.312500X-0.625000X0.312500X0.625000X-0.312500X0.625000X0*%
%ADD20RoundRect,0.150000X-0.150000X0.725000X-0.150000X-0.725000X0.150000X-0.725000X0.150000X0.725000X0*%
%ADD21RoundRect,0.250000X-0.625000X0.312500X-0.625000X-0.312500X0.625000X-0.312500X0.625000X0.312500X0*%
%ADD22RoundRect,0.250000X0.625000X-0.312500X0.625000X0.312500X-0.625000X0.312500X-0.625000X-0.312500X0*%
%ADD23RoundRect,0.150000X-0.150000X0.825000X-0.150000X-0.825000X0.150000X-0.825000X0.150000X0.825000X0*%
%ADD24RoundRect,0.350000X-0.350000X0.400000X-0.350000X-0.400000X0.350000X-0.400000X0.350000X0.400000X0*%
%ADD25RoundRect,0.250001X0.354999X-0.354999X0.354999X0.354999X-0.354999X0.354999X-0.354999X-0.354999X0*%
%ADD26RoundRect,0.100000X0.100000X-0.675000X0.100000X0.675000X-0.100000X0.675000X-0.100000X-0.675000X0*%
%ADD27RoundRect,0.112500X0.187500X0.112500X-0.187500X0.112500X-0.187500X-0.112500X0.187500X-0.112500X0*%
%ADD28RoundRect,0.150000X0.150000X-0.512500X0.150000X0.512500X-0.150000X0.512500X-0.150000X-0.512500X0*%
%ADD29RoundRect,0.230000X0.375000X-0.230000X0.375000X0.230000X-0.375000X0.230000X-0.375000X-0.230000X0*%
%ADD30RoundRect,0.150000X0.150000X-0.825000X0.150000X0.825000X-0.150000X0.825000X-0.150000X-0.825000X0*%
%ADD31RoundRect,0.250000X-1.075000X0.375000X-1.075000X-0.375000X1.075000X-0.375000X1.075000X0.375000X0*%
%ADD32RoundRect,0.100000X0.637500X0.100000X-0.637500X0.100000X-0.637500X-0.100000X0.637500X-0.100000X0*%
%ADD33R,1.450000X0.600000*%
%ADD34R,1.450000X0.300000*%
G04 APERTURE END LIST*
D10*
%TO.C,SW1*%
X141750000Y-95250000D03*
X141750000Y-89250000D03*
X145500000Y-95250000D03*
X145500000Y-89250000D03*
%TD*%
D11*
%TO.C,U1*%
X131590000Y-125730000D03*
D12*
X126965000Y-124975000D03*
X126965000Y-121925000D03*
X123615000Y-124975000D03*
X123615000Y-121925000D03*
D11*
X131590000Y-121170000D03*
%TD*%
D13*
%TO.C,C24*%
X161000000Y-109525000D03*
X161000000Y-112475000D03*
%TD*%
D14*
%TO.C,C16*%
X143750000Y-122150000D03*
X143750000Y-125750000D03*
%TD*%
D15*
%TO.C,C15*%
X115750000Y-96950000D03*
X115750000Y-94000000D03*
%TD*%
D13*
%TO.C,C4*%
X131250000Y-112525000D03*
X131250000Y-115475000D03*
%TD*%
D15*
%TO.C,C2*%
X126300000Y-83075000D03*
X126300000Y-80125000D03*
%TD*%
D13*
%TO.C,C26*%
X138000000Y-91525000D03*
X138000000Y-94475000D03*
%TD*%
D14*
%TO.C,C6*%
X108944000Y-113008000D03*
X108944000Y-116608000D03*
%TD*%
D15*
%TO.C,C8*%
X115722400Y-102619600D03*
X115722400Y-99669600D03*
%TD*%
D16*
%TO.C,U4*%
X126800000Y-95225000D03*
X126800000Y-94575000D03*
X126800000Y-93925000D03*
X126800000Y-93275000D03*
X126800000Y-92625000D03*
X126800000Y-91975000D03*
X126800000Y-91325000D03*
X126800000Y-90675000D03*
X126800000Y-90025000D03*
X126800000Y-89375000D03*
X126800000Y-88725000D03*
X126800000Y-88075000D03*
X126800000Y-87425000D03*
X126800000Y-86775000D03*
X119600000Y-86775000D03*
X119600000Y-87425000D03*
X119600000Y-88075000D03*
X119600000Y-88725000D03*
X119600000Y-89375000D03*
X119600000Y-90025000D03*
X119600000Y-90675000D03*
X119600000Y-91325000D03*
X119600000Y-91975000D03*
X119600000Y-92625000D03*
X119600000Y-93275000D03*
X119600000Y-93925000D03*
X119600000Y-94575000D03*
X119600000Y-95225000D03*
%TD*%
D13*
%TO.C,C5*%
X138870000Y-112505000D03*
X138870000Y-115455000D03*
%TD*%
D15*
%TO.C,C3*%
X145900000Y-81625000D03*
X145900000Y-78675000D03*
%TD*%
D17*
%TO.C,U13*%
X141250000Y-85350000D03*
X141250000Y-84550000D03*
X141250000Y-83750000D03*
X141250000Y-82950000D03*
X141250000Y-82150000D03*
X141250000Y-81350000D03*
X141250000Y-80550000D03*
X141250000Y-79750000D03*
X141250000Y-78950000D03*
X141250000Y-78150000D03*
X141250000Y-77350000D03*
D18*
X139587500Y-75687500D03*
X138787500Y-75687500D03*
X137987500Y-75687500D03*
X137187500Y-75687500D03*
X136387500Y-75687500D03*
X135587500Y-75687500D03*
X134787500Y-75687500D03*
X133987500Y-75687500D03*
X133187500Y-75687500D03*
X132387500Y-75687500D03*
X131587500Y-75687500D03*
D17*
X129925000Y-77350000D03*
X129925000Y-78150000D03*
X129925000Y-78950000D03*
X129925000Y-79750000D03*
X129925000Y-80550000D03*
X129925000Y-81350000D03*
X129925000Y-82150000D03*
X129925000Y-82950000D03*
X129925000Y-83750000D03*
X129925000Y-84550000D03*
X129925000Y-85350000D03*
D18*
X131587500Y-87012500D03*
X132387500Y-87012500D03*
X133187500Y-87012500D03*
X133987500Y-87012500D03*
X134787500Y-87012500D03*
X135587500Y-87012500D03*
X136387500Y-87012500D03*
X137187500Y-87012500D03*
X137987500Y-87012500D03*
X138787500Y-87012500D03*
X139587500Y-87012500D03*
%TD*%
D19*
%TO.C,R39*%
X105575000Y-99250000D03*
X108500000Y-99250000D03*
%TD*%
D20*
%TO.C,U2*%
X138270000Y-105200000D03*
X137000000Y-105200000D03*
X135730000Y-105200000D03*
X134460000Y-105200000D03*
X134460000Y-110350000D03*
X135730000Y-110350000D03*
X137000000Y-110350000D03*
X138270000Y-110350000D03*
%TD*%
D21*
%TO.C,R33*%
X170301548Y-67787500D03*
X170301548Y-70712500D03*
%TD*%
D14*
%TO.C,C11*%
X113800000Y-113000000D03*
X113800000Y-116600000D03*
%TD*%
D19*
%TO.C,R15*%
X175687800Y-105308400D03*
X178612800Y-105308400D03*
%TD*%
D21*
%TO.C,R11*%
X142500000Y-108537500D03*
X142500000Y-111462500D03*
%TD*%
D22*
%TO.C,R3*%
X133663000Y-115442500D03*
X133663000Y-112517500D03*
%TD*%
%TO.C,R4*%
X136554000Y-115442500D03*
X136554000Y-112517500D03*
%TD*%
%TO.C,R14*%
X109880400Y-85475000D03*
X109880400Y-82550000D03*
%TD*%
D19*
%TO.C,R20*%
X175626300Y-117017800D03*
X178551300Y-117017800D03*
%TD*%
D15*
%TO.C,C7*%
X115824000Y-108470500D03*
X115824000Y-105520500D03*
%TD*%
D22*
%TO.C,R8*%
X132000000Y-94462500D03*
X132000000Y-91537500D03*
%TD*%
D21*
%TO.C,L1*%
X113284000Y-105533000D03*
X113284000Y-108458000D03*
%TD*%
D22*
%TO.C,R7*%
X135000000Y-94462500D03*
X135000000Y-91537500D03*
%TD*%
D23*
%TO.C,U3*%
X123105000Y-110525000D03*
X121835000Y-110525000D03*
X120565000Y-110525000D03*
X119295000Y-110525000D03*
X119295000Y-115475000D03*
X120565000Y-115475000D03*
X121835000Y-115475000D03*
X123105000Y-115475000D03*
%TD*%
D19*
%TO.C,R18*%
X175651700Y-112344200D03*
X178576700Y-112344200D03*
%TD*%
D24*
%TO.C,L2*%
X126750000Y-112000000D03*
X126750000Y-116000000D03*
%TD*%
D13*
%TO.C,C23*%
X161000000Y-122525000D03*
X161000000Y-125475000D03*
%TD*%
D25*
%TO.C,U11*%
X169125000Y-112725000D03*
X170625000Y-112725000D03*
X169125000Y-111225000D03*
X170625000Y-111225000D03*
D26*
X167600000Y-114850000D03*
X168250000Y-114850000D03*
X168900000Y-114850000D03*
X169550000Y-114850000D03*
X170200000Y-114850000D03*
X170850000Y-114850000D03*
X171500000Y-114850000D03*
X172150000Y-114850000D03*
X172150000Y-109100000D03*
X171500000Y-109100000D03*
X170850000Y-109100000D03*
X170200000Y-109100000D03*
X169550000Y-109100000D03*
X168900000Y-109100000D03*
X168250000Y-109100000D03*
X167600000Y-109100000D03*
%TD*%
D19*
%TO.C,R30*%
X175637000Y-93635284D03*
X178562000Y-93635284D03*
%TD*%
D27*
%TO.C,D1*%
X129050000Y-118750000D03*
X126950000Y-118750000D03*
%TD*%
D19*
%TO.C,R28*%
X175637000Y-95975712D03*
X178562000Y-95975712D03*
%TD*%
D13*
%TO.C,C9*%
X127940000Y-106762500D03*
X127940000Y-109712500D03*
%TD*%
D19*
%TO.C,R19*%
X175637000Y-114681000D03*
X178562000Y-114681000D03*
%TD*%
D28*
%TO.C,U6*%
X114850000Y-90137500D03*
X115800000Y-90137500D03*
X116750000Y-90137500D03*
X116750000Y-87862500D03*
X115800000Y-87862500D03*
X114850000Y-87862500D03*
%TD*%
D19*
%TO.C,R24*%
X175637000Y-100656568D03*
X178562000Y-100656568D03*
%TD*%
%TO.C,R29*%
X175575500Y-91294856D03*
X178500500Y-91294856D03*
%TD*%
%TO.C,R22*%
X169400000Y-122075000D03*
X172325000Y-122075000D03*
%TD*%
%TO.C,R23*%
X175637000Y-102997000D03*
X178562000Y-102997000D03*
%TD*%
D29*
%TO.C,U7*%
X143345000Y-116945000D03*
X144845000Y-116945000D03*
X143345000Y-115805000D03*
X144845000Y-115805000D03*
D30*
X142190000Y-118850000D03*
X143460000Y-118850000D03*
X144730000Y-118850000D03*
X146000000Y-118850000D03*
X146000000Y-113900000D03*
X144730000Y-113900000D03*
X143460000Y-113900000D03*
X142190000Y-113900000D03*
%TD*%
D19*
%TO.C,R40*%
X105537500Y-101750000D03*
X108462500Y-101750000D03*
%TD*%
%TO.C,R26*%
X175637000Y-98316140D03*
X178562000Y-98316140D03*
%TD*%
%TO.C,R27*%
X175637000Y-88954428D03*
X178562000Y-88954428D03*
%TD*%
D14*
%TO.C,C14*%
X117960000Y-121950000D03*
X117960000Y-125550000D03*
%TD*%
D21*
%TO.C,R5*%
X125400000Y-106775000D03*
X125400000Y-109700000D03*
%TD*%
D22*
%TO.C,R12*%
X107064599Y-78033900D03*
X107064599Y-75108900D03*
%TD*%
D19*
%TO.C,R25*%
X175641000Y-86614000D03*
X178566000Y-86614000D03*
%TD*%
D15*
%TO.C,C1*%
X120125001Y-69175000D03*
X120125001Y-66225000D03*
%TD*%
%TO.C,C19*%
X107480398Y-85487500D03*
X107480398Y-82537500D03*
%TD*%
D13*
%TO.C,C21*%
X158000000Y-109525000D03*
X158000000Y-112475000D03*
%TD*%
%TO.C,C18*%
X114950000Y-73545001D03*
X114950000Y-76495001D03*
%TD*%
D21*
%TO.C,R1*%
X122600000Y-66375000D03*
X122600000Y-69300000D03*
%TD*%
%TO.C,R31*%
X172750000Y-67787500D03*
X172750000Y-70712500D03*
%TD*%
D15*
%TO.C,C17*%
X114950000Y-81575000D03*
X114950000Y-78625000D03*
%TD*%
%TO.C,C27*%
X134850000Y-73399999D03*
X134850000Y-70449999D03*
%TD*%
D19*
%TO.C,R16*%
X175677100Y-107645200D03*
X178602100Y-107645200D03*
%TD*%
D31*
%TO.C,F1*%
X112420400Y-99744600D03*
X112420400Y-102544600D03*
%TD*%
D14*
%TO.C,C12*%
X136900000Y-121850000D03*
X136900000Y-125450000D03*
%TD*%
D19*
%TO.C,R21*%
X170000000Y-119500000D03*
X172925000Y-119500000D03*
%TD*%
D13*
%TO.C,C20*%
X158400000Y-122525000D03*
X158400000Y-125475000D03*
%TD*%
D25*
%TO.C,U12*%
X168450000Y-97400000D03*
X169950000Y-97400000D03*
X168450000Y-95900000D03*
X169950000Y-95900000D03*
D26*
X166925000Y-99525000D03*
X167575000Y-99525000D03*
X168225000Y-99525000D03*
X168875000Y-99525000D03*
X169525000Y-99525000D03*
X170175000Y-99525000D03*
X170825000Y-99525000D03*
X171475000Y-99525000D03*
X171475000Y-93775000D03*
X170825000Y-93775000D03*
X170175000Y-93775000D03*
X169525000Y-93775000D03*
X168875000Y-93775000D03*
X168225000Y-93775000D03*
X167575000Y-93775000D03*
X166925000Y-93775000D03*
%TD*%
D21*
%TO.C,R10*%
X145000000Y-108537500D03*
X145000000Y-111462500D03*
%TD*%
D19*
%TO.C,R17*%
X175651700Y-110007400D03*
X178576700Y-110007400D03*
%TD*%
D32*
%TO.C,U8*%
X162862500Y-120925000D03*
X162862500Y-120275000D03*
X162862500Y-119625000D03*
X162862500Y-118975000D03*
X162862500Y-118325000D03*
X162862500Y-117675000D03*
X162862500Y-117025000D03*
X162862500Y-116375000D03*
X162862500Y-115725000D03*
X162862500Y-115075000D03*
X157137500Y-115075000D03*
X157137500Y-115725000D03*
X157137500Y-116375000D03*
X157137500Y-117025000D03*
X157137500Y-117675000D03*
X157137500Y-118325000D03*
X157137500Y-118975000D03*
X157137500Y-119625000D03*
X157137500Y-120275000D03*
X157137500Y-120925000D03*
%TD*%
D21*
%TO.C,R32*%
X175250000Y-67787500D03*
X175250000Y-70712500D03*
%TD*%
D33*
%TO.C,J4*%
X112029000Y-88950000D03*
X112029000Y-89750000D03*
D34*
X112029000Y-90950000D03*
X112029000Y-91950000D03*
X112029000Y-92450000D03*
X112029000Y-93450000D03*
D33*
X112029000Y-94650000D03*
X112029000Y-95450000D03*
X112029000Y-95450000D03*
X112029000Y-94650000D03*
D34*
X112029000Y-93950000D03*
X112029000Y-92950000D03*
X112029000Y-91450000D03*
X112029000Y-90450000D03*
D33*
X112029000Y-89750000D03*
X112029000Y-88950000D03*
%TD*%
D14*
%TO.C,C10*%
X108937200Y-104902000D03*
X108937200Y-108502000D03*
%TD*%
D32*
%TO.C,U9*%
X162862500Y-107925000D03*
X162862500Y-107275000D03*
X162862500Y-106625000D03*
X162862500Y-105975000D03*
X162862500Y-105325000D03*
X162862500Y-104675000D03*
X162862500Y-104025000D03*
X162862500Y-103375000D03*
X162862500Y-102725000D03*
X162862500Y-102075000D03*
X157137500Y-102075000D03*
X157137500Y-102725000D03*
X157137500Y-103375000D03*
X157137500Y-104025000D03*
X157137500Y-104675000D03*
X157137500Y-105325000D03*
X157137500Y-105975000D03*
X157137500Y-106625000D03*
X157137500Y-107275000D03*
X157137500Y-107925000D03*
%TD*%
D22*
%TO.C,R13*%
X110583601Y-78033900D03*
X110583601Y-75108900D03*
%TD*%
D21*
%TO.C,R9*%
X148800000Y-122337500D03*
X148800000Y-125262500D03*
%TD*%
D22*
%TO.C,R2*%
X118500000Y-63712500D03*
X118500000Y-60787500D03*
%TD*%
M02*
