%TF.GenerationSoftware,KiCad,Pcbnew,7.0.10-7.0.10~ubuntu22.04.1*%
%TF.CreationDate,2024-03-23T23:29:13+01:00*%
%TF.ProjectId,JTAGFinder,4a544147-4669-46e6-9465-722e6b696361,rev?*%
%TF.SameCoordinates,Original*%
%TF.FileFunction,Drillmap*%
%TF.FilePolarity,Positive*%
%FSLAX45Y45*%
G04 Gerber Fmt 4.5, Leading zero omitted, Abs format (unit mm)*
G04 Created by KiCad (PCBNEW 7.0.10-7.0.10~ubuntu22.04.1) date 2024-03-23 23:29:13*
%MOMM*%
%LPD*%
G01*
G04 APERTURE LIST*
%ADD10C,0.100000*%
%ADD11C,0.200000*%
%ADD12C,0.235000*%
G04 APERTURE END LIST*
D10*
X10406500Y-12327500D02*
X10406500Y-6327500D01*
X18906500Y-12827500D02*
G75*
G03*
X19406500Y-12327500I0J500000D01*
G01*
X19406500Y-6327500D02*
G75*
G03*
X18906500Y-5827500I-500000J0D01*
G01*
X10906500Y-5827500D02*
G75*
G03*
X10406500Y-6327500I0J-500000D01*
G01*
X10906500Y-5827500D02*
X18906500Y-5827500D01*
X19406500Y-6327500D02*
X19406500Y-12327500D01*
X18906500Y-12827500D02*
X10906500Y-12827500D01*
X10406500Y-12327500D02*
G75*
G03*
X10906500Y-12827500I500000J0D01*
G01*
D11*
D10*
X10955000Y-8980000D02*
X10995000Y-9020000D01*
X10995000Y-8980000D02*
X10955000Y-9020000D01*
X10980000Y-9392269D02*
X11020000Y-9432269D01*
X11020000Y-9392269D02*
X10980000Y-9432269D01*
X11359200Y-9022400D02*
X11399200Y-9062400D01*
X11399200Y-9022400D02*
X11359200Y-9062400D01*
X11359200Y-9301800D02*
X11399200Y-9341800D01*
X11399200Y-9301800D02*
X11359200Y-9341800D01*
X11465000Y-9073200D02*
X11505000Y-9113200D01*
X11505000Y-9073200D02*
X11465000Y-9113200D01*
X11552240Y-10241960D02*
X11592240Y-10281960D01*
X11592240Y-10241960D02*
X11552240Y-10281960D01*
X11557500Y-9372500D02*
X11597500Y-9412500D01*
X11597500Y-9372500D02*
X11557500Y-9412500D01*
X11560000Y-8766250D02*
X11600000Y-8806250D01*
X11600000Y-8766250D02*
X11560000Y-8806250D01*
X11655000Y-8993750D02*
X11695000Y-9033750D01*
X11695000Y-8993750D02*
X11655000Y-9033750D01*
X11985000Y-6890000D02*
X12025000Y-6930000D01*
X12025000Y-6890000D02*
X11985000Y-6930000D01*
X12100000Y-9040000D02*
X12140000Y-9080000D01*
X12140000Y-9040000D02*
X12100000Y-9080000D01*
X12232960Y-6619560D02*
X12272960Y-6659560D01*
X12272960Y-6619560D02*
X12232960Y-6659560D01*
X12240000Y-6910000D02*
X12280000Y-6950000D01*
X12280000Y-6910000D02*
X12240000Y-6950000D01*
X12380000Y-9437500D02*
X12420000Y-9477500D01*
X12420000Y-9437500D02*
X12380000Y-9477500D01*
X12392500Y-8645000D02*
X12432500Y-8685000D01*
X12432500Y-8645000D02*
X12392500Y-8685000D01*
X12470000Y-8950000D02*
X12510000Y-8990000D01*
X12510000Y-8950000D02*
X12470000Y-8990000D01*
X12470000Y-9670000D02*
X12510000Y-9710000D01*
X12510000Y-9670000D02*
X12470000Y-9710000D01*
X12610000Y-8290000D02*
X12650000Y-8330000D01*
X12650000Y-8290000D02*
X12610000Y-8330000D01*
X12655000Y-11180000D02*
X12695000Y-11220000D01*
X12695000Y-11180000D02*
X12655000Y-11220000D01*
X13180000Y-8855000D02*
X13220000Y-8895000D01*
X13220000Y-8855000D02*
X13180000Y-8895000D01*
X13195000Y-8485000D02*
X13235000Y-8525000D01*
X13235000Y-8485000D02*
X13195000Y-8525000D01*
X13280000Y-8855000D02*
X13320000Y-8895000D01*
X13320000Y-8855000D02*
X13280000Y-8895000D01*
X13380000Y-8530000D02*
X13420000Y-8570000D01*
X13420000Y-8530000D02*
X13380000Y-8570000D01*
X13380000Y-11530000D02*
X13420000Y-11570000D01*
X13420000Y-11530000D02*
X13380000Y-11570000D01*
X13400000Y-8415000D02*
X13440000Y-8455000D01*
X13440000Y-8415000D02*
X13400000Y-8455000D01*
X13465000Y-7027500D02*
X13505000Y-7067500D01*
X13505000Y-7027500D02*
X13465000Y-7067500D01*
X13470000Y-7315000D02*
X13510000Y-7355000D01*
X13510000Y-7315000D02*
X13470000Y-7355000D01*
X13480000Y-9805000D02*
X13520000Y-9845000D01*
X13520000Y-9805000D02*
X13480000Y-9845000D01*
X13545000Y-8265000D02*
X13585000Y-8305000D01*
X13585000Y-8265000D02*
X13545000Y-8305000D01*
X13646700Y-11530000D02*
X13686700Y-11570000D01*
X13686700Y-11530000D02*
X13646700Y-11570000D01*
X13655000Y-8270000D02*
X13695000Y-8310000D01*
X13695000Y-8270000D02*
X13655000Y-8310000D01*
X13755000Y-8320000D02*
X13795000Y-8360000D01*
X13795000Y-8320000D02*
X13755000Y-8360000D01*
X13780000Y-9137500D02*
X13820000Y-9177500D01*
X13820000Y-9137500D02*
X13780000Y-9177500D01*
X13877500Y-8435000D02*
X13917500Y-8475000D01*
X13917500Y-8435000D02*
X13877500Y-8475000D01*
X13960000Y-10420000D02*
X14000000Y-10460000D01*
X14000000Y-10420000D02*
X13960000Y-10460000D01*
X14230000Y-10830000D02*
X14270000Y-10870000D01*
X14270000Y-10830000D02*
X14230000Y-10870000D01*
X14277500Y-8527500D02*
X14317500Y-8567500D01*
X14317500Y-8527500D02*
X14277500Y-8567500D01*
X14292500Y-7877500D02*
X14332500Y-7917500D01*
X14332500Y-7877500D02*
X14292500Y-7917500D01*
X14315000Y-8045000D02*
X14355000Y-8085000D01*
X14355000Y-8045000D02*
X14315000Y-8085000D01*
X14326500Y-11352500D02*
X14366500Y-11392500D01*
X14366500Y-11352500D02*
X14326500Y-11392500D01*
X14360000Y-7790000D02*
X14400000Y-7830000D01*
X14400000Y-7790000D02*
X14360000Y-7830000D01*
X14385000Y-8530000D02*
X14425000Y-8570000D01*
X14425000Y-8530000D02*
X14385000Y-8570000D01*
X14450000Y-11370000D02*
X14490000Y-11410000D01*
X14490000Y-11370000D02*
X14450000Y-11410000D01*
X14460000Y-11870000D02*
X14500000Y-11910000D01*
X14500000Y-11870000D02*
X14460000Y-11910000D01*
X14480000Y-11130000D02*
X14520000Y-11170000D01*
X14520000Y-11130000D02*
X14480000Y-11170000D01*
X14512500Y-8525000D02*
X14552500Y-8565000D01*
X14552500Y-8525000D02*
X14512500Y-8565000D01*
X14590000Y-8020000D02*
X14630000Y-8060000D01*
X14630000Y-8020000D02*
X14590000Y-8060000D01*
X14647500Y-8550000D02*
X14687500Y-8590000D01*
X14687500Y-8550000D02*
X14647500Y-8590000D01*
X14860000Y-12210000D02*
X14900000Y-12250000D01*
X14900000Y-12210000D02*
X14860000Y-12250000D01*
X15430000Y-10780000D02*
X15470000Y-10820000D01*
X15470000Y-10780000D02*
X15430000Y-10820000D01*
X15572500Y-6305000D02*
X15612500Y-6345000D01*
X15612500Y-6305000D02*
X15572500Y-6345000D01*
X15775000Y-9630000D02*
X15815000Y-9670000D01*
X15815000Y-9630000D02*
X15775000Y-9670000D01*
X15775000Y-11220000D02*
X15815000Y-11260000D01*
X15815000Y-11220000D02*
X15775000Y-11260000D01*
X15780000Y-9925000D02*
X15820000Y-9965000D01*
X15820000Y-9925000D02*
X15780000Y-9965000D01*
X15931200Y-10571800D02*
X15971200Y-10611800D01*
X15971200Y-10571800D02*
X15931200Y-10611800D01*
X15979691Y-10688860D02*
X16019691Y-10728860D01*
X16019691Y-10688860D02*
X15979691Y-10728860D01*
X16001875Y-10501125D02*
X16041875Y-10541125D01*
X16041875Y-10501125D02*
X16001875Y-10541125D01*
X16062500Y-6285000D02*
X16102500Y-6325000D01*
X16102500Y-6285000D02*
X16062500Y-6325000D01*
X16065067Y-10423685D02*
X16105067Y-10463685D01*
X16105067Y-10423685D02*
X16065067Y-10463685D01*
X16070900Y-10117899D02*
X16110900Y-10157899D01*
X16110900Y-10117899D02*
X16070900Y-10157899D01*
X16070900Y-10217850D02*
X16110900Y-10257850D01*
X16110900Y-10217850D02*
X16070900Y-10257850D01*
X16070900Y-10317800D02*
X16110900Y-10357800D01*
X16110900Y-10317800D02*
X16070900Y-10357800D01*
X16080000Y-9632500D02*
X16120000Y-9672500D01*
X16120000Y-9632500D02*
X16080000Y-9672500D01*
X16080000Y-12230000D02*
X16120000Y-12270000D01*
X16120000Y-12230000D02*
X16080000Y-12270000D01*
X16082500Y-9932500D02*
X16122500Y-9972500D01*
X16122500Y-9932500D02*
X16082500Y-9972500D01*
X16082500Y-11232500D02*
X16122500Y-11272500D01*
X16122500Y-11232500D02*
X16082500Y-11272500D01*
X16083600Y-10927400D02*
X16123600Y-10967400D01*
X16123600Y-10927400D02*
X16083600Y-10967400D01*
X16152500Y-11552500D02*
X16192500Y-11592500D01*
X16192500Y-11552500D02*
X16152500Y-11592500D01*
X16159800Y-10063800D02*
X16199800Y-10103800D01*
X16199800Y-10063800D02*
X16159800Y-10103800D01*
X16182500Y-11417500D02*
X16222500Y-11457500D01*
X16222500Y-11417500D02*
X16182500Y-11457500D01*
X16266480Y-9489760D02*
X16306480Y-9529760D01*
X16306480Y-9489760D02*
X16266480Y-9529760D01*
X16380000Y-8080000D02*
X16420000Y-8120000D01*
X16420000Y-8080000D02*
X16380000Y-8120000D01*
X16400000Y-6265000D02*
X16440000Y-6305000D01*
X16440000Y-6265000D02*
X16400000Y-6305000D01*
X16455000Y-11935000D02*
X16495000Y-11975000D01*
X16495000Y-11935000D02*
X16455000Y-11975000D01*
X16465000Y-11640000D02*
X16505000Y-11680000D01*
X16505000Y-11640000D02*
X16465000Y-11680000D01*
X16475000Y-11785000D02*
X16515000Y-11825000D01*
X16515000Y-11785000D02*
X16475000Y-11825000D01*
X16540000Y-11865000D02*
X16580000Y-11905000D01*
X16580000Y-11865000D02*
X16540000Y-11905000D01*
X16545000Y-11560000D02*
X16585000Y-11600000D01*
X16585000Y-11560000D02*
X16545000Y-11600000D01*
X16570000Y-11715000D02*
X16610000Y-11755000D01*
X16610000Y-11715000D02*
X16570000Y-11755000D01*
X16584800Y-6980000D02*
X16624800Y-7020000D01*
X16624800Y-6980000D02*
X16584800Y-7020000D01*
X16591600Y-12197400D02*
X16631600Y-12237400D01*
X16631600Y-12197400D02*
X16591600Y-12237400D01*
X16650000Y-9867500D02*
X16690000Y-9907500D01*
X16690000Y-9867500D02*
X16650000Y-9907500D01*
X16665000Y-9462500D02*
X16705000Y-9502500D01*
X16705000Y-9462500D02*
X16665000Y-9502500D01*
X16677500Y-12102500D02*
X16717500Y-12142500D01*
X16717500Y-12102500D02*
X16677500Y-12142500D01*
X16692500Y-11515000D02*
X16732500Y-11555000D01*
X16732500Y-11515000D02*
X16692500Y-11555000D01*
X16697500Y-10872500D02*
X16737500Y-10912500D01*
X16737500Y-10872500D02*
X16697500Y-10912500D01*
X16750000Y-11615000D02*
X16790000Y-11655000D01*
X16790000Y-11615000D02*
X16750000Y-11655000D01*
X16800000Y-11705000D02*
X16840000Y-11745000D01*
X16840000Y-11705000D02*
X16800000Y-11745000D01*
X16905000Y-11720000D02*
X16945000Y-11760000D01*
X16945000Y-11720000D02*
X16905000Y-11760000D01*
X16985000Y-11625000D02*
X17025000Y-11665000D01*
X17025000Y-11625000D02*
X16985000Y-11665000D01*
X16992500Y-6342500D02*
X17032500Y-6382500D01*
X17032500Y-6342500D02*
X16992500Y-6382500D01*
X17010155Y-6758750D02*
X17050155Y-6798750D01*
X17050155Y-6758750D02*
X17010155Y-6798750D01*
X17055000Y-11745000D02*
X17095000Y-11785000D01*
X17095000Y-11745000D02*
X17055000Y-11785000D01*
X17125000Y-11590000D02*
X17165000Y-11630000D01*
X17165000Y-11590000D02*
X17125000Y-11630000D01*
X17255000Y-6758750D02*
X17295000Y-6798750D01*
X17295000Y-6758750D02*
X17255000Y-6798750D01*
X17505000Y-6758750D02*
X17545000Y-6798750D01*
X17545000Y-6758750D02*
X17505000Y-6798750D01*
X17531400Y-11664000D02*
X17571400Y-11704000D01*
X17571400Y-11664000D02*
X17531400Y-11704000D01*
X17537550Y-9109486D02*
X17577550Y-9149486D01*
X17577550Y-9109486D02*
X17537550Y-9149486D01*
X17543700Y-8875443D02*
X17583700Y-8915443D01*
X17583700Y-8875443D02*
X17543700Y-8915443D01*
X17543700Y-9343528D02*
X17583700Y-9383528D01*
X17583700Y-9343528D02*
X17543700Y-9383528D01*
X17543700Y-9577571D02*
X17583700Y-9617571D01*
X17583700Y-9577571D02*
X17543700Y-9617571D01*
X17543700Y-9811614D02*
X17583700Y-9851614D01*
X17583700Y-9811614D02*
X17543700Y-9851614D01*
X17543700Y-10045657D02*
X17583700Y-10085657D01*
X17583700Y-10045657D02*
X17543700Y-10085657D01*
X17543700Y-10279700D02*
X17583700Y-10319700D01*
X17583700Y-10279700D02*
X17543700Y-10319700D01*
X17543700Y-11448100D02*
X17583700Y-11488100D01*
X17583700Y-11448100D02*
X17543700Y-11488100D01*
X17544100Y-8641400D02*
X17584100Y-8681400D01*
X17584100Y-8641400D02*
X17544100Y-8681400D01*
X17545170Y-10980740D02*
X17585170Y-11020740D01*
X17585170Y-10980740D02*
X17545170Y-11020740D01*
X17545170Y-11214420D02*
X17585170Y-11254420D01*
X17585170Y-11214420D02*
X17545170Y-11254420D01*
X17547710Y-10744520D02*
X17587710Y-10784520D01*
X17587710Y-10744520D02*
X17547710Y-10784520D01*
X17548780Y-10510840D02*
X17588780Y-10550840D01*
X17588780Y-10510840D02*
X17548780Y-10550840D01*
X12877500Y-12200000D02*
G75*
G03*
X12822500Y-12200000I-27500J0D01*
G01*
X12822500Y-12200000D02*
G75*
G03*
X12877500Y-12200000I27500J0D01*
G01*
X13477500Y-10350000D02*
G75*
G03*
X13422500Y-10350000I-27500J0D01*
G01*
X13422500Y-10350000D02*
G75*
G03*
X13477500Y-10350000I27500J0D01*
G01*
X15827500Y-10952500D02*
G75*
G03*
X15772500Y-10952500I-27500J0D01*
G01*
X15772500Y-10952500D02*
G75*
G03*
X15827500Y-10952500I27500J0D01*
G01*
X15877500Y-12250000D02*
G75*
G03*
X15822500Y-12250000I-27500J0D01*
G01*
X15822500Y-12250000D02*
G75*
G03*
X15877500Y-12250000I27500J0D01*
G01*
X10693400Y-8758000D02*
X10693400Y-8818000D01*
X10663400Y-8788000D02*
X10723400Y-8788000D01*
X10723400Y-8758000D02*
X10663400Y-8758000D01*
X10663400Y-8758000D02*
G75*
G03*
X10663400Y-8818000I0J-30000D01*
G01*
X10663400Y-8818000D02*
X10723400Y-8818000D01*
X10723400Y-8818000D02*
G75*
G03*
X10723400Y-8758000I0J30000D01*
G01*
X10693400Y-9622000D02*
X10693400Y-9682000D01*
X10663400Y-9652000D02*
X10723400Y-9652000D01*
X10723400Y-9622000D02*
X10663400Y-9622000D01*
X10663400Y-9622000D02*
G75*
G03*
X10663400Y-9682000I0J-30000D01*
G01*
X10663400Y-9682000D02*
X10723400Y-9682000D01*
X10723400Y-9682000D02*
G75*
G03*
X10723400Y-9622000I0J30000D01*
G01*
X11111400Y-8758000D02*
X11111400Y-8818000D01*
X11081400Y-8788000D02*
X11141400Y-8788000D01*
X11166400Y-8758000D02*
X11056400Y-8758000D01*
X11056400Y-8758000D02*
G75*
G03*
X11056400Y-8818000I0J-30000D01*
G01*
X11056400Y-8818000D02*
X11166400Y-8818000D01*
X11166400Y-8818000D02*
G75*
G03*
X11166400Y-8758000I0J30000D01*
G01*
X11111400Y-9622000D02*
X11111400Y-9682000D01*
X11081400Y-9652000D02*
X11141400Y-9652000D01*
X11166400Y-9622000D02*
X11056400Y-9622000D01*
X11056400Y-9622000D02*
G75*
G03*
X11056400Y-9682000I0J-30000D01*
G01*
X11056400Y-9682000D02*
X11166400Y-9682000D01*
X11166400Y-9682000D02*
G75*
G03*
X11166400Y-9622000I0J30000D01*
G01*
X14701249Y-7002249D02*
X14701249Y-6952751D01*
X14651751Y-6952751D01*
X14651751Y-7002249D01*
X14701249Y-7002249D01*
X14701249Y-7252249D02*
X14701249Y-7202751D01*
X14651751Y-7202751D01*
X14651751Y-7252249D01*
X14701249Y-7252249D01*
X14801249Y-6802249D02*
X14801249Y-6752751D01*
X14751751Y-6752751D01*
X14751751Y-6802249D01*
X14801249Y-6802249D01*
X14801249Y-7452249D02*
X14801249Y-7402751D01*
X14751751Y-7402751D01*
X14751751Y-7452249D01*
X14801249Y-7452249D01*
X14901249Y-7002249D02*
X14901249Y-6952751D01*
X14851751Y-6952751D01*
X14851751Y-7002249D01*
X14901249Y-7002249D01*
X14901249Y-7252249D02*
X14901249Y-7202751D01*
X14851751Y-7202751D01*
X14851751Y-7252249D01*
X14901249Y-7252249D01*
X15001249Y-6802249D02*
X15001249Y-6752751D01*
X14951751Y-6752751D01*
X14951751Y-6802249D01*
X15001249Y-6802249D01*
X15001249Y-7452249D02*
X15001249Y-7402751D01*
X14951751Y-7402751D01*
X14951751Y-7452249D01*
X15001249Y-7452249D01*
X15101249Y-7002249D02*
X15101249Y-6952751D01*
X15051751Y-6952751D01*
X15051751Y-7002249D01*
X15101249Y-7002249D01*
X15101249Y-7252249D02*
X15101249Y-7202751D01*
X15051751Y-7202751D01*
X15051751Y-7252249D01*
X15101249Y-7252249D01*
X15201249Y-6802249D02*
X15201249Y-6752751D01*
X15151751Y-6752751D01*
X15151751Y-6802249D01*
X15201249Y-6802249D01*
X15201249Y-7452249D02*
X15201249Y-7402751D01*
X15151751Y-7402751D01*
X15151751Y-7452249D01*
X15201249Y-7452249D01*
X15301249Y-7002249D02*
X15301249Y-6952751D01*
X15251751Y-6952751D01*
X15251751Y-7002249D01*
X15301249Y-7002249D01*
X15301249Y-7252249D02*
X15301249Y-7202751D01*
X15251751Y-7202751D01*
X15251751Y-7252249D01*
X15301249Y-7252249D01*
X15401249Y-6802249D02*
X15401249Y-6752751D01*
X15351751Y-6752751D01*
X15351751Y-6802249D01*
X15401249Y-6802249D01*
X15401249Y-7452249D02*
X15401249Y-7402751D01*
X15351751Y-7402751D01*
X15351751Y-7452249D01*
X15401249Y-7452249D01*
X15501249Y-7002249D02*
X15501249Y-6952751D01*
X15451751Y-6952751D01*
X15451751Y-7002249D01*
X15501249Y-7002249D01*
X15501249Y-7252249D02*
X15501249Y-7202751D01*
X15451751Y-7202751D01*
X15451751Y-7252249D01*
X15501249Y-7252249D01*
X15601249Y-6802249D02*
X15601249Y-6752751D01*
X15551751Y-6752751D01*
X15551751Y-6802249D01*
X15601249Y-6802249D01*
X15601249Y-7452249D02*
X15601249Y-7402751D01*
X15551751Y-7402751D01*
X15551751Y-7452249D01*
X15601249Y-7452249D01*
X15701249Y-7002249D02*
X15701249Y-6952751D01*
X15651751Y-6952751D01*
X15651751Y-7002249D01*
X15701249Y-7002249D01*
X15701249Y-7252249D02*
X15701249Y-7202751D01*
X15651751Y-7202751D01*
X15651751Y-7252249D01*
X15701249Y-7252249D01*
X16001249Y-6802249D02*
X16001249Y-6752751D01*
X15951751Y-6752751D01*
X15951751Y-6802249D01*
X16001249Y-6802249D01*
X16001249Y-7452249D02*
X16001249Y-7402751D01*
X15951751Y-7402751D01*
X15951751Y-7452249D01*
X16001249Y-7452249D01*
X16101249Y-7002249D02*
X16101249Y-6952751D01*
X16051751Y-6952751D01*
X16051751Y-7002249D01*
X16101249Y-7002249D01*
X16101249Y-7252249D02*
X16101249Y-7202751D01*
X16051751Y-7202751D01*
X16051751Y-7252249D01*
X16101249Y-7252249D01*
X16201249Y-6802249D02*
X16201249Y-6752751D01*
X16151751Y-6752751D01*
X16151751Y-6802249D01*
X16201249Y-6802249D01*
X16201249Y-7452249D02*
X16201249Y-7402751D01*
X16151751Y-7402751D01*
X16151751Y-7452249D01*
X16201249Y-7452249D01*
X16301249Y-7002249D02*
X16301249Y-6952751D01*
X16251751Y-6952751D01*
X16251751Y-7002249D01*
X16301249Y-7002249D01*
X16301249Y-7252249D02*
X16301249Y-7202751D01*
X16251751Y-7202751D01*
X16251751Y-7252249D01*
X16301249Y-7252249D01*
X16401249Y-6802249D02*
X16401249Y-6752751D01*
X16351751Y-6752751D01*
X16351751Y-6802249D01*
X16401249Y-6802249D01*
X16401249Y-7452249D02*
X16401249Y-7402751D01*
X16351751Y-7402751D01*
X16351751Y-7452249D01*
X16401249Y-7452249D01*
X16501249Y-7002249D02*
X16501249Y-6952751D01*
X16451751Y-6952751D01*
X16451751Y-7002249D01*
X16501249Y-7002249D01*
X16501249Y-7252249D02*
X16501249Y-7202751D01*
X16451751Y-7202751D01*
X16451751Y-7252249D01*
X16501249Y-7252249D01*
X16601249Y-6802249D02*
X16601249Y-6752751D01*
X16551751Y-6752751D01*
X16551751Y-6802249D01*
X16601249Y-6802249D01*
X16601249Y-7452249D02*
X16601249Y-7402751D01*
X16551751Y-7402751D01*
X16551751Y-7452249D01*
X16601249Y-7452249D01*
X11483500Y-6785000D02*
X11521000Y-6747500D01*
X11483500Y-6710000D01*
X11446000Y-6747500D01*
X11483500Y-6785000D01*
X11610500Y-6785000D02*
X11648000Y-6747500D01*
X11610500Y-6710000D01*
X11573000Y-6747500D01*
X11610500Y-6785000D01*
X11737500Y-6785000D02*
X11775000Y-6747500D01*
X11737500Y-6710000D01*
X11700000Y-6747500D01*
X11737500Y-6785000D01*
X11912200Y-7461500D02*
X11992200Y-7541500D01*
X11992200Y-7461500D02*
X11912200Y-7541500D01*
X11992200Y-7501500D02*
G75*
G03*
X11912200Y-7501500I-40000J0D01*
G01*
X11912200Y-7501500D02*
G75*
G03*
X11992200Y-7501500I40000J0D01*
G01*
X11912200Y-7949500D02*
X11992200Y-8029500D01*
X11992200Y-7949500D02*
X11912200Y-8029500D01*
X11992200Y-7989500D02*
G75*
G03*
X11912200Y-7989500I-40000J0D01*
G01*
X11912200Y-7989500D02*
G75*
G03*
X11992200Y-7989500I40000J0D01*
G01*
X10607760Y-7006040D02*
X10697760Y-7096040D01*
X10697760Y-7006040D02*
X10607760Y-7096040D01*
X10652760Y-7006040D02*
X10652760Y-7096040D01*
X10607760Y-7051040D02*
X10697760Y-7051040D01*
X10861760Y-7006040D02*
X10951760Y-7096040D01*
X10951760Y-7006040D02*
X10861760Y-7096040D01*
X10906760Y-7006040D02*
X10906760Y-7096040D01*
X10861760Y-7051040D02*
X10951760Y-7051040D01*
X11115760Y-7006040D02*
X11205760Y-7096040D01*
X11205760Y-7006040D02*
X11115760Y-7096040D01*
X11160760Y-7006040D02*
X11160760Y-7096040D01*
X11115760Y-7051040D02*
X11205760Y-7051040D01*
X12567000Y-10050000D02*
X12667000Y-10150000D01*
X12667000Y-10050000D02*
X12567000Y-10150000D01*
X12652356Y-10135356D02*
X12652356Y-10064644D01*
X12581644Y-10064644D01*
X12581644Y-10135356D01*
X12652356Y-10135356D01*
X12821000Y-10050000D02*
X12921000Y-10150000D01*
X12921000Y-10050000D02*
X12821000Y-10150000D01*
X12906356Y-10135356D02*
X12906356Y-10064644D01*
X12835644Y-10064644D01*
X12835644Y-10135356D01*
X12906356Y-10135356D01*
X13075000Y-10050000D02*
X13175000Y-10150000D01*
X13175000Y-10050000D02*
X13075000Y-10150000D01*
X13160356Y-10135356D02*
X13160356Y-10064644D01*
X13089644Y-10064644D01*
X13089644Y-10135356D01*
X13160356Y-10135356D01*
X13329000Y-10050000D02*
X13429000Y-10150000D01*
X13429000Y-10050000D02*
X13329000Y-10150000D01*
X13414356Y-10135356D02*
X13414356Y-10064644D01*
X13343644Y-10064644D01*
X13343644Y-10135356D01*
X13414356Y-10135356D01*
X13770000Y-10025000D02*
X13870000Y-10125000D01*
X13870000Y-10025000D02*
X13770000Y-10125000D01*
X13855356Y-10110356D02*
X13855356Y-10039644D01*
X13784644Y-10039644D01*
X13784644Y-10110356D01*
X13855356Y-10110356D01*
X14024000Y-10025000D02*
X14124000Y-10125000D01*
X14124000Y-10025000D02*
X14024000Y-10125000D01*
X14109356Y-10110356D02*
X14109356Y-10039644D01*
X14038644Y-10039644D01*
X14038644Y-10110356D01*
X14109356Y-10110356D01*
X14278000Y-10025000D02*
X14378000Y-10125000D01*
X14378000Y-10025000D02*
X14278000Y-10125000D01*
X14363356Y-10110356D02*
X14363356Y-10039644D01*
X14292644Y-10039644D01*
X14292644Y-10110356D01*
X14363356Y-10110356D01*
X14532000Y-10025000D02*
X14632000Y-10125000D01*
X14632000Y-10025000D02*
X14532000Y-10125000D01*
X14617356Y-10110356D02*
X14617356Y-10039644D01*
X14546644Y-10039644D01*
X14546644Y-10110356D01*
X14617356Y-10110356D01*
X18025000Y-6788000D02*
X18125000Y-6888000D01*
X18125000Y-6788000D02*
X18025000Y-6888000D01*
X18110356Y-6873356D02*
X18110356Y-6802644D01*
X18039644Y-6802644D01*
X18039644Y-6873356D01*
X18110356Y-6873356D01*
X18025000Y-7042000D02*
X18125000Y-7142000D01*
X18125000Y-7042000D02*
X18025000Y-7142000D01*
X18110356Y-7127356D02*
X18110356Y-7056644D01*
X18039644Y-7056644D01*
X18039644Y-7127356D01*
X18110356Y-7127356D01*
X18025000Y-7296000D02*
X18125000Y-7396000D01*
X18125000Y-7296000D02*
X18025000Y-7396000D01*
X18110356Y-7381356D02*
X18110356Y-7310644D01*
X18039644Y-7310644D01*
X18039644Y-7381356D01*
X18110356Y-7381356D01*
X18025000Y-7550000D02*
X18125000Y-7650000D01*
X18125000Y-7550000D02*
X18025000Y-7650000D01*
X18110356Y-7635356D02*
X18110356Y-7564644D01*
X18039644Y-7564644D01*
X18039644Y-7635356D01*
X18110356Y-7635356D01*
X18025000Y-7804000D02*
X18125000Y-7904000D01*
X18125000Y-7804000D02*
X18025000Y-7904000D01*
X18110356Y-7889356D02*
X18110356Y-7818644D01*
X18039644Y-7818644D01*
X18039644Y-7889356D01*
X18110356Y-7889356D01*
X18400000Y-6788000D02*
X18500000Y-6888000D01*
X18500000Y-6788000D02*
X18400000Y-6888000D01*
X18485356Y-6873356D02*
X18485356Y-6802644D01*
X18414644Y-6802644D01*
X18414644Y-6873356D01*
X18485356Y-6873356D01*
X18400000Y-7042000D02*
X18500000Y-7142000D01*
X18500000Y-7042000D02*
X18400000Y-7142000D01*
X18485356Y-7127356D02*
X18485356Y-7056644D01*
X18414644Y-7056644D01*
X18414644Y-7127356D01*
X18485356Y-7127356D01*
X18400000Y-7296000D02*
X18500000Y-7396000D01*
X18500000Y-7296000D02*
X18400000Y-7396000D01*
X18485356Y-7381356D02*
X18485356Y-7310644D01*
X18414644Y-7310644D01*
X18414644Y-7381356D01*
X18485356Y-7381356D01*
X18400000Y-7550000D02*
X18500000Y-7650000D01*
X18500000Y-7550000D02*
X18400000Y-7650000D01*
X18485356Y-7635356D02*
X18485356Y-7564644D01*
X18414644Y-7564644D01*
X18414644Y-7635356D01*
X18485356Y-7635356D01*
X18400000Y-7804000D02*
X18500000Y-7904000D01*
X18500000Y-7804000D02*
X18400000Y-7904000D01*
X18485356Y-7889356D02*
X18485356Y-7818644D01*
X18414644Y-7818644D01*
X18414644Y-7889356D01*
X18485356Y-7889356D01*
X18550000Y-8650000D02*
X18650000Y-8750000D01*
X18650000Y-8650000D02*
X18550000Y-8750000D01*
X18635356Y-8735356D02*
X18635356Y-8664644D01*
X18564644Y-8664644D01*
X18564644Y-8735356D01*
X18635356Y-8735356D01*
X18550000Y-8904000D02*
X18650000Y-9004000D01*
X18650000Y-8904000D02*
X18550000Y-9004000D01*
X18635356Y-8989356D02*
X18635356Y-8918644D01*
X18564644Y-8918644D01*
X18564644Y-8989356D01*
X18635356Y-8989356D01*
X18550000Y-9158000D02*
X18650000Y-9258000D01*
X18650000Y-9158000D02*
X18550000Y-9258000D01*
X18635356Y-9243356D02*
X18635356Y-9172644D01*
X18564644Y-9172644D01*
X18564644Y-9243356D01*
X18635356Y-9243356D01*
X18550000Y-9412000D02*
X18650000Y-9512000D01*
X18650000Y-9412000D02*
X18550000Y-9512000D01*
X18635356Y-9497356D02*
X18635356Y-9426644D01*
X18564644Y-9426644D01*
X18564644Y-9497356D01*
X18635356Y-9497356D01*
X18550000Y-9666000D02*
X18650000Y-9766000D01*
X18650000Y-9666000D02*
X18550000Y-9766000D01*
X18635356Y-9751356D02*
X18635356Y-9680644D01*
X18564644Y-9680644D01*
X18564644Y-9751356D01*
X18635356Y-9751356D01*
X18550000Y-10850000D02*
X18650000Y-10950000D01*
X18650000Y-10850000D02*
X18550000Y-10950000D01*
X18635356Y-10935356D02*
X18635356Y-10864644D01*
X18564644Y-10864644D01*
X18564644Y-10935356D01*
X18635356Y-10935356D01*
X18550000Y-11104000D02*
X18650000Y-11204000D01*
X18650000Y-11104000D02*
X18550000Y-11204000D01*
X18635356Y-11189356D02*
X18635356Y-11118644D01*
X18564644Y-11118644D01*
X18564644Y-11189356D01*
X18635356Y-11189356D01*
X18550000Y-11358000D02*
X18650000Y-11458000D01*
X18650000Y-11358000D02*
X18550000Y-11458000D01*
X18635356Y-11443356D02*
X18635356Y-11372644D01*
X18564644Y-11372644D01*
X18564644Y-11443356D01*
X18635356Y-11443356D01*
X18550000Y-11612000D02*
X18650000Y-11712000D01*
X18650000Y-11612000D02*
X18550000Y-11712000D01*
X18635356Y-11697356D02*
X18635356Y-11626644D01*
X18564644Y-11626644D01*
X18564644Y-11697356D01*
X18635356Y-11697356D01*
X18550000Y-11866000D02*
X18650000Y-11966000D01*
X18650000Y-11866000D02*
X18550000Y-11966000D01*
X18635356Y-11951356D02*
X18635356Y-11880644D01*
X18564644Y-11880644D01*
X18564644Y-11951356D01*
X18635356Y-11951356D01*
X18775000Y-6788000D02*
X18875000Y-6888000D01*
X18875000Y-6788000D02*
X18775000Y-6888000D01*
X18860356Y-6873356D02*
X18860356Y-6802644D01*
X18789644Y-6802644D01*
X18789644Y-6873356D01*
X18860356Y-6873356D01*
X18775000Y-7042000D02*
X18875000Y-7142000D01*
X18875000Y-7042000D02*
X18775000Y-7142000D01*
X18860356Y-7127356D02*
X18860356Y-7056644D01*
X18789644Y-7056644D01*
X18789644Y-7127356D01*
X18860356Y-7127356D01*
X18775000Y-7296000D02*
X18875000Y-7396000D01*
X18875000Y-7296000D02*
X18775000Y-7396000D01*
X18860356Y-7381356D02*
X18860356Y-7310644D01*
X18789644Y-7310644D01*
X18789644Y-7381356D01*
X18860356Y-7381356D01*
X18775000Y-7550000D02*
X18875000Y-7650000D01*
X18875000Y-7550000D02*
X18775000Y-7650000D01*
X18860356Y-7635356D02*
X18860356Y-7564644D01*
X18789644Y-7564644D01*
X18789644Y-7635356D01*
X18860356Y-7635356D01*
X18775000Y-7804000D02*
X18875000Y-7904000D01*
X18875000Y-7804000D02*
X18775000Y-7904000D01*
X18860356Y-7889356D02*
X18860356Y-7818644D01*
X18789644Y-7818644D01*
X18789644Y-7889356D01*
X18860356Y-7889356D01*
X18804000Y-8650000D02*
X18904000Y-8750000D01*
X18904000Y-8650000D02*
X18804000Y-8750000D01*
X18889356Y-8735356D02*
X18889356Y-8664644D01*
X18818644Y-8664644D01*
X18818644Y-8735356D01*
X18889356Y-8735356D01*
X18804000Y-8904000D02*
X18904000Y-9004000D01*
X18904000Y-8904000D02*
X18804000Y-9004000D01*
X18889356Y-8989356D02*
X18889356Y-8918644D01*
X18818644Y-8918644D01*
X18818644Y-8989356D01*
X18889356Y-8989356D01*
X18804000Y-9158000D02*
X18904000Y-9258000D01*
X18904000Y-9158000D02*
X18804000Y-9258000D01*
X18889356Y-9243356D02*
X18889356Y-9172644D01*
X18818644Y-9172644D01*
X18818644Y-9243356D01*
X18889356Y-9243356D01*
X18804000Y-9412000D02*
X18904000Y-9512000D01*
X18904000Y-9412000D02*
X18804000Y-9512000D01*
X18889356Y-9497356D02*
X18889356Y-9426644D01*
X18818644Y-9426644D01*
X18818644Y-9497356D01*
X18889356Y-9497356D01*
X18804000Y-9666000D02*
X18904000Y-9766000D01*
X18904000Y-9666000D02*
X18804000Y-9766000D01*
X18889356Y-9751356D02*
X18889356Y-9680644D01*
X18818644Y-9680644D01*
X18818644Y-9751356D01*
X18889356Y-9751356D01*
X18804000Y-10850000D02*
X18904000Y-10950000D01*
X18904000Y-10850000D02*
X18804000Y-10950000D01*
X18889356Y-10935356D02*
X18889356Y-10864644D01*
X18818644Y-10864644D01*
X18818644Y-10935356D01*
X18889356Y-10935356D01*
X18804000Y-11104000D02*
X18904000Y-11204000D01*
X18904000Y-11104000D02*
X18804000Y-11204000D01*
X18889356Y-11189356D02*
X18889356Y-11118644D01*
X18818644Y-11118644D01*
X18818644Y-11189356D01*
X18889356Y-11189356D01*
X18804000Y-11358000D02*
X18904000Y-11458000D01*
X18904000Y-11358000D02*
X18804000Y-11458000D01*
X18889356Y-11443356D02*
X18889356Y-11372644D01*
X18818644Y-11372644D01*
X18818644Y-11443356D01*
X18889356Y-11443356D01*
X18804000Y-11612000D02*
X18904000Y-11712000D01*
X18904000Y-11612000D02*
X18804000Y-11712000D01*
X18889356Y-11697356D02*
X18889356Y-11626644D01*
X18818644Y-11626644D01*
X18818644Y-11697356D01*
X18889356Y-11697356D01*
X18804000Y-11866000D02*
X18904000Y-11966000D01*
X18904000Y-11866000D02*
X18804000Y-11966000D01*
X18889356Y-11951356D02*
X18889356Y-11880644D01*
X18818644Y-11880644D01*
X18818644Y-11951356D01*
X18889356Y-11951356D01*
X19150000Y-6788000D02*
X19250000Y-6888000D01*
X19250000Y-6788000D02*
X19150000Y-6888000D01*
X19235356Y-6873356D02*
X19235356Y-6802644D01*
X19164644Y-6802644D01*
X19164644Y-6873356D01*
X19235356Y-6873356D01*
X19150000Y-7042000D02*
X19250000Y-7142000D01*
X19250000Y-7042000D02*
X19150000Y-7142000D01*
X19235356Y-7127356D02*
X19235356Y-7056644D01*
X19164644Y-7056644D01*
X19164644Y-7127356D01*
X19235356Y-7127356D01*
X19150000Y-7296000D02*
X19250000Y-7396000D01*
X19250000Y-7296000D02*
X19150000Y-7396000D01*
X19235356Y-7381356D02*
X19235356Y-7310644D01*
X19164644Y-7310644D01*
X19164644Y-7381356D01*
X19235356Y-7381356D01*
X19150000Y-7550000D02*
X19250000Y-7650000D01*
X19250000Y-7550000D02*
X19150000Y-7650000D01*
X19235356Y-7635356D02*
X19235356Y-7564644D01*
X19164644Y-7564644D01*
X19164644Y-7635356D01*
X19235356Y-7635356D01*
X19150000Y-7804000D02*
X19250000Y-7904000D01*
X19250000Y-7804000D02*
X19150000Y-7904000D01*
X19235356Y-7889356D02*
X19235356Y-7818644D01*
X19164644Y-7818644D01*
X19164644Y-7889356D01*
X19235356Y-7889356D01*
D12*
X15724000Y-6210000D02*
X15959000Y-6445000D01*
X15959000Y-6210000D02*
X15724000Y-6445000D01*
X15841500Y-6445000D02*
X15959000Y-6327500D01*
X15841500Y-6210000D01*
X15724000Y-6327500D01*
X15841500Y-6445000D01*
X16639000Y-6210000D02*
X16874000Y-6445000D01*
X16874000Y-6210000D02*
X16639000Y-6445000D01*
X16756500Y-6445000D02*
X16874000Y-6327500D01*
X16756500Y-6210000D01*
X16639000Y-6327500D01*
X16756500Y-6445000D01*
D11*
X10662277Y-13143984D02*
X10662277Y-12943984D01*
X10662277Y-12943984D02*
X10709896Y-12943984D01*
X10709896Y-12943984D02*
X10738467Y-12953508D01*
X10738467Y-12953508D02*
X10757515Y-12972555D01*
X10757515Y-12972555D02*
X10767039Y-12991603D01*
X10767039Y-12991603D02*
X10776563Y-13029698D01*
X10776563Y-13029698D02*
X10776563Y-13058269D01*
X10776563Y-13058269D02*
X10767039Y-13096365D01*
X10767039Y-13096365D02*
X10757515Y-13115412D01*
X10757515Y-13115412D02*
X10738467Y-13134460D01*
X10738467Y-13134460D02*
X10709896Y-13143984D01*
X10709896Y-13143984D02*
X10662277Y-13143984D01*
X10862277Y-13143984D02*
X10862277Y-13010650D01*
X10862277Y-13048746D02*
X10871801Y-13029698D01*
X10871801Y-13029698D02*
X10881324Y-13020174D01*
X10881324Y-13020174D02*
X10900372Y-13010650D01*
X10900372Y-13010650D02*
X10919420Y-13010650D01*
X10986086Y-13143984D02*
X10986086Y-13010650D01*
X10986086Y-12943984D02*
X10976563Y-12953508D01*
X10976563Y-12953508D02*
X10986086Y-12963031D01*
X10986086Y-12963031D02*
X10995610Y-12953508D01*
X10995610Y-12953508D02*
X10986086Y-12943984D01*
X10986086Y-12943984D02*
X10986086Y-12963031D01*
X11109896Y-13143984D02*
X11090848Y-13134460D01*
X11090848Y-13134460D02*
X11081324Y-13115412D01*
X11081324Y-13115412D02*
X11081324Y-12943984D01*
X11214658Y-13143984D02*
X11195610Y-13134460D01*
X11195610Y-13134460D02*
X11186086Y-13115412D01*
X11186086Y-13115412D02*
X11186086Y-12943984D01*
X11443229Y-13143984D02*
X11443229Y-12943984D01*
X11443229Y-12943984D02*
X11509896Y-13086841D01*
X11509896Y-13086841D02*
X11576562Y-12943984D01*
X11576562Y-12943984D02*
X11576562Y-13143984D01*
X11757515Y-13143984D02*
X11757515Y-13039222D01*
X11757515Y-13039222D02*
X11747991Y-13020174D01*
X11747991Y-13020174D02*
X11728943Y-13010650D01*
X11728943Y-13010650D02*
X11690848Y-13010650D01*
X11690848Y-13010650D02*
X11671801Y-13020174D01*
X11757515Y-13134460D02*
X11738467Y-13143984D01*
X11738467Y-13143984D02*
X11690848Y-13143984D01*
X11690848Y-13143984D02*
X11671801Y-13134460D01*
X11671801Y-13134460D02*
X11662277Y-13115412D01*
X11662277Y-13115412D02*
X11662277Y-13096365D01*
X11662277Y-13096365D02*
X11671801Y-13077317D01*
X11671801Y-13077317D02*
X11690848Y-13067793D01*
X11690848Y-13067793D02*
X11738467Y-13067793D01*
X11738467Y-13067793D02*
X11757515Y-13058269D01*
X11852753Y-13010650D02*
X11852753Y-13210650D01*
X11852753Y-13020174D02*
X11871801Y-13010650D01*
X11871801Y-13010650D02*
X11909896Y-13010650D01*
X11909896Y-13010650D02*
X11928943Y-13020174D01*
X11928943Y-13020174D02*
X11938467Y-13029698D01*
X11938467Y-13029698D02*
X11947991Y-13048746D01*
X11947991Y-13048746D02*
X11947991Y-13105888D01*
X11947991Y-13105888D02*
X11938467Y-13124936D01*
X11938467Y-13124936D02*
X11928943Y-13134460D01*
X11928943Y-13134460D02*
X11909896Y-13143984D01*
X11909896Y-13143984D02*
X11871801Y-13143984D01*
X11871801Y-13143984D02*
X11852753Y-13134460D01*
X12033705Y-13124936D02*
X12043229Y-13134460D01*
X12043229Y-13134460D02*
X12033705Y-13143984D01*
X12033705Y-13143984D02*
X12024182Y-13134460D01*
X12024182Y-13134460D02*
X12033705Y-13124936D01*
X12033705Y-13124936D02*
X12033705Y-13143984D01*
X12033705Y-13020174D02*
X12043229Y-13029698D01*
X12043229Y-13029698D02*
X12033705Y-13039222D01*
X12033705Y-13039222D02*
X12024182Y-13029698D01*
X12024182Y-13029698D02*
X12033705Y-13020174D01*
X12033705Y-13020174D02*
X12033705Y-13039222D01*
D10*
X10361500Y-13452500D02*
X10401500Y-13492500D01*
X10401500Y-13452500D02*
X10361500Y-13492500D01*
D11*
X10700372Y-13363984D02*
X10719420Y-13363984D01*
X10719420Y-13363984D02*
X10738467Y-13373508D01*
X10738467Y-13373508D02*
X10747991Y-13383031D01*
X10747991Y-13383031D02*
X10757515Y-13402079D01*
X10757515Y-13402079D02*
X10767039Y-13440174D01*
X10767039Y-13440174D02*
X10767039Y-13487793D01*
X10767039Y-13487793D02*
X10757515Y-13525888D01*
X10757515Y-13525888D02*
X10747991Y-13544936D01*
X10747991Y-13544936D02*
X10738467Y-13554460D01*
X10738467Y-13554460D02*
X10719420Y-13563984D01*
X10719420Y-13563984D02*
X10700372Y-13563984D01*
X10700372Y-13563984D02*
X10681324Y-13554460D01*
X10681324Y-13554460D02*
X10671801Y-13544936D01*
X10671801Y-13544936D02*
X10662277Y-13525888D01*
X10662277Y-13525888D02*
X10652753Y-13487793D01*
X10652753Y-13487793D02*
X10652753Y-13440174D01*
X10652753Y-13440174D02*
X10662277Y-13402079D01*
X10662277Y-13402079D02*
X10671801Y-13383031D01*
X10671801Y-13383031D02*
X10681324Y-13373508D01*
X10681324Y-13373508D02*
X10700372Y-13363984D01*
X10852753Y-13544936D02*
X10862277Y-13554460D01*
X10862277Y-13554460D02*
X10852753Y-13563984D01*
X10852753Y-13563984D02*
X10843229Y-13554460D01*
X10843229Y-13554460D02*
X10852753Y-13544936D01*
X10852753Y-13544936D02*
X10852753Y-13563984D01*
X11033705Y-13430650D02*
X11033705Y-13563984D01*
X10986086Y-13354460D02*
X10938467Y-13497317D01*
X10938467Y-13497317D02*
X11062277Y-13497317D01*
X11176563Y-13363984D02*
X11195610Y-13363984D01*
X11195610Y-13363984D02*
X11214658Y-13373508D01*
X11214658Y-13373508D02*
X11224182Y-13383031D01*
X11224182Y-13383031D02*
X11233705Y-13402079D01*
X11233705Y-13402079D02*
X11243229Y-13440174D01*
X11243229Y-13440174D02*
X11243229Y-13487793D01*
X11243229Y-13487793D02*
X11233705Y-13525888D01*
X11233705Y-13525888D02*
X11224182Y-13544936D01*
X11224182Y-13544936D02*
X11214658Y-13554460D01*
X11214658Y-13554460D02*
X11195610Y-13563984D01*
X11195610Y-13563984D02*
X11176563Y-13563984D01*
X11176563Y-13563984D02*
X11157515Y-13554460D01*
X11157515Y-13554460D02*
X11147991Y-13544936D01*
X11147991Y-13544936D02*
X11138467Y-13525888D01*
X11138467Y-13525888D02*
X11128944Y-13487793D01*
X11128944Y-13487793D02*
X11128944Y-13440174D01*
X11128944Y-13440174D02*
X11138467Y-13402079D01*
X11138467Y-13402079D02*
X11147991Y-13383031D01*
X11147991Y-13383031D02*
X11157515Y-13373508D01*
X11157515Y-13373508D02*
X11176563Y-13363984D01*
X11367039Y-13363984D02*
X11386086Y-13363984D01*
X11386086Y-13363984D02*
X11405134Y-13373508D01*
X11405134Y-13373508D02*
X11414658Y-13383031D01*
X11414658Y-13383031D02*
X11424182Y-13402079D01*
X11424182Y-13402079D02*
X11433705Y-13440174D01*
X11433705Y-13440174D02*
X11433705Y-13487793D01*
X11433705Y-13487793D02*
X11424182Y-13525888D01*
X11424182Y-13525888D02*
X11414658Y-13544936D01*
X11414658Y-13544936D02*
X11405134Y-13554460D01*
X11405134Y-13554460D02*
X11386086Y-13563984D01*
X11386086Y-13563984D02*
X11367039Y-13563984D01*
X11367039Y-13563984D02*
X11347991Y-13554460D01*
X11347991Y-13554460D02*
X11338467Y-13544936D01*
X11338467Y-13544936D02*
X11328943Y-13525888D01*
X11328943Y-13525888D02*
X11319420Y-13487793D01*
X11319420Y-13487793D02*
X11319420Y-13440174D01*
X11319420Y-13440174D02*
X11328943Y-13402079D01*
X11328943Y-13402079D02*
X11338467Y-13383031D01*
X11338467Y-13383031D02*
X11347991Y-13373508D01*
X11347991Y-13373508D02*
X11367039Y-13363984D01*
X11519420Y-13563984D02*
X11519420Y-13430650D01*
X11519420Y-13449698D02*
X11528943Y-13440174D01*
X11528943Y-13440174D02*
X11547991Y-13430650D01*
X11547991Y-13430650D02*
X11576563Y-13430650D01*
X11576563Y-13430650D02*
X11595610Y-13440174D01*
X11595610Y-13440174D02*
X11605134Y-13459222D01*
X11605134Y-13459222D02*
X11605134Y-13563984D01*
X11605134Y-13459222D02*
X11614658Y-13440174D01*
X11614658Y-13440174D02*
X11633705Y-13430650D01*
X11633705Y-13430650D02*
X11662277Y-13430650D01*
X11662277Y-13430650D02*
X11681324Y-13440174D01*
X11681324Y-13440174D02*
X11690848Y-13459222D01*
X11690848Y-13459222D02*
X11690848Y-13563984D01*
X11786086Y-13563984D02*
X11786086Y-13430650D01*
X11786086Y-13449698D02*
X11795610Y-13440174D01*
X11795610Y-13440174D02*
X11814658Y-13430650D01*
X11814658Y-13430650D02*
X11843229Y-13430650D01*
X11843229Y-13430650D02*
X11862277Y-13440174D01*
X11862277Y-13440174D02*
X11871801Y-13459222D01*
X11871801Y-13459222D02*
X11871801Y-13563984D01*
X11871801Y-13459222D02*
X11881324Y-13440174D01*
X11881324Y-13440174D02*
X11900372Y-13430650D01*
X11900372Y-13430650D02*
X11928943Y-13430650D01*
X11928943Y-13430650D02*
X11947991Y-13440174D01*
X11947991Y-13440174D02*
X11957515Y-13459222D01*
X11957515Y-13459222D02*
X11957515Y-13563984D01*
X12347991Y-13354460D02*
X12176563Y-13611603D01*
X12605134Y-13363984D02*
X12624182Y-13363984D01*
X12624182Y-13363984D02*
X12643229Y-13373508D01*
X12643229Y-13373508D02*
X12652753Y-13383031D01*
X12652753Y-13383031D02*
X12662277Y-13402079D01*
X12662277Y-13402079D02*
X12671801Y-13440174D01*
X12671801Y-13440174D02*
X12671801Y-13487793D01*
X12671801Y-13487793D02*
X12662277Y-13525888D01*
X12662277Y-13525888D02*
X12652753Y-13544936D01*
X12652753Y-13544936D02*
X12643229Y-13554460D01*
X12643229Y-13554460D02*
X12624182Y-13563984D01*
X12624182Y-13563984D02*
X12605134Y-13563984D01*
X12605134Y-13563984D02*
X12586086Y-13554460D01*
X12586086Y-13554460D02*
X12576563Y-13544936D01*
X12576563Y-13544936D02*
X12567039Y-13525888D01*
X12567039Y-13525888D02*
X12557515Y-13487793D01*
X12557515Y-13487793D02*
X12557515Y-13440174D01*
X12557515Y-13440174D02*
X12567039Y-13402079D01*
X12567039Y-13402079D02*
X12576563Y-13383031D01*
X12576563Y-13383031D02*
X12586086Y-13373508D01*
X12586086Y-13373508D02*
X12605134Y-13363984D01*
X12757515Y-13544936D02*
X12767039Y-13554460D01*
X12767039Y-13554460D02*
X12757515Y-13563984D01*
X12757515Y-13563984D02*
X12747991Y-13554460D01*
X12747991Y-13554460D02*
X12757515Y-13544936D01*
X12757515Y-13544936D02*
X12757515Y-13563984D01*
X12890848Y-13363984D02*
X12909896Y-13363984D01*
X12909896Y-13363984D02*
X12928944Y-13373508D01*
X12928944Y-13373508D02*
X12938467Y-13383031D01*
X12938467Y-13383031D02*
X12947991Y-13402079D01*
X12947991Y-13402079D02*
X12957515Y-13440174D01*
X12957515Y-13440174D02*
X12957515Y-13487793D01*
X12957515Y-13487793D02*
X12947991Y-13525888D01*
X12947991Y-13525888D02*
X12938467Y-13544936D01*
X12938467Y-13544936D02*
X12928944Y-13554460D01*
X12928944Y-13554460D02*
X12909896Y-13563984D01*
X12909896Y-13563984D02*
X12890848Y-13563984D01*
X12890848Y-13563984D02*
X12871801Y-13554460D01*
X12871801Y-13554460D02*
X12862277Y-13544936D01*
X12862277Y-13544936D02*
X12852753Y-13525888D01*
X12852753Y-13525888D02*
X12843229Y-13487793D01*
X12843229Y-13487793D02*
X12843229Y-13440174D01*
X12843229Y-13440174D02*
X12852753Y-13402079D01*
X12852753Y-13402079D02*
X12862277Y-13383031D01*
X12862277Y-13383031D02*
X12871801Y-13373508D01*
X12871801Y-13373508D02*
X12890848Y-13363984D01*
X13147991Y-13563984D02*
X13033706Y-13563984D01*
X13090848Y-13563984D02*
X13090848Y-13363984D01*
X13090848Y-13363984D02*
X13071801Y-13392555D01*
X13071801Y-13392555D02*
X13052753Y-13411603D01*
X13052753Y-13411603D02*
X13033706Y-13421127D01*
X13328944Y-13363984D02*
X13233706Y-13363984D01*
X13233706Y-13363984D02*
X13224182Y-13459222D01*
X13224182Y-13459222D02*
X13233706Y-13449698D01*
X13233706Y-13449698D02*
X13252753Y-13440174D01*
X13252753Y-13440174D02*
X13300372Y-13440174D01*
X13300372Y-13440174D02*
X13319420Y-13449698D01*
X13319420Y-13449698D02*
X13328944Y-13459222D01*
X13328944Y-13459222D02*
X13338467Y-13478269D01*
X13338467Y-13478269D02*
X13338467Y-13525888D01*
X13338467Y-13525888D02*
X13328944Y-13544936D01*
X13328944Y-13544936D02*
X13319420Y-13554460D01*
X13319420Y-13554460D02*
X13300372Y-13563984D01*
X13300372Y-13563984D02*
X13252753Y-13563984D01*
X13252753Y-13563984D02*
X13233706Y-13554460D01*
X13233706Y-13554460D02*
X13224182Y-13544936D01*
X13405134Y-13363984D02*
X13538467Y-13363984D01*
X13538467Y-13363984D02*
X13452753Y-13563984D01*
X13605134Y-13363984D02*
X13605134Y-13402079D01*
X13681325Y-13363984D02*
X13681325Y-13402079D01*
X13976563Y-13640174D02*
X13967039Y-13630650D01*
X13967039Y-13630650D02*
X13947991Y-13602079D01*
X13947991Y-13602079D02*
X13938468Y-13583031D01*
X13938468Y-13583031D02*
X13928944Y-13554460D01*
X13928944Y-13554460D02*
X13919420Y-13506841D01*
X13919420Y-13506841D02*
X13919420Y-13468746D01*
X13919420Y-13468746D02*
X13928944Y-13421127D01*
X13928944Y-13421127D02*
X13938468Y-13392555D01*
X13938468Y-13392555D02*
X13947991Y-13373508D01*
X13947991Y-13373508D02*
X13967039Y-13344936D01*
X13967039Y-13344936D02*
X13976563Y-13335412D01*
X14157515Y-13563984D02*
X14043229Y-13563984D01*
X14100372Y-13563984D02*
X14100372Y-13363984D01*
X14100372Y-13363984D02*
X14081325Y-13392555D01*
X14081325Y-13392555D02*
X14062277Y-13411603D01*
X14062277Y-13411603D02*
X14043229Y-13421127D01*
X14347991Y-13563984D02*
X14233706Y-13563984D01*
X14290848Y-13563984D02*
X14290848Y-13363984D01*
X14290848Y-13363984D02*
X14271801Y-13392555D01*
X14271801Y-13392555D02*
X14252753Y-13411603D01*
X14252753Y-13411603D02*
X14233706Y-13421127D01*
X14471801Y-13363984D02*
X14490849Y-13363984D01*
X14490849Y-13363984D02*
X14509896Y-13373508D01*
X14509896Y-13373508D02*
X14519420Y-13383031D01*
X14519420Y-13383031D02*
X14528944Y-13402079D01*
X14528944Y-13402079D02*
X14538468Y-13440174D01*
X14538468Y-13440174D02*
X14538468Y-13487793D01*
X14538468Y-13487793D02*
X14528944Y-13525888D01*
X14528944Y-13525888D02*
X14519420Y-13544936D01*
X14519420Y-13544936D02*
X14509896Y-13554460D01*
X14509896Y-13554460D02*
X14490849Y-13563984D01*
X14490849Y-13563984D02*
X14471801Y-13563984D01*
X14471801Y-13563984D02*
X14452753Y-13554460D01*
X14452753Y-13554460D02*
X14443229Y-13544936D01*
X14443229Y-13544936D02*
X14433706Y-13525888D01*
X14433706Y-13525888D02*
X14424182Y-13487793D01*
X14424182Y-13487793D02*
X14424182Y-13440174D01*
X14424182Y-13440174D02*
X14433706Y-13402079D01*
X14433706Y-13402079D02*
X14443229Y-13383031D01*
X14443229Y-13383031D02*
X14452753Y-13373508D01*
X14452753Y-13373508D02*
X14471801Y-13363984D01*
X14776563Y-13563984D02*
X14776563Y-13363984D01*
X14862277Y-13563984D02*
X14862277Y-13459222D01*
X14862277Y-13459222D02*
X14852753Y-13440174D01*
X14852753Y-13440174D02*
X14833706Y-13430650D01*
X14833706Y-13430650D02*
X14805134Y-13430650D01*
X14805134Y-13430650D02*
X14786087Y-13440174D01*
X14786087Y-13440174D02*
X14776563Y-13449698D01*
X14986087Y-13563984D02*
X14967039Y-13554460D01*
X14967039Y-13554460D02*
X14957515Y-13544936D01*
X14957515Y-13544936D02*
X14947991Y-13525888D01*
X14947991Y-13525888D02*
X14947991Y-13468746D01*
X14947991Y-13468746D02*
X14957515Y-13449698D01*
X14957515Y-13449698D02*
X14967039Y-13440174D01*
X14967039Y-13440174D02*
X14986087Y-13430650D01*
X14986087Y-13430650D02*
X15014658Y-13430650D01*
X15014658Y-13430650D02*
X15033706Y-13440174D01*
X15033706Y-13440174D02*
X15043230Y-13449698D01*
X15043230Y-13449698D02*
X15052753Y-13468746D01*
X15052753Y-13468746D02*
X15052753Y-13525888D01*
X15052753Y-13525888D02*
X15043230Y-13544936D01*
X15043230Y-13544936D02*
X15033706Y-13554460D01*
X15033706Y-13554460D02*
X15014658Y-13563984D01*
X15014658Y-13563984D02*
X14986087Y-13563984D01*
X15167039Y-13563984D02*
X15147991Y-13554460D01*
X15147991Y-13554460D02*
X15138468Y-13535412D01*
X15138468Y-13535412D02*
X15138468Y-13363984D01*
X15319420Y-13554460D02*
X15300372Y-13563984D01*
X15300372Y-13563984D02*
X15262277Y-13563984D01*
X15262277Y-13563984D02*
X15243230Y-13554460D01*
X15243230Y-13554460D02*
X15233706Y-13535412D01*
X15233706Y-13535412D02*
X15233706Y-13459222D01*
X15233706Y-13459222D02*
X15243230Y-13440174D01*
X15243230Y-13440174D02*
X15262277Y-13430650D01*
X15262277Y-13430650D02*
X15300372Y-13430650D01*
X15300372Y-13430650D02*
X15319420Y-13440174D01*
X15319420Y-13440174D02*
X15328944Y-13459222D01*
X15328944Y-13459222D02*
X15328944Y-13478269D01*
X15328944Y-13478269D02*
X15233706Y-13497317D01*
X15405134Y-13554460D02*
X15424182Y-13563984D01*
X15424182Y-13563984D02*
X15462277Y-13563984D01*
X15462277Y-13563984D02*
X15481325Y-13554460D01*
X15481325Y-13554460D02*
X15490849Y-13535412D01*
X15490849Y-13535412D02*
X15490849Y-13525888D01*
X15490849Y-13525888D02*
X15481325Y-13506841D01*
X15481325Y-13506841D02*
X15462277Y-13497317D01*
X15462277Y-13497317D02*
X15433706Y-13497317D01*
X15433706Y-13497317D02*
X15414658Y-13487793D01*
X15414658Y-13487793D02*
X15405134Y-13468746D01*
X15405134Y-13468746D02*
X15405134Y-13459222D01*
X15405134Y-13459222D02*
X15414658Y-13440174D01*
X15414658Y-13440174D02*
X15433706Y-13430650D01*
X15433706Y-13430650D02*
X15462277Y-13430650D01*
X15462277Y-13430650D02*
X15481325Y-13440174D01*
X15557515Y-13640174D02*
X15567039Y-13630650D01*
X15567039Y-13630650D02*
X15586087Y-13602079D01*
X15586087Y-13602079D02*
X15595611Y-13583031D01*
X15595611Y-13583031D02*
X15605134Y-13554460D01*
X15605134Y-13554460D02*
X15614658Y-13506841D01*
X15614658Y-13506841D02*
X15614658Y-13468746D01*
X15614658Y-13468746D02*
X15605134Y-13421127D01*
X15605134Y-13421127D02*
X15595611Y-13392555D01*
X15595611Y-13392555D02*
X15586087Y-13373508D01*
X15586087Y-13373508D02*
X15567039Y-13344936D01*
X15567039Y-13344936D02*
X15557515Y-13335412D01*
D10*
X10401500Y-13736500D02*
G75*
G03*
X10346500Y-13736500I-27500J0D01*
G01*
X10346500Y-13736500D02*
G75*
G03*
X10401500Y-13736500I27500J0D01*
G01*
D11*
X10700372Y-13627984D02*
X10719420Y-13627984D01*
X10719420Y-13627984D02*
X10738467Y-13637508D01*
X10738467Y-13637508D02*
X10747991Y-13647031D01*
X10747991Y-13647031D02*
X10757515Y-13666079D01*
X10757515Y-13666079D02*
X10767039Y-13704174D01*
X10767039Y-13704174D02*
X10767039Y-13751793D01*
X10767039Y-13751793D02*
X10757515Y-13789888D01*
X10757515Y-13789888D02*
X10747991Y-13808936D01*
X10747991Y-13808936D02*
X10738467Y-13818460D01*
X10738467Y-13818460D02*
X10719420Y-13827984D01*
X10719420Y-13827984D02*
X10700372Y-13827984D01*
X10700372Y-13827984D02*
X10681324Y-13818460D01*
X10681324Y-13818460D02*
X10671801Y-13808936D01*
X10671801Y-13808936D02*
X10662277Y-13789888D01*
X10662277Y-13789888D02*
X10652753Y-13751793D01*
X10652753Y-13751793D02*
X10652753Y-13704174D01*
X10652753Y-13704174D02*
X10662277Y-13666079D01*
X10662277Y-13666079D02*
X10671801Y-13647031D01*
X10671801Y-13647031D02*
X10681324Y-13637508D01*
X10681324Y-13637508D02*
X10700372Y-13627984D01*
X10852753Y-13808936D02*
X10862277Y-13818460D01*
X10862277Y-13818460D02*
X10852753Y-13827984D01*
X10852753Y-13827984D02*
X10843229Y-13818460D01*
X10843229Y-13818460D02*
X10852753Y-13808936D01*
X10852753Y-13808936D02*
X10852753Y-13827984D01*
X11043229Y-13627984D02*
X10947991Y-13627984D01*
X10947991Y-13627984D02*
X10938467Y-13723222D01*
X10938467Y-13723222D02*
X10947991Y-13713698D01*
X10947991Y-13713698D02*
X10967039Y-13704174D01*
X10967039Y-13704174D02*
X11014658Y-13704174D01*
X11014658Y-13704174D02*
X11033705Y-13713698D01*
X11033705Y-13713698D02*
X11043229Y-13723222D01*
X11043229Y-13723222D02*
X11052753Y-13742269D01*
X11052753Y-13742269D02*
X11052753Y-13789888D01*
X11052753Y-13789888D02*
X11043229Y-13808936D01*
X11043229Y-13808936D02*
X11033705Y-13818460D01*
X11033705Y-13818460D02*
X11014658Y-13827984D01*
X11014658Y-13827984D02*
X10967039Y-13827984D01*
X10967039Y-13827984D02*
X10947991Y-13818460D01*
X10947991Y-13818460D02*
X10938467Y-13808936D01*
X11233705Y-13627984D02*
X11138467Y-13627984D01*
X11138467Y-13627984D02*
X11128944Y-13723222D01*
X11128944Y-13723222D02*
X11138467Y-13713698D01*
X11138467Y-13713698D02*
X11157515Y-13704174D01*
X11157515Y-13704174D02*
X11205134Y-13704174D01*
X11205134Y-13704174D02*
X11224182Y-13713698D01*
X11224182Y-13713698D02*
X11233705Y-13723222D01*
X11233705Y-13723222D02*
X11243229Y-13742269D01*
X11243229Y-13742269D02*
X11243229Y-13789888D01*
X11243229Y-13789888D02*
X11233705Y-13808936D01*
X11233705Y-13808936D02*
X11224182Y-13818460D01*
X11224182Y-13818460D02*
X11205134Y-13827984D01*
X11205134Y-13827984D02*
X11157515Y-13827984D01*
X11157515Y-13827984D02*
X11138467Y-13818460D01*
X11138467Y-13818460D02*
X11128944Y-13808936D01*
X11367039Y-13627984D02*
X11386086Y-13627984D01*
X11386086Y-13627984D02*
X11405134Y-13637508D01*
X11405134Y-13637508D02*
X11414658Y-13647031D01*
X11414658Y-13647031D02*
X11424182Y-13666079D01*
X11424182Y-13666079D02*
X11433705Y-13704174D01*
X11433705Y-13704174D02*
X11433705Y-13751793D01*
X11433705Y-13751793D02*
X11424182Y-13789888D01*
X11424182Y-13789888D02*
X11414658Y-13808936D01*
X11414658Y-13808936D02*
X11405134Y-13818460D01*
X11405134Y-13818460D02*
X11386086Y-13827984D01*
X11386086Y-13827984D02*
X11367039Y-13827984D01*
X11367039Y-13827984D02*
X11347991Y-13818460D01*
X11347991Y-13818460D02*
X11338467Y-13808936D01*
X11338467Y-13808936D02*
X11328943Y-13789888D01*
X11328943Y-13789888D02*
X11319420Y-13751793D01*
X11319420Y-13751793D02*
X11319420Y-13704174D01*
X11319420Y-13704174D02*
X11328943Y-13666079D01*
X11328943Y-13666079D02*
X11338467Y-13647031D01*
X11338467Y-13647031D02*
X11347991Y-13637508D01*
X11347991Y-13637508D02*
X11367039Y-13627984D01*
X11519420Y-13827984D02*
X11519420Y-13694650D01*
X11519420Y-13713698D02*
X11528943Y-13704174D01*
X11528943Y-13704174D02*
X11547991Y-13694650D01*
X11547991Y-13694650D02*
X11576563Y-13694650D01*
X11576563Y-13694650D02*
X11595610Y-13704174D01*
X11595610Y-13704174D02*
X11605134Y-13723222D01*
X11605134Y-13723222D02*
X11605134Y-13827984D01*
X11605134Y-13723222D02*
X11614658Y-13704174D01*
X11614658Y-13704174D02*
X11633705Y-13694650D01*
X11633705Y-13694650D02*
X11662277Y-13694650D01*
X11662277Y-13694650D02*
X11681324Y-13704174D01*
X11681324Y-13704174D02*
X11690848Y-13723222D01*
X11690848Y-13723222D02*
X11690848Y-13827984D01*
X11786086Y-13827984D02*
X11786086Y-13694650D01*
X11786086Y-13713698D02*
X11795610Y-13704174D01*
X11795610Y-13704174D02*
X11814658Y-13694650D01*
X11814658Y-13694650D02*
X11843229Y-13694650D01*
X11843229Y-13694650D02*
X11862277Y-13704174D01*
X11862277Y-13704174D02*
X11871801Y-13723222D01*
X11871801Y-13723222D02*
X11871801Y-13827984D01*
X11871801Y-13723222D02*
X11881324Y-13704174D01*
X11881324Y-13704174D02*
X11900372Y-13694650D01*
X11900372Y-13694650D02*
X11928943Y-13694650D01*
X11928943Y-13694650D02*
X11947991Y-13704174D01*
X11947991Y-13704174D02*
X11957515Y-13723222D01*
X11957515Y-13723222D02*
X11957515Y-13827984D01*
X12347991Y-13618460D02*
X12176563Y-13875603D01*
X12605134Y-13627984D02*
X12624182Y-13627984D01*
X12624182Y-13627984D02*
X12643229Y-13637508D01*
X12643229Y-13637508D02*
X12652753Y-13647031D01*
X12652753Y-13647031D02*
X12662277Y-13666079D01*
X12662277Y-13666079D02*
X12671801Y-13704174D01*
X12671801Y-13704174D02*
X12671801Y-13751793D01*
X12671801Y-13751793D02*
X12662277Y-13789888D01*
X12662277Y-13789888D02*
X12652753Y-13808936D01*
X12652753Y-13808936D02*
X12643229Y-13818460D01*
X12643229Y-13818460D02*
X12624182Y-13827984D01*
X12624182Y-13827984D02*
X12605134Y-13827984D01*
X12605134Y-13827984D02*
X12586086Y-13818460D01*
X12586086Y-13818460D02*
X12576563Y-13808936D01*
X12576563Y-13808936D02*
X12567039Y-13789888D01*
X12567039Y-13789888D02*
X12557515Y-13751793D01*
X12557515Y-13751793D02*
X12557515Y-13704174D01*
X12557515Y-13704174D02*
X12567039Y-13666079D01*
X12567039Y-13666079D02*
X12576563Y-13647031D01*
X12576563Y-13647031D02*
X12586086Y-13637508D01*
X12586086Y-13637508D02*
X12605134Y-13627984D01*
X12757515Y-13808936D02*
X12767039Y-13818460D01*
X12767039Y-13818460D02*
X12757515Y-13827984D01*
X12757515Y-13827984D02*
X12747991Y-13818460D01*
X12747991Y-13818460D02*
X12757515Y-13808936D01*
X12757515Y-13808936D02*
X12757515Y-13827984D01*
X12890848Y-13627984D02*
X12909896Y-13627984D01*
X12909896Y-13627984D02*
X12928944Y-13637508D01*
X12928944Y-13637508D02*
X12938467Y-13647031D01*
X12938467Y-13647031D02*
X12947991Y-13666079D01*
X12947991Y-13666079D02*
X12957515Y-13704174D01*
X12957515Y-13704174D02*
X12957515Y-13751793D01*
X12957515Y-13751793D02*
X12947991Y-13789888D01*
X12947991Y-13789888D02*
X12938467Y-13808936D01*
X12938467Y-13808936D02*
X12928944Y-13818460D01*
X12928944Y-13818460D02*
X12909896Y-13827984D01*
X12909896Y-13827984D02*
X12890848Y-13827984D01*
X12890848Y-13827984D02*
X12871801Y-13818460D01*
X12871801Y-13818460D02*
X12862277Y-13808936D01*
X12862277Y-13808936D02*
X12852753Y-13789888D01*
X12852753Y-13789888D02*
X12843229Y-13751793D01*
X12843229Y-13751793D02*
X12843229Y-13704174D01*
X12843229Y-13704174D02*
X12852753Y-13666079D01*
X12852753Y-13666079D02*
X12862277Y-13647031D01*
X12862277Y-13647031D02*
X12871801Y-13637508D01*
X12871801Y-13637508D02*
X12890848Y-13627984D01*
X13033706Y-13647031D02*
X13043229Y-13637508D01*
X13043229Y-13637508D02*
X13062277Y-13627984D01*
X13062277Y-13627984D02*
X13109896Y-13627984D01*
X13109896Y-13627984D02*
X13128944Y-13637508D01*
X13128944Y-13637508D02*
X13138467Y-13647031D01*
X13138467Y-13647031D02*
X13147991Y-13666079D01*
X13147991Y-13666079D02*
X13147991Y-13685127D01*
X13147991Y-13685127D02*
X13138467Y-13713698D01*
X13138467Y-13713698D02*
X13024182Y-13827984D01*
X13024182Y-13827984D02*
X13147991Y-13827984D01*
X13338467Y-13827984D02*
X13224182Y-13827984D01*
X13281325Y-13827984D02*
X13281325Y-13627984D01*
X13281325Y-13627984D02*
X13262277Y-13656555D01*
X13262277Y-13656555D02*
X13243229Y-13675603D01*
X13243229Y-13675603D02*
X13224182Y-13685127D01*
X13405134Y-13627984D02*
X13538467Y-13627984D01*
X13538467Y-13627984D02*
X13452753Y-13827984D01*
X13605134Y-13627984D02*
X13605134Y-13666079D01*
X13681325Y-13627984D02*
X13681325Y-13666079D01*
X13976563Y-13904174D02*
X13967039Y-13894650D01*
X13967039Y-13894650D02*
X13947991Y-13866079D01*
X13947991Y-13866079D02*
X13938468Y-13847031D01*
X13938468Y-13847031D02*
X13928944Y-13818460D01*
X13928944Y-13818460D02*
X13919420Y-13770841D01*
X13919420Y-13770841D02*
X13919420Y-13732746D01*
X13919420Y-13732746D02*
X13928944Y-13685127D01*
X13928944Y-13685127D02*
X13938468Y-13656555D01*
X13938468Y-13656555D02*
X13947991Y-13637508D01*
X13947991Y-13637508D02*
X13967039Y-13608936D01*
X13967039Y-13608936D02*
X13976563Y-13599412D01*
X14138468Y-13694650D02*
X14138468Y-13827984D01*
X14090848Y-13618460D02*
X14043229Y-13761317D01*
X14043229Y-13761317D02*
X14167039Y-13761317D01*
X14395610Y-13827984D02*
X14395610Y-13627984D01*
X14481325Y-13827984D02*
X14481325Y-13723222D01*
X14481325Y-13723222D02*
X14471801Y-13704174D01*
X14471801Y-13704174D02*
X14452753Y-13694650D01*
X14452753Y-13694650D02*
X14424182Y-13694650D01*
X14424182Y-13694650D02*
X14405134Y-13704174D01*
X14405134Y-13704174D02*
X14395610Y-13713698D01*
X14605134Y-13827984D02*
X14586087Y-13818460D01*
X14586087Y-13818460D02*
X14576563Y-13808936D01*
X14576563Y-13808936D02*
X14567039Y-13789888D01*
X14567039Y-13789888D02*
X14567039Y-13732746D01*
X14567039Y-13732746D02*
X14576563Y-13713698D01*
X14576563Y-13713698D02*
X14586087Y-13704174D01*
X14586087Y-13704174D02*
X14605134Y-13694650D01*
X14605134Y-13694650D02*
X14633706Y-13694650D01*
X14633706Y-13694650D02*
X14652753Y-13704174D01*
X14652753Y-13704174D02*
X14662277Y-13713698D01*
X14662277Y-13713698D02*
X14671801Y-13732746D01*
X14671801Y-13732746D02*
X14671801Y-13789888D01*
X14671801Y-13789888D02*
X14662277Y-13808936D01*
X14662277Y-13808936D02*
X14652753Y-13818460D01*
X14652753Y-13818460D02*
X14633706Y-13827984D01*
X14633706Y-13827984D02*
X14605134Y-13827984D01*
X14786087Y-13827984D02*
X14767039Y-13818460D01*
X14767039Y-13818460D02*
X14757515Y-13799412D01*
X14757515Y-13799412D02*
X14757515Y-13627984D01*
X14938468Y-13818460D02*
X14919420Y-13827984D01*
X14919420Y-13827984D02*
X14881325Y-13827984D01*
X14881325Y-13827984D02*
X14862277Y-13818460D01*
X14862277Y-13818460D02*
X14852753Y-13799412D01*
X14852753Y-13799412D02*
X14852753Y-13723222D01*
X14852753Y-13723222D02*
X14862277Y-13704174D01*
X14862277Y-13704174D02*
X14881325Y-13694650D01*
X14881325Y-13694650D02*
X14919420Y-13694650D01*
X14919420Y-13694650D02*
X14938468Y-13704174D01*
X14938468Y-13704174D02*
X14947991Y-13723222D01*
X14947991Y-13723222D02*
X14947991Y-13742269D01*
X14947991Y-13742269D02*
X14852753Y-13761317D01*
X15024182Y-13818460D02*
X15043230Y-13827984D01*
X15043230Y-13827984D02*
X15081325Y-13827984D01*
X15081325Y-13827984D02*
X15100372Y-13818460D01*
X15100372Y-13818460D02*
X15109896Y-13799412D01*
X15109896Y-13799412D02*
X15109896Y-13789888D01*
X15109896Y-13789888D02*
X15100372Y-13770841D01*
X15100372Y-13770841D02*
X15081325Y-13761317D01*
X15081325Y-13761317D02*
X15052753Y-13761317D01*
X15052753Y-13761317D02*
X15033706Y-13751793D01*
X15033706Y-13751793D02*
X15024182Y-13732746D01*
X15024182Y-13732746D02*
X15024182Y-13723222D01*
X15024182Y-13723222D02*
X15033706Y-13704174D01*
X15033706Y-13704174D02*
X15052753Y-13694650D01*
X15052753Y-13694650D02*
X15081325Y-13694650D01*
X15081325Y-13694650D02*
X15100372Y-13704174D01*
X15176563Y-13904174D02*
X15186087Y-13894650D01*
X15186087Y-13894650D02*
X15205134Y-13866079D01*
X15205134Y-13866079D02*
X15214658Y-13847031D01*
X15214658Y-13847031D02*
X15224182Y-13818460D01*
X15224182Y-13818460D02*
X15233706Y-13770841D01*
X15233706Y-13770841D02*
X15233706Y-13732746D01*
X15233706Y-13732746D02*
X15224182Y-13685127D01*
X15224182Y-13685127D02*
X15214658Y-13656555D01*
X15214658Y-13656555D02*
X15205134Y-13637508D01*
X15205134Y-13637508D02*
X15186087Y-13608936D01*
X15186087Y-13608936D02*
X15176563Y-13599412D01*
D10*
X10371500Y-13970500D02*
X10371500Y-14030500D01*
X10341500Y-14000500D02*
X10401500Y-14000500D01*
D11*
X10700372Y-13891984D02*
X10719420Y-13891984D01*
X10719420Y-13891984D02*
X10738467Y-13901508D01*
X10738467Y-13901508D02*
X10747991Y-13911031D01*
X10747991Y-13911031D02*
X10757515Y-13930079D01*
X10757515Y-13930079D02*
X10767039Y-13968174D01*
X10767039Y-13968174D02*
X10767039Y-14015793D01*
X10767039Y-14015793D02*
X10757515Y-14053888D01*
X10757515Y-14053888D02*
X10747991Y-14072936D01*
X10747991Y-14072936D02*
X10738467Y-14082460D01*
X10738467Y-14082460D02*
X10719420Y-14091984D01*
X10719420Y-14091984D02*
X10700372Y-14091984D01*
X10700372Y-14091984D02*
X10681324Y-14082460D01*
X10681324Y-14082460D02*
X10671801Y-14072936D01*
X10671801Y-14072936D02*
X10662277Y-14053888D01*
X10662277Y-14053888D02*
X10652753Y-14015793D01*
X10652753Y-14015793D02*
X10652753Y-13968174D01*
X10652753Y-13968174D02*
X10662277Y-13930079D01*
X10662277Y-13930079D02*
X10671801Y-13911031D01*
X10671801Y-13911031D02*
X10681324Y-13901508D01*
X10681324Y-13901508D02*
X10700372Y-13891984D01*
X10852753Y-14072936D02*
X10862277Y-14082460D01*
X10862277Y-14082460D02*
X10852753Y-14091984D01*
X10852753Y-14091984D02*
X10843229Y-14082460D01*
X10843229Y-14082460D02*
X10852753Y-14072936D01*
X10852753Y-14072936D02*
X10852753Y-14091984D01*
X11033705Y-13891984D02*
X10995610Y-13891984D01*
X10995610Y-13891984D02*
X10976563Y-13901508D01*
X10976563Y-13901508D02*
X10967039Y-13911031D01*
X10967039Y-13911031D02*
X10947991Y-13939603D01*
X10947991Y-13939603D02*
X10938467Y-13977698D01*
X10938467Y-13977698D02*
X10938467Y-14053888D01*
X10938467Y-14053888D02*
X10947991Y-14072936D01*
X10947991Y-14072936D02*
X10957515Y-14082460D01*
X10957515Y-14082460D02*
X10976563Y-14091984D01*
X10976563Y-14091984D02*
X11014658Y-14091984D01*
X11014658Y-14091984D02*
X11033705Y-14082460D01*
X11033705Y-14082460D02*
X11043229Y-14072936D01*
X11043229Y-14072936D02*
X11052753Y-14053888D01*
X11052753Y-14053888D02*
X11052753Y-14006269D01*
X11052753Y-14006269D02*
X11043229Y-13987222D01*
X11043229Y-13987222D02*
X11033705Y-13977698D01*
X11033705Y-13977698D02*
X11014658Y-13968174D01*
X11014658Y-13968174D02*
X10976563Y-13968174D01*
X10976563Y-13968174D02*
X10957515Y-13977698D01*
X10957515Y-13977698D02*
X10947991Y-13987222D01*
X10947991Y-13987222D02*
X10938467Y-14006269D01*
X11176563Y-13891984D02*
X11195610Y-13891984D01*
X11195610Y-13891984D02*
X11214658Y-13901508D01*
X11214658Y-13901508D02*
X11224182Y-13911031D01*
X11224182Y-13911031D02*
X11233705Y-13930079D01*
X11233705Y-13930079D02*
X11243229Y-13968174D01*
X11243229Y-13968174D02*
X11243229Y-14015793D01*
X11243229Y-14015793D02*
X11233705Y-14053888D01*
X11233705Y-14053888D02*
X11224182Y-14072936D01*
X11224182Y-14072936D02*
X11214658Y-14082460D01*
X11214658Y-14082460D02*
X11195610Y-14091984D01*
X11195610Y-14091984D02*
X11176563Y-14091984D01*
X11176563Y-14091984D02*
X11157515Y-14082460D01*
X11157515Y-14082460D02*
X11147991Y-14072936D01*
X11147991Y-14072936D02*
X11138467Y-14053888D01*
X11138467Y-14053888D02*
X11128944Y-14015793D01*
X11128944Y-14015793D02*
X11128944Y-13968174D01*
X11128944Y-13968174D02*
X11138467Y-13930079D01*
X11138467Y-13930079D02*
X11147991Y-13911031D01*
X11147991Y-13911031D02*
X11157515Y-13901508D01*
X11157515Y-13901508D02*
X11176563Y-13891984D01*
X11367039Y-13891984D02*
X11386086Y-13891984D01*
X11386086Y-13891984D02*
X11405134Y-13901508D01*
X11405134Y-13901508D02*
X11414658Y-13911031D01*
X11414658Y-13911031D02*
X11424182Y-13930079D01*
X11424182Y-13930079D02*
X11433705Y-13968174D01*
X11433705Y-13968174D02*
X11433705Y-14015793D01*
X11433705Y-14015793D02*
X11424182Y-14053888D01*
X11424182Y-14053888D02*
X11414658Y-14072936D01*
X11414658Y-14072936D02*
X11405134Y-14082460D01*
X11405134Y-14082460D02*
X11386086Y-14091984D01*
X11386086Y-14091984D02*
X11367039Y-14091984D01*
X11367039Y-14091984D02*
X11347991Y-14082460D01*
X11347991Y-14082460D02*
X11338467Y-14072936D01*
X11338467Y-14072936D02*
X11328943Y-14053888D01*
X11328943Y-14053888D02*
X11319420Y-14015793D01*
X11319420Y-14015793D02*
X11319420Y-13968174D01*
X11319420Y-13968174D02*
X11328943Y-13930079D01*
X11328943Y-13930079D02*
X11338467Y-13911031D01*
X11338467Y-13911031D02*
X11347991Y-13901508D01*
X11347991Y-13901508D02*
X11367039Y-13891984D01*
X11519420Y-14091984D02*
X11519420Y-13958650D01*
X11519420Y-13977698D02*
X11528943Y-13968174D01*
X11528943Y-13968174D02*
X11547991Y-13958650D01*
X11547991Y-13958650D02*
X11576563Y-13958650D01*
X11576563Y-13958650D02*
X11595610Y-13968174D01*
X11595610Y-13968174D02*
X11605134Y-13987222D01*
X11605134Y-13987222D02*
X11605134Y-14091984D01*
X11605134Y-13987222D02*
X11614658Y-13968174D01*
X11614658Y-13968174D02*
X11633705Y-13958650D01*
X11633705Y-13958650D02*
X11662277Y-13958650D01*
X11662277Y-13958650D02*
X11681324Y-13968174D01*
X11681324Y-13968174D02*
X11690848Y-13987222D01*
X11690848Y-13987222D02*
X11690848Y-14091984D01*
X11786086Y-14091984D02*
X11786086Y-13958650D01*
X11786086Y-13977698D02*
X11795610Y-13968174D01*
X11795610Y-13968174D02*
X11814658Y-13958650D01*
X11814658Y-13958650D02*
X11843229Y-13958650D01*
X11843229Y-13958650D02*
X11862277Y-13968174D01*
X11862277Y-13968174D02*
X11871801Y-13987222D01*
X11871801Y-13987222D02*
X11871801Y-14091984D01*
X11871801Y-13987222D02*
X11881324Y-13968174D01*
X11881324Y-13968174D02*
X11900372Y-13958650D01*
X11900372Y-13958650D02*
X11928943Y-13958650D01*
X11928943Y-13958650D02*
X11947991Y-13968174D01*
X11947991Y-13968174D02*
X11957515Y-13987222D01*
X11957515Y-13987222D02*
X11957515Y-14091984D01*
X12347991Y-13882460D02*
X12176563Y-14139603D01*
X12605134Y-13891984D02*
X12624182Y-13891984D01*
X12624182Y-13891984D02*
X12643229Y-13901508D01*
X12643229Y-13901508D02*
X12652753Y-13911031D01*
X12652753Y-13911031D02*
X12662277Y-13930079D01*
X12662277Y-13930079D02*
X12671801Y-13968174D01*
X12671801Y-13968174D02*
X12671801Y-14015793D01*
X12671801Y-14015793D02*
X12662277Y-14053888D01*
X12662277Y-14053888D02*
X12652753Y-14072936D01*
X12652753Y-14072936D02*
X12643229Y-14082460D01*
X12643229Y-14082460D02*
X12624182Y-14091984D01*
X12624182Y-14091984D02*
X12605134Y-14091984D01*
X12605134Y-14091984D02*
X12586086Y-14082460D01*
X12586086Y-14082460D02*
X12576563Y-14072936D01*
X12576563Y-14072936D02*
X12567039Y-14053888D01*
X12567039Y-14053888D02*
X12557515Y-14015793D01*
X12557515Y-14015793D02*
X12557515Y-13968174D01*
X12557515Y-13968174D02*
X12567039Y-13930079D01*
X12567039Y-13930079D02*
X12576563Y-13911031D01*
X12576563Y-13911031D02*
X12586086Y-13901508D01*
X12586086Y-13901508D02*
X12605134Y-13891984D01*
X12757515Y-14072936D02*
X12767039Y-14082460D01*
X12767039Y-14082460D02*
X12757515Y-14091984D01*
X12757515Y-14091984D02*
X12747991Y-14082460D01*
X12747991Y-14082460D02*
X12757515Y-14072936D01*
X12757515Y-14072936D02*
X12757515Y-14091984D01*
X12890848Y-13891984D02*
X12909896Y-13891984D01*
X12909896Y-13891984D02*
X12928944Y-13901508D01*
X12928944Y-13901508D02*
X12938467Y-13911031D01*
X12938467Y-13911031D02*
X12947991Y-13930079D01*
X12947991Y-13930079D02*
X12957515Y-13968174D01*
X12957515Y-13968174D02*
X12957515Y-14015793D01*
X12957515Y-14015793D02*
X12947991Y-14053888D01*
X12947991Y-14053888D02*
X12938467Y-14072936D01*
X12938467Y-14072936D02*
X12928944Y-14082460D01*
X12928944Y-14082460D02*
X12909896Y-14091984D01*
X12909896Y-14091984D02*
X12890848Y-14091984D01*
X12890848Y-14091984D02*
X12871801Y-14082460D01*
X12871801Y-14082460D02*
X12862277Y-14072936D01*
X12862277Y-14072936D02*
X12852753Y-14053888D01*
X12852753Y-14053888D02*
X12843229Y-14015793D01*
X12843229Y-14015793D02*
X12843229Y-13968174D01*
X12843229Y-13968174D02*
X12852753Y-13930079D01*
X12852753Y-13930079D02*
X12862277Y-13911031D01*
X12862277Y-13911031D02*
X12871801Y-13901508D01*
X12871801Y-13901508D02*
X12890848Y-13891984D01*
X13033706Y-13911031D02*
X13043229Y-13901508D01*
X13043229Y-13901508D02*
X13062277Y-13891984D01*
X13062277Y-13891984D02*
X13109896Y-13891984D01*
X13109896Y-13891984D02*
X13128944Y-13901508D01*
X13128944Y-13901508D02*
X13138467Y-13911031D01*
X13138467Y-13911031D02*
X13147991Y-13930079D01*
X13147991Y-13930079D02*
X13147991Y-13949127D01*
X13147991Y-13949127D02*
X13138467Y-13977698D01*
X13138467Y-13977698D02*
X13024182Y-14091984D01*
X13024182Y-14091984D02*
X13147991Y-14091984D01*
X13214658Y-13891984D02*
X13338467Y-13891984D01*
X13338467Y-13891984D02*
X13271801Y-13968174D01*
X13271801Y-13968174D02*
X13300372Y-13968174D01*
X13300372Y-13968174D02*
X13319420Y-13977698D01*
X13319420Y-13977698D02*
X13328944Y-13987222D01*
X13328944Y-13987222D02*
X13338467Y-14006269D01*
X13338467Y-14006269D02*
X13338467Y-14053888D01*
X13338467Y-14053888D02*
X13328944Y-14072936D01*
X13328944Y-14072936D02*
X13319420Y-14082460D01*
X13319420Y-14082460D02*
X13300372Y-14091984D01*
X13300372Y-14091984D02*
X13243229Y-14091984D01*
X13243229Y-14091984D02*
X13224182Y-14082460D01*
X13224182Y-14082460D02*
X13214658Y-14072936D01*
X13509896Y-13891984D02*
X13471801Y-13891984D01*
X13471801Y-13891984D02*
X13452753Y-13901508D01*
X13452753Y-13901508D02*
X13443229Y-13911031D01*
X13443229Y-13911031D02*
X13424182Y-13939603D01*
X13424182Y-13939603D02*
X13414658Y-13977698D01*
X13414658Y-13977698D02*
X13414658Y-14053888D01*
X13414658Y-14053888D02*
X13424182Y-14072936D01*
X13424182Y-14072936D02*
X13433706Y-14082460D01*
X13433706Y-14082460D02*
X13452753Y-14091984D01*
X13452753Y-14091984D02*
X13490848Y-14091984D01*
X13490848Y-14091984D02*
X13509896Y-14082460D01*
X13509896Y-14082460D02*
X13519420Y-14072936D01*
X13519420Y-14072936D02*
X13528944Y-14053888D01*
X13528944Y-14053888D02*
X13528944Y-14006269D01*
X13528944Y-14006269D02*
X13519420Y-13987222D01*
X13519420Y-13987222D02*
X13509896Y-13977698D01*
X13509896Y-13977698D02*
X13490848Y-13968174D01*
X13490848Y-13968174D02*
X13452753Y-13968174D01*
X13452753Y-13968174D02*
X13433706Y-13977698D01*
X13433706Y-13977698D02*
X13424182Y-13987222D01*
X13424182Y-13987222D02*
X13414658Y-14006269D01*
X13605134Y-13891984D02*
X13605134Y-13930079D01*
X13681325Y-13891984D02*
X13681325Y-13930079D01*
X13976563Y-14168174D02*
X13967039Y-14158650D01*
X13967039Y-14158650D02*
X13947991Y-14130079D01*
X13947991Y-14130079D02*
X13938468Y-14111031D01*
X13938468Y-14111031D02*
X13928944Y-14082460D01*
X13928944Y-14082460D02*
X13919420Y-14034841D01*
X13919420Y-14034841D02*
X13919420Y-13996746D01*
X13919420Y-13996746D02*
X13928944Y-13949127D01*
X13928944Y-13949127D02*
X13938468Y-13920555D01*
X13938468Y-13920555D02*
X13947991Y-13901508D01*
X13947991Y-13901508D02*
X13967039Y-13872936D01*
X13967039Y-13872936D02*
X13976563Y-13863412D01*
X14090848Y-13891984D02*
X14109896Y-13891984D01*
X14109896Y-13891984D02*
X14128944Y-13901508D01*
X14128944Y-13901508D02*
X14138468Y-13911031D01*
X14138468Y-13911031D02*
X14147991Y-13930079D01*
X14147991Y-13930079D02*
X14157515Y-13968174D01*
X14157515Y-13968174D02*
X14157515Y-14015793D01*
X14157515Y-14015793D02*
X14147991Y-14053888D01*
X14147991Y-14053888D02*
X14138468Y-14072936D01*
X14138468Y-14072936D02*
X14128944Y-14082460D01*
X14128944Y-14082460D02*
X14109896Y-14091984D01*
X14109896Y-14091984D02*
X14090848Y-14091984D01*
X14090848Y-14091984D02*
X14071801Y-14082460D01*
X14071801Y-14082460D02*
X14062277Y-14072936D01*
X14062277Y-14072936D02*
X14052753Y-14053888D01*
X14052753Y-14053888D02*
X14043229Y-14015793D01*
X14043229Y-14015793D02*
X14043229Y-13968174D01*
X14043229Y-13968174D02*
X14052753Y-13930079D01*
X14052753Y-13930079D02*
X14062277Y-13911031D01*
X14062277Y-13911031D02*
X14071801Y-13901508D01*
X14071801Y-13901508D02*
X14090848Y-13891984D01*
X14395610Y-14091984D02*
X14395610Y-13891984D01*
X14481325Y-14091984D02*
X14481325Y-13987222D01*
X14481325Y-13987222D02*
X14471801Y-13968174D01*
X14471801Y-13968174D02*
X14452753Y-13958650D01*
X14452753Y-13958650D02*
X14424182Y-13958650D01*
X14424182Y-13958650D02*
X14405134Y-13968174D01*
X14405134Y-13968174D02*
X14395610Y-13977698D01*
X14605134Y-14091984D02*
X14586087Y-14082460D01*
X14586087Y-14082460D02*
X14576563Y-14072936D01*
X14576563Y-14072936D02*
X14567039Y-14053888D01*
X14567039Y-14053888D02*
X14567039Y-13996746D01*
X14567039Y-13996746D02*
X14576563Y-13977698D01*
X14576563Y-13977698D02*
X14586087Y-13968174D01*
X14586087Y-13968174D02*
X14605134Y-13958650D01*
X14605134Y-13958650D02*
X14633706Y-13958650D01*
X14633706Y-13958650D02*
X14652753Y-13968174D01*
X14652753Y-13968174D02*
X14662277Y-13977698D01*
X14662277Y-13977698D02*
X14671801Y-13996746D01*
X14671801Y-13996746D02*
X14671801Y-14053888D01*
X14671801Y-14053888D02*
X14662277Y-14072936D01*
X14662277Y-14072936D02*
X14652753Y-14082460D01*
X14652753Y-14082460D02*
X14633706Y-14091984D01*
X14633706Y-14091984D02*
X14605134Y-14091984D01*
X14786087Y-14091984D02*
X14767039Y-14082460D01*
X14767039Y-14082460D02*
X14757515Y-14063412D01*
X14757515Y-14063412D02*
X14757515Y-13891984D01*
X14938468Y-14082460D02*
X14919420Y-14091984D01*
X14919420Y-14091984D02*
X14881325Y-14091984D01*
X14881325Y-14091984D02*
X14862277Y-14082460D01*
X14862277Y-14082460D02*
X14852753Y-14063412D01*
X14852753Y-14063412D02*
X14852753Y-13987222D01*
X14852753Y-13987222D02*
X14862277Y-13968174D01*
X14862277Y-13968174D02*
X14881325Y-13958650D01*
X14881325Y-13958650D02*
X14919420Y-13958650D01*
X14919420Y-13958650D02*
X14938468Y-13968174D01*
X14938468Y-13968174D02*
X14947991Y-13987222D01*
X14947991Y-13987222D02*
X14947991Y-14006269D01*
X14947991Y-14006269D02*
X14852753Y-14025317D01*
X15024182Y-14082460D02*
X15043230Y-14091984D01*
X15043230Y-14091984D02*
X15081325Y-14091984D01*
X15081325Y-14091984D02*
X15100372Y-14082460D01*
X15100372Y-14082460D02*
X15109896Y-14063412D01*
X15109896Y-14063412D02*
X15109896Y-14053888D01*
X15109896Y-14053888D02*
X15100372Y-14034841D01*
X15100372Y-14034841D02*
X15081325Y-14025317D01*
X15081325Y-14025317D02*
X15052753Y-14025317D01*
X15052753Y-14025317D02*
X15033706Y-14015793D01*
X15033706Y-14015793D02*
X15024182Y-13996746D01*
X15024182Y-13996746D02*
X15024182Y-13987222D01*
X15024182Y-13987222D02*
X15033706Y-13968174D01*
X15033706Y-13968174D02*
X15052753Y-13958650D01*
X15052753Y-13958650D02*
X15081325Y-13958650D01*
X15081325Y-13958650D02*
X15100372Y-13968174D01*
X15347992Y-14015793D02*
X15500373Y-14015793D01*
X15424182Y-14091984D02*
X15424182Y-13939603D01*
X15833706Y-13958650D02*
X15833706Y-14091984D01*
X15786087Y-13882460D02*
X15738468Y-14025317D01*
X15738468Y-14025317D02*
X15862277Y-14025317D01*
X16081325Y-14082460D02*
X16100373Y-14091984D01*
X16100373Y-14091984D02*
X16138468Y-14091984D01*
X16138468Y-14091984D02*
X16157515Y-14082460D01*
X16157515Y-14082460D02*
X16167039Y-14063412D01*
X16167039Y-14063412D02*
X16167039Y-14053888D01*
X16167039Y-14053888D02*
X16157515Y-14034841D01*
X16157515Y-14034841D02*
X16138468Y-14025317D01*
X16138468Y-14025317D02*
X16109896Y-14025317D01*
X16109896Y-14025317D02*
X16090849Y-14015793D01*
X16090849Y-14015793D02*
X16081325Y-13996746D01*
X16081325Y-13996746D02*
X16081325Y-13987222D01*
X16081325Y-13987222D02*
X16090849Y-13968174D01*
X16090849Y-13968174D02*
X16109896Y-13958650D01*
X16109896Y-13958650D02*
X16138468Y-13958650D01*
X16138468Y-13958650D02*
X16157515Y-13968174D01*
X16281325Y-14091984D02*
X16262277Y-14082460D01*
X16262277Y-14082460D02*
X16252754Y-14063412D01*
X16252754Y-14063412D02*
X16252754Y-13891984D01*
X16386087Y-14091984D02*
X16367039Y-14082460D01*
X16367039Y-14082460D02*
X16357515Y-14072936D01*
X16357515Y-14072936D02*
X16347992Y-14053888D01*
X16347992Y-14053888D02*
X16347992Y-13996746D01*
X16347992Y-13996746D02*
X16357515Y-13977698D01*
X16357515Y-13977698D02*
X16367039Y-13968174D01*
X16367039Y-13968174D02*
X16386087Y-13958650D01*
X16386087Y-13958650D02*
X16414658Y-13958650D01*
X16414658Y-13958650D02*
X16433706Y-13968174D01*
X16433706Y-13968174D02*
X16443230Y-13977698D01*
X16443230Y-13977698D02*
X16452754Y-13996746D01*
X16452754Y-13996746D02*
X16452754Y-14053888D01*
X16452754Y-14053888D02*
X16443230Y-14072936D01*
X16443230Y-14072936D02*
X16433706Y-14082460D01*
X16433706Y-14082460D02*
X16414658Y-14091984D01*
X16414658Y-14091984D02*
X16386087Y-14091984D01*
X16509896Y-13958650D02*
X16586087Y-13958650D01*
X16538468Y-13891984D02*
X16538468Y-14063412D01*
X16538468Y-14063412D02*
X16547992Y-14082460D01*
X16547992Y-14082460D02*
X16567039Y-14091984D01*
X16567039Y-14091984D02*
X16586087Y-14091984D01*
X16643230Y-14082460D02*
X16662277Y-14091984D01*
X16662277Y-14091984D02*
X16700373Y-14091984D01*
X16700373Y-14091984D02*
X16719420Y-14082460D01*
X16719420Y-14082460D02*
X16728944Y-14063412D01*
X16728944Y-14063412D02*
X16728944Y-14053888D01*
X16728944Y-14053888D02*
X16719420Y-14034841D01*
X16719420Y-14034841D02*
X16700373Y-14025317D01*
X16700373Y-14025317D02*
X16671801Y-14025317D01*
X16671801Y-14025317D02*
X16652754Y-14015793D01*
X16652754Y-14015793D02*
X16643230Y-13996746D01*
X16643230Y-13996746D02*
X16643230Y-13987222D01*
X16643230Y-13987222D02*
X16652754Y-13968174D01*
X16652754Y-13968174D02*
X16671801Y-13958650D01*
X16671801Y-13958650D02*
X16700373Y-13958650D01*
X16700373Y-13958650D02*
X16719420Y-13968174D01*
X16795611Y-14168174D02*
X16805135Y-14158650D01*
X16805135Y-14158650D02*
X16824182Y-14130079D01*
X16824182Y-14130079D02*
X16833706Y-14111031D01*
X16833706Y-14111031D02*
X16843230Y-14082460D01*
X16843230Y-14082460D02*
X16852754Y-14034841D01*
X16852754Y-14034841D02*
X16852754Y-13996746D01*
X16852754Y-13996746D02*
X16843230Y-13949127D01*
X16843230Y-13949127D02*
X16833706Y-13920555D01*
X16833706Y-13920555D02*
X16824182Y-13901508D01*
X16824182Y-13901508D02*
X16805135Y-13872936D01*
X16805135Y-13872936D02*
X16795611Y-13863412D01*
D10*
X10391249Y-14289249D02*
X10391249Y-14239751D01*
X10341751Y-14239751D01*
X10341751Y-14289249D01*
X10391249Y-14289249D01*
D11*
X10700372Y-14155984D02*
X10719420Y-14155984D01*
X10719420Y-14155984D02*
X10738467Y-14165508D01*
X10738467Y-14165508D02*
X10747991Y-14175031D01*
X10747991Y-14175031D02*
X10757515Y-14194079D01*
X10757515Y-14194079D02*
X10767039Y-14232174D01*
X10767039Y-14232174D02*
X10767039Y-14279793D01*
X10767039Y-14279793D02*
X10757515Y-14317888D01*
X10757515Y-14317888D02*
X10747991Y-14336936D01*
X10747991Y-14336936D02*
X10738467Y-14346460D01*
X10738467Y-14346460D02*
X10719420Y-14355984D01*
X10719420Y-14355984D02*
X10700372Y-14355984D01*
X10700372Y-14355984D02*
X10681324Y-14346460D01*
X10681324Y-14346460D02*
X10671801Y-14336936D01*
X10671801Y-14336936D02*
X10662277Y-14317888D01*
X10662277Y-14317888D02*
X10652753Y-14279793D01*
X10652753Y-14279793D02*
X10652753Y-14232174D01*
X10652753Y-14232174D02*
X10662277Y-14194079D01*
X10662277Y-14194079D02*
X10671801Y-14175031D01*
X10671801Y-14175031D02*
X10681324Y-14165508D01*
X10681324Y-14165508D02*
X10700372Y-14155984D01*
X10852753Y-14336936D02*
X10862277Y-14346460D01*
X10862277Y-14346460D02*
X10852753Y-14355984D01*
X10852753Y-14355984D02*
X10843229Y-14346460D01*
X10843229Y-14346460D02*
X10852753Y-14336936D01*
X10852753Y-14336936D02*
X10852753Y-14355984D01*
X10928944Y-14155984D02*
X11062277Y-14155984D01*
X11062277Y-14155984D02*
X10976563Y-14355984D01*
X11176563Y-14155984D02*
X11195610Y-14155984D01*
X11195610Y-14155984D02*
X11214658Y-14165508D01*
X11214658Y-14165508D02*
X11224182Y-14175031D01*
X11224182Y-14175031D02*
X11233705Y-14194079D01*
X11233705Y-14194079D02*
X11243229Y-14232174D01*
X11243229Y-14232174D02*
X11243229Y-14279793D01*
X11243229Y-14279793D02*
X11233705Y-14317888D01*
X11233705Y-14317888D02*
X11224182Y-14336936D01*
X11224182Y-14336936D02*
X11214658Y-14346460D01*
X11214658Y-14346460D02*
X11195610Y-14355984D01*
X11195610Y-14355984D02*
X11176563Y-14355984D01*
X11176563Y-14355984D02*
X11157515Y-14346460D01*
X11157515Y-14346460D02*
X11147991Y-14336936D01*
X11147991Y-14336936D02*
X11138467Y-14317888D01*
X11138467Y-14317888D02*
X11128944Y-14279793D01*
X11128944Y-14279793D02*
X11128944Y-14232174D01*
X11128944Y-14232174D02*
X11138467Y-14194079D01*
X11138467Y-14194079D02*
X11147991Y-14175031D01*
X11147991Y-14175031D02*
X11157515Y-14165508D01*
X11157515Y-14165508D02*
X11176563Y-14155984D01*
X11367039Y-14155984D02*
X11386086Y-14155984D01*
X11386086Y-14155984D02*
X11405134Y-14165508D01*
X11405134Y-14165508D02*
X11414658Y-14175031D01*
X11414658Y-14175031D02*
X11424182Y-14194079D01*
X11424182Y-14194079D02*
X11433705Y-14232174D01*
X11433705Y-14232174D02*
X11433705Y-14279793D01*
X11433705Y-14279793D02*
X11424182Y-14317888D01*
X11424182Y-14317888D02*
X11414658Y-14336936D01*
X11414658Y-14336936D02*
X11405134Y-14346460D01*
X11405134Y-14346460D02*
X11386086Y-14355984D01*
X11386086Y-14355984D02*
X11367039Y-14355984D01*
X11367039Y-14355984D02*
X11347991Y-14346460D01*
X11347991Y-14346460D02*
X11338467Y-14336936D01*
X11338467Y-14336936D02*
X11328943Y-14317888D01*
X11328943Y-14317888D02*
X11319420Y-14279793D01*
X11319420Y-14279793D02*
X11319420Y-14232174D01*
X11319420Y-14232174D02*
X11328943Y-14194079D01*
X11328943Y-14194079D02*
X11338467Y-14175031D01*
X11338467Y-14175031D02*
X11347991Y-14165508D01*
X11347991Y-14165508D02*
X11367039Y-14155984D01*
X11519420Y-14355984D02*
X11519420Y-14222650D01*
X11519420Y-14241698D02*
X11528943Y-14232174D01*
X11528943Y-14232174D02*
X11547991Y-14222650D01*
X11547991Y-14222650D02*
X11576563Y-14222650D01*
X11576563Y-14222650D02*
X11595610Y-14232174D01*
X11595610Y-14232174D02*
X11605134Y-14251222D01*
X11605134Y-14251222D02*
X11605134Y-14355984D01*
X11605134Y-14251222D02*
X11614658Y-14232174D01*
X11614658Y-14232174D02*
X11633705Y-14222650D01*
X11633705Y-14222650D02*
X11662277Y-14222650D01*
X11662277Y-14222650D02*
X11681324Y-14232174D01*
X11681324Y-14232174D02*
X11690848Y-14251222D01*
X11690848Y-14251222D02*
X11690848Y-14355984D01*
X11786086Y-14355984D02*
X11786086Y-14222650D01*
X11786086Y-14241698D02*
X11795610Y-14232174D01*
X11795610Y-14232174D02*
X11814658Y-14222650D01*
X11814658Y-14222650D02*
X11843229Y-14222650D01*
X11843229Y-14222650D02*
X11862277Y-14232174D01*
X11862277Y-14232174D02*
X11871801Y-14251222D01*
X11871801Y-14251222D02*
X11871801Y-14355984D01*
X11871801Y-14251222D02*
X11881324Y-14232174D01*
X11881324Y-14232174D02*
X11900372Y-14222650D01*
X11900372Y-14222650D02*
X11928943Y-14222650D01*
X11928943Y-14222650D02*
X11947991Y-14232174D01*
X11947991Y-14232174D02*
X11957515Y-14251222D01*
X11957515Y-14251222D02*
X11957515Y-14355984D01*
X12347991Y-14146460D02*
X12176563Y-14403603D01*
X12605134Y-14155984D02*
X12624182Y-14155984D01*
X12624182Y-14155984D02*
X12643229Y-14165508D01*
X12643229Y-14165508D02*
X12652753Y-14175031D01*
X12652753Y-14175031D02*
X12662277Y-14194079D01*
X12662277Y-14194079D02*
X12671801Y-14232174D01*
X12671801Y-14232174D02*
X12671801Y-14279793D01*
X12671801Y-14279793D02*
X12662277Y-14317888D01*
X12662277Y-14317888D02*
X12652753Y-14336936D01*
X12652753Y-14336936D02*
X12643229Y-14346460D01*
X12643229Y-14346460D02*
X12624182Y-14355984D01*
X12624182Y-14355984D02*
X12605134Y-14355984D01*
X12605134Y-14355984D02*
X12586086Y-14346460D01*
X12586086Y-14346460D02*
X12576563Y-14336936D01*
X12576563Y-14336936D02*
X12567039Y-14317888D01*
X12567039Y-14317888D02*
X12557515Y-14279793D01*
X12557515Y-14279793D02*
X12557515Y-14232174D01*
X12557515Y-14232174D02*
X12567039Y-14194079D01*
X12567039Y-14194079D02*
X12576563Y-14175031D01*
X12576563Y-14175031D02*
X12586086Y-14165508D01*
X12586086Y-14165508D02*
X12605134Y-14155984D01*
X12757515Y-14336936D02*
X12767039Y-14346460D01*
X12767039Y-14346460D02*
X12757515Y-14355984D01*
X12757515Y-14355984D02*
X12747991Y-14346460D01*
X12747991Y-14346460D02*
X12757515Y-14336936D01*
X12757515Y-14336936D02*
X12757515Y-14355984D01*
X12890848Y-14155984D02*
X12909896Y-14155984D01*
X12909896Y-14155984D02*
X12928944Y-14165508D01*
X12928944Y-14165508D02*
X12938467Y-14175031D01*
X12938467Y-14175031D02*
X12947991Y-14194079D01*
X12947991Y-14194079D02*
X12957515Y-14232174D01*
X12957515Y-14232174D02*
X12957515Y-14279793D01*
X12957515Y-14279793D02*
X12947991Y-14317888D01*
X12947991Y-14317888D02*
X12938467Y-14336936D01*
X12938467Y-14336936D02*
X12928944Y-14346460D01*
X12928944Y-14346460D02*
X12909896Y-14355984D01*
X12909896Y-14355984D02*
X12890848Y-14355984D01*
X12890848Y-14355984D02*
X12871801Y-14346460D01*
X12871801Y-14346460D02*
X12862277Y-14336936D01*
X12862277Y-14336936D02*
X12852753Y-14317888D01*
X12852753Y-14317888D02*
X12843229Y-14279793D01*
X12843229Y-14279793D02*
X12843229Y-14232174D01*
X12843229Y-14232174D02*
X12852753Y-14194079D01*
X12852753Y-14194079D02*
X12862277Y-14175031D01*
X12862277Y-14175031D02*
X12871801Y-14165508D01*
X12871801Y-14165508D02*
X12890848Y-14155984D01*
X13033706Y-14175031D02*
X13043229Y-14165508D01*
X13043229Y-14165508D02*
X13062277Y-14155984D01*
X13062277Y-14155984D02*
X13109896Y-14155984D01*
X13109896Y-14155984D02*
X13128944Y-14165508D01*
X13128944Y-14165508D02*
X13138467Y-14175031D01*
X13138467Y-14175031D02*
X13147991Y-14194079D01*
X13147991Y-14194079D02*
X13147991Y-14213127D01*
X13147991Y-14213127D02*
X13138467Y-14241698D01*
X13138467Y-14241698D02*
X13024182Y-14355984D01*
X13024182Y-14355984D02*
X13147991Y-14355984D01*
X13214658Y-14155984D02*
X13347991Y-14155984D01*
X13347991Y-14155984D02*
X13262277Y-14355984D01*
X13509896Y-14155984D02*
X13471801Y-14155984D01*
X13471801Y-14155984D02*
X13452753Y-14165508D01*
X13452753Y-14165508D02*
X13443229Y-14175031D01*
X13443229Y-14175031D02*
X13424182Y-14203603D01*
X13424182Y-14203603D02*
X13414658Y-14241698D01*
X13414658Y-14241698D02*
X13414658Y-14317888D01*
X13414658Y-14317888D02*
X13424182Y-14336936D01*
X13424182Y-14336936D02*
X13433706Y-14346460D01*
X13433706Y-14346460D02*
X13452753Y-14355984D01*
X13452753Y-14355984D02*
X13490848Y-14355984D01*
X13490848Y-14355984D02*
X13509896Y-14346460D01*
X13509896Y-14346460D02*
X13519420Y-14336936D01*
X13519420Y-14336936D02*
X13528944Y-14317888D01*
X13528944Y-14317888D02*
X13528944Y-14270269D01*
X13528944Y-14270269D02*
X13519420Y-14251222D01*
X13519420Y-14251222D02*
X13509896Y-14241698D01*
X13509896Y-14241698D02*
X13490848Y-14232174D01*
X13490848Y-14232174D02*
X13452753Y-14232174D01*
X13452753Y-14232174D02*
X13433706Y-14241698D01*
X13433706Y-14241698D02*
X13424182Y-14251222D01*
X13424182Y-14251222D02*
X13414658Y-14270269D01*
X13605134Y-14155984D02*
X13605134Y-14194079D01*
X13681325Y-14155984D02*
X13681325Y-14194079D01*
X13976563Y-14432174D02*
X13967039Y-14422650D01*
X13967039Y-14422650D02*
X13947991Y-14394079D01*
X13947991Y-14394079D02*
X13938468Y-14375031D01*
X13938468Y-14375031D02*
X13928944Y-14346460D01*
X13928944Y-14346460D02*
X13919420Y-14298841D01*
X13919420Y-14298841D02*
X13919420Y-14260746D01*
X13919420Y-14260746D02*
X13928944Y-14213127D01*
X13928944Y-14213127D02*
X13938468Y-14184555D01*
X13938468Y-14184555D02*
X13947991Y-14165508D01*
X13947991Y-14165508D02*
X13967039Y-14136936D01*
X13967039Y-14136936D02*
X13976563Y-14127412D01*
X14033706Y-14155984D02*
X14157515Y-14155984D01*
X14157515Y-14155984D02*
X14090848Y-14232174D01*
X14090848Y-14232174D02*
X14119420Y-14232174D01*
X14119420Y-14232174D02*
X14138468Y-14241698D01*
X14138468Y-14241698D02*
X14147991Y-14251222D01*
X14147991Y-14251222D02*
X14157515Y-14270269D01*
X14157515Y-14270269D02*
X14157515Y-14317888D01*
X14157515Y-14317888D02*
X14147991Y-14336936D01*
X14147991Y-14336936D02*
X14138468Y-14346460D01*
X14138468Y-14346460D02*
X14119420Y-14355984D01*
X14119420Y-14355984D02*
X14062277Y-14355984D01*
X14062277Y-14355984D02*
X14043229Y-14346460D01*
X14043229Y-14346460D02*
X14033706Y-14336936D01*
X14328944Y-14155984D02*
X14290848Y-14155984D01*
X14290848Y-14155984D02*
X14271801Y-14165508D01*
X14271801Y-14165508D02*
X14262277Y-14175031D01*
X14262277Y-14175031D02*
X14243229Y-14203603D01*
X14243229Y-14203603D02*
X14233706Y-14241698D01*
X14233706Y-14241698D02*
X14233706Y-14317888D01*
X14233706Y-14317888D02*
X14243229Y-14336936D01*
X14243229Y-14336936D02*
X14252753Y-14346460D01*
X14252753Y-14346460D02*
X14271801Y-14355984D01*
X14271801Y-14355984D02*
X14309896Y-14355984D01*
X14309896Y-14355984D02*
X14328944Y-14346460D01*
X14328944Y-14346460D02*
X14338468Y-14336936D01*
X14338468Y-14336936D02*
X14347991Y-14317888D01*
X14347991Y-14317888D02*
X14347991Y-14270269D01*
X14347991Y-14270269D02*
X14338468Y-14251222D01*
X14338468Y-14251222D02*
X14328944Y-14241698D01*
X14328944Y-14241698D02*
X14309896Y-14232174D01*
X14309896Y-14232174D02*
X14271801Y-14232174D01*
X14271801Y-14232174D02*
X14252753Y-14241698D01*
X14252753Y-14241698D02*
X14243229Y-14251222D01*
X14243229Y-14251222D02*
X14233706Y-14270269D01*
X14586087Y-14355984D02*
X14586087Y-14155984D01*
X14671801Y-14355984D02*
X14671801Y-14251222D01*
X14671801Y-14251222D02*
X14662277Y-14232174D01*
X14662277Y-14232174D02*
X14643230Y-14222650D01*
X14643230Y-14222650D02*
X14614658Y-14222650D01*
X14614658Y-14222650D02*
X14595610Y-14232174D01*
X14595610Y-14232174D02*
X14586087Y-14241698D01*
X14795610Y-14355984D02*
X14776563Y-14346460D01*
X14776563Y-14346460D02*
X14767039Y-14336936D01*
X14767039Y-14336936D02*
X14757515Y-14317888D01*
X14757515Y-14317888D02*
X14757515Y-14260746D01*
X14757515Y-14260746D02*
X14767039Y-14241698D01*
X14767039Y-14241698D02*
X14776563Y-14232174D01*
X14776563Y-14232174D02*
X14795610Y-14222650D01*
X14795610Y-14222650D02*
X14824182Y-14222650D01*
X14824182Y-14222650D02*
X14843230Y-14232174D01*
X14843230Y-14232174D02*
X14852753Y-14241698D01*
X14852753Y-14241698D02*
X14862277Y-14260746D01*
X14862277Y-14260746D02*
X14862277Y-14317888D01*
X14862277Y-14317888D02*
X14852753Y-14336936D01*
X14852753Y-14336936D02*
X14843230Y-14346460D01*
X14843230Y-14346460D02*
X14824182Y-14355984D01*
X14824182Y-14355984D02*
X14795610Y-14355984D01*
X14976563Y-14355984D02*
X14957515Y-14346460D01*
X14957515Y-14346460D02*
X14947991Y-14327412D01*
X14947991Y-14327412D02*
X14947991Y-14155984D01*
X15128944Y-14346460D02*
X15109896Y-14355984D01*
X15109896Y-14355984D02*
X15071801Y-14355984D01*
X15071801Y-14355984D02*
X15052753Y-14346460D01*
X15052753Y-14346460D02*
X15043230Y-14327412D01*
X15043230Y-14327412D02*
X15043230Y-14251222D01*
X15043230Y-14251222D02*
X15052753Y-14232174D01*
X15052753Y-14232174D02*
X15071801Y-14222650D01*
X15071801Y-14222650D02*
X15109896Y-14222650D01*
X15109896Y-14222650D02*
X15128944Y-14232174D01*
X15128944Y-14232174D02*
X15138468Y-14251222D01*
X15138468Y-14251222D02*
X15138468Y-14270269D01*
X15138468Y-14270269D02*
X15043230Y-14289317D01*
X15214658Y-14346460D02*
X15233706Y-14355984D01*
X15233706Y-14355984D02*
X15271801Y-14355984D01*
X15271801Y-14355984D02*
X15290849Y-14346460D01*
X15290849Y-14346460D02*
X15300372Y-14327412D01*
X15300372Y-14327412D02*
X15300372Y-14317888D01*
X15300372Y-14317888D02*
X15290849Y-14298841D01*
X15290849Y-14298841D02*
X15271801Y-14289317D01*
X15271801Y-14289317D02*
X15243230Y-14289317D01*
X15243230Y-14289317D02*
X15224182Y-14279793D01*
X15224182Y-14279793D02*
X15214658Y-14260746D01*
X15214658Y-14260746D02*
X15214658Y-14251222D01*
X15214658Y-14251222D02*
X15224182Y-14232174D01*
X15224182Y-14232174D02*
X15243230Y-14222650D01*
X15243230Y-14222650D02*
X15271801Y-14222650D01*
X15271801Y-14222650D02*
X15290849Y-14232174D01*
X15367039Y-14432174D02*
X15376563Y-14422650D01*
X15376563Y-14422650D02*
X15395611Y-14394079D01*
X15395611Y-14394079D02*
X15405134Y-14375031D01*
X15405134Y-14375031D02*
X15414658Y-14346460D01*
X15414658Y-14346460D02*
X15424182Y-14298841D01*
X15424182Y-14298841D02*
X15424182Y-14260746D01*
X15424182Y-14260746D02*
X15414658Y-14213127D01*
X15414658Y-14213127D02*
X15405134Y-14184555D01*
X15405134Y-14184555D02*
X15395611Y-14165508D01*
X15395611Y-14165508D02*
X15376563Y-14136936D01*
X15376563Y-14136936D02*
X15367039Y-14127412D01*
D10*
X10364000Y-14566000D02*
X10401500Y-14528500D01*
X10364000Y-14491000D01*
X10326500Y-14528500D01*
X10364000Y-14566000D01*
D11*
X10700372Y-14419984D02*
X10719420Y-14419984D01*
X10719420Y-14419984D02*
X10738467Y-14429508D01*
X10738467Y-14429508D02*
X10747991Y-14439031D01*
X10747991Y-14439031D02*
X10757515Y-14458079D01*
X10757515Y-14458079D02*
X10767039Y-14496174D01*
X10767039Y-14496174D02*
X10767039Y-14543793D01*
X10767039Y-14543793D02*
X10757515Y-14581888D01*
X10757515Y-14581888D02*
X10747991Y-14600936D01*
X10747991Y-14600936D02*
X10738467Y-14610460D01*
X10738467Y-14610460D02*
X10719420Y-14619984D01*
X10719420Y-14619984D02*
X10700372Y-14619984D01*
X10700372Y-14619984D02*
X10681324Y-14610460D01*
X10681324Y-14610460D02*
X10671801Y-14600936D01*
X10671801Y-14600936D02*
X10662277Y-14581888D01*
X10662277Y-14581888D02*
X10652753Y-14543793D01*
X10652753Y-14543793D02*
X10652753Y-14496174D01*
X10652753Y-14496174D02*
X10662277Y-14458079D01*
X10662277Y-14458079D02*
X10671801Y-14439031D01*
X10671801Y-14439031D02*
X10681324Y-14429508D01*
X10681324Y-14429508D02*
X10700372Y-14419984D01*
X10852753Y-14600936D02*
X10862277Y-14610460D01*
X10862277Y-14610460D02*
X10852753Y-14619984D01*
X10852753Y-14619984D02*
X10843229Y-14610460D01*
X10843229Y-14610460D02*
X10852753Y-14600936D01*
X10852753Y-14600936D02*
X10852753Y-14619984D01*
X10928944Y-14419984D02*
X11062277Y-14419984D01*
X11062277Y-14419984D02*
X10976563Y-14619984D01*
X11233705Y-14419984D02*
X11138467Y-14419984D01*
X11138467Y-14419984D02*
X11128944Y-14515222D01*
X11128944Y-14515222D02*
X11138467Y-14505698D01*
X11138467Y-14505698D02*
X11157515Y-14496174D01*
X11157515Y-14496174D02*
X11205134Y-14496174D01*
X11205134Y-14496174D02*
X11224182Y-14505698D01*
X11224182Y-14505698D02*
X11233705Y-14515222D01*
X11233705Y-14515222D02*
X11243229Y-14534269D01*
X11243229Y-14534269D02*
X11243229Y-14581888D01*
X11243229Y-14581888D02*
X11233705Y-14600936D01*
X11233705Y-14600936D02*
X11224182Y-14610460D01*
X11224182Y-14610460D02*
X11205134Y-14619984D01*
X11205134Y-14619984D02*
X11157515Y-14619984D01*
X11157515Y-14619984D02*
X11138467Y-14610460D01*
X11138467Y-14610460D02*
X11128944Y-14600936D01*
X11367039Y-14419984D02*
X11386086Y-14419984D01*
X11386086Y-14419984D02*
X11405134Y-14429508D01*
X11405134Y-14429508D02*
X11414658Y-14439031D01*
X11414658Y-14439031D02*
X11424182Y-14458079D01*
X11424182Y-14458079D02*
X11433705Y-14496174D01*
X11433705Y-14496174D02*
X11433705Y-14543793D01*
X11433705Y-14543793D02*
X11424182Y-14581888D01*
X11424182Y-14581888D02*
X11414658Y-14600936D01*
X11414658Y-14600936D02*
X11405134Y-14610460D01*
X11405134Y-14610460D02*
X11386086Y-14619984D01*
X11386086Y-14619984D02*
X11367039Y-14619984D01*
X11367039Y-14619984D02*
X11347991Y-14610460D01*
X11347991Y-14610460D02*
X11338467Y-14600936D01*
X11338467Y-14600936D02*
X11328943Y-14581888D01*
X11328943Y-14581888D02*
X11319420Y-14543793D01*
X11319420Y-14543793D02*
X11319420Y-14496174D01*
X11319420Y-14496174D02*
X11328943Y-14458079D01*
X11328943Y-14458079D02*
X11338467Y-14439031D01*
X11338467Y-14439031D02*
X11347991Y-14429508D01*
X11347991Y-14429508D02*
X11367039Y-14419984D01*
X11519420Y-14619984D02*
X11519420Y-14486650D01*
X11519420Y-14505698D02*
X11528943Y-14496174D01*
X11528943Y-14496174D02*
X11547991Y-14486650D01*
X11547991Y-14486650D02*
X11576563Y-14486650D01*
X11576563Y-14486650D02*
X11595610Y-14496174D01*
X11595610Y-14496174D02*
X11605134Y-14515222D01*
X11605134Y-14515222D02*
X11605134Y-14619984D01*
X11605134Y-14515222D02*
X11614658Y-14496174D01*
X11614658Y-14496174D02*
X11633705Y-14486650D01*
X11633705Y-14486650D02*
X11662277Y-14486650D01*
X11662277Y-14486650D02*
X11681324Y-14496174D01*
X11681324Y-14496174D02*
X11690848Y-14515222D01*
X11690848Y-14515222D02*
X11690848Y-14619984D01*
X11786086Y-14619984D02*
X11786086Y-14486650D01*
X11786086Y-14505698D02*
X11795610Y-14496174D01*
X11795610Y-14496174D02*
X11814658Y-14486650D01*
X11814658Y-14486650D02*
X11843229Y-14486650D01*
X11843229Y-14486650D02*
X11862277Y-14496174D01*
X11862277Y-14496174D02*
X11871801Y-14515222D01*
X11871801Y-14515222D02*
X11871801Y-14619984D01*
X11871801Y-14515222D02*
X11881324Y-14496174D01*
X11881324Y-14496174D02*
X11900372Y-14486650D01*
X11900372Y-14486650D02*
X11928943Y-14486650D01*
X11928943Y-14486650D02*
X11947991Y-14496174D01*
X11947991Y-14496174D02*
X11957515Y-14515222D01*
X11957515Y-14515222D02*
X11957515Y-14619984D01*
X12347991Y-14410460D02*
X12176563Y-14667603D01*
X12605134Y-14419984D02*
X12624182Y-14419984D01*
X12624182Y-14419984D02*
X12643229Y-14429508D01*
X12643229Y-14429508D02*
X12652753Y-14439031D01*
X12652753Y-14439031D02*
X12662277Y-14458079D01*
X12662277Y-14458079D02*
X12671801Y-14496174D01*
X12671801Y-14496174D02*
X12671801Y-14543793D01*
X12671801Y-14543793D02*
X12662277Y-14581888D01*
X12662277Y-14581888D02*
X12652753Y-14600936D01*
X12652753Y-14600936D02*
X12643229Y-14610460D01*
X12643229Y-14610460D02*
X12624182Y-14619984D01*
X12624182Y-14619984D02*
X12605134Y-14619984D01*
X12605134Y-14619984D02*
X12586086Y-14610460D01*
X12586086Y-14610460D02*
X12576563Y-14600936D01*
X12576563Y-14600936D02*
X12567039Y-14581888D01*
X12567039Y-14581888D02*
X12557515Y-14543793D01*
X12557515Y-14543793D02*
X12557515Y-14496174D01*
X12557515Y-14496174D02*
X12567039Y-14458079D01*
X12567039Y-14458079D02*
X12576563Y-14439031D01*
X12576563Y-14439031D02*
X12586086Y-14429508D01*
X12586086Y-14429508D02*
X12605134Y-14419984D01*
X12757515Y-14600936D02*
X12767039Y-14610460D01*
X12767039Y-14610460D02*
X12757515Y-14619984D01*
X12757515Y-14619984D02*
X12747991Y-14610460D01*
X12747991Y-14610460D02*
X12757515Y-14600936D01*
X12757515Y-14600936D02*
X12757515Y-14619984D01*
X12890848Y-14419984D02*
X12909896Y-14419984D01*
X12909896Y-14419984D02*
X12928944Y-14429508D01*
X12928944Y-14429508D02*
X12938467Y-14439031D01*
X12938467Y-14439031D02*
X12947991Y-14458079D01*
X12947991Y-14458079D02*
X12957515Y-14496174D01*
X12957515Y-14496174D02*
X12957515Y-14543793D01*
X12957515Y-14543793D02*
X12947991Y-14581888D01*
X12947991Y-14581888D02*
X12938467Y-14600936D01*
X12938467Y-14600936D02*
X12928944Y-14610460D01*
X12928944Y-14610460D02*
X12909896Y-14619984D01*
X12909896Y-14619984D02*
X12890848Y-14619984D01*
X12890848Y-14619984D02*
X12871801Y-14610460D01*
X12871801Y-14610460D02*
X12862277Y-14600936D01*
X12862277Y-14600936D02*
X12852753Y-14581888D01*
X12852753Y-14581888D02*
X12843229Y-14543793D01*
X12843229Y-14543793D02*
X12843229Y-14496174D01*
X12843229Y-14496174D02*
X12852753Y-14458079D01*
X12852753Y-14458079D02*
X12862277Y-14439031D01*
X12862277Y-14439031D02*
X12871801Y-14429508D01*
X12871801Y-14429508D02*
X12890848Y-14419984D01*
X13033706Y-14439031D02*
X13043229Y-14429508D01*
X13043229Y-14429508D02*
X13062277Y-14419984D01*
X13062277Y-14419984D02*
X13109896Y-14419984D01*
X13109896Y-14419984D02*
X13128944Y-14429508D01*
X13128944Y-14429508D02*
X13138467Y-14439031D01*
X13138467Y-14439031D02*
X13147991Y-14458079D01*
X13147991Y-14458079D02*
X13147991Y-14477127D01*
X13147991Y-14477127D02*
X13138467Y-14505698D01*
X13138467Y-14505698D02*
X13024182Y-14619984D01*
X13024182Y-14619984D02*
X13147991Y-14619984D01*
X13243229Y-14619984D02*
X13281325Y-14619984D01*
X13281325Y-14619984D02*
X13300372Y-14610460D01*
X13300372Y-14610460D02*
X13309896Y-14600936D01*
X13309896Y-14600936D02*
X13328944Y-14572365D01*
X13328944Y-14572365D02*
X13338467Y-14534269D01*
X13338467Y-14534269D02*
X13338467Y-14458079D01*
X13338467Y-14458079D02*
X13328944Y-14439031D01*
X13328944Y-14439031D02*
X13319420Y-14429508D01*
X13319420Y-14429508D02*
X13300372Y-14419984D01*
X13300372Y-14419984D02*
X13262277Y-14419984D01*
X13262277Y-14419984D02*
X13243229Y-14429508D01*
X13243229Y-14429508D02*
X13233706Y-14439031D01*
X13233706Y-14439031D02*
X13224182Y-14458079D01*
X13224182Y-14458079D02*
X13224182Y-14505698D01*
X13224182Y-14505698D02*
X13233706Y-14524746D01*
X13233706Y-14524746D02*
X13243229Y-14534269D01*
X13243229Y-14534269D02*
X13262277Y-14543793D01*
X13262277Y-14543793D02*
X13300372Y-14543793D01*
X13300372Y-14543793D02*
X13319420Y-14534269D01*
X13319420Y-14534269D02*
X13328944Y-14524746D01*
X13328944Y-14524746D02*
X13338467Y-14505698D01*
X13519420Y-14419984D02*
X13424182Y-14419984D01*
X13424182Y-14419984D02*
X13414658Y-14515222D01*
X13414658Y-14515222D02*
X13424182Y-14505698D01*
X13424182Y-14505698D02*
X13443229Y-14496174D01*
X13443229Y-14496174D02*
X13490848Y-14496174D01*
X13490848Y-14496174D02*
X13509896Y-14505698D01*
X13509896Y-14505698D02*
X13519420Y-14515222D01*
X13519420Y-14515222D02*
X13528944Y-14534269D01*
X13528944Y-14534269D02*
X13528944Y-14581888D01*
X13528944Y-14581888D02*
X13519420Y-14600936D01*
X13519420Y-14600936D02*
X13509896Y-14610460D01*
X13509896Y-14610460D02*
X13490848Y-14619984D01*
X13490848Y-14619984D02*
X13443229Y-14619984D01*
X13443229Y-14619984D02*
X13424182Y-14610460D01*
X13424182Y-14610460D02*
X13414658Y-14600936D01*
X13605134Y-14419984D02*
X13605134Y-14458079D01*
X13681325Y-14419984D02*
X13681325Y-14458079D01*
X13976563Y-14696174D02*
X13967039Y-14686650D01*
X13967039Y-14686650D02*
X13947991Y-14658079D01*
X13947991Y-14658079D02*
X13938468Y-14639031D01*
X13938468Y-14639031D02*
X13928944Y-14610460D01*
X13928944Y-14610460D02*
X13919420Y-14562841D01*
X13919420Y-14562841D02*
X13919420Y-14524746D01*
X13919420Y-14524746D02*
X13928944Y-14477127D01*
X13928944Y-14477127D02*
X13938468Y-14448555D01*
X13938468Y-14448555D02*
X13947991Y-14429508D01*
X13947991Y-14429508D02*
X13967039Y-14400936D01*
X13967039Y-14400936D02*
X13976563Y-14391412D01*
X14033706Y-14419984D02*
X14157515Y-14419984D01*
X14157515Y-14419984D02*
X14090848Y-14496174D01*
X14090848Y-14496174D02*
X14119420Y-14496174D01*
X14119420Y-14496174D02*
X14138468Y-14505698D01*
X14138468Y-14505698D02*
X14147991Y-14515222D01*
X14147991Y-14515222D02*
X14157515Y-14534269D01*
X14157515Y-14534269D02*
X14157515Y-14581888D01*
X14157515Y-14581888D02*
X14147991Y-14600936D01*
X14147991Y-14600936D02*
X14138468Y-14610460D01*
X14138468Y-14610460D02*
X14119420Y-14619984D01*
X14119420Y-14619984D02*
X14062277Y-14619984D01*
X14062277Y-14619984D02*
X14043229Y-14610460D01*
X14043229Y-14610460D02*
X14033706Y-14600936D01*
X14395610Y-14619984D02*
X14395610Y-14419984D01*
X14481325Y-14619984D02*
X14481325Y-14515222D01*
X14481325Y-14515222D02*
X14471801Y-14496174D01*
X14471801Y-14496174D02*
X14452753Y-14486650D01*
X14452753Y-14486650D02*
X14424182Y-14486650D01*
X14424182Y-14486650D02*
X14405134Y-14496174D01*
X14405134Y-14496174D02*
X14395610Y-14505698D01*
X14605134Y-14619984D02*
X14586087Y-14610460D01*
X14586087Y-14610460D02*
X14576563Y-14600936D01*
X14576563Y-14600936D02*
X14567039Y-14581888D01*
X14567039Y-14581888D02*
X14567039Y-14524746D01*
X14567039Y-14524746D02*
X14576563Y-14505698D01*
X14576563Y-14505698D02*
X14586087Y-14496174D01*
X14586087Y-14496174D02*
X14605134Y-14486650D01*
X14605134Y-14486650D02*
X14633706Y-14486650D01*
X14633706Y-14486650D02*
X14652753Y-14496174D01*
X14652753Y-14496174D02*
X14662277Y-14505698D01*
X14662277Y-14505698D02*
X14671801Y-14524746D01*
X14671801Y-14524746D02*
X14671801Y-14581888D01*
X14671801Y-14581888D02*
X14662277Y-14600936D01*
X14662277Y-14600936D02*
X14652753Y-14610460D01*
X14652753Y-14610460D02*
X14633706Y-14619984D01*
X14633706Y-14619984D02*
X14605134Y-14619984D01*
X14786087Y-14619984D02*
X14767039Y-14610460D01*
X14767039Y-14610460D02*
X14757515Y-14591412D01*
X14757515Y-14591412D02*
X14757515Y-14419984D01*
X14938468Y-14610460D02*
X14919420Y-14619984D01*
X14919420Y-14619984D02*
X14881325Y-14619984D01*
X14881325Y-14619984D02*
X14862277Y-14610460D01*
X14862277Y-14610460D02*
X14852753Y-14591412D01*
X14852753Y-14591412D02*
X14852753Y-14515222D01*
X14852753Y-14515222D02*
X14862277Y-14496174D01*
X14862277Y-14496174D02*
X14881325Y-14486650D01*
X14881325Y-14486650D02*
X14919420Y-14486650D01*
X14919420Y-14486650D02*
X14938468Y-14496174D01*
X14938468Y-14496174D02*
X14947991Y-14515222D01*
X14947991Y-14515222D02*
X14947991Y-14534269D01*
X14947991Y-14534269D02*
X14852753Y-14553317D01*
X15024182Y-14610460D02*
X15043230Y-14619984D01*
X15043230Y-14619984D02*
X15081325Y-14619984D01*
X15081325Y-14619984D02*
X15100372Y-14610460D01*
X15100372Y-14610460D02*
X15109896Y-14591412D01*
X15109896Y-14591412D02*
X15109896Y-14581888D01*
X15109896Y-14581888D02*
X15100372Y-14562841D01*
X15100372Y-14562841D02*
X15081325Y-14553317D01*
X15081325Y-14553317D02*
X15052753Y-14553317D01*
X15052753Y-14553317D02*
X15033706Y-14543793D01*
X15033706Y-14543793D02*
X15024182Y-14524746D01*
X15024182Y-14524746D02*
X15024182Y-14515222D01*
X15024182Y-14515222D02*
X15033706Y-14496174D01*
X15033706Y-14496174D02*
X15052753Y-14486650D01*
X15052753Y-14486650D02*
X15081325Y-14486650D01*
X15081325Y-14486650D02*
X15100372Y-14496174D01*
X15176563Y-14696174D02*
X15186087Y-14686650D01*
X15186087Y-14686650D02*
X15205134Y-14658079D01*
X15205134Y-14658079D02*
X15214658Y-14639031D01*
X15214658Y-14639031D02*
X15224182Y-14610460D01*
X15224182Y-14610460D02*
X15233706Y-14562841D01*
X15233706Y-14562841D02*
X15233706Y-14524746D01*
X15233706Y-14524746D02*
X15224182Y-14477127D01*
X15224182Y-14477127D02*
X15214658Y-14448555D01*
X15214658Y-14448555D02*
X15205134Y-14429508D01*
X15205134Y-14429508D02*
X15186087Y-14400936D01*
X15186087Y-14400936D02*
X15176563Y-14391412D01*
D10*
X10321500Y-14752500D02*
X10401500Y-14832500D01*
X10401500Y-14752500D02*
X10321500Y-14832500D01*
X10401500Y-14792500D02*
G75*
G03*
X10321500Y-14792500I-40000J0D01*
G01*
X10321500Y-14792500D02*
G75*
G03*
X10401500Y-14792500I40000J0D01*
G01*
D11*
X10700372Y-14683984D02*
X10719420Y-14683984D01*
X10719420Y-14683984D02*
X10738467Y-14693508D01*
X10738467Y-14693508D02*
X10747991Y-14703031D01*
X10747991Y-14703031D02*
X10757515Y-14722079D01*
X10757515Y-14722079D02*
X10767039Y-14760174D01*
X10767039Y-14760174D02*
X10767039Y-14807793D01*
X10767039Y-14807793D02*
X10757515Y-14845888D01*
X10757515Y-14845888D02*
X10747991Y-14864936D01*
X10747991Y-14864936D02*
X10738467Y-14874460D01*
X10738467Y-14874460D02*
X10719420Y-14883984D01*
X10719420Y-14883984D02*
X10700372Y-14883984D01*
X10700372Y-14883984D02*
X10681324Y-14874460D01*
X10681324Y-14874460D02*
X10671801Y-14864936D01*
X10671801Y-14864936D02*
X10662277Y-14845888D01*
X10662277Y-14845888D02*
X10652753Y-14807793D01*
X10652753Y-14807793D02*
X10652753Y-14760174D01*
X10652753Y-14760174D02*
X10662277Y-14722079D01*
X10662277Y-14722079D02*
X10671801Y-14703031D01*
X10671801Y-14703031D02*
X10681324Y-14693508D01*
X10681324Y-14693508D02*
X10700372Y-14683984D01*
X10852753Y-14864936D02*
X10862277Y-14874460D01*
X10862277Y-14874460D02*
X10852753Y-14883984D01*
X10852753Y-14883984D02*
X10843229Y-14874460D01*
X10843229Y-14874460D02*
X10852753Y-14864936D01*
X10852753Y-14864936D02*
X10852753Y-14883984D01*
X10976563Y-14769698D02*
X10957515Y-14760174D01*
X10957515Y-14760174D02*
X10947991Y-14750650D01*
X10947991Y-14750650D02*
X10938467Y-14731603D01*
X10938467Y-14731603D02*
X10938467Y-14722079D01*
X10938467Y-14722079D02*
X10947991Y-14703031D01*
X10947991Y-14703031D02*
X10957515Y-14693508D01*
X10957515Y-14693508D02*
X10976563Y-14683984D01*
X10976563Y-14683984D02*
X11014658Y-14683984D01*
X11014658Y-14683984D02*
X11033705Y-14693508D01*
X11033705Y-14693508D02*
X11043229Y-14703031D01*
X11043229Y-14703031D02*
X11052753Y-14722079D01*
X11052753Y-14722079D02*
X11052753Y-14731603D01*
X11052753Y-14731603D02*
X11043229Y-14750650D01*
X11043229Y-14750650D02*
X11033705Y-14760174D01*
X11033705Y-14760174D02*
X11014658Y-14769698D01*
X11014658Y-14769698D02*
X10976563Y-14769698D01*
X10976563Y-14769698D02*
X10957515Y-14779222D01*
X10957515Y-14779222D02*
X10947991Y-14788746D01*
X10947991Y-14788746D02*
X10938467Y-14807793D01*
X10938467Y-14807793D02*
X10938467Y-14845888D01*
X10938467Y-14845888D02*
X10947991Y-14864936D01*
X10947991Y-14864936D02*
X10957515Y-14874460D01*
X10957515Y-14874460D02*
X10976563Y-14883984D01*
X10976563Y-14883984D02*
X11014658Y-14883984D01*
X11014658Y-14883984D02*
X11033705Y-14874460D01*
X11033705Y-14874460D02*
X11043229Y-14864936D01*
X11043229Y-14864936D02*
X11052753Y-14845888D01*
X11052753Y-14845888D02*
X11052753Y-14807793D01*
X11052753Y-14807793D02*
X11043229Y-14788746D01*
X11043229Y-14788746D02*
X11033705Y-14779222D01*
X11033705Y-14779222D02*
X11014658Y-14769698D01*
X11176563Y-14683984D02*
X11195610Y-14683984D01*
X11195610Y-14683984D02*
X11214658Y-14693508D01*
X11214658Y-14693508D02*
X11224182Y-14703031D01*
X11224182Y-14703031D02*
X11233705Y-14722079D01*
X11233705Y-14722079D02*
X11243229Y-14760174D01*
X11243229Y-14760174D02*
X11243229Y-14807793D01*
X11243229Y-14807793D02*
X11233705Y-14845888D01*
X11233705Y-14845888D02*
X11224182Y-14864936D01*
X11224182Y-14864936D02*
X11214658Y-14874460D01*
X11214658Y-14874460D02*
X11195610Y-14883984D01*
X11195610Y-14883984D02*
X11176563Y-14883984D01*
X11176563Y-14883984D02*
X11157515Y-14874460D01*
X11157515Y-14874460D02*
X11147991Y-14864936D01*
X11147991Y-14864936D02*
X11138467Y-14845888D01*
X11138467Y-14845888D02*
X11128944Y-14807793D01*
X11128944Y-14807793D02*
X11128944Y-14760174D01*
X11128944Y-14760174D02*
X11138467Y-14722079D01*
X11138467Y-14722079D02*
X11147991Y-14703031D01*
X11147991Y-14703031D02*
X11157515Y-14693508D01*
X11157515Y-14693508D02*
X11176563Y-14683984D01*
X11367039Y-14683984D02*
X11386086Y-14683984D01*
X11386086Y-14683984D02*
X11405134Y-14693508D01*
X11405134Y-14693508D02*
X11414658Y-14703031D01*
X11414658Y-14703031D02*
X11424182Y-14722079D01*
X11424182Y-14722079D02*
X11433705Y-14760174D01*
X11433705Y-14760174D02*
X11433705Y-14807793D01*
X11433705Y-14807793D02*
X11424182Y-14845888D01*
X11424182Y-14845888D02*
X11414658Y-14864936D01*
X11414658Y-14864936D02*
X11405134Y-14874460D01*
X11405134Y-14874460D02*
X11386086Y-14883984D01*
X11386086Y-14883984D02*
X11367039Y-14883984D01*
X11367039Y-14883984D02*
X11347991Y-14874460D01*
X11347991Y-14874460D02*
X11338467Y-14864936D01*
X11338467Y-14864936D02*
X11328943Y-14845888D01*
X11328943Y-14845888D02*
X11319420Y-14807793D01*
X11319420Y-14807793D02*
X11319420Y-14760174D01*
X11319420Y-14760174D02*
X11328943Y-14722079D01*
X11328943Y-14722079D02*
X11338467Y-14703031D01*
X11338467Y-14703031D02*
X11347991Y-14693508D01*
X11347991Y-14693508D02*
X11367039Y-14683984D01*
X11519420Y-14883984D02*
X11519420Y-14750650D01*
X11519420Y-14769698D02*
X11528943Y-14760174D01*
X11528943Y-14760174D02*
X11547991Y-14750650D01*
X11547991Y-14750650D02*
X11576563Y-14750650D01*
X11576563Y-14750650D02*
X11595610Y-14760174D01*
X11595610Y-14760174D02*
X11605134Y-14779222D01*
X11605134Y-14779222D02*
X11605134Y-14883984D01*
X11605134Y-14779222D02*
X11614658Y-14760174D01*
X11614658Y-14760174D02*
X11633705Y-14750650D01*
X11633705Y-14750650D02*
X11662277Y-14750650D01*
X11662277Y-14750650D02*
X11681324Y-14760174D01*
X11681324Y-14760174D02*
X11690848Y-14779222D01*
X11690848Y-14779222D02*
X11690848Y-14883984D01*
X11786086Y-14883984D02*
X11786086Y-14750650D01*
X11786086Y-14769698D02*
X11795610Y-14760174D01*
X11795610Y-14760174D02*
X11814658Y-14750650D01*
X11814658Y-14750650D02*
X11843229Y-14750650D01*
X11843229Y-14750650D02*
X11862277Y-14760174D01*
X11862277Y-14760174D02*
X11871801Y-14779222D01*
X11871801Y-14779222D02*
X11871801Y-14883984D01*
X11871801Y-14779222D02*
X11881324Y-14760174D01*
X11881324Y-14760174D02*
X11900372Y-14750650D01*
X11900372Y-14750650D02*
X11928943Y-14750650D01*
X11928943Y-14750650D02*
X11947991Y-14760174D01*
X11947991Y-14760174D02*
X11957515Y-14779222D01*
X11957515Y-14779222D02*
X11957515Y-14883984D01*
X12347991Y-14674460D02*
X12176563Y-14931603D01*
X12605134Y-14683984D02*
X12624182Y-14683984D01*
X12624182Y-14683984D02*
X12643229Y-14693508D01*
X12643229Y-14693508D02*
X12652753Y-14703031D01*
X12652753Y-14703031D02*
X12662277Y-14722079D01*
X12662277Y-14722079D02*
X12671801Y-14760174D01*
X12671801Y-14760174D02*
X12671801Y-14807793D01*
X12671801Y-14807793D02*
X12662277Y-14845888D01*
X12662277Y-14845888D02*
X12652753Y-14864936D01*
X12652753Y-14864936D02*
X12643229Y-14874460D01*
X12643229Y-14874460D02*
X12624182Y-14883984D01*
X12624182Y-14883984D02*
X12605134Y-14883984D01*
X12605134Y-14883984D02*
X12586086Y-14874460D01*
X12586086Y-14874460D02*
X12576563Y-14864936D01*
X12576563Y-14864936D02*
X12567039Y-14845888D01*
X12567039Y-14845888D02*
X12557515Y-14807793D01*
X12557515Y-14807793D02*
X12557515Y-14760174D01*
X12557515Y-14760174D02*
X12567039Y-14722079D01*
X12567039Y-14722079D02*
X12576563Y-14703031D01*
X12576563Y-14703031D02*
X12586086Y-14693508D01*
X12586086Y-14693508D02*
X12605134Y-14683984D01*
X12757515Y-14864936D02*
X12767039Y-14874460D01*
X12767039Y-14874460D02*
X12757515Y-14883984D01*
X12757515Y-14883984D02*
X12747991Y-14874460D01*
X12747991Y-14874460D02*
X12757515Y-14864936D01*
X12757515Y-14864936D02*
X12757515Y-14883984D01*
X12890848Y-14683984D02*
X12909896Y-14683984D01*
X12909896Y-14683984D02*
X12928944Y-14693508D01*
X12928944Y-14693508D02*
X12938467Y-14703031D01*
X12938467Y-14703031D02*
X12947991Y-14722079D01*
X12947991Y-14722079D02*
X12957515Y-14760174D01*
X12957515Y-14760174D02*
X12957515Y-14807793D01*
X12957515Y-14807793D02*
X12947991Y-14845888D01*
X12947991Y-14845888D02*
X12938467Y-14864936D01*
X12938467Y-14864936D02*
X12928944Y-14874460D01*
X12928944Y-14874460D02*
X12909896Y-14883984D01*
X12909896Y-14883984D02*
X12890848Y-14883984D01*
X12890848Y-14883984D02*
X12871801Y-14874460D01*
X12871801Y-14874460D02*
X12862277Y-14864936D01*
X12862277Y-14864936D02*
X12852753Y-14845888D01*
X12852753Y-14845888D02*
X12843229Y-14807793D01*
X12843229Y-14807793D02*
X12843229Y-14760174D01*
X12843229Y-14760174D02*
X12852753Y-14722079D01*
X12852753Y-14722079D02*
X12862277Y-14703031D01*
X12862277Y-14703031D02*
X12871801Y-14693508D01*
X12871801Y-14693508D02*
X12890848Y-14683984D01*
X13024182Y-14683984D02*
X13147991Y-14683984D01*
X13147991Y-14683984D02*
X13081325Y-14760174D01*
X13081325Y-14760174D02*
X13109896Y-14760174D01*
X13109896Y-14760174D02*
X13128944Y-14769698D01*
X13128944Y-14769698D02*
X13138467Y-14779222D01*
X13138467Y-14779222D02*
X13147991Y-14798269D01*
X13147991Y-14798269D02*
X13147991Y-14845888D01*
X13147991Y-14845888D02*
X13138467Y-14864936D01*
X13138467Y-14864936D02*
X13128944Y-14874460D01*
X13128944Y-14874460D02*
X13109896Y-14883984D01*
X13109896Y-14883984D02*
X13052753Y-14883984D01*
X13052753Y-14883984D02*
X13033706Y-14874460D01*
X13033706Y-14874460D02*
X13024182Y-14864936D01*
X13338467Y-14883984D02*
X13224182Y-14883984D01*
X13281325Y-14883984D02*
X13281325Y-14683984D01*
X13281325Y-14683984D02*
X13262277Y-14712555D01*
X13262277Y-14712555D02*
X13243229Y-14731603D01*
X13243229Y-14731603D02*
X13224182Y-14741127D01*
X13519420Y-14683984D02*
X13424182Y-14683984D01*
X13424182Y-14683984D02*
X13414658Y-14779222D01*
X13414658Y-14779222D02*
X13424182Y-14769698D01*
X13424182Y-14769698D02*
X13443229Y-14760174D01*
X13443229Y-14760174D02*
X13490848Y-14760174D01*
X13490848Y-14760174D02*
X13509896Y-14769698D01*
X13509896Y-14769698D02*
X13519420Y-14779222D01*
X13519420Y-14779222D02*
X13528944Y-14798269D01*
X13528944Y-14798269D02*
X13528944Y-14845888D01*
X13528944Y-14845888D02*
X13519420Y-14864936D01*
X13519420Y-14864936D02*
X13509896Y-14874460D01*
X13509896Y-14874460D02*
X13490848Y-14883984D01*
X13490848Y-14883984D02*
X13443229Y-14883984D01*
X13443229Y-14883984D02*
X13424182Y-14874460D01*
X13424182Y-14874460D02*
X13414658Y-14864936D01*
X13605134Y-14683984D02*
X13605134Y-14722079D01*
X13681325Y-14683984D02*
X13681325Y-14722079D01*
X13976563Y-14960174D02*
X13967039Y-14950650D01*
X13967039Y-14950650D02*
X13947991Y-14922079D01*
X13947991Y-14922079D02*
X13938468Y-14903031D01*
X13938468Y-14903031D02*
X13928944Y-14874460D01*
X13928944Y-14874460D02*
X13919420Y-14826841D01*
X13919420Y-14826841D02*
X13919420Y-14788746D01*
X13919420Y-14788746D02*
X13928944Y-14741127D01*
X13928944Y-14741127D02*
X13938468Y-14712555D01*
X13938468Y-14712555D02*
X13947991Y-14693508D01*
X13947991Y-14693508D02*
X13967039Y-14664936D01*
X13967039Y-14664936D02*
X13976563Y-14655412D01*
X14043229Y-14703031D02*
X14052753Y-14693508D01*
X14052753Y-14693508D02*
X14071801Y-14683984D01*
X14071801Y-14683984D02*
X14119420Y-14683984D01*
X14119420Y-14683984D02*
X14138468Y-14693508D01*
X14138468Y-14693508D02*
X14147991Y-14703031D01*
X14147991Y-14703031D02*
X14157515Y-14722079D01*
X14157515Y-14722079D02*
X14157515Y-14741127D01*
X14157515Y-14741127D02*
X14147991Y-14769698D01*
X14147991Y-14769698D02*
X14033706Y-14883984D01*
X14033706Y-14883984D02*
X14157515Y-14883984D01*
X14395610Y-14883984D02*
X14395610Y-14683984D01*
X14481325Y-14883984D02*
X14481325Y-14779222D01*
X14481325Y-14779222D02*
X14471801Y-14760174D01*
X14471801Y-14760174D02*
X14452753Y-14750650D01*
X14452753Y-14750650D02*
X14424182Y-14750650D01*
X14424182Y-14750650D02*
X14405134Y-14760174D01*
X14405134Y-14760174D02*
X14395610Y-14769698D01*
X14605134Y-14883984D02*
X14586087Y-14874460D01*
X14586087Y-14874460D02*
X14576563Y-14864936D01*
X14576563Y-14864936D02*
X14567039Y-14845888D01*
X14567039Y-14845888D02*
X14567039Y-14788746D01*
X14567039Y-14788746D02*
X14576563Y-14769698D01*
X14576563Y-14769698D02*
X14586087Y-14760174D01*
X14586087Y-14760174D02*
X14605134Y-14750650D01*
X14605134Y-14750650D02*
X14633706Y-14750650D01*
X14633706Y-14750650D02*
X14652753Y-14760174D01*
X14652753Y-14760174D02*
X14662277Y-14769698D01*
X14662277Y-14769698D02*
X14671801Y-14788746D01*
X14671801Y-14788746D02*
X14671801Y-14845888D01*
X14671801Y-14845888D02*
X14662277Y-14864936D01*
X14662277Y-14864936D02*
X14652753Y-14874460D01*
X14652753Y-14874460D02*
X14633706Y-14883984D01*
X14633706Y-14883984D02*
X14605134Y-14883984D01*
X14786087Y-14883984D02*
X14767039Y-14874460D01*
X14767039Y-14874460D02*
X14757515Y-14855412D01*
X14757515Y-14855412D02*
X14757515Y-14683984D01*
X14938468Y-14874460D02*
X14919420Y-14883984D01*
X14919420Y-14883984D02*
X14881325Y-14883984D01*
X14881325Y-14883984D02*
X14862277Y-14874460D01*
X14862277Y-14874460D02*
X14852753Y-14855412D01*
X14852753Y-14855412D02*
X14852753Y-14779222D01*
X14852753Y-14779222D02*
X14862277Y-14760174D01*
X14862277Y-14760174D02*
X14881325Y-14750650D01*
X14881325Y-14750650D02*
X14919420Y-14750650D01*
X14919420Y-14750650D02*
X14938468Y-14760174D01*
X14938468Y-14760174D02*
X14947991Y-14779222D01*
X14947991Y-14779222D02*
X14947991Y-14798269D01*
X14947991Y-14798269D02*
X14852753Y-14817317D01*
X15024182Y-14874460D02*
X15043230Y-14883984D01*
X15043230Y-14883984D02*
X15081325Y-14883984D01*
X15081325Y-14883984D02*
X15100372Y-14874460D01*
X15100372Y-14874460D02*
X15109896Y-14855412D01*
X15109896Y-14855412D02*
X15109896Y-14845888D01*
X15109896Y-14845888D02*
X15100372Y-14826841D01*
X15100372Y-14826841D02*
X15081325Y-14817317D01*
X15081325Y-14817317D02*
X15052753Y-14817317D01*
X15052753Y-14817317D02*
X15033706Y-14807793D01*
X15033706Y-14807793D02*
X15024182Y-14788746D01*
X15024182Y-14788746D02*
X15024182Y-14779222D01*
X15024182Y-14779222D02*
X15033706Y-14760174D01*
X15033706Y-14760174D02*
X15052753Y-14750650D01*
X15052753Y-14750650D02*
X15081325Y-14750650D01*
X15081325Y-14750650D02*
X15100372Y-14760174D01*
X15176563Y-14960174D02*
X15186087Y-14950650D01*
X15186087Y-14950650D02*
X15205134Y-14922079D01*
X15205134Y-14922079D02*
X15214658Y-14903031D01*
X15214658Y-14903031D02*
X15224182Y-14874460D01*
X15224182Y-14874460D02*
X15233706Y-14826841D01*
X15233706Y-14826841D02*
X15233706Y-14788746D01*
X15233706Y-14788746D02*
X15224182Y-14741127D01*
X15224182Y-14741127D02*
X15214658Y-14712555D01*
X15214658Y-14712555D02*
X15205134Y-14693508D01*
X15205134Y-14693508D02*
X15186087Y-14664936D01*
X15186087Y-14664936D02*
X15176563Y-14655412D01*
D10*
X10311500Y-15011500D02*
X10401500Y-15101500D01*
X10401500Y-15011500D02*
X10311500Y-15101500D01*
X10356500Y-15011500D02*
X10356500Y-15101500D01*
X10311500Y-15056500D02*
X10401500Y-15056500D01*
D11*
X10700372Y-14947984D02*
X10719420Y-14947984D01*
X10719420Y-14947984D02*
X10738467Y-14957508D01*
X10738467Y-14957508D02*
X10747991Y-14967031D01*
X10747991Y-14967031D02*
X10757515Y-14986079D01*
X10757515Y-14986079D02*
X10767039Y-15024174D01*
X10767039Y-15024174D02*
X10767039Y-15071793D01*
X10767039Y-15071793D02*
X10757515Y-15109888D01*
X10757515Y-15109888D02*
X10747991Y-15128936D01*
X10747991Y-15128936D02*
X10738467Y-15138460D01*
X10738467Y-15138460D02*
X10719420Y-15147984D01*
X10719420Y-15147984D02*
X10700372Y-15147984D01*
X10700372Y-15147984D02*
X10681324Y-15138460D01*
X10681324Y-15138460D02*
X10671801Y-15128936D01*
X10671801Y-15128936D02*
X10662277Y-15109888D01*
X10662277Y-15109888D02*
X10652753Y-15071793D01*
X10652753Y-15071793D02*
X10652753Y-15024174D01*
X10652753Y-15024174D02*
X10662277Y-14986079D01*
X10662277Y-14986079D02*
X10671801Y-14967031D01*
X10671801Y-14967031D02*
X10681324Y-14957508D01*
X10681324Y-14957508D02*
X10700372Y-14947984D01*
X10852753Y-15128936D02*
X10862277Y-15138460D01*
X10862277Y-15138460D02*
X10852753Y-15147984D01*
X10852753Y-15147984D02*
X10843229Y-15138460D01*
X10843229Y-15138460D02*
X10852753Y-15128936D01*
X10852753Y-15128936D02*
X10852753Y-15147984D01*
X10957515Y-15147984D02*
X10995610Y-15147984D01*
X10995610Y-15147984D02*
X11014658Y-15138460D01*
X11014658Y-15138460D02*
X11024182Y-15128936D01*
X11024182Y-15128936D02*
X11043229Y-15100365D01*
X11043229Y-15100365D02*
X11052753Y-15062269D01*
X11052753Y-15062269D02*
X11052753Y-14986079D01*
X11052753Y-14986079D02*
X11043229Y-14967031D01*
X11043229Y-14967031D02*
X11033705Y-14957508D01*
X11033705Y-14957508D02*
X11014658Y-14947984D01*
X11014658Y-14947984D02*
X10976563Y-14947984D01*
X10976563Y-14947984D02*
X10957515Y-14957508D01*
X10957515Y-14957508D02*
X10947991Y-14967031D01*
X10947991Y-14967031D02*
X10938467Y-14986079D01*
X10938467Y-14986079D02*
X10938467Y-15033698D01*
X10938467Y-15033698D02*
X10947991Y-15052746D01*
X10947991Y-15052746D02*
X10957515Y-15062269D01*
X10957515Y-15062269D02*
X10976563Y-15071793D01*
X10976563Y-15071793D02*
X11014658Y-15071793D01*
X11014658Y-15071793D02*
X11033705Y-15062269D01*
X11033705Y-15062269D02*
X11043229Y-15052746D01*
X11043229Y-15052746D02*
X11052753Y-15033698D01*
X11176563Y-14947984D02*
X11195610Y-14947984D01*
X11195610Y-14947984D02*
X11214658Y-14957508D01*
X11214658Y-14957508D02*
X11224182Y-14967031D01*
X11224182Y-14967031D02*
X11233705Y-14986079D01*
X11233705Y-14986079D02*
X11243229Y-15024174D01*
X11243229Y-15024174D02*
X11243229Y-15071793D01*
X11243229Y-15071793D02*
X11233705Y-15109888D01*
X11233705Y-15109888D02*
X11224182Y-15128936D01*
X11224182Y-15128936D02*
X11214658Y-15138460D01*
X11214658Y-15138460D02*
X11195610Y-15147984D01*
X11195610Y-15147984D02*
X11176563Y-15147984D01*
X11176563Y-15147984D02*
X11157515Y-15138460D01*
X11157515Y-15138460D02*
X11147991Y-15128936D01*
X11147991Y-15128936D02*
X11138467Y-15109888D01*
X11138467Y-15109888D02*
X11128944Y-15071793D01*
X11128944Y-15071793D02*
X11128944Y-15024174D01*
X11128944Y-15024174D02*
X11138467Y-14986079D01*
X11138467Y-14986079D02*
X11147991Y-14967031D01*
X11147991Y-14967031D02*
X11157515Y-14957508D01*
X11157515Y-14957508D02*
X11176563Y-14947984D01*
X11367039Y-14947984D02*
X11386086Y-14947984D01*
X11386086Y-14947984D02*
X11405134Y-14957508D01*
X11405134Y-14957508D02*
X11414658Y-14967031D01*
X11414658Y-14967031D02*
X11424182Y-14986079D01*
X11424182Y-14986079D02*
X11433705Y-15024174D01*
X11433705Y-15024174D02*
X11433705Y-15071793D01*
X11433705Y-15071793D02*
X11424182Y-15109888D01*
X11424182Y-15109888D02*
X11414658Y-15128936D01*
X11414658Y-15128936D02*
X11405134Y-15138460D01*
X11405134Y-15138460D02*
X11386086Y-15147984D01*
X11386086Y-15147984D02*
X11367039Y-15147984D01*
X11367039Y-15147984D02*
X11347991Y-15138460D01*
X11347991Y-15138460D02*
X11338467Y-15128936D01*
X11338467Y-15128936D02*
X11328943Y-15109888D01*
X11328943Y-15109888D02*
X11319420Y-15071793D01*
X11319420Y-15071793D02*
X11319420Y-15024174D01*
X11319420Y-15024174D02*
X11328943Y-14986079D01*
X11328943Y-14986079D02*
X11338467Y-14967031D01*
X11338467Y-14967031D02*
X11347991Y-14957508D01*
X11347991Y-14957508D02*
X11367039Y-14947984D01*
X11519420Y-15147984D02*
X11519420Y-15014650D01*
X11519420Y-15033698D02*
X11528943Y-15024174D01*
X11528943Y-15024174D02*
X11547991Y-15014650D01*
X11547991Y-15014650D02*
X11576563Y-15014650D01*
X11576563Y-15014650D02*
X11595610Y-15024174D01*
X11595610Y-15024174D02*
X11605134Y-15043222D01*
X11605134Y-15043222D02*
X11605134Y-15147984D01*
X11605134Y-15043222D02*
X11614658Y-15024174D01*
X11614658Y-15024174D02*
X11633705Y-15014650D01*
X11633705Y-15014650D02*
X11662277Y-15014650D01*
X11662277Y-15014650D02*
X11681324Y-15024174D01*
X11681324Y-15024174D02*
X11690848Y-15043222D01*
X11690848Y-15043222D02*
X11690848Y-15147984D01*
X11786086Y-15147984D02*
X11786086Y-15014650D01*
X11786086Y-15033698D02*
X11795610Y-15024174D01*
X11795610Y-15024174D02*
X11814658Y-15014650D01*
X11814658Y-15014650D02*
X11843229Y-15014650D01*
X11843229Y-15014650D02*
X11862277Y-15024174D01*
X11862277Y-15024174D02*
X11871801Y-15043222D01*
X11871801Y-15043222D02*
X11871801Y-15147984D01*
X11871801Y-15043222D02*
X11881324Y-15024174D01*
X11881324Y-15024174D02*
X11900372Y-15014650D01*
X11900372Y-15014650D02*
X11928943Y-15014650D01*
X11928943Y-15014650D02*
X11947991Y-15024174D01*
X11947991Y-15024174D02*
X11957515Y-15043222D01*
X11957515Y-15043222D02*
X11957515Y-15147984D01*
X12347991Y-14938460D02*
X12176563Y-15195603D01*
X12605134Y-14947984D02*
X12624182Y-14947984D01*
X12624182Y-14947984D02*
X12643229Y-14957508D01*
X12643229Y-14957508D02*
X12652753Y-14967031D01*
X12652753Y-14967031D02*
X12662277Y-14986079D01*
X12662277Y-14986079D02*
X12671801Y-15024174D01*
X12671801Y-15024174D02*
X12671801Y-15071793D01*
X12671801Y-15071793D02*
X12662277Y-15109888D01*
X12662277Y-15109888D02*
X12652753Y-15128936D01*
X12652753Y-15128936D02*
X12643229Y-15138460D01*
X12643229Y-15138460D02*
X12624182Y-15147984D01*
X12624182Y-15147984D02*
X12605134Y-15147984D01*
X12605134Y-15147984D02*
X12586086Y-15138460D01*
X12586086Y-15138460D02*
X12576563Y-15128936D01*
X12576563Y-15128936D02*
X12567039Y-15109888D01*
X12567039Y-15109888D02*
X12557515Y-15071793D01*
X12557515Y-15071793D02*
X12557515Y-15024174D01*
X12557515Y-15024174D02*
X12567039Y-14986079D01*
X12567039Y-14986079D02*
X12576563Y-14967031D01*
X12576563Y-14967031D02*
X12586086Y-14957508D01*
X12586086Y-14957508D02*
X12605134Y-14947984D01*
X12757515Y-15128936D02*
X12767039Y-15138460D01*
X12767039Y-15138460D02*
X12757515Y-15147984D01*
X12757515Y-15147984D02*
X12747991Y-15138460D01*
X12747991Y-15138460D02*
X12757515Y-15128936D01*
X12757515Y-15128936D02*
X12757515Y-15147984D01*
X12890848Y-14947984D02*
X12909896Y-14947984D01*
X12909896Y-14947984D02*
X12928944Y-14957508D01*
X12928944Y-14957508D02*
X12938467Y-14967031D01*
X12938467Y-14967031D02*
X12947991Y-14986079D01*
X12947991Y-14986079D02*
X12957515Y-15024174D01*
X12957515Y-15024174D02*
X12957515Y-15071793D01*
X12957515Y-15071793D02*
X12947991Y-15109888D01*
X12947991Y-15109888D02*
X12938467Y-15128936D01*
X12938467Y-15128936D02*
X12928944Y-15138460D01*
X12928944Y-15138460D02*
X12909896Y-15147984D01*
X12909896Y-15147984D02*
X12890848Y-15147984D01*
X12890848Y-15147984D02*
X12871801Y-15138460D01*
X12871801Y-15138460D02*
X12862277Y-15128936D01*
X12862277Y-15128936D02*
X12852753Y-15109888D01*
X12852753Y-15109888D02*
X12843229Y-15071793D01*
X12843229Y-15071793D02*
X12843229Y-15024174D01*
X12843229Y-15024174D02*
X12852753Y-14986079D01*
X12852753Y-14986079D02*
X12862277Y-14967031D01*
X12862277Y-14967031D02*
X12871801Y-14957508D01*
X12871801Y-14957508D02*
X12890848Y-14947984D01*
X13024182Y-14947984D02*
X13147991Y-14947984D01*
X13147991Y-14947984D02*
X13081325Y-15024174D01*
X13081325Y-15024174D02*
X13109896Y-15024174D01*
X13109896Y-15024174D02*
X13128944Y-15033698D01*
X13128944Y-15033698D02*
X13138467Y-15043222D01*
X13138467Y-15043222D02*
X13147991Y-15062269D01*
X13147991Y-15062269D02*
X13147991Y-15109888D01*
X13147991Y-15109888D02*
X13138467Y-15128936D01*
X13138467Y-15128936D02*
X13128944Y-15138460D01*
X13128944Y-15138460D02*
X13109896Y-15147984D01*
X13109896Y-15147984D02*
X13052753Y-15147984D01*
X13052753Y-15147984D02*
X13033706Y-15138460D01*
X13033706Y-15138460D02*
X13024182Y-15128936D01*
X13328944Y-14947984D02*
X13233706Y-14947984D01*
X13233706Y-14947984D02*
X13224182Y-15043222D01*
X13224182Y-15043222D02*
X13233706Y-15033698D01*
X13233706Y-15033698D02*
X13252753Y-15024174D01*
X13252753Y-15024174D02*
X13300372Y-15024174D01*
X13300372Y-15024174D02*
X13319420Y-15033698D01*
X13319420Y-15033698D02*
X13328944Y-15043222D01*
X13328944Y-15043222D02*
X13338467Y-15062269D01*
X13338467Y-15062269D02*
X13338467Y-15109888D01*
X13338467Y-15109888D02*
X13328944Y-15128936D01*
X13328944Y-15128936D02*
X13319420Y-15138460D01*
X13319420Y-15138460D02*
X13300372Y-15147984D01*
X13300372Y-15147984D02*
X13252753Y-15147984D01*
X13252753Y-15147984D02*
X13233706Y-15138460D01*
X13233706Y-15138460D02*
X13224182Y-15128936D01*
X13509896Y-15014650D02*
X13509896Y-15147984D01*
X13462277Y-14938460D02*
X13414658Y-15081317D01*
X13414658Y-15081317D02*
X13538467Y-15081317D01*
X13605134Y-14947984D02*
X13605134Y-14986079D01*
X13681325Y-14947984D02*
X13681325Y-14986079D01*
X13976563Y-15224174D02*
X13967039Y-15214650D01*
X13967039Y-15214650D02*
X13947991Y-15186079D01*
X13947991Y-15186079D02*
X13938468Y-15167031D01*
X13938468Y-15167031D02*
X13928944Y-15138460D01*
X13928944Y-15138460D02*
X13919420Y-15090841D01*
X13919420Y-15090841D02*
X13919420Y-15052746D01*
X13919420Y-15052746D02*
X13928944Y-15005127D01*
X13928944Y-15005127D02*
X13938468Y-14976555D01*
X13938468Y-14976555D02*
X13947991Y-14957508D01*
X13947991Y-14957508D02*
X13967039Y-14928936D01*
X13967039Y-14928936D02*
X13976563Y-14919412D01*
X14033706Y-14947984D02*
X14157515Y-14947984D01*
X14157515Y-14947984D02*
X14090848Y-15024174D01*
X14090848Y-15024174D02*
X14119420Y-15024174D01*
X14119420Y-15024174D02*
X14138468Y-15033698D01*
X14138468Y-15033698D02*
X14147991Y-15043222D01*
X14147991Y-15043222D02*
X14157515Y-15062269D01*
X14157515Y-15062269D02*
X14157515Y-15109888D01*
X14157515Y-15109888D02*
X14147991Y-15128936D01*
X14147991Y-15128936D02*
X14138468Y-15138460D01*
X14138468Y-15138460D02*
X14119420Y-15147984D01*
X14119420Y-15147984D02*
X14062277Y-15147984D01*
X14062277Y-15147984D02*
X14043229Y-15138460D01*
X14043229Y-15138460D02*
X14033706Y-15128936D01*
X14395610Y-15147984D02*
X14395610Y-14947984D01*
X14481325Y-15147984D02*
X14481325Y-15043222D01*
X14481325Y-15043222D02*
X14471801Y-15024174D01*
X14471801Y-15024174D02*
X14452753Y-15014650D01*
X14452753Y-15014650D02*
X14424182Y-15014650D01*
X14424182Y-15014650D02*
X14405134Y-15024174D01*
X14405134Y-15024174D02*
X14395610Y-15033698D01*
X14605134Y-15147984D02*
X14586087Y-15138460D01*
X14586087Y-15138460D02*
X14576563Y-15128936D01*
X14576563Y-15128936D02*
X14567039Y-15109888D01*
X14567039Y-15109888D02*
X14567039Y-15052746D01*
X14567039Y-15052746D02*
X14576563Y-15033698D01*
X14576563Y-15033698D02*
X14586087Y-15024174D01*
X14586087Y-15024174D02*
X14605134Y-15014650D01*
X14605134Y-15014650D02*
X14633706Y-15014650D01*
X14633706Y-15014650D02*
X14652753Y-15024174D01*
X14652753Y-15024174D02*
X14662277Y-15033698D01*
X14662277Y-15033698D02*
X14671801Y-15052746D01*
X14671801Y-15052746D02*
X14671801Y-15109888D01*
X14671801Y-15109888D02*
X14662277Y-15128936D01*
X14662277Y-15128936D02*
X14652753Y-15138460D01*
X14652753Y-15138460D02*
X14633706Y-15147984D01*
X14633706Y-15147984D02*
X14605134Y-15147984D01*
X14786087Y-15147984D02*
X14767039Y-15138460D01*
X14767039Y-15138460D02*
X14757515Y-15119412D01*
X14757515Y-15119412D02*
X14757515Y-14947984D01*
X14938468Y-15138460D02*
X14919420Y-15147984D01*
X14919420Y-15147984D02*
X14881325Y-15147984D01*
X14881325Y-15147984D02*
X14862277Y-15138460D01*
X14862277Y-15138460D02*
X14852753Y-15119412D01*
X14852753Y-15119412D02*
X14852753Y-15043222D01*
X14852753Y-15043222D02*
X14862277Y-15024174D01*
X14862277Y-15024174D02*
X14881325Y-15014650D01*
X14881325Y-15014650D02*
X14919420Y-15014650D01*
X14919420Y-15014650D02*
X14938468Y-15024174D01*
X14938468Y-15024174D02*
X14947991Y-15043222D01*
X14947991Y-15043222D02*
X14947991Y-15062269D01*
X14947991Y-15062269D02*
X14852753Y-15081317D01*
X15024182Y-15138460D02*
X15043230Y-15147984D01*
X15043230Y-15147984D02*
X15081325Y-15147984D01*
X15081325Y-15147984D02*
X15100372Y-15138460D01*
X15100372Y-15138460D02*
X15109896Y-15119412D01*
X15109896Y-15119412D02*
X15109896Y-15109888D01*
X15109896Y-15109888D02*
X15100372Y-15090841D01*
X15100372Y-15090841D02*
X15081325Y-15081317D01*
X15081325Y-15081317D02*
X15052753Y-15081317D01*
X15052753Y-15081317D02*
X15033706Y-15071793D01*
X15033706Y-15071793D02*
X15024182Y-15052746D01*
X15024182Y-15052746D02*
X15024182Y-15043222D01*
X15024182Y-15043222D02*
X15033706Y-15024174D01*
X15033706Y-15024174D02*
X15052753Y-15014650D01*
X15052753Y-15014650D02*
X15081325Y-15014650D01*
X15081325Y-15014650D02*
X15100372Y-15024174D01*
X15176563Y-15224174D02*
X15186087Y-15214650D01*
X15186087Y-15214650D02*
X15205134Y-15186079D01*
X15205134Y-15186079D02*
X15214658Y-15167031D01*
X15214658Y-15167031D02*
X15224182Y-15138460D01*
X15224182Y-15138460D02*
X15233706Y-15090841D01*
X15233706Y-15090841D02*
X15233706Y-15052746D01*
X15233706Y-15052746D02*
X15224182Y-15005127D01*
X15224182Y-15005127D02*
X15214658Y-14976555D01*
X15214658Y-14976555D02*
X15205134Y-14957508D01*
X15205134Y-14957508D02*
X15186087Y-14928936D01*
X15186087Y-14928936D02*
X15176563Y-14919412D01*
D10*
X10301500Y-15270500D02*
X10401500Y-15370500D01*
X10401500Y-15270500D02*
X10301500Y-15370500D01*
X10386856Y-15355856D02*
X10386856Y-15285144D01*
X10316144Y-15285144D01*
X10316144Y-15355856D01*
X10386856Y-15355856D01*
D11*
X10767039Y-15411984D02*
X10652753Y-15411984D01*
X10709896Y-15411984D02*
X10709896Y-15211984D01*
X10709896Y-15211984D02*
X10690848Y-15240555D01*
X10690848Y-15240555D02*
X10671801Y-15259603D01*
X10671801Y-15259603D02*
X10652753Y-15269127D01*
X10852753Y-15392936D02*
X10862277Y-15402460D01*
X10862277Y-15402460D02*
X10852753Y-15411984D01*
X10852753Y-15411984D02*
X10843229Y-15402460D01*
X10843229Y-15402460D02*
X10852753Y-15392936D01*
X10852753Y-15392936D02*
X10852753Y-15411984D01*
X10986086Y-15211984D02*
X11005134Y-15211984D01*
X11005134Y-15211984D02*
X11024182Y-15221508D01*
X11024182Y-15221508D02*
X11033705Y-15231031D01*
X11033705Y-15231031D02*
X11043229Y-15250079D01*
X11043229Y-15250079D02*
X11052753Y-15288174D01*
X11052753Y-15288174D02*
X11052753Y-15335793D01*
X11052753Y-15335793D02*
X11043229Y-15373888D01*
X11043229Y-15373888D02*
X11033705Y-15392936D01*
X11033705Y-15392936D02*
X11024182Y-15402460D01*
X11024182Y-15402460D02*
X11005134Y-15411984D01*
X11005134Y-15411984D02*
X10986086Y-15411984D01*
X10986086Y-15411984D02*
X10967039Y-15402460D01*
X10967039Y-15402460D02*
X10957515Y-15392936D01*
X10957515Y-15392936D02*
X10947991Y-15373888D01*
X10947991Y-15373888D02*
X10938467Y-15335793D01*
X10938467Y-15335793D02*
X10938467Y-15288174D01*
X10938467Y-15288174D02*
X10947991Y-15250079D01*
X10947991Y-15250079D02*
X10957515Y-15231031D01*
X10957515Y-15231031D02*
X10967039Y-15221508D01*
X10967039Y-15221508D02*
X10986086Y-15211984D01*
X11176563Y-15211984D02*
X11195610Y-15211984D01*
X11195610Y-15211984D02*
X11214658Y-15221508D01*
X11214658Y-15221508D02*
X11224182Y-15231031D01*
X11224182Y-15231031D02*
X11233705Y-15250079D01*
X11233705Y-15250079D02*
X11243229Y-15288174D01*
X11243229Y-15288174D02*
X11243229Y-15335793D01*
X11243229Y-15335793D02*
X11233705Y-15373888D01*
X11233705Y-15373888D02*
X11224182Y-15392936D01*
X11224182Y-15392936D02*
X11214658Y-15402460D01*
X11214658Y-15402460D02*
X11195610Y-15411984D01*
X11195610Y-15411984D02*
X11176563Y-15411984D01*
X11176563Y-15411984D02*
X11157515Y-15402460D01*
X11157515Y-15402460D02*
X11147991Y-15392936D01*
X11147991Y-15392936D02*
X11138467Y-15373888D01*
X11138467Y-15373888D02*
X11128944Y-15335793D01*
X11128944Y-15335793D02*
X11128944Y-15288174D01*
X11128944Y-15288174D02*
X11138467Y-15250079D01*
X11138467Y-15250079D02*
X11147991Y-15231031D01*
X11147991Y-15231031D02*
X11157515Y-15221508D01*
X11157515Y-15221508D02*
X11176563Y-15211984D01*
X11367039Y-15211984D02*
X11386086Y-15211984D01*
X11386086Y-15211984D02*
X11405134Y-15221508D01*
X11405134Y-15221508D02*
X11414658Y-15231031D01*
X11414658Y-15231031D02*
X11424182Y-15250079D01*
X11424182Y-15250079D02*
X11433705Y-15288174D01*
X11433705Y-15288174D02*
X11433705Y-15335793D01*
X11433705Y-15335793D02*
X11424182Y-15373888D01*
X11424182Y-15373888D02*
X11414658Y-15392936D01*
X11414658Y-15392936D02*
X11405134Y-15402460D01*
X11405134Y-15402460D02*
X11386086Y-15411984D01*
X11386086Y-15411984D02*
X11367039Y-15411984D01*
X11367039Y-15411984D02*
X11347991Y-15402460D01*
X11347991Y-15402460D02*
X11338467Y-15392936D01*
X11338467Y-15392936D02*
X11328943Y-15373888D01*
X11328943Y-15373888D02*
X11319420Y-15335793D01*
X11319420Y-15335793D02*
X11319420Y-15288174D01*
X11319420Y-15288174D02*
X11328943Y-15250079D01*
X11328943Y-15250079D02*
X11338467Y-15231031D01*
X11338467Y-15231031D02*
X11347991Y-15221508D01*
X11347991Y-15221508D02*
X11367039Y-15211984D01*
X11519420Y-15411984D02*
X11519420Y-15278650D01*
X11519420Y-15297698D02*
X11528943Y-15288174D01*
X11528943Y-15288174D02*
X11547991Y-15278650D01*
X11547991Y-15278650D02*
X11576563Y-15278650D01*
X11576563Y-15278650D02*
X11595610Y-15288174D01*
X11595610Y-15288174D02*
X11605134Y-15307222D01*
X11605134Y-15307222D02*
X11605134Y-15411984D01*
X11605134Y-15307222D02*
X11614658Y-15288174D01*
X11614658Y-15288174D02*
X11633705Y-15278650D01*
X11633705Y-15278650D02*
X11662277Y-15278650D01*
X11662277Y-15278650D02*
X11681324Y-15288174D01*
X11681324Y-15288174D02*
X11690848Y-15307222D01*
X11690848Y-15307222D02*
X11690848Y-15411984D01*
X11786086Y-15411984D02*
X11786086Y-15278650D01*
X11786086Y-15297698D02*
X11795610Y-15288174D01*
X11795610Y-15288174D02*
X11814658Y-15278650D01*
X11814658Y-15278650D02*
X11843229Y-15278650D01*
X11843229Y-15278650D02*
X11862277Y-15288174D01*
X11862277Y-15288174D02*
X11871801Y-15307222D01*
X11871801Y-15307222D02*
X11871801Y-15411984D01*
X11871801Y-15307222D02*
X11881324Y-15288174D01*
X11881324Y-15288174D02*
X11900372Y-15278650D01*
X11900372Y-15278650D02*
X11928943Y-15278650D01*
X11928943Y-15278650D02*
X11947991Y-15288174D01*
X11947991Y-15288174D02*
X11957515Y-15307222D01*
X11957515Y-15307222D02*
X11957515Y-15411984D01*
X12347991Y-15202460D02*
X12176563Y-15459603D01*
X12605134Y-15211984D02*
X12624182Y-15211984D01*
X12624182Y-15211984D02*
X12643229Y-15221508D01*
X12643229Y-15221508D02*
X12652753Y-15231031D01*
X12652753Y-15231031D02*
X12662277Y-15250079D01*
X12662277Y-15250079D02*
X12671801Y-15288174D01*
X12671801Y-15288174D02*
X12671801Y-15335793D01*
X12671801Y-15335793D02*
X12662277Y-15373888D01*
X12662277Y-15373888D02*
X12652753Y-15392936D01*
X12652753Y-15392936D02*
X12643229Y-15402460D01*
X12643229Y-15402460D02*
X12624182Y-15411984D01*
X12624182Y-15411984D02*
X12605134Y-15411984D01*
X12605134Y-15411984D02*
X12586086Y-15402460D01*
X12586086Y-15402460D02*
X12576563Y-15392936D01*
X12576563Y-15392936D02*
X12567039Y-15373888D01*
X12567039Y-15373888D02*
X12557515Y-15335793D01*
X12557515Y-15335793D02*
X12557515Y-15288174D01*
X12557515Y-15288174D02*
X12567039Y-15250079D01*
X12567039Y-15250079D02*
X12576563Y-15231031D01*
X12576563Y-15231031D02*
X12586086Y-15221508D01*
X12586086Y-15221508D02*
X12605134Y-15211984D01*
X12757515Y-15392936D02*
X12767039Y-15402460D01*
X12767039Y-15402460D02*
X12757515Y-15411984D01*
X12757515Y-15411984D02*
X12747991Y-15402460D01*
X12747991Y-15402460D02*
X12757515Y-15392936D01*
X12757515Y-15392936D02*
X12757515Y-15411984D01*
X12890848Y-15211984D02*
X12909896Y-15211984D01*
X12909896Y-15211984D02*
X12928944Y-15221508D01*
X12928944Y-15221508D02*
X12938467Y-15231031D01*
X12938467Y-15231031D02*
X12947991Y-15250079D01*
X12947991Y-15250079D02*
X12957515Y-15288174D01*
X12957515Y-15288174D02*
X12957515Y-15335793D01*
X12957515Y-15335793D02*
X12947991Y-15373888D01*
X12947991Y-15373888D02*
X12938467Y-15392936D01*
X12938467Y-15392936D02*
X12928944Y-15402460D01*
X12928944Y-15402460D02*
X12909896Y-15411984D01*
X12909896Y-15411984D02*
X12890848Y-15411984D01*
X12890848Y-15411984D02*
X12871801Y-15402460D01*
X12871801Y-15402460D02*
X12862277Y-15392936D01*
X12862277Y-15392936D02*
X12852753Y-15373888D01*
X12852753Y-15373888D02*
X12843229Y-15335793D01*
X12843229Y-15335793D02*
X12843229Y-15288174D01*
X12843229Y-15288174D02*
X12852753Y-15250079D01*
X12852753Y-15250079D02*
X12862277Y-15231031D01*
X12862277Y-15231031D02*
X12871801Y-15221508D01*
X12871801Y-15221508D02*
X12890848Y-15211984D01*
X13024182Y-15211984D02*
X13147991Y-15211984D01*
X13147991Y-15211984D02*
X13081325Y-15288174D01*
X13081325Y-15288174D02*
X13109896Y-15288174D01*
X13109896Y-15288174D02*
X13128944Y-15297698D01*
X13128944Y-15297698D02*
X13138467Y-15307222D01*
X13138467Y-15307222D02*
X13147991Y-15326269D01*
X13147991Y-15326269D02*
X13147991Y-15373888D01*
X13147991Y-15373888D02*
X13138467Y-15392936D01*
X13138467Y-15392936D02*
X13128944Y-15402460D01*
X13128944Y-15402460D02*
X13109896Y-15411984D01*
X13109896Y-15411984D02*
X13052753Y-15411984D01*
X13052753Y-15411984D02*
X13033706Y-15402460D01*
X13033706Y-15402460D02*
X13024182Y-15392936D01*
X13243229Y-15411984D02*
X13281325Y-15411984D01*
X13281325Y-15411984D02*
X13300372Y-15402460D01*
X13300372Y-15402460D02*
X13309896Y-15392936D01*
X13309896Y-15392936D02*
X13328944Y-15364365D01*
X13328944Y-15364365D02*
X13338467Y-15326269D01*
X13338467Y-15326269D02*
X13338467Y-15250079D01*
X13338467Y-15250079D02*
X13328944Y-15231031D01*
X13328944Y-15231031D02*
X13319420Y-15221508D01*
X13319420Y-15221508D02*
X13300372Y-15211984D01*
X13300372Y-15211984D02*
X13262277Y-15211984D01*
X13262277Y-15211984D02*
X13243229Y-15221508D01*
X13243229Y-15221508D02*
X13233706Y-15231031D01*
X13233706Y-15231031D02*
X13224182Y-15250079D01*
X13224182Y-15250079D02*
X13224182Y-15297698D01*
X13224182Y-15297698D02*
X13233706Y-15316746D01*
X13233706Y-15316746D02*
X13243229Y-15326269D01*
X13243229Y-15326269D02*
X13262277Y-15335793D01*
X13262277Y-15335793D02*
X13300372Y-15335793D01*
X13300372Y-15335793D02*
X13319420Y-15326269D01*
X13319420Y-15326269D02*
X13328944Y-15316746D01*
X13328944Y-15316746D02*
X13338467Y-15297698D01*
X13509896Y-15278650D02*
X13509896Y-15411984D01*
X13462277Y-15202460D02*
X13414658Y-15345317D01*
X13414658Y-15345317D02*
X13538467Y-15345317D01*
X13605134Y-15211984D02*
X13605134Y-15250079D01*
X13681325Y-15211984D02*
X13681325Y-15250079D01*
X13976563Y-15488174D02*
X13967039Y-15478650D01*
X13967039Y-15478650D02*
X13947991Y-15450079D01*
X13947991Y-15450079D02*
X13938468Y-15431031D01*
X13938468Y-15431031D02*
X13928944Y-15402460D01*
X13928944Y-15402460D02*
X13919420Y-15354841D01*
X13919420Y-15354841D02*
X13919420Y-15316746D01*
X13919420Y-15316746D02*
X13928944Y-15269127D01*
X13928944Y-15269127D02*
X13938468Y-15240555D01*
X13938468Y-15240555D02*
X13947991Y-15221508D01*
X13947991Y-15221508D02*
X13967039Y-15192936D01*
X13967039Y-15192936D02*
X13976563Y-15183412D01*
X14138468Y-15278650D02*
X14138468Y-15411984D01*
X14090848Y-15202460D02*
X14043229Y-15345317D01*
X14043229Y-15345317D02*
X14167039Y-15345317D01*
X14271801Y-15297698D02*
X14252753Y-15288174D01*
X14252753Y-15288174D02*
X14243229Y-15278650D01*
X14243229Y-15278650D02*
X14233706Y-15259603D01*
X14233706Y-15259603D02*
X14233706Y-15250079D01*
X14233706Y-15250079D02*
X14243229Y-15231031D01*
X14243229Y-15231031D02*
X14252753Y-15221508D01*
X14252753Y-15221508D02*
X14271801Y-15211984D01*
X14271801Y-15211984D02*
X14309896Y-15211984D01*
X14309896Y-15211984D02*
X14328944Y-15221508D01*
X14328944Y-15221508D02*
X14338468Y-15231031D01*
X14338468Y-15231031D02*
X14347991Y-15250079D01*
X14347991Y-15250079D02*
X14347991Y-15259603D01*
X14347991Y-15259603D02*
X14338468Y-15278650D01*
X14338468Y-15278650D02*
X14328944Y-15288174D01*
X14328944Y-15288174D02*
X14309896Y-15297698D01*
X14309896Y-15297698D02*
X14271801Y-15297698D01*
X14271801Y-15297698D02*
X14252753Y-15307222D01*
X14252753Y-15307222D02*
X14243229Y-15316746D01*
X14243229Y-15316746D02*
X14233706Y-15335793D01*
X14233706Y-15335793D02*
X14233706Y-15373888D01*
X14233706Y-15373888D02*
X14243229Y-15392936D01*
X14243229Y-15392936D02*
X14252753Y-15402460D01*
X14252753Y-15402460D02*
X14271801Y-15411984D01*
X14271801Y-15411984D02*
X14309896Y-15411984D01*
X14309896Y-15411984D02*
X14328944Y-15402460D01*
X14328944Y-15402460D02*
X14338468Y-15392936D01*
X14338468Y-15392936D02*
X14347991Y-15373888D01*
X14347991Y-15373888D02*
X14347991Y-15335793D01*
X14347991Y-15335793D02*
X14338468Y-15316746D01*
X14338468Y-15316746D02*
X14328944Y-15307222D01*
X14328944Y-15307222D02*
X14309896Y-15297698D01*
X14586087Y-15411984D02*
X14586087Y-15211984D01*
X14671801Y-15411984D02*
X14671801Y-15307222D01*
X14671801Y-15307222D02*
X14662277Y-15288174D01*
X14662277Y-15288174D02*
X14643230Y-15278650D01*
X14643230Y-15278650D02*
X14614658Y-15278650D01*
X14614658Y-15278650D02*
X14595610Y-15288174D01*
X14595610Y-15288174D02*
X14586087Y-15297698D01*
X14795610Y-15411984D02*
X14776563Y-15402460D01*
X14776563Y-15402460D02*
X14767039Y-15392936D01*
X14767039Y-15392936D02*
X14757515Y-15373888D01*
X14757515Y-15373888D02*
X14757515Y-15316746D01*
X14757515Y-15316746D02*
X14767039Y-15297698D01*
X14767039Y-15297698D02*
X14776563Y-15288174D01*
X14776563Y-15288174D02*
X14795610Y-15278650D01*
X14795610Y-15278650D02*
X14824182Y-15278650D01*
X14824182Y-15278650D02*
X14843230Y-15288174D01*
X14843230Y-15288174D02*
X14852753Y-15297698D01*
X14852753Y-15297698D02*
X14862277Y-15316746D01*
X14862277Y-15316746D02*
X14862277Y-15373888D01*
X14862277Y-15373888D02*
X14852753Y-15392936D01*
X14852753Y-15392936D02*
X14843230Y-15402460D01*
X14843230Y-15402460D02*
X14824182Y-15411984D01*
X14824182Y-15411984D02*
X14795610Y-15411984D01*
X14976563Y-15411984D02*
X14957515Y-15402460D01*
X14957515Y-15402460D02*
X14947991Y-15383412D01*
X14947991Y-15383412D02*
X14947991Y-15211984D01*
X15128944Y-15402460D02*
X15109896Y-15411984D01*
X15109896Y-15411984D02*
X15071801Y-15411984D01*
X15071801Y-15411984D02*
X15052753Y-15402460D01*
X15052753Y-15402460D02*
X15043230Y-15383412D01*
X15043230Y-15383412D02*
X15043230Y-15307222D01*
X15043230Y-15307222D02*
X15052753Y-15288174D01*
X15052753Y-15288174D02*
X15071801Y-15278650D01*
X15071801Y-15278650D02*
X15109896Y-15278650D01*
X15109896Y-15278650D02*
X15128944Y-15288174D01*
X15128944Y-15288174D02*
X15138468Y-15307222D01*
X15138468Y-15307222D02*
X15138468Y-15326269D01*
X15138468Y-15326269D02*
X15043230Y-15345317D01*
X15214658Y-15402460D02*
X15233706Y-15411984D01*
X15233706Y-15411984D02*
X15271801Y-15411984D01*
X15271801Y-15411984D02*
X15290849Y-15402460D01*
X15290849Y-15402460D02*
X15300372Y-15383412D01*
X15300372Y-15383412D02*
X15300372Y-15373888D01*
X15300372Y-15373888D02*
X15290849Y-15354841D01*
X15290849Y-15354841D02*
X15271801Y-15345317D01*
X15271801Y-15345317D02*
X15243230Y-15345317D01*
X15243230Y-15345317D02*
X15224182Y-15335793D01*
X15224182Y-15335793D02*
X15214658Y-15316746D01*
X15214658Y-15316746D02*
X15214658Y-15307222D01*
X15214658Y-15307222D02*
X15224182Y-15288174D01*
X15224182Y-15288174D02*
X15243230Y-15278650D01*
X15243230Y-15278650D02*
X15271801Y-15278650D01*
X15271801Y-15278650D02*
X15290849Y-15288174D01*
X15367039Y-15488174D02*
X15376563Y-15478650D01*
X15376563Y-15478650D02*
X15395611Y-15450079D01*
X15395611Y-15450079D02*
X15405134Y-15431031D01*
X15405134Y-15431031D02*
X15414658Y-15402460D01*
X15414658Y-15402460D02*
X15424182Y-15354841D01*
X15424182Y-15354841D02*
X15424182Y-15316746D01*
X15424182Y-15316746D02*
X15414658Y-15269127D01*
X15414658Y-15269127D02*
X15405134Y-15240555D01*
X15405134Y-15240555D02*
X15395611Y-15221508D01*
X15395611Y-15221508D02*
X15376563Y-15192936D01*
X15376563Y-15192936D02*
X15367039Y-15183412D01*
X10201500Y-15484500D02*
X10401500Y-15684500D01*
X10401500Y-15484500D02*
X10201500Y-15684500D01*
X10301500Y-15684500D02*
X10401500Y-15584500D01*
X10301500Y-15484500D01*
X10201500Y-15584500D01*
X10301500Y-15684500D01*
X10652753Y-15495031D02*
X10662277Y-15485508D01*
X10662277Y-15485508D02*
X10681324Y-15475984D01*
X10681324Y-15475984D02*
X10728944Y-15475984D01*
X10728944Y-15475984D02*
X10747991Y-15485508D01*
X10747991Y-15485508D02*
X10757515Y-15495031D01*
X10757515Y-15495031D02*
X10767039Y-15514079D01*
X10767039Y-15514079D02*
X10767039Y-15533127D01*
X10767039Y-15533127D02*
X10757515Y-15561698D01*
X10757515Y-15561698D02*
X10643229Y-15675984D01*
X10643229Y-15675984D02*
X10767039Y-15675984D01*
X10852753Y-15656936D02*
X10862277Y-15666460D01*
X10862277Y-15666460D02*
X10852753Y-15675984D01*
X10852753Y-15675984D02*
X10843229Y-15666460D01*
X10843229Y-15666460D02*
X10852753Y-15656936D01*
X10852753Y-15656936D02*
X10852753Y-15675984D01*
X10928944Y-15475984D02*
X11052753Y-15475984D01*
X11052753Y-15475984D02*
X10986086Y-15552174D01*
X10986086Y-15552174D02*
X11014658Y-15552174D01*
X11014658Y-15552174D02*
X11033705Y-15561698D01*
X11033705Y-15561698D02*
X11043229Y-15571222D01*
X11043229Y-15571222D02*
X11052753Y-15590269D01*
X11052753Y-15590269D02*
X11052753Y-15637888D01*
X11052753Y-15637888D02*
X11043229Y-15656936D01*
X11043229Y-15656936D02*
X11033705Y-15666460D01*
X11033705Y-15666460D02*
X11014658Y-15675984D01*
X11014658Y-15675984D02*
X10957515Y-15675984D01*
X10957515Y-15675984D02*
X10938467Y-15666460D01*
X10938467Y-15666460D02*
X10928944Y-15656936D01*
X11233705Y-15475984D02*
X11138467Y-15475984D01*
X11138467Y-15475984D02*
X11128944Y-15571222D01*
X11128944Y-15571222D02*
X11138467Y-15561698D01*
X11138467Y-15561698D02*
X11157515Y-15552174D01*
X11157515Y-15552174D02*
X11205134Y-15552174D01*
X11205134Y-15552174D02*
X11224182Y-15561698D01*
X11224182Y-15561698D02*
X11233705Y-15571222D01*
X11233705Y-15571222D02*
X11243229Y-15590269D01*
X11243229Y-15590269D02*
X11243229Y-15637888D01*
X11243229Y-15637888D02*
X11233705Y-15656936D01*
X11233705Y-15656936D02*
X11224182Y-15666460D01*
X11224182Y-15666460D02*
X11205134Y-15675984D01*
X11205134Y-15675984D02*
X11157515Y-15675984D01*
X11157515Y-15675984D02*
X11138467Y-15666460D01*
X11138467Y-15666460D02*
X11128944Y-15656936D01*
X11367039Y-15475984D02*
X11386086Y-15475984D01*
X11386086Y-15475984D02*
X11405134Y-15485508D01*
X11405134Y-15485508D02*
X11414658Y-15495031D01*
X11414658Y-15495031D02*
X11424182Y-15514079D01*
X11424182Y-15514079D02*
X11433705Y-15552174D01*
X11433705Y-15552174D02*
X11433705Y-15599793D01*
X11433705Y-15599793D02*
X11424182Y-15637888D01*
X11424182Y-15637888D02*
X11414658Y-15656936D01*
X11414658Y-15656936D02*
X11405134Y-15666460D01*
X11405134Y-15666460D02*
X11386086Y-15675984D01*
X11386086Y-15675984D02*
X11367039Y-15675984D01*
X11367039Y-15675984D02*
X11347991Y-15666460D01*
X11347991Y-15666460D02*
X11338467Y-15656936D01*
X11338467Y-15656936D02*
X11328943Y-15637888D01*
X11328943Y-15637888D02*
X11319420Y-15599793D01*
X11319420Y-15599793D02*
X11319420Y-15552174D01*
X11319420Y-15552174D02*
X11328943Y-15514079D01*
X11328943Y-15514079D02*
X11338467Y-15495031D01*
X11338467Y-15495031D02*
X11347991Y-15485508D01*
X11347991Y-15485508D02*
X11367039Y-15475984D01*
X11519420Y-15675984D02*
X11519420Y-15542650D01*
X11519420Y-15561698D02*
X11528943Y-15552174D01*
X11528943Y-15552174D02*
X11547991Y-15542650D01*
X11547991Y-15542650D02*
X11576563Y-15542650D01*
X11576563Y-15542650D02*
X11595610Y-15552174D01*
X11595610Y-15552174D02*
X11605134Y-15571222D01*
X11605134Y-15571222D02*
X11605134Y-15675984D01*
X11605134Y-15571222D02*
X11614658Y-15552174D01*
X11614658Y-15552174D02*
X11633705Y-15542650D01*
X11633705Y-15542650D02*
X11662277Y-15542650D01*
X11662277Y-15542650D02*
X11681324Y-15552174D01*
X11681324Y-15552174D02*
X11690848Y-15571222D01*
X11690848Y-15571222D02*
X11690848Y-15675984D01*
X11786086Y-15675984D02*
X11786086Y-15542650D01*
X11786086Y-15561698D02*
X11795610Y-15552174D01*
X11795610Y-15552174D02*
X11814658Y-15542650D01*
X11814658Y-15542650D02*
X11843229Y-15542650D01*
X11843229Y-15542650D02*
X11862277Y-15552174D01*
X11862277Y-15552174D02*
X11871801Y-15571222D01*
X11871801Y-15571222D02*
X11871801Y-15675984D01*
X11871801Y-15571222D02*
X11881324Y-15552174D01*
X11881324Y-15552174D02*
X11900372Y-15542650D01*
X11900372Y-15542650D02*
X11928943Y-15542650D01*
X11928943Y-15542650D02*
X11947991Y-15552174D01*
X11947991Y-15552174D02*
X11957515Y-15571222D01*
X11957515Y-15571222D02*
X11957515Y-15675984D01*
X12347991Y-15466460D02*
X12176563Y-15723603D01*
X12605134Y-15475984D02*
X12624182Y-15475984D01*
X12624182Y-15475984D02*
X12643229Y-15485508D01*
X12643229Y-15485508D02*
X12652753Y-15495031D01*
X12652753Y-15495031D02*
X12662277Y-15514079D01*
X12662277Y-15514079D02*
X12671801Y-15552174D01*
X12671801Y-15552174D02*
X12671801Y-15599793D01*
X12671801Y-15599793D02*
X12662277Y-15637888D01*
X12662277Y-15637888D02*
X12652753Y-15656936D01*
X12652753Y-15656936D02*
X12643229Y-15666460D01*
X12643229Y-15666460D02*
X12624182Y-15675984D01*
X12624182Y-15675984D02*
X12605134Y-15675984D01*
X12605134Y-15675984D02*
X12586086Y-15666460D01*
X12586086Y-15666460D02*
X12576563Y-15656936D01*
X12576563Y-15656936D02*
X12567039Y-15637888D01*
X12567039Y-15637888D02*
X12557515Y-15599793D01*
X12557515Y-15599793D02*
X12557515Y-15552174D01*
X12557515Y-15552174D02*
X12567039Y-15514079D01*
X12567039Y-15514079D02*
X12576563Y-15495031D01*
X12576563Y-15495031D02*
X12586086Y-15485508D01*
X12586086Y-15485508D02*
X12605134Y-15475984D01*
X12757515Y-15656936D02*
X12767039Y-15666460D01*
X12767039Y-15666460D02*
X12757515Y-15675984D01*
X12757515Y-15675984D02*
X12747991Y-15666460D01*
X12747991Y-15666460D02*
X12757515Y-15656936D01*
X12757515Y-15656936D02*
X12757515Y-15675984D01*
X12890848Y-15475984D02*
X12909896Y-15475984D01*
X12909896Y-15475984D02*
X12928944Y-15485508D01*
X12928944Y-15485508D02*
X12938467Y-15495031D01*
X12938467Y-15495031D02*
X12947991Y-15514079D01*
X12947991Y-15514079D02*
X12957515Y-15552174D01*
X12957515Y-15552174D02*
X12957515Y-15599793D01*
X12957515Y-15599793D02*
X12947991Y-15637888D01*
X12947991Y-15637888D02*
X12938467Y-15656936D01*
X12938467Y-15656936D02*
X12928944Y-15666460D01*
X12928944Y-15666460D02*
X12909896Y-15675984D01*
X12909896Y-15675984D02*
X12890848Y-15675984D01*
X12890848Y-15675984D02*
X12871801Y-15666460D01*
X12871801Y-15666460D02*
X12862277Y-15656936D01*
X12862277Y-15656936D02*
X12852753Y-15637888D01*
X12852753Y-15637888D02*
X12843229Y-15599793D01*
X12843229Y-15599793D02*
X12843229Y-15552174D01*
X12843229Y-15552174D02*
X12852753Y-15514079D01*
X12852753Y-15514079D02*
X12862277Y-15495031D01*
X12862277Y-15495031D02*
X12871801Y-15485508D01*
X12871801Y-15485508D02*
X12890848Y-15475984D01*
X13052753Y-15675984D02*
X13090848Y-15675984D01*
X13090848Y-15675984D02*
X13109896Y-15666460D01*
X13109896Y-15666460D02*
X13119420Y-15656936D01*
X13119420Y-15656936D02*
X13138467Y-15628365D01*
X13138467Y-15628365D02*
X13147991Y-15590269D01*
X13147991Y-15590269D02*
X13147991Y-15514079D01*
X13147991Y-15514079D02*
X13138467Y-15495031D01*
X13138467Y-15495031D02*
X13128944Y-15485508D01*
X13128944Y-15485508D02*
X13109896Y-15475984D01*
X13109896Y-15475984D02*
X13071801Y-15475984D01*
X13071801Y-15475984D02*
X13052753Y-15485508D01*
X13052753Y-15485508D02*
X13043229Y-15495031D01*
X13043229Y-15495031D02*
X13033706Y-15514079D01*
X13033706Y-15514079D02*
X13033706Y-15561698D01*
X13033706Y-15561698D02*
X13043229Y-15580746D01*
X13043229Y-15580746D02*
X13052753Y-15590269D01*
X13052753Y-15590269D02*
X13071801Y-15599793D01*
X13071801Y-15599793D02*
X13109896Y-15599793D01*
X13109896Y-15599793D02*
X13128944Y-15590269D01*
X13128944Y-15590269D02*
X13138467Y-15580746D01*
X13138467Y-15580746D02*
X13147991Y-15561698D01*
X13224182Y-15495031D02*
X13233706Y-15485508D01*
X13233706Y-15485508D02*
X13252753Y-15475984D01*
X13252753Y-15475984D02*
X13300372Y-15475984D01*
X13300372Y-15475984D02*
X13319420Y-15485508D01*
X13319420Y-15485508D02*
X13328944Y-15495031D01*
X13328944Y-15495031D02*
X13338467Y-15514079D01*
X13338467Y-15514079D02*
X13338467Y-15533127D01*
X13338467Y-15533127D02*
X13328944Y-15561698D01*
X13328944Y-15561698D02*
X13214658Y-15675984D01*
X13214658Y-15675984D02*
X13338467Y-15675984D01*
X13519420Y-15475984D02*
X13424182Y-15475984D01*
X13424182Y-15475984D02*
X13414658Y-15571222D01*
X13414658Y-15571222D02*
X13424182Y-15561698D01*
X13424182Y-15561698D02*
X13443229Y-15552174D01*
X13443229Y-15552174D02*
X13490848Y-15552174D01*
X13490848Y-15552174D02*
X13509896Y-15561698D01*
X13509896Y-15561698D02*
X13519420Y-15571222D01*
X13519420Y-15571222D02*
X13528944Y-15590269D01*
X13528944Y-15590269D02*
X13528944Y-15637888D01*
X13528944Y-15637888D02*
X13519420Y-15656936D01*
X13519420Y-15656936D02*
X13509896Y-15666460D01*
X13509896Y-15666460D02*
X13490848Y-15675984D01*
X13490848Y-15675984D02*
X13443229Y-15675984D01*
X13443229Y-15675984D02*
X13424182Y-15666460D01*
X13424182Y-15666460D02*
X13414658Y-15656936D01*
X13605134Y-15475984D02*
X13605134Y-15514079D01*
X13681325Y-15475984D02*
X13681325Y-15514079D01*
X13976563Y-15752174D02*
X13967039Y-15742650D01*
X13967039Y-15742650D02*
X13947991Y-15714079D01*
X13947991Y-15714079D02*
X13938468Y-15695031D01*
X13938468Y-15695031D02*
X13928944Y-15666460D01*
X13928944Y-15666460D02*
X13919420Y-15618841D01*
X13919420Y-15618841D02*
X13919420Y-15580746D01*
X13919420Y-15580746D02*
X13928944Y-15533127D01*
X13928944Y-15533127D02*
X13938468Y-15504555D01*
X13938468Y-15504555D02*
X13947991Y-15485508D01*
X13947991Y-15485508D02*
X13967039Y-15456936D01*
X13967039Y-15456936D02*
X13976563Y-15447412D01*
X14043229Y-15495031D02*
X14052753Y-15485508D01*
X14052753Y-15485508D02*
X14071801Y-15475984D01*
X14071801Y-15475984D02*
X14119420Y-15475984D01*
X14119420Y-15475984D02*
X14138468Y-15485508D01*
X14138468Y-15485508D02*
X14147991Y-15495031D01*
X14147991Y-15495031D02*
X14157515Y-15514079D01*
X14157515Y-15514079D02*
X14157515Y-15533127D01*
X14157515Y-15533127D02*
X14147991Y-15561698D01*
X14147991Y-15561698D02*
X14033706Y-15675984D01*
X14033706Y-15675984D02*
X14157515Y-15675984D01*
X14395610Y-15675984D02*
X14395610Y-15475984D01*
X14481325Y-15675984D02*
X14481325Y-15571222D01*
X14481325Y-15571222D02*
X14471801Y-15552174D01*
X14471801Y-15552174D02*
X14452753Y-15542650D01*
X14452753Y-15542650D02*
X14424182Y-15542650D01*
X14424182Y-15542650D02*
X14405134Y-15552174D01*
X14405134Y-15552174D02*
X14395610Y-15561698D01*
X14605134Y-15675984D02*
X14586087Y-15666460D01*
X14586087Y-15666460D02*
X14576563Y-15656936D01*
X14576563Y-15656936D02*
X14567039Y-15637888D01*
X14567039Y-15637888D02*
X14567039Y-15580746D01*
X14567039Y-15580746D02*
X14576563Y-15561698D01*
X14576563Y-15561698D02*
X14586087Y-15552174D01*
X14586087Y-15552174D02*
X14605134Y-15542650D01*
X14605134Y-15542650D02*
X14633706Y-15542650D01*
X14633706Y-15542650D02*
X14652753Y-15552174D01*
X14652753Y-15552174D02*
X14662277Y-15561698D01*
X14662277Y-15561698D02*
X14671801Y-15580746D01*
X14671801Y-15580746D02*
X14671801Y-15637888D01*
X14671801Y-15637888D02*
X14662277Y-15656936D01*
X14662277Y-15656936D02*
X14652753Y-15666460D01*
X14652753Y-15666460D02*
X14633706Y-15675984D01*
X14633706Y-15675984D02*
X14605134Y-15675984D01*
X14786087Y-15675984D02*
X14767039Y-15666460D01*
X14767039Y-15666460D02*
X14757515Y-15647412D01*
X14757515Y-15647412D02*
X14757515Y-15475984D01*
X14938468Y-15666460D02*
X14919420Y-15675984D01*
X14919420Y-15675984D02*
X14881325Y-15675984D01*
X14881325Y-15675984D02*
X14862277Y-15666460D01*
X14862277Y-15666460D02*
X14852753Y-15647412D01*
X14852753Y-15647412D02*
X14852753Y-15571222D01*
X14852753Y-15571222D02*
X14862277Y-15552174D01*
X14862277Y-15552174D02*
X14881325Y-15542650D01*
X14881325Y-15542650D02*
X14919420Y-15542650D01*
X14919420Y-15542650D02*
X14938468Y-15552174D01*
X14938468Y-15552174D02*
X14947991Y-15571222D01*
X14947991Y-15571222D02*
X14947991Y-15590269D01*
X14947991Y-15590269D02*
X14852753Y-15609317D01*
X15024182Y-15666460D02*
X15043230Y-15675984D01*
X15043230Y-15675984D02*
X15081325Y-15675984D01*
X15081325Y-15675984D02*
X15100372Y-15666460D01*
X15100372Y-15666460D02*
X15109896Y-15647412D01*
X15109896Y-15647412D02*
X15109896Y-15637888D01*
X15109896Y-15637888D02*
X15100372Y-15618841D01*
X15100372Y-15618841D02*
X15081325Y-15609317D01*
X15081325Y-15609317D02*
X15052753Y-15609317D01*
X15052753Y-15609317D02*
X15033706Y-15599793D01*
X15033706Y-15599793D02*
X15024182Y-15580746D01*
X15024182Y-15580746D02*
X15024182Y-15571222D01*
X15024182Y-15571222D02*
X15033706Y-15552174D01*
X15033706Y-15552174D02*
X15052753Y-15542650D01*
X15052753Y-15542650D02*
X15081325Y-15542650D01*
X15081325Y-15542650D02*
X15100372Y-15552174D01*
X15176563Y-15752174D02*
X15186087Y-15742650D01*
X15186087Y-15742650D02*
X15205134Y-15714079D01*
X15205134Y-15714079D02*
X15214658Y-15695031D01*
X15214658Y-15695031D02*
X15224182Y-15666460D01*
X15224182Y-15666460D02*
X15233706Y-15618841D01*
X15233706Y-15618841D02*
X15233706Y-15580746D01*
X15233706Y-15580746D02*
X15224182Y-15533127D01*
X15224182Y-15533127D02*
X15214658Y-15504555D01*
X15214658Y-15504555D02*
X15205134Y-15485508D01*
X15205134Y-15485508D02*
X15186087Y-15456936D01*
X15186087Y-15456936D02*
X15176563Y-15447412D01*
M02*
