%TF.GenerationSoftware,KiCad,Pcbnew,7.0.10-7.0.10~ubuntu22.04.1*%
%TF.CreationDate,2024-03-23T23:27:58+01:00*%
%TF.ProjectId,JTAGFinder,4a544147-4669-46e6-9465-722e6b696361,rev?*%
%TF.SameCoordinates,Original*%
%TF.FileFunction,Soldermask,Top*%
%TF.FilePolarity,Negative*%
%FSLAX46Y46*%
G04 Gerber Fmt 4.6, Leading zero omitted, Abs format (unit mm)*
G04 Created by KiCad (PCBNEW 7.0.10-7.0.10~ubuntu22.04.1) date 2024-03-23 23:27:58*
%MOMM*%
%LPD*%
G01*
G04 APERTURE LIST*
G04 Aperture macros list*
%AMRoundRect*
0 Rectangle with rounded corners*
0 $1 Rounding radius*
0 $2 $3 $4 $5 $6 $7 $8 $9 X,Y pos of 4 corners*
0 Add a 4 corners polygon primitive as box body*
4,1,4,$2,$3,$4,$5,$6,$7,$8,$9,$2,$3,0*
0 Add four circle primitives for the rounded corners*
1,1,$1+$1,$2,$3*
1,1,$1+$1,$4,$5*
1,1,$1+$1,$6,$7*
1,1,$1+$1,$8,$9*
0 Add four rect primitives between the rounded corners*
20,1,$1+$1,$2,$3,$4,$5,0*
20,1,$1+$1,$4,$5,$6,$7,0*
20,1,$1+$1,$6,$7,$8,$9,0*
20,1,$1+$1,$8,$9,$2,$3,0*%
G04 Aperture macros list end*
%ADD10C,3.500000*%
%ADD11RoundRect,0.250000X0.650000X-0.325000X0.650000X0.325000X-0.650000X0.325000X-0.650000X-0.325000X0*%
%ADD12RoundRect,0.250000X-0.650000X0.325000X-0.650000X-0.325000X0.650000X-0.325000X0.650000X0.325000X0*%
%ADD13R,1.700000X1.700000*%
%ADD14O,1.700000X1.700000*%
%ADD15RoundRect,0.250000X-0.550000X1.050000X-0.550000X-1.050000X0.550000X-1.050000X0.550000X1.050000X0*%
%ADD16R,1.750000X0.450000*%
%ADD17RoundRect,0.137500X0.600000X0.137500X-0.600000X0.137500X-0.600000X-0.137500X0.600000X-0.137500X0*%
%ADD18RoundRect,0.137500X0.137500X0.600000X-0.137500X0.600000X-0.137500X-0.600000X0.137500X-0.600000X0*%
%ADD19RoundRect,0.250000X-0.312500X-0.625000X0.312500X-0.625000X0.312500X0.625000X-0.312500X0.625000X0*%
%ADD20RoundRect,0.150000X-0.150000X0.725000X-0.150000X-0.725000X0.150000X-0.725000X0.150000X0.725000X0*%
%ADD21RoundRect,0.250000X-0.625000X0.312500X-0.625000X-0.312500X0.625000X-0.312500X0.625000X0.312500X0*%
%ADD22RoundRect,0.250000X0.625000X-0.312500X0.625000X0.312500X-0.625000X0.312500X-0.625000X-0.312500X0*%
%ADD23RoundRect,0.150000X-0.150000X0.825000X-0.150000X-0.825000X0.150000X-0.825000X0.150000X0.825000X0*%
%ADD24RoundRect,0.350000X-0.350000X0.400000X-0.350000X-0.400000X0.350000X-0.400000X0.350000X0.400000X0*%
%ADD25RoundRect,0.250000X-0.600000X-0.600000X0.600000X-0.600000X0.600000X0.600000X-0.600000X0.600000X0*%
%ADD26C,1.700000*%
%ADD27RoundRect,0.100000X0.100000X-0.675000X0.100000X0.675000X-0.100000X0.675000X-0.100000X-0.675000X0*%
%ADD28R,3.000000X3.000000*%
%ADD29RoundRect,0.112500X-0.112500X0.187500X-0.112500X-0.187500X0.112500X-0.187500X0.112500X0.187500X0*%
%ADD30RoundRect,0.150000X0.150000X-0.512500X0.150000X0.512500X-0.150000X0.512500X-0.150000X-0.512500X0*%
%ADD31RoundRect,0.150000X0.150000X-0.825000X0.150000X0.825000X-0.150000X0.825000X-0.150000X-0.825000X0*%
%ADD32R,3.000000X2.290000*%
%ADD33R,0.550000X1.500000*%
%ADD34RoundRect,0.150000X-0.512500X-0.150000X0.512500X-0.150000X0.512500X0.150000X-0.512500X0.150000X0*%
%ADD35R,1.800000X1.800000*%
%ADD36C,1.800000*%
%ADD37RoundRect,0.250000X-1.075000X0.375000X-1.075000X-0.375000X1.075000X-0.375000X1.075000X0.375000X0*%
%ADD38R,1.050000X1.500000*%
%ADD39O,1.050000X1.500000*%
%ADD40C,1.500000*%
%ADD41C,2.350000*%
%ADD42C,1.200000*%
%ADD43RoundRect,0.100000X0.637500X0.100000X-0.637500X0.100000X-0.637500X-0.100000X0.637500X-0.100000X0*%
%ADD44C,0.650000*%
%ADD45R,1.450000X0.600000*%
%ADD46R,1.450000X0.300000*%
%ADD47O,2.100000X1.000000*%
%ADD48O,1.600000X1.000000*%
G04 APERTURE END LIST*
D10*
%TO.C,H1*%
X177000000Y-124000000D03*
%TD*%
D11*
%TO.C,C13*%
X117602000Y-125619500D03*
X117602000Y-122669500D03*
%TD*%
D12*
%TO.C,C24*%
X161000000Y-109525000D03*
X161000000Y-112475000D03*
%TD*%
D13*
%TO.C,J5*%
X138200000Y-100750000D03*
D14*
X140740000Y-100750000D03*
X143280000Y-100750000D03*
X145820000Y-100750000D03*
%TD*%
D15*
%TO.C,C16*%
X143750000Y-122150000D03*
X143750000Y-125750000D03*
%TD*%
D11*
%TO.C,C15*%
X115750000Y-96950000D03*
X115750000Y-94000000D03*
%TD*%
D12*
%TO.C,C4*%
X131250000Y-112525000D03*
X131250000Y-115475000D03*
%TD*%
D11*
%TO.C,C2*%
X126300000Y-83075000D03*
X126300000Y-80125000D03*
%TD*%
D12*
%TO.C,C26*%
X138000000Y-91525000D03*
X138000000Y-94475000D03*
%TD*%
D15*
%TO.C,C6*%
X108944000Y-113008000D03*
X108944000Y-116608000D03*
%TD*%
D13*
%TO.C,J7*%
X192000000Y-68380000D03*
D14*
X192000000Y-70920000D03*
X192000000Y-73460000D03*
X192000000Y-76000000D03*
X192000000Y-78540000D03*
%TD*%
D10*
%TO.C,H2*%
X177000000Y-63000000D03*
%TD*%
D11*
%TO.C,C8*%
X115722400Y-102619600D03*
X115722400Y-99669600D03*
%TD*%
D16*
%TO.C,U4*%
X126800000Y-95225000D03*
X126800000Y-94575000D03*
X126800000Y-93925000D03*
X126800000Y-93275000D03*
X126800000Y-92625000D03*
X126800000Y-91975000D03*
X126800000Y-91325000D03*
X126800000Y-90675000D03*
X126800000Y-90025000D03*
X126800000Y-89375000D03*
X126800000Y-88725000D03*
X126800000Y-88075000D03*
X126800000Y-87425000D03*
X126800000Y-86775000D03*
X119600000Y-86775000D03*
X119600000Y-87425000D03*
X119600000Y-88075000D03*
X119600000Y-88725000D03*
X119600000Y-89375000D03*
X119600000Y-90025000D03*
X119600000Y-90675000D03*
X119600000Y-91325000D03*
X119600000Y-91975000D03*
X119600000Y-92625000D03*
X119600000Y-93275000D03*
X119600000Y-93925000D03*
X119600000Y-94575000D03*
X119600000Y-95225000D03*
%TD*%
D12*
%TO.C,C5*%
X138870000Y-112505000D03*
X138870000Y-115455000D03*
%TD*%
D11*
%TO.C,C3*%
X145900000Y-81625000D03*
X145900000Y-78675000D03*
%TD*%
D17*
%TO.C,U13*%
X141250000Y-85350000D03*
X141250000Y-84550000D03*
X141250000Y-83750000D03*
X141250000Y-82950000D03*
X141250000Y-82150000D03*
X141250000Y-81350000D03*
X141250000Y-80550000D03*
X141250000Y-79750000D03*
X141250000Y-78950000D03*
X141250000Y-78150000D03*
X141250000Y-77350000D03*
D18*
X139587500Y-75687500D03*
X138787500Y-75687500D03*
X137987500Y-75687500D03*
X137187500Y-75687500D03*
X136387500Y-75687500D03*
X135587500Y-75687500D03*
X134787500Y-75687500D03*
X133987500Y-75687500D03*
X133187500Y-75687500D03*
X132387500Y-75687500D03*
X131587500Y-75687500D03*
D17*
X129925000Y-77350000D03*
X129925000Y-78150000D03*
X129925000Y-78950000D03*
X129925000Y-79750000D03*
X129925000Y-80550000D03*
X129925000Y-81350000D03*
X129925000Y-82150000D03*
X129925000Y-82950000D03*
X129925000Y-83750000D03*
X129925000Y-84550000D03*
X129925000Y-85350000D03*
D18*
X131587500Y-87012500D03*
X132387500Y-87012500D03*
X133187500Y-87012500D03*
X133987500Y-87012500D03*
X134787500Y-87012500D03*
X135587500Y-87012500D03*
X136387500Y-87012500D03*
X137187500Y-87012500D03*
X137987500Y-87012500D03*
X138787500Y-87012500D03*
X139587500Y-87012500D03*
%TD*%
D19*
%TO.C,R39*%
X105575000Y-99250000D03*
X108500000Y-99250000D03*
%TD*%
D20*
%TO.C,U2*%
X138270000Y-105200000D03*
X137000000Y-105200000D03*
X135730000Y-105200000D03*
X134460000Y-105200000D03*
X134460000Y-110350000D03*
X135730000Y-110350000D03*
X137000000Y-110350000D03*
X138270000Y-110350000D03*
%TD*%
D21*
%TO.C,R33*%
X170301548Y-67787500D03*
X170301548Y-70712500D03*
%TD*%
D15*
%TO.C,C11*%
X113800000Y-113000000D03*
X113800000Y-116600000D03*
%TD*%
D19*
%TO.C,R15*%
X178612800Y-105308400D03*
X175687800Y-105308400D03*
%TD*%
D12*
%TO.C,C25*%
X161000000Y-96525000D03*
X161000000Y-99475000D03*
%TD*%
D21*
%TO.C,R11*%
X142500000Y-108537500D03*
X142500000Y-111462500D03*
%TD*%
D22*
%TO.C,R3*%
X133663000Y-115442500D03*
X133663000Y-112517500D03*
%TD*%
%TO.C,R4*%
X136554000Y-115442500D03*
X136554000Y-112517500D03*
%TD*%
%TO.C,R14*%
X109880400Y-85475000D03*
X109880400Y-82550000D03*
%TD*%
D19*
%TO.C,R20*%
X178551300Y-117017800D03*
X175626300Y-117017800D03*
%TD*%
D11*
%TO.C,C7*%
X115824000Y-108470500D03*
X115824000Y-105520500D03*
%TD*%
D22*
%TO.C,R8*%
X132000000Y-94462500D03*
X132000000Y-91537500D03*
%TD*%
D21*
%TO.C,L1*%
X113284000Y-105533000D03*
X113284000Y-108458000D03*
%TD*%
D22*
%TO.C,R7*%
X135000000Y-94462500D03*
X135000000Y-91537500D03*
%TD*%
D23*
%TO.C,U3*%
X123105000Y-110525000D03*
X121835000Y-110525000D03*
X120565000Y-110525000D03*
X119295000Y-110525000D03*
X119295000Y-115475000D03*
X120565000Y-115475000D03*
X121835000Y-115475000D03*
X123105000Y-115475000D03*
%TD*%
D19*
%TO.C,R18*%
X178576700Y-112344200D03*
X175651700Y-112344200D03*
%TD*%
D13*
%TO.C,J8*%
X180750000Y-68380000D03*
D14*
X180750000Y-70920000D03*
X180750000Y-73460000D03*
X180750000Y-76000000D03*
X180750000Y-78540000D03*
%TD*%
D24*
%TO.C,L2*%
X126750000Y-112000000D03*
X126750000Y-116000000D03*
%TD*%
D25*
%TO.C,J1*%
X186000000Y-109000000D03*
D26*
X188540000Y-109000000D03*
X186000000Y-111540000D03*
X188540000Y-111540000D03*
X186000000Y-114080000D03*
X188540000Y-114080000D03*
X186000000Y-116620000D03*
X188540000Y-116620000D03*
X186000000Y-119160000D03*
X188540000Y-119160000D03*
%TD*%
D12*
%TO.C,C23*%
X161000000Y-122525000D03*
X161000000Y-125475000D03*
%TD*%
D27*
%TO.C,U11*%
X167600000Y-114850000D03*
X168250000Y-114850000D03*
X168900000Y-114850000D03*
X169550000Y-114850000D03*
X170200000Y-114850000D03*
X170850000Y-114850000D03*
X171500000Y-114850000D03*
X172150000Y-114850000D03*
X172150000Y-109100000D03*
X171500000Y-109100000D03*
X170850000Y-109100000D03*
X170200000Y-109100000D03*
X169550000Y-109100000D03*
X168900000Y-109100000D03*
X168250000Y-109100000D03*
X167600000Y-109100000D03*
D28*
X169875000Y-111975000D03*
%TD*%
D13*
%TO.C,J10*%
X188250000Y-68380000D03*
D14*
X188250000Y-70920000D03*
X188250000Y-73460000D03*
X188250000Y-76000000D03*
X188250000Y-78540000D03*
%TD*%
D19*
%TO.C,R30*%
X178562000Y-93635284D03*
X175637000Y-93635284D03*
%TD*%
D29*
%TO.C,D1*%
X123444000Y-119792500D03*
X123444000Y-121892500D03*
%TD*%
D19*
%TO.C,R28*%
X178562000Y-95975712D03*
X175637000Y-95975712D03*
%TD*%
D12*
%TO.C,C9*%
X127940000Y-106762500D03*
X127940000Y-109712500D03*
%TD*%
D25*
%TO.C,J2*%
X186000000Y-87000000D03*
D26*
X188540000Y-87000000D03*
X186000000Y-89540000D03*
X188540000Y-89540000D03*
X186000000Y-92080000D03*
X188540000Y-92080000D03*
X186000000Y-94620000D03*
X188540000Y-94620000D03*
X186000000Y-97160000D03*
X188540000Y-97160000D03*
%TD*%
D19*
%TO.C,R19*%
X178562000Y-114681000D03*
X175637000Y-114681000D03*
%TD*%
D30*
%TO.C,U6*%
X114850000Y-90137500D03*
X115800000Y-90137500D03*
X116750000Y-90137500D03*
X116750000Y-87862500D03*
X115800000Y-87862500D03*
X114850000Y-87862500D03*
%TD*%
D19*
%TO.C,R24*%
X178562000Y-100656568D03*
X175637000Y-100656568D03*
%TD*%
%TO.C,R29*%
X178500500Y-91294856D03*
X175575500Y-91294856D03*
%TD*%
D10*
%TO.C,H4*%
X109000000Y-124000000D03*
%TD*%
D13*
%TO.C,J9*%
X184500000Y-68380000D03*
D14*
X184500000Y-70920000D03*
X184500000Y-73460000D03*
X184500000Y-76000000D03*
X184500000Y-78540000D03*
%TD*%
D19*
%TO.C,R22*%
X169400000Y-122075000D03*
X172325000Y-122075000D03*
%TD*%
%TO.C,R23*%
X178562000Y-102997000D03*
X175637000Y-102997000D03*
%TD*%
D31*
%TO.C,U7*%
X142190000Y-118850000D03*
X143460000Y-118850000D03*
X144730000Y-118850000D03*
X146000000Y-118850000D03*
X146000000Y-113900000D03*
X144730000Y-113900000D03*
X143460000Y-113900000D03*
X142190000Y-113900000D03*
D32*
X144095000Y-116375000D03*
%TD*%
D19*
%TO.C,R40*%
X105537500Y-101750000D03*
X108462500Y-101750000D03*
%TD*%
%TO.C,R26*%
X178562000Y-98316140D03*
X175637000Y-98316140D03*
%TD*%
%TO.C,R27*%
X178562000Y-88954428D03*
X175637000Y-88954428D03*
%TD*%
D15*
%TO.C,C14*%
X128524000Y-122090500D03*
X128524000Y-125690500D03*
%TD*%
D12*
%TO.C,C22*%
X158000000Y-96525000D03*
X158000000Y-99475000D03*
%TD*%
D21*
%TO.C,R5*%
X125400000Y-106775000D03*
X125400000Y-109700000D03*
%TD*%
D22*
%TO.C,R12*%
X107064599Y-78033900D03*
X107064599Y-75108900D03*
%TD*%
D13*
%TO.C,J3*%
X126170000Y-101000000D03*
D14*
X128710000Y-101000000D03*
X131250000Y-101000000D03*
X133790000Y-101000000D03*
%TD*%
D19*
%TO.C,R25*%
X178566000Y-86614000D03*
X175641000Y-86614000D03*
%TD*%
D11*
%TO.C,C1*%
X120125001Y-69175000D03*
X120125001Y-66225000D03*
%TD*%
D33*
%TO.C,SW1*%
X144750000Y-88250000D03*
X141500000Y-88250000D03*
%TD*%
D11*
%TO.C,C19*%
X107480398Y-85487500D03*
X107480398Y-82537500D03*
%TD*%
D12*
%TO.C,C21*%
X158000000Y-109525000D03*
X158000000Y-112475000D03*
%TD*%
%TO.C,C18*%
X114950000Y-73545001D03*
X114950000Y-76495001D03*
%TD*%
D34*
%TO.C,U5*%
X122687500Y-123321500D03*
X122687500Y-124271500D03*
X122687500Y-125221500D03*
X124962500Y-125221500D03*
X124962500Y-123321500D03*
%TD*%
D35*
%TO.C,D2*%
X106527600Y-70510400D03*
D36*
X109067600Y-70510400D03*
X111607600Y-70510400D03*
%TD*%
D21*
%TO.C,R1*%
X122600000Y-66375000D03*
X122600000Y-69300000D03*
%TD*%
D10*
%TO.C,H3*%
X109000000Y-63000000D03*
%TD*%
D21*
%TO.C,R31*%
X172750000Y-67787500D03*
X172750000Y-70712500D03*
%TD*%
D11*
%TO.C,C17*%
X114950000Y-81575000D03*
X114950000Y-78625000D03*
%TD*%
%TO.C,C27*%
X134850000Y-73399999D03*
X134850000Y-70449999D03*
%TD*%
D19*
%TO.C,R16*%
X178602100Y-107645200D03*
X175677100Y-107645200D03*
%TD*%
D37*
%TO.C,F1*%
X112420400Y-99744600D03*
X112420400Y-102544600D03*
%TD*%
D15*
%TO.C,C12*%
X134750000Y-122150000D03*
X134750000Y-125750000D03*
%TD*%
D38*
%TO.C,Q1*%
X114834998Y-67475000D03*
D39*
X116104998Y-67475000D03*
X117374998Y-67475000D03*
%TD*%
D19*
%TO.C,R21*%
X170000000Y-119500000D03*
X172925000Y-119500000D03*
%TD*%
D12*
%TO.C,C20*%
X158400000Y-122525000D03*
X158400000Y-125475000D03*
%TD*%
D40*
%TO.C,Y1*%
X119522000Y-79895000D03*
X119522000Y-75015000D03*
%TD*%
D41*
%TO.C,J6*%
X167565000Y-63275000D03*
X158415000Y-63275000D03*
D42*
X146765000Y-69775000D03*
X147765000Y-67775000D03*
X148765000Y-69775000D03*
X149765000Y-67775000D03*
X150765000Y-69775000D03*
X151765000Y-67775000D03*
X152765000Y-69775000D03*
X153765000Y-67775000D03*
X155765000Y-67775000D03*
X154765000Y-69775000D03*
X156765000Y-69775000D03*
X159765000Y-67775000D03*
X160765000Y-69775000D03*
X161765000Y-67775000D03*
X162765000Y-69775000D03*
X163765000Y-67775000D03*
X164765000Y-69775000D03*
X165765000Y-67775000D03*
X146765000Y-72275000D03*
X147765000Y-74275000D03*
X148765000Y-72275000D03*
X149765000Y-74275000D03*
X150765000Y-72275000D03*
X151765000Y-74275000D03*
X152765000Y-72275000D03*
X153765000Y-74275000D03*
X154765000Y-72275000D03*
X155765000Y-74275000D03*
X156765000Y-72275000D03*
X159765000Y-74275000D03*
X160765000Y-72275000D03*
X161765000Y-74275000D03*
X162765000Y-72275000D03*
X163765000Y-74275000D03*
X164765000Y-72275000D03*
X165765000Y-74275000D03*
%TD*%
D27*
%TO.C,U12*%
X166925000Y-99525000D03*
X167575000Y-99525000D03*
X168225000Y-99525000D03*
X168875000Y-99525000D03*
X169525000Y-99525000D03*
X170175000Y-99525000D03*
X170825000Y-99525000D03*
X171475000Y-99525000D03*
X171475000Y-93775000D03*
X170825000Y-93775000D03*
X170175000Y-93775000D03*
X169525000Y-93775000D03*
X168875000Y-93775000D03*
X168225000Y-93775000D03*
X167575000Y-93775000D03*
X166925000Y-93775000D03*
D28*
X169200000Y-96650000D03*
%TD*%
D21*
%TO.C,R10*%
X145000000Y-108537500D03*
X145000000Y-111462500D03*
%TD*%
D19*
%TO.C,R17*%
X178576700Y-110007400D03*
X175651700Y-110007400D03*
%TD*%
D43*
%TO.C,U8*%
X162862500Y-120925000D03*
X162862500Y-120275000D03*
X162862500Y-119625000D03*
X162862500Y-118975000D03*
X162862500Y-118325000D03*
X162862500Y-117675000D03*
X162862500Y-117025000D03*
X162862500Y-116375000D03*
X162862500Y-115725000D03*
X162862500Y-115075000D03*
X157137500Y-115075000D03*
X157137500Y-115725000D03*
X157137500Y-116375000D03*
X157137500Y-117025000D03*
X157137500Y-117675000D03*
X157137500Y-118325000D03*
X157137500Y-118975000D03*
X157137500Y-119625000D03*
X157137500Y-120275000D03*
X157137500Y-120925000D03*
%TD*%
D21*
%TO.C,R32*%
X175250000Y-67787500D03*
X175250000Y-70712500D03*
%TD*%
D44*
%TO.C,J4*%
X110584000Y-89310000D03*
X110584000Y-95090000D03*
D45*
X112029000Y-88950000D03*
X112029000Y-89750000D03*
D46*
X112029000Y-90950000D03*
X112029000Y-91950000D03*
X112029000Y-92450000D03*
X112029000Y-93450000D03*
D45*
X112029000Y-94650000D03*
X112029000Y-95450000D03*
X112029000Y-95450000D03*
X112029000Y-94650000D03*
D46*
X112029000Y-93950000D03*
X112029000Y-92950000D03*
X112029000Y-91450000D03*
X112029000Y-90450000D03*
D45*
X112029000Y-89750000D03*
X112029000Y-88950000D03*
D47*
X111114000Y-87880000D03*
D48*
X106934000Y-87880000D03*
D47*
X111114000Y-96520000D03*
D48*
X106934000Y-96520000D03*
%TD*%
D21*
%TO.C,R6*%
X120142000Y-122682000D03*
X120142000Y-125607000D03*
%TD*%
D15*
%TO.C,C10*%
X108937200Y-104902000D03*
X108937200Y-108502000D03*
%TD*%
D43*
%TO.C,U9*%
X162862500Y-107925000D03*
X162862500Y-107275000D03*
X162862500Y-106625000D03*
X162862500Y-105975000D03*
X162862500Y-105325000D03*
X162862500Y-104675000D03*
X162862500Y-104025000D03*
X162862500Y-103375000D03*
X162862500Y-102725000D03*
X162862500Y-102075000D03*
X157137500Y-102075000D03*
X157137500Y-102725000D03*
X157137500Y-103375000D03*
X157137500Y-104025000D03*
X157137500Y-104675000D03*
X157137500Y-105325000D03*
X157137500Y-105975000D03*
X157137500Y-106625000D03*
X157137500Y-107275000D03*
X157137500Y-107925000D03*
%TD*%
D22*
%TO.C,R13*%
X110583601Y-78033900D03*
X110583601Y-75108900D03*
%TD*%
D21*
%TO.C,R9*%
X148800000Y-122337500D03*
X148800000Y-125262500D03*
%TD*%
D22*
%TO.C,R2*%
X118500000Y-63712500D03*
X118500000Y-60787500D03*
%TD*%
M02*
