%TF.GenerationSoftware,KiCad,Pcbnew,7.0.11-7.0.11~ubuntu22.04.1*%
%TF.CreationDate,2024-09-03T01:32:48+02:00*%
%TF.ProjectId,JTAGFinder,4a544147-4669-46e6-9465-722e6b696361,rev?*%
%TF.SameCoordinates,Original*%
%TF.FileFunction,Drillmap*%
%TF.FilePolarity,Positive*%
%FSLAX45Y45*%
G04 Gerber Fmt 4.5, Leading zero omitted, Abs format (unit mm)*
G04 Created by KiCad (PCBNEW 7.0.11-7.0.11~ubuntu22.04.1) date 2024-09-03 01:32:48*
%MOMM*%
%LPD*%
G01*
G04 APERTURE LIST*
%ADD10C,0.100000*%
%ADD11C,0.200000*%
%ADD12C,0.350000*%
G04 APERTURE END LIST*
D10*
X10406500Y-12327500D02*
X10406500Y-6327500D01*
X18906500Y-12827500D02*
G75*
G03*
X19406500Y-12327500I0J500000D01*
G01*
X19406500Y-6327500D02*
G75*
G03*
X18906500Y-5827500I-500000J0D01*
G01*
X10906500Y-5827500D02*
G75*
G03*
X10406500Y-6327500I0J-500000D01*
G01*
X10906500Y-5827500D02*
X18906500Y-5827500D01*
X19406500Y-6327500D02*
X19406500Y-12327500D01*
X18906500Y-12827500D02*
X10906500Y-12827500D01*
X10406500Y-12327500D02*
G75*
G03*
X10906500Y-12827500I500000J0D01*
G01*
D11*
D10*
X11025900Y-8898500D02*
X11090900Y-8963500D01*
X11090900Y-8898500D02*
X11025900Y-8963500D01*
X11025900Y-9476500D02*
X11090900Y-9541500D01*
X11090900Y-9476500D02*
X11025900Y-9541500D01*
D12*
X11075000Y-6300000D02*
G75*
G03*
X10725000Y-6300000I-175000J0D01*
G01*
X10725000Y-6300000D02*
G75*
G03*
X11075000Y-6300000I175000J0D01*
G01*
X11075000Y-12400000D02*
G75*
G03*
X10725000Y-12400000I-175000J0D01*
G01*
X10725000Y-12400000D02*
G75*
G03*
X11075000Y-12400000I175000J0D01*
G01*
X17875000Y-6300000D02*
G75*
G03*
X17525000Y-6300000I-175000J0D01*
G01*
X17525000Y-6300000D02*
G75*
G03*
X17875000Y-6300000I175000J0D01*
G01*
X17875000Y-12400000D02*
G75*
G03*
X17525000Y-12400000I-175000J0D01*
G01*
X17525000Y-12400000D02*
G75*
G03*
X17875000Y-12400000I175000J0D01*
G01*
D11*
X10662277Y-13143984D02*
X10662277Y-12943984D01*
X10662277Y-12943984D02*
X10709896Y-12943984D01*
X10709896Y-12943984D02*
X10738467Y-12953508D01*
X10738467Y-12953508D02*
X10757515Y-12972555D01*
X10757515Y-12972555D02*
X10767039Y-12991603D01*
X10767039Y-12991603D02*
X10776563Y-13029698D01*
X10776563Y-13029698D02*
X10776563Y-13058269D01*
X10776563Y-13058269D02*
X10767039Y-13096365D01*
X10767039Y-13096365D02*
X10757515Y-13115412D01*
X10757515Y-13115412D02*
X10738467Y-13134460D01*
X10738467Y-13134460D02*
X10709896Y-13143984D01*
X10709896Y-13143984D02*
X10662277Y-13143984D01*
X10862277Y-13143984D02*
X10862277Y-13010650D01*
X10862277Y-13048746D02*
X10871801Y-13029698D01*
X10871801Y-13029698D02*
X10881324Y-13020174D01*
X10881324Y-13020174D02*
X10900372Y-13010650D01*
X10900372Y-13010650D02*
X10919420Y-13010650D01*
X10986086Y-13143984D02*
X10986086Y-13010650D01*
X10986086Y-12943984D02*
X10976563Y-12953508D01*
X10976563Y-12953508D02*
X10986086Y-12963031D01*
X10986086Y-12963031D02*
X10995610Y-12953508D01*
X10995610Y-12953508D02*
X10986086Y-12943984D01*
X10986086Y-12943984D02*
X10986086Y-12963031D01*
X11109896Y-13143984D02*
X11090848Y-13134460D01*
X11090848Y-13134460D02*
X11081324Y-13115412D01*
X11081324Y-13115412D02*
X11081324Y-12943984D01*
X11214658Y-13143984D02*
X11195610Y-13134460D01*
X11195610Y-13134460D02*
X11186086Y-13115412D01*
X11186086Y-13115412D02*
X11186086Y-12943984D01*
X11443229Y-13143984D02*
X11443229Y-12943984D01*
X11443229Y-12943984D02*
X11509896Y-13086841D01*
X11509896Y-13086841D02*
X11576562Y-12943984D01*
X11576562Y-12943984D02*
X11576562Y-13143984D01*
X11757515Y-13143984D02*
X11757515Y-13039222D01*
X11757515Y-13039222D02*
X11747991Y-13020174D01*
X11747991Y-13020174D02*
X11728943Y-13010650D01*
X11728943Y-13010650D02*
X11690848Y-13010650D01*
X11690848Y-13010650D02*
X11671801Y-13020174D01*
X11757515Y-13134460D02*
X11738467Y-13143984D01*
X11738467Y-13143984D02*
X11690848Y-13143984D01*
X11690848Y-13143984D02*
X11671801Y-13134460D01*
X11671801Y-13134460D02*
X11662277Y-13115412D01*
X11662277Y-13115412D02*
X11662277Y-13096365D01*
X11662277Y-13096365D02*
X11671801Y-13077317D01*
X11671801Y-13077317D02*
X11690848Y-13067793D01*
X11690848Y-13067793D02*
X11738467Y-13067793D01*
X11738467Y-13067793D02*
X11757515Y-13058269D01*
X11852753Y-13010650D02*
X11852753Y-13210650D01*
X11852753Y-13020174D02*
X11871801Y-13010650D01*
X11871801Y-13010650D02*
X11909896Y-13010650D01*
X11909896Y-13010650D02*
X11928943Y-13020174D01*
X11928943Y-13020174D02*
X11938467Y-13029698D01*
X11938467Y-13029698D02*
X11947991Y-13048746D01*
X11947991Y-13048746D02*
X11947991Y-13105888D01*
X11947991Y-13105888D02*
X11938467Y-13124936D01*
X11938467Y-13124936D02*
X11928943Y-13134460D01*
X11928943Y-13134460D02*
X11909896Y-13143984D01*
X11909896Y-13143984D02*
X11871801Y-13143984D01*
X11871801Y-13143984D02*
X11852753Y-13134460D01*
X12033705Y-13124936D02*
X12043229Y-13134460D01*
X12043229Y-13134460D02*
X12033705Y-13143984D01*
X12033705Y-13143984D02*
X12024182Y-13134460D01*
X12024182Y-13134460D02*
X12033705Y-13124936D01*
X12033705Y-13124936D02*
X12033705Y-13143984D01*
X12033705Y-13020174D02*
X12043229Y-13029698D01*
X12043229Y-13029698D02*
X12033705Y-13039222D01*
X12033705Y-13039222D02*
X12024182Y-13029698D01*
X12024182Y-13029698D02*
X12033705Y-13020174D01*
X12033705Y-13020174D02*
X12033705Y-13039222D01*
D10*
X10336500Y-13440000D02*
X10401500Y-13505000D01*
X10401500Y-13440000D02*
X10336500Y-13505000D01*
D11*
X10700372Y-13363984D02*
X10719420Y-13363984D01*
X10719420Y-13363984D02*
X10738467Y-13373508D01*
X10738467Y-13373508D02*
X10747991Y-13383031D01*
X10747991Y-13383031D02*
X10757515Y-13402079D01*
X10757515Y-13402079D02*
X10767039Y-13440174D01*
X10767039Y-13440174D02*
X10767039Y-13487793D01*
X10767039Y-13487793D02*
X10757515Y-13525888D01*
X10757515Y-13525888D02*
X10747991Y-13544936D01*
X10747991Y-13544936D02*
X10738467Y-13554460D01*
X10738467Y-13554460D02*
X10719420Y-13563984D01*
X10719420Y-13563984D02*
X10700372Y-13563984D01*
X10700372Y-13563984D02*
X10681324Y-13554460D01*
X10681324Y-13554460D02*
X10671801Y-13544936D01*
X10671801Y-13544936D02*
X10662277Y-13525888D01*
X10662277Y-13525888D02*
X10652753Y-13487793D01*
X10652753Y-13487793D02*
X10652753Y-13440174D01*
X10652753Y-13440174D02*
X10662277Y-13402079D01*
X10662277Y-13402079D02*
X10671801Y-13383031D01*
X10671801Y-13383031D02*
X10681324Y-13373508D01*
X10681324Y-13373508D02*
X10700372Y-13363984D01*
X10852753Y-13544936D02*
X10862277Y-13554460D01*
X10862277Y-13554460D02*
X10852753Y-13563984D01*
X10852753Y-13563984D02*
X10843229Y-13554460D01*
X10843229Y-13554460D02*
X10852753Y-13544936D01*
X10852753Y-13544936D02*
X10852753Y-13563984D01*
X11033705Y-13363984D02*
X10995610Y-13363984D01*
X10995610Y-13363984D02*
X10976563Y-13373508D01*
X10976563Y-13373508D02*
X10967039Y-13383031D01*
X10967039Y-13383031D02*
X10947991Y-13411603D01*
X10947991Y-13411603D02*
X10938467Y-13449698D01*
X10938467Y-13449698D02*
X10938467Y-13525888D01*
X10938467Y-13525888D02*
X10947991Y-13544936D01*
X10947991Y-13544936D02*
X10957515Y-13554460D01*
X10957515Y-13554460D02*
X10976563Y-13563984D01*
X10976563Y-13563984D02*
X11014658Y-13563984D01*
X11014658Y-13563984D02*
X11033705Y-13554460D01*
X11033705Y-13554460D02*
X11043229Y-13544936D01*
X11043229Y-13544936D02*
X11052753Y-13525888D01*
X11052753Y-13525888D02*
X11052753Y-13478269D01*
X11052753Y-13478269D02*
X11043229Y-13459222D01*
X11043229Y-13459222D02*
X11033705Y-13449698D01*
X11033705Y-13449698D02*
X11014658Y-13440174D01*
X11014658Y-13440174D02*
X10976563Y-13440174D01*
X10976563Y-13440174D02*
X10957515Y-13449698D01*
X10957515Y-13449698D02*
X10947991Y-13459222D01*
X10947991Y-13459222D02*
X10938467Y-13478269D01*
X11233705Y-13363984D02*
X11138467Y-13363984D01*
X11138467Y-13363984D02*
X11128944Y-13459222D01*
X11128944Y-13459222D02*
X11138467Y-13449698D01*
X11138467Y-13449698D02*
X11157515Y-13440174D01*
X11157515Y-13440174D02*
X11205134Y-13440174D01*
X11205134Y-13440174D02*
X11224182Y-13449698D01*
X11224182Y-13449698D02*
X11233705Y-13459222D01*
X11233705Y-13459222D02*
X11243229Y-13478269D01*
X11243229Y-13478269D02*
X11243229Y-13525888D01*
X11243229Y-13525888D02*
X11233705Y-13544936D01*
X11233705Y-13544936D02*
X11224182Y-13554460D01*
X11224182Y-13554460D02*
X11205134Y-13563984D01*
X11205134Y-13563984D02*
X11157515Y-13563984D01*
X11157515Y-13563984D02*
X11138467Y-13554460D01*
X11138467Y-13554460D02*
X11128944Y-13544936D01*
X11367039Y-13363984D02*
X11386086Y-13363984D01*
X11386086Y-13363984D02*
X11405134Y-13373508D01*
X11405134Y-13373508D02*
X11414658Y-13383031D01*
X11414658Y-13383031D02*
X11424182Y-13402079D01*
X11424182Y-13402079D02*
X11433705Y-13440174D01*
X11433705Y-13440174D02*
X11433705Y-13487793D01*
X11433705Y-13487793D02*
X11424182Y-13525888D01*
X11424182Y-13525888D02*
X11414658Y-13544936D01*
X11414658Y-13544936D02*
X11405134Y-13554460D01*
X11405134Y-13554460D02*
X11386086Y-13563984D01*
X11386086Y-13563984D02*
X11367039Y-13563984D01*
X11367039Y-13563984D02*
X11347991Y-13554460D01*
X11347991Y-13554460D02*
X11338467Y-13544936D01*
X11338467Y-13544936D02*
X11328943Y-13525888D01*
X11328943Y-13525888D02*
X11319420Y-13487793D01*
X11319420Y-13487793D02*
X11319420Y-13440174D01*
X11319420Y-13440174D02*
X11328943Y-13402079D01*
X11328943Y-13402079D02*
X11338467Y-13383031D01*
X11338467Y-13383031D02*
X11347991Y-13373508D01*
X11347991Y-13373508D02*
X11367039Y-13363984D01*
X11519420Y-13563984D02*
X11519420Y-13430650D01*
X11519420Y-13449698D02*
X11528943Y-13440174D01*
X11528943Y-13440174D02*
X11547991Y-13430650D01*
X11547991Y-13430650D02*
X11576563Y-13430650D01*
X11576563Y-13430650D02*
X11595610Y-13440174D01*
X11595610Y-13440174D02*
X11605134Y-13459222D01*
X11605134Y-13459222D02*
X11605134Y-13563984D01*
X11605134Y-13459222D02*
X11614658Y-13440174D01*
X11614658Y-13440174D02*
X11633705Y-13430650D01*
X11633705Y-13430650D02*
X11662277Y-13430650D01*
X11662277Y-13430650D02*
X11681324Y-13440174D01*
X11681324Y-13440174D02*
X11690848Y-13459222D01*
X11690848Y-13459222D02*
X11690848Y-13563984D01*
X11786086Y-13563984D02*
X11786086Y-13430650D01*
X11786086Y-13449698D02*
X11795610Y-13440174D01*
X11795610Y-13440174D02*
X11814658Y-13430650D01*
X11814658Y-13430650D02*
X11843229Y-13430650D01*
X11843229Y-13430650D02*
X11862277Y-13440174D01*
X11862277Y-13440174D02*
X11871801Y-13459222D01*
X11871801Y-13459222D02*
X11871801Y-13563984D01*
X11871801Y-13459222D02*
X11881324Y-13440174D01*
X11881324Y-13440174D02*
X11900372Y-13430650D01*
X11900372Y-13430650D02*
X11928943Y-13430650D01*
X11928943Y-13430650D02*
X11947991Y-13440174D01*
X11947991Y-13440174D02*
X11957515Y-13459222D01*
X11957515Y-13459222D02*
X11957515Y-13563984D01*
X12347991Y-13354460D02*
X12176563Y-13611603D01*
X12605134Y-13363984D02*
X12624182Y-13363984D01*
X12624182Y-13363984D02*
X12643229Y-13373508D01*
X12643229Y-13373508D02*
X12652753Y-13383031D01*
X12652753Y-13383031D02*
X12662277Y-13402079D01*
X12662277Y-13402079D02*
X12671801Y-13440174D01*
X12671801Y-13440174D02*
X12671801Y-13487793D01*
X12671801Y-13487793D02*
X12662277Y-13525888D01*
X12662277Y-13525888D02*
X12652753Y-13544936D01*
X12652753Y-13544936D02*
X12643229Y-13554460D01*
X12643229Y-13554460D02*
X12624182Y-13563984D01*
X12624182Y-13563984D02*
X12605134Y-13563984D01*
X12605134Y-13563984D02*
X12586086Y-13554460D01*
X12586086Y-13554460D02*
X12576563Y-13544936D01*
X12576563Y-13544936D02*
X12567039Y-13525888D01*
X12567039Y-13525888D02*
X12557515Y-13487793D01*
X12557515Y-13487793D02*
X12557515Y-13440174D01*
X12557515Y-13440174D02*
X12567039Y-13402079D01*
X12567039Y-13402079D02*
X12576563Y-13383031D01*
X12576563Y-13383031D02*
X12586086Y-13373508D01*
X12586086Y-13373508D02*
X12605134Y-13363984D01*
X12757515Y-13544936D02*
X12767039Y-13554460D01*
X12767039Y-13554460D02*
X12757515Y-13563984D01*
X12757515Y-13563984D02*
X12747991Y-13554460D01*
X12747991Y-13554460D02*
X12757515Y-13544936D01*
X12757515Y-13544936D02*
X12757515Y-13563984D01*
X12890848Y-13363984D02*
X12909896Y-13363984D01*
X12909896Y-13363984D02*
X12928944Y-13373508D01*
X12928944Y-13373508D02*
X12938467Y-13383031D01*
X12938467Y-13383031D02*
X12947991Y-13402079D01*
X12947991Y-13402079D02*
X12957515Y-13440174D01*
X12957515Y-13440174D02*
X12957515Y-13487793D01*
X12957515Y-13487793D02*
X12947991Y-13525888D01*
X12947991Y-13525888D02*
X12938467Y-13544936D01*
X12938467Y-13544936D02*
X12928944Y-13554460D01*
X12928944Y-13554460D02*
X12909896Y-13563984D01*
X12909896Y-13563984D02*
X12890848Y-13563984D01*
X12890848Y-13563984D02*
X12871801Y-13554460D01*
X12871801Y-13554460D02*
X12862277Y-13544936D01*
X12862277Y-13544936D02*
X12852753Y-13525888D01*
X12852753Y-13525888D02*
X12843229Y-13487793D01*
X12843229Y-13487793D02*
X12843229Y-13440174D01*
X12843229Y-13440174D02*
X12852753Y-13402079D01*
X12852753Y-13402079D02*
X12862277Y-13383031D01*
X12862277Y-13383031D02*
X12871801Y-13373508D01*
X12871801Y-13373508D02*
X12890848Y-13363984D01*
X13033706Y-13383031D02*
X13043229Y-13373508D01*
X13043229Y-13373508D02*
X13062277Y-13363984D01*
X13062277Y-13363984D02*
X13109896Y-13363984D01*
X13109896Y-13363984D02*
X13128944Y-13373508D01*
X13128944Y-13373508D02*
X13138467Y-13383031D01*
X13138467Y-13383031D02*
X13147991Y-13402079D01*
X13147991Y-13402079D02*
X13147991Y-13421127D01*
X13147991Y-13421127D02*
X13138467Y-13449698D01*
X13138467Y-13449698D02*
X13024182Y-13563984D01*
X13024182Y-13563984D02*
X13147991Y-13563984D01*
X13328944Y-13363984D02*
X13233706Y-13363984D01*
X13233706Y-13363984D02*
X13224182Y-13459222D01*
X13224182Y-13459222D02*
X13233706Y-13449698D01*
X13233706Y-13449698D02*
X13252753Y-13440174D01*
X13252753Y-13440174D02*
X13300372Y-13440174D01*
X13300372Y-13440174D02*
X13319420Y-13449698D01*
X13319420Y-13449698D02*
X13328944Y-13459222D01*
X13328944Y-13459222D02*
X13338467Y-13478269D01*
X13338467Y-13478269D02*
X13338467Y-13525888D01*
X13338467Y-13525888D02*
X13328944Y-13544936D01*
X13328944Y-13544936D02*
X13319420Y-13554460D01*
X13319420Y-13554460D02*
X13300372Y-13563984D01*
X13300372Y-13563984D02*
X13252753Y-13563984D01*
X13252753Y-13563984D02*
X13233706Y-13554460D01*
X13233706Y-13554460D02*
X13224182Y-13544936D01*
X13509896Y-13363984D02*
X13471801Y-13363984D01*
X13471801Y-13363984D02*
X13452753Y-13373508D01*
X13452753Y-13373508D02*
X13443229Y-13383031D01*
X13443229Y-13383031D02*
X13424182Y-13411603D01*
X13424182Y-13411603D02*
X13414658Y-13449698D01*
X13414658Y-13449698D02*
X13414658Y-13525888D01*
X13414658Y-13525888D02*
X13424182Y-13544936D01*
X13424182Y-13544936D02*
X13433706Y-13554460D01*
X13433706Y-13554460D02*
X13452753Y-13563984D01*
X13452753Y-13563984D02*
X13490848Y-13563984D01*
X13490848Y-13563984D02*
X13509896Y-13554460D01*
X13509896Y-13554460D02*
X13519420Y-13544936D01*
X13519420Y-13544936D02*
X13528944Y-13525888D01*
X13528944Y-13525888D02*
X13528944Y-13478269D01*
X13528944Y-13478269D02*
X13519420Y-13459222D01*
X13519420Y-13459222D02*
X13509896Y-13449698D01*
X13509896Y-13449698D02*
X13490848Y-13440174D01*
X13490848Y-13440174D02*
X13452753Y-13440174D01*
X13452753Y-13440174D02*
X13433706Y-13449698D01*
X13433706Y-13449698D02*
X13424182Y-13459222D01*
X13424182Y-13459222D02*
X13414658Y-13478269D01*
X13605134Y-13363984D02*
X13605134Y-13402079D01*
X13681325Y-13363984D02*
X13681325Y-13402079D01*
X13976563Y-13640174D02*
X13967039Y-13630650D01*
X13967039Y-13630650D02*
X13947991Y-13602079D01*
X13947991Y-13602079D02*
X13938468Y-13583031D01*
X13938468Y-13583031D02*
X13928944Y-13554460D01*
X13928944Y-13554460D02*
X13919420Y-13506841D01*
X13919420Y-13506841D02*
X13919420Y-13468746D01*
X13919420Y-13468746D02*
X13928944Y-13421127D01*
X13928944Y-13421127D02*
X13938468Y-13392555D01*
X13938468Y-13392555D02*
X13947991Y-13373508D01*
X13947991Y-13373508D02*
X13967039Y-13344936D01*
X13967039Y-13344936D02*
X13976563Y-13335412D01*
X14043229Y-13383031D02*
X14052753Y-13373508D01*
X14052753Y-13373508D02*
X14071801Y-13363984D01*
X14071801Y-13363984D02*
X14119420Y-13363984D01*
X14119420Y-13363984D02*
X14138468Y-13373508D01*
X14138468Y-13373508D02*
X14147991Y-13383031D01*
X14147991Y-13383031D02*
X14157515Y-13402079D01*
X14157515Y-13402079D02*
X14157515Y-13421127D01*
X14157515Y-13421127D02*
X14147991Y-13449698D01*
X14147991Y-13449698D02*
X14033706Y-13563984D01*
X14033706Y-13563984D02*
X14157515Y-13563984D01*
X14395610Y-13563984D02*
X14395610Y-13363984D01*
X14481325Y-13563984D02*
X14481325Y-13459222D01*
X14481325Y-13459222D02*
X14471801Y-13440174D01*
X14471801Y-13440174D02*
X14452753Y-13430650D01*
X14452753Y-13430650D02*
X14424182Y-13430650D01*
X14424182Y-13430650D02*
X14405134Y-13440174D01*
X14405134Y-13440174D02*
X14395610Y-13449698D01*
X14605134Y-13563984D02*
X14586087Y-13554460D01*
X14586087Y-13554460D02*
X14576563Y-13544936D01*
X14576563Y-13544936D02*
X14567039Y-13525888D01*
X14567039Y-13525888D02*
X14567039Y-13468746D01*
X14567039Y-13468746D02*
X14576563Y-13449698D01*
X14576563Y-13449698D02*
X14586087Y-13440174D01*
X14586087Y-13440174D02*
X14605134Y-13430650D01*
X14605134Y-13430650D02*
X14633706Y-13430650D01*
X14633706Y-13430650D02*
X14652753Y-13440174D01*
X14652753Y-13440174D02*
X14662277Y-13449698D01*
X14662277Y-13449698D02*
X14671801Y-13468746D01*
X14671801Y-13468746D02*
X14671801Y-13525888D01*
X14671801Y-13525888D02*
X14662277Y-13544936D01*
X14662277Y-13544936D02*
X14652753Y-13554460D01*
X14652753Y-13554460D02*
X14633706Y-13563984D01*
X14633706Y-13563984D02*
X14605134Y-13563984D01*
X14786087Y-13563984D02*
X14767039Y-13554460D01*
X14767039Y-13554460D02*
X14757515Y-13535412D01*
X14757515Y-13535412D02*
X14757515Y-13363984D01*
X14938468Y-13554460D02*
X14919420Y-13563984D01*
X14919420Y-13563984D02*
X14881325Y-13563984D01*
X14881325Y-13563984D02*
X14862277Y-13554460D01*
X14862277Y-13554460D02*
X14852753Y-13535412D01*
X14852753Y-13535412D02*
X14852753Y-13459222D01*
X14852753Y-13459222D02*
X14862277Y-13440174D01*
X14862277Y-13440174D02*
X14881325Y-13430650D01*
X14881325Y-13430650D02*
X14919420Y-13430650D01*
X14919420Y-13430650D02*
X14938468Y-13440174D01*
X14938468Y-13440174D02*
X14947991Y-13459222D01*
X14947991Y-13459222D02*
X14947991Y-13478269D01*
X14947991Y-13478269D02*
X14852753Y-13497317D01*
X15024182Y-13554460D02*
X15043230Y-13563984D01*
X15043230Y-13563984D02*
X15081325Y-13563984D01*
X15081325Y-13563984D02*
X15100372Y-13554460D01*
X15100372Y-13554460D02*
X15109896Y-13535412D01*
X15109896Y-13535412D02*
X15109896Y-13525888D01*
X15109896Y-13525888D02*
X15100372Y-13506841D01*
X15100372Y-13506841D02*
X15081325Y-13497317D01*
X15081325Y-13497317D02*
X15052753Y-13497317D01*
X15052753Y-13497317D02*
X15033706Y-13487793D01*
X15033706Y-13487793D02*
X15024182Y-13468746D01*
X15024182Y-13468746D02*
X15024182Y-13459222D01*
X15024182Y-13459222D02*
X15033706Y-13440174D01*
X15033706Y-13440174D02*
X15052753Y-13430650D01*
X15052753Y-13430650D02*
X15081325Y-13430650D01*
X15081325Y-13430650D02*
X15100372Y-13440174D01*
X15176563Y-13640174D02*
X15186087Y-13630650D01*
X15186087Y-13630650D02*
X15205134Y-13602079D01*
X15205134Y-13602079D02*
X15214658Y-13583031D01*
X15214658Y-13583031D02*
X15224182Y-13554460D01*
X15224182Y-13554460D02*
X15233706Y-13506841D01*
X15233706Y-13506841D02*
X15233706Y-13468746D01*
X15233706Y-13468746D02*
X15224182Y-13421127D01*
X15224182Y-13421127D02*
X15214658Y-13392555D01*
X15214658Y-13392555D02*
X15205134Y-13373508D01*
X15205134Y-13373508D02*
X15186087Y-13344936D01*
X15186087Y-13344936D02*
X15176563Y-13335412D01*
X15538468Y-13640174D02*
X15528944Y-13630650D01*
X15528944Y-13630650D02*
X15509896Y-13602079D01*
X15509896Y-13602079D02*
X15500372Y-13583031D01*
X15500372Y-13583031D02*
X15490849Y-13554460D01*
X15490849Y-13554460D02*
X15481325Y-13506841D01*
X15481325Y-13506841D02*
X15481325Y-13468746D01*
X15481325Y-13468746D02*
X15490849Y-13421127D01*
X15490849Y-13421127D02*
X15500372Y-13392555D01*
X15500372Y-13392555D02*
X15509896Y-13373508D01*
X15509896Y-13373508D02*
X15528944Y-13344936D01*
X15528944Y-13344936D02*
X15538468Y-13335412D01*
X15614658Y-13430650D02*
X15614658Y-13563984D01*
X15614658Y-13449698D02*
X15624182Y-13440174D01*
X15624182Y-13440174D02*
X15643230Y-13430650D01*
X15643230Y-13430650D02*
X15671801Y-13430650D01*
X15671801Y-13430650D02*
X15690849Y-13440174D01*
X15690849Y-13440174D02*
X15700372Y-13459222D01*
X15700372Y-13459222D02*
X15700372Y-13563984D01*
X15824182Y-13563984D02*
X15805134Y-13554460D01*
X15805134Y-13554460D02*
X15795611Y-13544936D01*
X15795611Y-13544936D02*
X15786087Y-13525888D01*
X15786087Y-13525888D02*
X15786087Y-13468746D01*
X15786087Y-13468746D02*
X15795611Y-13449698D01*
X15795611Y-13449698D02*
X15805134Y-13440174D01*
X15805134Y-13440174D02*
X15824182Y-13430650D01*
X15824182Y-13430650D02*
X15852753Y-13430650D01*
X15852753Y-13430650D02*
X15871801Y-13440174D01*
X15871801Y-13440174D02*
X15881325Y-13449698D01*
X15881325Y-13449698D02*
X15890849Y-13468746D01*
X15890849Y-13468746D02*
X15890849Y-13525888D01*
X15890849Y-13525888D02*
X15881325Y-13544936D01*
X15881325Y-13544936D02*
X15871801Y-13554460D01*
X15871801Y-13554460D02*
X15852753Y-13563984D01*
X15852753Y-13563984D02*
X15824182Y-13563984D01*
X15947992Y-13430650D02*
X16024182Y-13430650D01*
X15976563Y-13363984D02*
X15976563Y-13535412D01*
X15976563Y-13535412D02*
X15986087Y-13554460D01*
X15986087Y-13554460D02*
X16005134Y-13563984D01*
X16005134Y-13563984D02*
X16024182Y-13563984D01*
X16243230Y-13430650D02*
X16243230Y-13630650D01*
X16243230Y-13440174D02*
X16262277Y-13430650D01*
X16262277Y-13430650D02*
X16300373Y-13430650D01*
X16300373Y-13430650D02*
X16319420Y-13440174D01*
X16319420Y-13440174D02*
X16328944Y-13449698D01*
X16328944Y-13449698D02*
X16338468Y-13468746D01*
X16338468Y-13468746D02*
X16338468Y-13525888D01*
X16338468Y-13525888D02*
X16328944Y-13544936D01*
X16328944Y-13544936D02*
X16319420Y-13554460D01*
X16319420Y-13554460D02*
X16300373Y-13563984D01*
X16300373Y-13563984D02*
X16262277Y-13563984D01*
X16262277Y-13563984D02*
X16243230Y-13554460D01*
X16452753Y-13563984D02*
X16433706Y-13554460D01*
X16433706Y-13554460D02*
X16424182Y-13535412D01*
X16424182Y-13535412D02*
X16424182Y-13363984D01*
X16614658Y-13563984D02*
X16614658Y-13459222D01*
X16614658Y-13459222D02*
X16605134Y-13440174D01*
X16605134Y-13440174D02*
X16586087Y-13430650D01*
X16586087Y-13430650D02*
X16547992Y-13430650D01*
X16547992Y-13430650D02*
X16528944Y-13440174D01*
X16614658Y-13554460D02*
X16595611Y-13563984D01*
X16595611Y-13563984D02*
X16547992Y-13563984D01*
X16547992Y-13563984D02*
X16528944Y-13554460D01*
X16528944Y-13554460D02*
X16519420Y-13535412D01*
X16519420Y-13535412D02*
X16519420Y-13516365D01*
X16519420Y-13516365D02*
X16528944Y-13497317D01*
X16528944Y-13497317D02*
X16547992Y-13487793D01*
X16547992Y-13487793D02*
X16595611Y-13487793D01*
X16595611Y-13487793D02*
X16614658Y-13478269D01*
X16681325Y-13430650D02*
X16757515Y-13430650D01*
X16709896Y-13363984D02*
X16709896Y-13535412D01*
X16709896Y-13535412D02*
X16719420Y-13554460D01*
X16719420Y-13554460D02*
X16738468Y-13563984D01*
X16738468Y-13563984D02*
X16757515Y-13563984D01*
X16900373Y-13554460D02*
X16881325Y-13563984D01*
X16881325Y-13563984D02*
X16843230Y-13563984D01*
X16843230Y-13563984D02*
X16824182Y-13554460D01*
X16824182Y-13554460D02*
X16814658Y-13535412D01*
X16814658Y-13535412D02*
X16814658Y-13459222D01*
X16814658Y-13459222D02*
X16824182Y-13440174D01*
X16824182Y-13440174D02*
X16843230Y-13430650D01*
X16843230Y-13430650D02*
X16881325Y-13430650D01*
X16881325Y-13430650D02*
X16900373Y-13440174D01*
X16900373Y-13440174D02*
X16909896Y-13459222D01*
X16909896Y-13459222D02*
X16909896Y-13478269D01*
X16909896Y-13478269D02*
X16814658Y-13497317D01*
X17081325Y-13563984D02*
X17081325Y-13363984D01*
X17081325Y-13554460D02*
X17062277Y-13563984D01*
X17062277Y-13563984D02*
X17024182Y-13563984D01*
X17024182Y-13563984D02*
X17005135Y-13554460D01*
X17005135Y-13554460D02*
X16995611Y-13544936D01*
X16995611Y-13544936D02*
X16986087Y-13525888D01*
X16986087Y-13525888D02*
X16986087Y-13468746D01*
X16986087Y-13468746D02*
X16995611Y-13449698D01*
X16995611Y-13449698D02*
X17005135Y-13440174D01*
X17005135Y-13440174D02*
X17024182Y-13430650D01*
X17024182Y-13430650D02*
X17062277Y-13430650D01*
X17062277Y-13430650D02*
X17081325Y-13440174D01*
X17157516Y-13640174D02*
X17167039Y-13630650D01*
X17167039Y-13630650D02*
X17186087Y-13602079D01*
X17186087Y-13602079D02*
X17195611Y-13583031D01*
X17195611Y-13583031D02*
X17205135Y-13554460D01*
X17205135Y-13554460D02*
X17214658Y-13506841D01*
X17214658Y-13506841D02*
X17214658Y-13468746D01*
X17214658Y-13468746D02*
X17205135Y-13421127D01*
X17205135Y-13421127D02*
X17195611Y-13392555D01*
X17195611Y-13392555D02*
X17186087Y-13373508D01*
X17186087Y-13373508D02*
X17167039Y-13344936D01*
X17167039Y-13344936D02*
X17157516Y-13335412D01*
X10401500Y-13736500D02*
G75*
G03*
X10201500Y-13736500I-100000J0D01*
G01*
X10201500Y-13736500D02*
G75*
G03*
X10401500Y-13736500I100000J0D01*
G01*
X10643229Y-13627984D02*
X10767039Y-13627984D01*
X10767039Y-13627984D02*
X10700372Y-13704174D01*
X10700372Y-13704174D02*
X10728944Y-13704174D01*
X10728944Y-13704174D02*
X10747991Y-13713698D01*
X10747991Y-13713698D02*
X10757515Y-13723222D01*
X10757515Y-13723222D02*
X10767039Y-13742269D01*
X10767039Y-13742269D02*
X10767039Y-13789888D01*
X10767039Y-13789888D02*
X10757515Y-13808936D01*
X10757515Y-13808936D02*
X10747991Y-13818460D01*
X10747991Y-13818460D02*
X10728944Y-13827984D01*
X10728944Y-13827984D02*
X10671801Y-13827984D01*
X10671801Y-13827984D02*
X10652753Y-13818460D01*
X10652753Y-13818460D02*
X10643229Y-13808936D01*
X10852753Y-13808936D02*
X10862277Y-13818460D01*
X10862277Y-13818460D02*
X10852753Y-13827984D01*
X10852753Y-13827984D02*
X10843229Y-13818460D01*
X10843229Y-13818460D02*
X10852753Y-13808936D01*
X10852753Y-13808936D02*
X10852753Y-13827984D01*
X11043229Y-13627984D02*
X10947991Y-13627984D01*
X10947991Y-13627984D02*
X10938467Y-13723222D01*
X10938467Y-13723222D02*
X10947991Y-13713698D01*
X10947991Y-13713698D02*
X10967039Y-13704174D01*
X10967039Y-13704174D02*
X11014658Y-13704174D01*
X11014658Y-13704174D02*
X11033705Y-13713698D01*
X11033705Y-13713698D02*
X11043229Y-13723222D01*
X11043229Y-13723222D02*
X11052753Y-13742269D01*
X11052753Y-13742269D02*
X11052753Y-13789888D01*
X11052753Y-13789888D02*
X11043229Y-13808936D01*
X11043229Y-13808936D02*
X11033705Y-13818460D01*
X11033705Y-13818460D02*
X11014658Y-13827984D01*
X11014658Y-13827984D02*
X10967039Y-13827984D01*
X10967039Y-13827984D02*
X10947991Y-13818460D01*
X10947991Y-13818460D02*
X10938467Y-13808936D01*
X11176563Y-13627984D02*
X11195610Y-13627984D01*
X11195610Y-13627984D02*
X11214658Y-13637508D01*
X11214658Y-13637508D02*
X11224182Y-13647031D01*
X11224182Y-13647031D02*
X11233705Y-13666079D01*
X11233705Y-13666079D02*
X11243229Y-13704174D01*
X11243229Y-13704174D02*
X11243229Y-13751793D01*
X11243229Y-13751793D02*
X11233705Y-13789888D01*
X11233705Y-13789888D02*
X11224182Y-13808936D01*
X11224182Y-13808936D02*
X11214658Y-13818460D01*
X11214658Y-13818460D02*
X11195610Y-13827984D01*
X11195610Y-13827984D02*
X11176563Y-13827984D01*
X11176563Y-13827984D02*
X11157515Y-13818460D01*
X11157515Y-13818460D02*
X11147991Y-13808936D01*
X11147991Y-13808936D02*
X11138467Y-13789888D01*
X11138467Y-13789888D02*
X11128944Y-13751793D01*
X11128944Y-13751793D02*
X11128944Y-13704174D01*
X11128944Y-13704174D02*
X11138467Y-13666079D01*
X11138467Y-13666079D02*
X11147991Y-13647031D01*
X11147991Y-13647031D02*
X11157515Y-13637508D01*
X11157515Y-13637508D02*
X11176563Y-13627984D01*
X11367039Y-13627984D02*
X11386086Y-13627984D01*
X11386086Y-13627984D02*
X11405134Y-13637508D01*
X11405134Y-13637508D02*
X11414658Y-13647031D01*
X11414658Y-13647031D02*
X11424182Y-13666079D01*
X11424182Y-13666079D02*
X11433705Y-13704174D01*
X11433705Y-13704174D02*
X11433705Y-13751793D01*
X11433705Y-13751793D02*
X11424182Y-13789888D01*
X11424182Y-13789888D02*
X11414658Y-13808936D01*
X11414658Y-13808936D02*
X11405134Y-13818460D01*
X11405134Y-13818460D02*
X11386086Y-13827984D01*
X11386086Y-13827984D02*
X11367039Y-13827984D01*
X11367039Y-13827984D02*
X11347991Y-13818460D01*
X11347991Y-13818460D02*
X11338467Y-13808936D01*
X11338467Y-13808936D02*
X11328943Y-13789888D01*
X11328943Y-13789888D02*
X11319420Y-13751793D01*
X11319420Y-13751793D02*
X11319420Y-13704174D01*
X11319420Y-13704174D02*
X11328943Y-13666079D01*
X11328943Y-13666079D02*
X11338467Y-13647031D01*
X11338467Y-13647031D02*
X11347991Y-13637508D01*
X11347991Y-13637508D02*
X11367039Y-13627984D01*
X11519420Y-13827984D02*
X11519420Y-13694650D01*
X11519420Y-13713698D02*
X11528943Y-13704174D01*
X11528943Y-13704174D02*
X11547991Y-13694650D01*
X11547991Y-13694650D02*
X11576563Y-13694650D01*
X11576563Y-13694650D02*
X11595610Y-13704174D01*
X11595610Y-13704174D02*
X11605134Y-13723222D01*
X11605134Y-13723222D02*
X11605134Y-13827984D01*
X11605134Y-13723222D02*
X11614658Y-13704174D01*
X11614658Y-13704174D02*
X11633705Y-13694650D01*
X11633705Y-13694650D02*
X11662277Y-13694650D01*
X11662277Y-13694650D02*
X11681324Y-13704174D01*
X11681324Y-13704174D02*
X11690848Y-13723222D01*
X11690848Y-13723222D02*
X11690848Y-13827984D01*
X11786086Y-13827984D02*
X11786086Y-13694650D01*
X11786086Y-13713698D02*
X11795610Y-13704174D01*
X11795610Y-13704174D02*
X11814658Y-13694650D01*
X11814658Y-13694650D02*
X11843229Y-13694650D01*
X11843229Y-13694650D02*
X11862277Y-13704174D01*
X11862277Y-13704174D02*
X11871801Y-13723222D01*
X11871801Y-13723222D02*
X11871801Y-13827984D01*
X11871801Y-13723222D02*
X11881324Y-13704174D01*
X11881324Y-13704174D02*
X11900372Y-13694650D01*
X11900372Y-13694650D02*
X11928943Y-13694650D01*
X11928943Y-13694650D02*
X11947991Y-13704174D01*
X11947991Y-13704174D02*
X11957515Y-13723222D01*
X11957515Y-13723222D02*
X11957515Y-13827984D01*
X12347991Y-13618460D02*
X12176563Y-13875603D01*
X12605134Y-13627984D02*
X12624182Y-13627984D01*
X12624182Y-13627984D02*
X12643229Y-13637508D01*
X12643229Y-13637508D02*
X12652753Y-13647031D01*
X12652753Y-13647031D02*
X12662277Y-13666079D01*
X12662277Y-13666079D02*
X12671801Y-13704174D01*
X12671801Y-13704174D02*
X12671801Y-13751793D01*
X12671801Y-13751793D02*
X12662277Y-13789888D01*
X12662277Y-13789888D02*
X12652753Y-13808936D01*
X12652753Y-13808936D02*
X12643229Y-13818460D01*
X12643229Y-13818460D02*
X12624182Y-13827984D01*
X12624182Y-13827984D02*
X12605134Y-13827984D01*
X12605134Y-13827984D02*
X12586086Y-13818460D01*
X12586086Y-13818460D02*
X12576563Y-13808936D01*
X12576563Y-13808936D02*
X12567039Y-13789888D01*
X12567039Y-13789888D02*
X12557515Y-13751793D01*
X12557515Y-13751793D02*
X12557515Y-13704174D01*
X12557515Y-13704174D02*
X12567039Y-13666079D01*
X12567039Y-13666079D02*
X12576563Y-13647031D01*
X12576563Y-13647031D02*
X12586086Y-13637508D01*
X12586086Y-13637508D02*
X12605134Y-13627984D01*
X12757515Y-13808936D02*
X12767039Y-13818460D01*
X12767039Y-13818460D02*
X12757515Y-13827984D01*
X12757515Y-13827984D02*
X12747991Y-13818460D01*
X12747991Y-13818460D02*
X12757515Y-13808936D01*
X12757515Y-13808936D02*
X12757515Y-13827984D01*
X12957515Y-13827984D02*
X12843229Y-13827984D01*
X12900372Y-13827984D02*
X12900372Y-13627984D01*
X12900372Y-13627984D02*
X12881325Y-13656555D01*
X12881325Y-13656555D02*
X12862277Y-13675603D01*
X12862277Y-13675603D02*
X12843229Y-13685127D01*
X13024182Y-13627984D02*
X13147991Y-13627984D01*
X13147991Y-13627984D02*
X13081325Y-13704174D01*
X13081325Y-13704174D02*
X13109896Y-13704174D01*
X13109896Y-13704174D02*
X13128944Y-13713698D01*
X13128944Y-13713698D02*
X13138467Y-13723222D01*
X13138467Y-13723222D02*
X13147991Y-13742269D01*
X13147991Y-13742269D02*
X13147991Y-13789888D01*
X13147991Y-13789888D02*
X13138467Y-13808936D01*
X13138467Y-13808936D02*
X13128944Y-13818460D01*
X13128944Y-13818460D02*
X13109896Y-13827984D01*
X13109896Y-13827984D02*
X13052753Y-13827984D01*
X13052753Y-13827984D02*
X13033706Y-13818460D01*
X13033706Y-13818460D02*
X13024182Y-13808936D01*
X13214658Y-13627984D02*
X13347991Y-13627984D01*
X13347991Y-13627984D02*
X13262277Y-13827984D01*
X13452753Y-13713698D02*
X13433706Y-13704174D01*
X13433706Y-13704174D02*
X13424182Y-13694650D01*
X13424182Y-13694650D02*
X13414658Y-13675603D01*
X13414658Y-13675603D02*
X13414658Y-13666079D01*
X13414658Y-13666079D02*
X13424182Y-13647031D01*
X13424182Y-13647031D02*
X13433706Y-13637508D01*
X13433706Y-13637508D02*
X13452753Y-13627984D01*
X13452753Y-13627984D02*
X13490848Y-13627984D01*
X13490848Y-13627984D02*
X13509896Y-13637508D01*
X13509896Y-13637508D02*
X13519420Y-13647031D01*
X13519420Y-13647031D02*
X13528944Y-13666079D01*
X13528944Y-13666079D02*
X13528944Y-13675603D01*
X13528944Y-13675603D02*
X13519420Y-13694650D01*
X13519420Y-13694650D02*
X13509896Y-13704174D01*
X13509896Y-13704174D02*
X13490848Y-13713698D01*
X13490848Y-13713698D02*
X13452753Y-13713698D01*
X13452753Y-13713698D02*
X13433706Y-13723222D01*
X13433706Y-13723222D02*
X13424182Y-13732746D01*
X13424182Y-13732746D02*
X13414658Y-13751793D01*
X13414658Y-13751793D02*
X13414658Y-13789888D01*
X13414658Y-13789888D02*
X13424182Y-13808936D01*
X13424182Y-13808936D02*
X13433706Y-13818460D01*
X13433706Y-13818460D02*
X13452753Y-13827984D01*
X13452753Y-13827984D02*
X13490848Y-13827984D01*
X13490848Y-13827984D02*
X13509896Y-13818460D01*
X13509896Y-13818460D02*
X13519420Y-13808936D01*
X13519420Y-13808936D02*
X13528944Y-13789888D01*
X13528944Y-13789888D02*
X13528944Y-13751793D01*
X13528944Y-13751793D02*
X13519420Y-13732746D01*
X13519420Y-13732746D02*
X13509896Y-13723222D01*
X13509896Y-13723222D02*
X13490848Y-13713698D01*
X13605134Y-13627984D02*
X13605134Y-13666079D01*
X13681325Y-13627984D02*
X13681325Y-13666079D01*
X13976563Y-13904174D02*
X13967039Y-13894650D01*
X13967039Y-13894650D02*
X13947991Y-13866079D01*
X13947991Y-13866079D02*
X13938468Y-13847031D01*
X13938468Y-13847031D02*
X13928944Y-13818460D01*
X13928944Y-13818460D02*
X13919420Y-13770841D01*
X13919420Y-13770841D02*
X13919420Y-13732746D01*
X13919420Y-13732746D02*
X13928944Y-13685127D01*
X13928944Y-13685127D02*
X13938468Y-13656555D01*
X13938468Y-13656555D02*
X13947991Y-13637508D01*
X13947991Y-13637508D02*
X13967039Y-13608936D01*
X13967039Y-13608936D02*
X13976563Y-13599412D01*
X14138468Y-13694650D02*
X14138468Y-13827984D01*
X14090848Y-13618460D02*
X14043229Y-13761317D01*
X14043229Y-13761317D02*
X14167039Y-13761317D01*
X14395610Y-13827984D02*
X14395610Y-13627984D01*
X14481325Y-13827984D02*
X14481325Y-13723222D01*
X14481325Y-13723222D02*
X14471801Y-13704174D01*
X14471801Y-13704174D02*
X14452753Y-13694650D01*
X14452753Y-13694650D02*
X14424182Y-13694650D01*
X14424182Y-13694650D02*
X14405134Y-13704174D01*
X14405134Y-13704174D02*
X14395610Y-13713698D01*
X14605134Y-13827984D02*
X14586087Y-13818460D01*
X14586087Y-13818460D02*
X14576563Y-13808936D01*
X14576563Y-13808936D02*
X14567039Y-13789888D01*
X14567039Y-13789888D02*
X14567039Y-13732746D01*
X14567039Y-13732746D02*
X14576563Y-13713698D01*
X14576563Y-13713698D02*
X14586087Y-13704174D01*
X14586087Y-13704174D02*
X14605134Y-13694650D01*
X14605134Y-13694650D02*
X14633706Y-13694650D01*
X14633706Y-13694650D02*
X14652753Y-13704174D01*
X14652753Y-13704174D02*
X14662277Y-13713698D01*
X14662277Y-13713698D02*
X14671801Y-13732746D01*
X14671801Y-13732746D02*
X14671801Y-13789888D01*
X14671801Y-13789888D02*
X14662277Y-13808936D01*
X14662277Y-13808936D02*
X14652753Y-13818460D01*
X14652753Y-13818460D02*
X14633706Y-13827984D01*
X14633706Y-13827984D02*
X14605134Y-13827984D01*
X14786087Y-13827984D02*
X14767039Y-13818460D01*
X14767039Y-13818460D02*
X14757515Y-13799412D01*
X14757515Y-13799412D02*
X14757515Y-13627984D01*
X14938468Y-13818460D02*
X14919420Y-13827984D01*
X14919420Y-13827984D02*
X14881325Y-13827984D01*
X14881325Y-13827984D02*
X14862277Y-13818460D01*
X14862277Y-13818460D02*
X14852753Y-13799412D01*
X14852753Y-13799412D02*
X14852753Y-13723222D01*
X14852753Y-13723222D02*
X14862277Y-13704174D01*
X14862277Y-13704174D02*
X14881325Y-13694650D01*
X14881325Y-13694650D02*
X14919420Y-13694650D01*
X14919420Y-13694650D02*
X14938468Y-13704174D01*
X14938468Y-13704174D02*
X14947991Y-13723222D01*
X14947991Y-13723222D02*
X14947991Y-13742269D01*
X14947991Y-13742269D02*
X14852753Y-13761317D01*
X15024182Y-13818460D02*
X15043230Y-13827984D01*
X15043230Y-13827984D02*
X15081325Y-13827984D01*
X15081325Y-13827984D02*
X15100372Y-13818460D01*
X15100372Y-13818460D02*
X15109896Y-13799412D01*
X15109896Y-13799412D02*
X15109896Y-13789888D01*
X15109896Y-13789888D02*
X15100372Y-13770841D01*
X15100372Y-13770841D02*
X15081325Y-13761317D01*
X15081325Y-13761317D02*
X15052753Y-13761317D01*
X15052753Y-13761317D02*
X15033706Y-13751793D01*
X15033706Y-13751793D02*
X15024182Y-13732746D01*
X15024182Y-13732746D02*
X15024182Y-13723222D01*
X15024182Y-13723222D02*
X15033706Y-13704174D01*
X15033706Y-13704174D02*
X15052753Y-13694650D01*
X15052753Y-13694650D02*
X15081325Y-13694650D01*
X15081325Y-13694650D02*
X15100372Y-13704174D01*
X15176563Y-13904174D02*
X15186087Y-13894650D01*
X15186087Y-13894650D02*
X15205134Y-13866079D01*
X15205134Y-13866079D02*
X15214658Y-13847031D01*
X15214658Y-13847031D02*
X15224182Y-13818460D01*
X15224182Y-13818460D02*
X15233706Y-13770841D01*
X15233706Y-13770841D02*
X15233706Y-13732746D01*
X15233706Y-13732746D02*
X15224182Y-13685127D01*
X15224182Y-13685127D02*
X15214658Y-13656555D01*
X15214658Y-13656555D02*
X15205134Y-13637508D01*
X15205134Y-13637508D02*
X15186087Y-13608936D01*
X15186087Y-13608936D02*
X15176563Y-13599412D01*
X15538468Y-13904174D02*
X15528944Y-13894650D01*
X15528944Y-13894650D02*
X15509896Y-13866079D01*
X15509896Y-13866079D02*
X15500372Y-13847031D01*
X15500372Y-13847031D02*
X15490849Y-13818460D01*
X15490849Y-13818460D02*
X15481325Y-13770841D01*
X15481325Y-13770841D02*
X15481325Y-13732746D01*
X15481325Y-13732746D02*
X15490849Y-13685127D01*
X15490849Y-13685127D02*
X15500372Y-13656555D01*
X15500372Y-13656555D02*
X15509896Y-13637508D01*
X15509896Y-13637508D02*
X15528944Y-13608936D01*
X15528944Y-13608936D02*
X15538468Y-13599412D01*
X15614658Y-13694650D02*
X15614658Y-13827984D01*
X15614658Y-13713698D02*
X15624182Y-13704174D01*
X15624182Y-13704174D02*
X15643230Y-13694650D01*
X15643230Y-13694650D02*
X15671801Y-13694650D01*
X15671801Y-13694650D02*
X15690849Y-13704174D01*
X15690849Y-13704174D02*
X15700372Y-13723222D01*
X15700372Y-13723222D02*
X15700372Y-13827984D01*
X15824182Y-13827984D02*
X15805134Y-13818460D01*
X15805134Y-13818460D02*
X15795611Y-13808936D01*
X15795611Y-13808936D02*
X15786087Y-13789888D01*
X15786087Y-13789888D02*
X15786087Y-13732746D01*
X15786087Y-13732746D02*
X15795611Y-13713698D01*
X15795611Y-13713698D02*
X15805134Y-13704174D01*
X15805134Y-13704174D02*
X15824182Y-13694650D01*
X15824182Y-13694650D02*
X15852753Y-13694650D01*
X15852753Y-13694650D02*
X15871801Y-13704174D01*
X15871801Y-13704174D02*
X15881325Y-13713698D01*
X15881325Y-13713698D02*
X15890849Y-13732746D01*
X15890849Y-13732746D02*
X15890849Y-13789888D01*
X15890849Y-13789888D02*
X15881325Y-13808936D01*
X15881325Y-13808936D02*
X15871801Y-13818460D01*
X15871801Y-13818460D02*
X15852753Y-13827984D01*
X15852753Y-13827984D02*
X15824182Y-13827984D01*
X15947992Y-13694650D02*
X16024182Y-13694650D01*
X15976563Y-13627984D02*
X15976563Y-13799412D01*
X15976563Y-13799412D02*
X15986087Y-13818460D01*
X15986087Y-13818460D02*
X16005134Y-13827984D01*
X16005134Y-13827984D02*
X16024182Y-13827984D01*
X16243230Y-13694650D02*
X16243230Y-13894650D01*
X16243230Y-13704174D02*
X16262277Y-13694650D01*
X16262277Y-13694650D02*
X16300373Y-13694650D01*
X16300373Y-13694650D02*
X16319420Y-13704174D01*
X16319420Y-13704174D02*
X16328944Y-13713698D01*
X16328944Y-13713698D02*
X16338468Y-13732746D01*
X16338468Y-13732746D02*
X16338468Y-13789888D01*
X16338468Y-13789888D02*
X16328944Y-13808936D01*
X16328944Y-13808936D02*
X16319420Y-13818460D01*
X16319420Y-13818460D02*
X16300373Y-13827984D01*
X16300373Y-13827984D02*
X16262277Y-13827984D01*
X16262277Y-13827984D02*
X16243230Y-13818460D01*
X16452753Y-13827984D02*
X16433706Y-13818460D01*
X16433706Y-13818460D02*
X16424182Y-13799412D01*
X16424182Y-13799412D02*
X16424182Y-13627984D01*
X16614658Y-13827984D02*
X16614658Y-13723222D01*
X16614658Y-13723222D02*
X16605134Y-13704174D01*
X16605134Y-13704174D02*
X16586087Y-13694650D01*
X16586087Y-13694650D02*
X16547992Y-13694650D01*
X16547992Y-13694650D02*
X16528944Y-13704174D01*
X16614658Y-13818460D02*
X16595611Y-13827984D01*
X16595611Y-13827984D02*
X16547992Y-13827984D01*
X16547992Y-13827984D02*
X16528944Y-13818460D01*
X16528944Y-13818460D02*
X16519420Y-13799412D01*
X16519420Y-13799412D02*
X16519420Y-13780365D01*
X16519420Y-13780365D02*
X16528944Y-13761317D01*
X16528944Y-13761317D02*
X16547992Y-13751793D01*
X16547992Y-13751793D02*
X16595611Y-13751793D01*
X16595611Y-13751793D02*
X16614658Y-13742269D01*
X16681325Y-13694650D02*
X16757515Y-13694650D01*
X16709896Y-13627984D02*
X16709896Y-13799412D01*
X16709896Y-13799412D02*
X16719420Y-13818460D01*
X16719420Y-13818460D02*
X16738468Y-13827984D01*
X16738468Y-13827984D02*
X16757515Y-13827984D01*
X16900373Y-13818460D02*
X16881325Y-13827984D01*
X16881325Y-13827984D02*
X16843230Y-13827984D01*
X16843230Y-13827984D02*
X16824182Y-13818460D01*
X16824182Y-13818460D02*
X16814658Y-13799412D01*
X16814658Y-13799412D02*
X16814658Y-13723222D01*
X16814658Y-13723222D02*
X16824182Y-13704174D01*
X16824182Y-13704174D02*
X16843230Y-13694650D01*
X16843230Y-13694650D02*
X16881325Y-13694650D01*
X16881325Y-13694650D02*
X16900373Y-13704174D01*
X16900373Y-13704174D02*
X16909896Y-13723222D01*
X16909896Y-13723222D02*
X16909896Y-13742269D01*
X16909896Y-13742269D02*
X16814658Y-13761317D01*
X17081325Y-13827984D02*
X17081325Y-13627984D01*
X17081325Y-13818460D02*
X17062277Y-13827984D01*
X17062277Y-13827984D02*
X17024182Y-13827984D01*
X17024182Y-13827984D02*
X17005135Y-13818460D01*
X17005135Y-13818460D02*
X16995611Y-13808936D01*
X16995611Y-13808936D02*
X16986087Y-13789888D01*
X16986087Y-13789888D02*
X16986087Y-13732746D01*
X16986087Y-13732746D02*
X16995611Y-13713698D01*
X16995611Y-13713698D02*
X17005135Y-13704174D01*
X17005135Y-13704174D02*
X17024182Y-13694650D01*
X17024182Y-13694650D02*
X17062277Y-13694650D01*
X17062277Y-13694650D02*
X17081325Y-13704174D01*
X17157516Y-13904174D02*
X17167039Y-13894650D01*
X17167039Y-13894650D02*
X17186087Y-13866079D01*
X17186087Y-13866079D02*
X17195611Y-13847031D01*
X17195611Y-13847031D02*
X17205135Y-13818460D01*
X17205135Y-13818460D02*
X17214658Y-13770841D01*
X17214658Y-13770841D02*
X17214658Y-13732746D01*
X17214658Y-13732746D02*
X17205135Y-13685127D01*
X17205135Y-13685127D02*
X17195611Y-13656555D01*
X17195611Y-13656555D02*
X17186087Y-13637508D01*
X17186087Y-13637508D02*
X17167039Y-13608936D01*
X17167039Y-13608936D02*
X17157516Y-13599412D01*
M02*
