M48
; DRILL file {KiCad 7.0.10-7.0.10~ubuntu22.04.1} date Mon 25 Mar 2024 01:46:40 CET
; FORMAT={-:-/ absolute / inch / decimal}
; #@! TF.CreationDate,2024-03-25T01:46:40+01:00
; #@! TF.GenerationSoftware,Kicad,Pcbnew,7.0.10-7.0.10~ubuntu22.04.1
; #@! TF.FileFunction,Plated,1,2,PTH
FMAT,2
INCH
; #@! TA.AperFunction,Plated,PTH,ViaDrill
T1C0.0138
; #@! TA.AperFunction,Plated,PTH,ViaDrill
T2C0.0157
; #@! TA.AperFunction,Plated,PTH,ViaDrill
T3C0.0217
; #@! TA.AperFunction,Plated,PTH,ComponentDrill
T4C0.0236
; #@! TA.AperFunction,Plated,PTH,ComponentDrill
T5C0.0276
; #@! TA.AperFunction,Plated,PTH,ComponentDrill
T6C0.0295
; #@! TA.AperFunction,Plated,PTH,ComponentDrill
T7C0.0315
; #@! TA.AperFunction,Plated,PTH,ComponentDrill
T8C0.0354
; #@! TA.AperFunction,Plated,PTH,ComponentDrill
T9C0.0394
; #@! TA.AperFunction,Plated,PTH,ComponentDrill
T10C0.0925
%
G90
G05
T1
X4.5177Y-2.5197
X4.7933Y-4.2224
X5.1083Y-4.2913
X5.3091Y-2.7736
X5.3426Y-3.2652
X5.3772Y-3.2727
X5.3937Y-3.0512
X5.4059Y-3.2936
X5.4331Y-3.0512
X5.4378Y-3.3089
X5.4823Y-3.0526
X5.4921Y-2.9331
X5.499Y-3.2871
X5.4994Y-3.3589
X5.6201Y-3.1398
X5.6201Y-3.3169
X5.6988Y-2.9528
X5.7642Y-3.0467
X5.7897Y-3.0221
X5.8148Y-2.9971
X5.8892Y-3.11
X5.9927Y-3.0963
X6.0039Y-3.1299
X6.0039Y-3.1654
X6.0039Y-3.2008
X6.0039Y-3.2362
X6.1319Y-3.1693
X6.2792Y-3.1686
X6.3189Y-3.1693
X6.3242Y-2.5326
X6.3587Y-3.1618
X6.3592Y-2.5384
X6.3897Y-3.1447
X6.4075Y-2.5458
X6.4429Y-2.5458
X6.5846Y-2.874
X6.6217Y-2.8378
X6.6222Y-2.8774
X6.6581Y-2.8331
X6.7048Y-2.668
X6.8012Y-2.6688
X6.8996Y-2.668
T2
X4.3209Y-3.5433
X4.3307Y-3.7056
X4.48Y-3.56
X4.48Y-3.67
X4.5217Y-3.58
X4.556Y-4.0401
X4.5581Y-3.6978
X4.5591Y-3.4592
X4.5965Y-3.5487
X4.7264Y-2.7205
X4.7717Y-3.5669
X4.824Y-2.614
X4.8268Y-2.7283
X4.8819Y-3.7234
X4.8868Y-3.4114
X4.9173Y-3.5315
X4.9173Y-3.815
X4.9724Y-3.2717
X4.9902Y-4.4094
X5.1969Y-3.4941
X5.2028Y-3.3484
X5.2362Y-3.4941
X5.2756Y-3.3661
X5.2756Y-4.5472
X5.2835Y-3.3209
X5.3051Y-3.9272
X5.311Y-2.8878
X5.3806Y-4.5472
X5.4331Y-3.6053
X5.4878Y-3.3233
X5.502Y-3.1629
X5.5039Y-4.1102
X5.6102Y-4.2717
X5.6482Y-4.4774
X5.6969Y-4.4843
X5.7008Y-4.6811
X5.7087Y-4.3898
X5.8583Y-4.815
X6.0827Y-4.252
X6.2185Y-3.7992
X6.2185Y-4.4252
X6.2205Y-3.9154
X6.28Y-4.17
X6.2991Y-4.2161
X6.3078Y-4.1422
X6.3327Y-4.1117
X6.335Y-3.9913
X6.335Y-4.0306
X6.335Y-4.07
X6.3386Y-3.8002
X6.3386Y-4.8228
X6.3396Y-3.9183
X6.3396Y-4.4301
X6.34Y-4.31
X6.3671Y-4.5561
X6.37Y-3.97
X6.3789Y-4.503
X6.412Y-3.744
X6.4567Y-3.189
X6.4862Y-4.7067
X6.4902Y-4.5906
X6.4941Y-4.6476
X6.5197Y-4.6791
X6.5217Y-4.5591
X6.5315Y-4.6201
X6.54Y-4.81
X6.563Y-3.8927
X6.5689Y-3.7333
X6.5738Y-4.7726
X6.5797Y-4.5413
X6.5817Y-4.2884
X6.6024Y-4.5807
X6.622Y-4.6161
X6.6634Y-4.622
X6.6949Y-4.5846
X6.7224Y-4.6319
X6.75Y-4.5709
X6.91Y-4.6
X6.9124Y-3.5943
X6.9148Y-3.5021
X6.9148Y-3.6864
X6.9148Y-3.7786
X6.9148Y-3.8707
X6.9148Y-3.9629
X6.9148Y-4.055
X6.9148Y-4.515
X6.915Y-3.41
X6.9154Y-4.331
X6.9154Y-4.423
X6.9164Y-4.238
X6.9168Y-4.146
T3
X4.9803Y-2.5
X5.0591Y-4.8031
X5.1772Y-3.1102
X5.1772Y-3.2283
X5.2362Y-3.1102
X5.2362Y-3.2283
X5.2953Y-4.0748
X6.2205Y-4.312
X6.2402Y-4.8228
T5
X5.7781Y-2.747
X5.7781Y-2.8455
X5.8175Y-2.6683
X5.8175Y-2.9242
X5.8569Y-2.747
X5.8569Y-2.8455
X5.8963Y-2.6683
X5.8963Y-2.9242
X5.9356Y-2.747
X5.9356Y-2.8455
X5.975Y-2.6683
X5.975Y-2.9242
X6.0144Y-2.747
X6.0144Y-2.8455
X6.0537Y-2.6683
X6.0537Y-2.9242
X6.0931Y-2.747
X6.0931Y-2.8455
X6.1325Y-2.6683
X6.1325Y-2.9242
X6.1719Y-2.747
X6.1719Y-2.8455
X6.29Y-2.6683
X6.29Y-2.9242
X6.3293Y-2.747
X6.3293Y-2.8455
X6.3687Y-2.6683
X6.3687Y-2.9242
X6.4081Y-2.747
X6.4081Y-2.8455
X6.4474Y-2.6683
X6.4474Y-2.9242
X6.4868Y-2.747
X6.4868Y-2.8455
X6.5262Y-2.6683
X6.5262Y-2.9242
T6
X4.5211Y-2.6565
X4.5711Y-2.6565
X4.6211Y-2.6565
T7
X4.7056Y-2.9533
X4.7056Y-3.1455
T8
X4.194Y-2.776
X4.294Y-2.776
X4.394Y-2.776
T9
X4.9673Y-3.9764
X5.0673Y-3.9764
X5.1673Y-3.9764
X5.2673Y-3.9764
X5.4409Y-3.9665
X5.5409Y-3.9665
X5.6409Y-3.9665
X5.7409Y-3.9665
X7.1161Y-2.6921
X7.1161Y-2.7921
X7.1161Y-2.8921
X7.1161Y-2.9921
X7.1161Y-3.0921
X7.2638Y-2.6921
X7.2638Y-2.7921
X7.2638Y-2.8921
X7.2638Y-2.9921
X7.2638Y-3.0921
X7.3228Y-3.4252
X7.3228Y-3.5252
X7.3228Y-3.6252
X7.3228Y-3.7252
X7.3228Y-3.8252
X7.3228Y-4.2913
X7.3228Y-4.3913
X7.3228Y-4.4913
X7.3228Y-4.5913
X7.3228Y-4.6913
X7.4114Y-2.6921
X7.4114Y-2.7921
X7.4114Y-2.8921
X7.4114Y-2.9921
X7.4114Y-3.0921
X7.4228Y-3.4252
X7.4228Y-3.5252
X7.4228Y-3.6252
X7.4228Y-3.7252
X7.4228Y-3.8252
X7.4228Y-4.2913
X7.4228Y-4.3913
X7.4228Y-4.4913
X7.4228Y-4.5913
X7.4228Y-4.6913
X7.5591Y-2.6921
X7.5591Y-2.7921
X7.5591Y-2.8921
X7.5591Y-2.9921
X7.5591Y-3.0921
T10
X6.2368Y-2.4911
X6.597Y-2.4911
T4
G00X4.2218Y-3.4598
M15
G01X4.1982Y-3.4598
M16
G05
G00X4.2218Y-3.8
M15
G01X4.1982Y-3.8
M16
G05
G00X4.3962Y-3.4598
M15
G01X4.3529Y-3.4598
M16
G05
G00X4.3962Y-3.8
M15
G01X4.3529Y-3.8
M16
G05
M30
