M48
INCH,TZ
T1C0.0157
T2C0.0217
T3C0.0236
T4C0.0276
T5C0.0295
T6C0.0315
T7C0.0354
T8C0.0394
T9C0.0925
%
G90
G05
T1
X43209Y-35433
X43307Y-37056
X44800Y-35600
X44800Y-36700
X45217Y-35800
X45560Y-40401
X45581Y-36978
X45591Y-34592
X45965Y-35487
X47264Y-27205
X47717Y-35669
X48240Y-26140
X48268Y-27283
X48819Y-37234
X48868Y-34114
X49173Y-35315
X49173Y-38150
X49724Y-32717
X49902Y-44094
X51969Y-34941
X52028Y-33484
X52362Y-34941
X52756Y-33661
X52756Y-45472
X52835Y-33209
X53091Y-27746
X53110Y-28878
X53150Y-38681
X53406Y-32618
X53806Y-45472
X53839Y-32638
X54232Y-32835
X54331Y-36053
X54715Y-33287
X55039Y-41102
X56102Y-42717
X56289Y-33652
X56348Y-31093
X56437Y-31752
X56482Y-44774
X56614Y-30748
X56713Y-33661
X56969Y-44843
X57008Y-46811
X57087Y-43898
X57215Y-33642
X57520Y-31654
X57746Y-33740
X58583Y-48150
X60827Y-42520
X61388Y-24902
X62185Y-37992
X62185Y-44252
X62205Y-39154
X62800Y-41700
X62991Y-42161
X63078Y-41422
X63317Y-24823
X63327Y-41117
X63350Y-39913
X63350Y-40306
X63350Y-40700
X63386Y-38002
X63386Y-48228
X63396Y-39183
X63396Y-44301
X63400Y-43100
X63671Y-45561
X63700Y-39700
X63789Y-45030
X64120Y-37440
X64567Y-31890
X64646Y-24744
X64862Y-47067
X64902Y-45906
X64941Y-46476
X65197Y-46791
X65217Y-45591
X65315Y-46201
X65373Y-27559
X65400Y-48100
X65630Y-38927
X65689Y-37333
X65738Y-47726
X65797Y-45413
X65817Y-42884
X66024Y-45807
X66220Y-46161
X66634Y-46220
X66949Y-45846
X66978Y-25049
X67048Y-26688
X67224Y-46319
X67500Y-45709
X68012Y-26688
X68996Y-26688
X69100Y-46000
X69124Y-35943
X69148Y-35021
X69148Y-36864
X69148Y-37786
X69148Y-38707
X69148Y-39629
X69148Y-40550
X69148Y-45150
X69150Y-34100
X69154Y-43310
X69154Y-44230
X69164Y-42380
X69168Y-41460
T2
X50591Y-48031
X52953Y-40748
X62205Y-43120
X62402Y-48228
T4
X57781Y-27470
X57781Y-28455
X58175Y-26683
X58175Y-29242
X58569Y-27470
X58569Y-28455
X58963Y-26683
X58963Y-29242
X59356Y-27470
X59356Y-28455
X59750Y-26683
X59750Y-29242
X60144Y-27470
X60144Y-28455
X60537Y-26683
X60537Y-29242
X60931Y-27470
X60931Y-28455
X61325Y-26683
X61325Y-29242
X61719Y-27470
X61719Y-28455
X62900Y-26683
X62900Y-29242
X63293Y-27470
X63293Y-28455
X63687Y-26683
X63687Y-29242
X64081Y-27470
X64081Y-28455
X64474Y-26683
X64474Y-29242
X64868Y-27470
X64868Y-28455
X65262Y-26683
X65262Y-29242
T5
X45211Y-26565
X45711Y-26565
X46211Y-26565
T6
X47056Y-29533
X47056Y-31455
T7
X41940Y-27760
X42940Y-27760
X43940Y-27760
T8
X49673Y-39764
X50673Y-39764
X51673Y-39764
X52673Y-39764
X54409Y-39665
X55409Y-39665
X56409Y-39665
X57409Y-39665
X71161Y-26921
X71161Y-27921
X71161Y-28921
X71161Y-29921
X71161Y-30921
X72638Y-26921
X72638Y-27921
X72638Y-28921
X72638Y-29921
X72638Y-30921
X73228Y-34252
X73228Y-35252
X73228Y-36252
X73228Y-37252
X73228Y-38252
X73228Y-42913
X73228Y-43913
X73228Y-44913
X73228Y-45913
X73228Y-46913
X74114Y-26921
X74114Y-27921
X74114Y-28921
X74114Y-29921
X74114Y-30921
X74228Y-34252
X74228Y-35252
X74228Y-36252
X74228Y-37252
X74228Y-38252
X74228Y-42913
X74228Y-43913
X74228Y-44913
X74228Y-45913
X74228Y-46913
X75591Y-26921
X75591Y-27921
X75591Y-28921
X75591Y-29921
X75591Y-30921
T9
X62368Y-24911
X65970Y-24911
T3
G00X42218Y-34598
M15
G01X41982Y-34598
M16
G05
G00X42218Y-38000
M15
G01X41982Y-38000
M16
G05
G00X43962Y-34598
M15
G01X43529Y-34598
M16
G05
G00X43962Y-38000
M15
G01X43529Y-38000
M16
G05
M30
