%TF.GenerationSoftware,KiCad,Pcbnew,7.0.10-7.0.10~ubuntu22.04.1*%
%TF.CreationDate,2024-03-25T01:46:35+01:00*%
%TF.ProjectId,JTAGFinder,4a544147-4669-46e6-9465-722e6b696361,rev?*%
%TF.SameCoordinates,Original*%
%TF.FileFunction,Other,User*%
%FSLAX46Y46*%
G04 Gerber Fmt 4.6, Leading zero omitted, Abs format (unit mm)*
G04 Created by KiCad (PCBNEW 7.0.10-7.0.10~ubuntu22.04.1) date 2024-03-25 01:46:35*
%MOMM*%
%LPD*%
G01*
G04 APERTURE LIST*
%ADD10C,0.050000*%
G04 APERTURE END LIST*
D10*
%TO.C,H1*%
X180750000Y-124000000D02*
G75*
G03*
X173250000Y-124000000I-3750000J0D01*
G01*
X173250000Y-124000000D02*
G75*
G03*
X180750000Y-124000000I3750000J0D01*
G01*
%TO.C,C13*%
X116452000Y-126444500D02*
X116452000Y-121844500D01*
X118752000Y-126444500D02*
X116452000Y-126444500D01*
X116452000Y-121844500D02*
X118752000Y-121844500D01*
X118752000Y-121844500D02*
X118752000Y-126444500D01*
%TO.C,C24*%
X162150000Y-108700000D02*
X162150000Y-113300000D01*
X159850000Y-108700000D02*
X162150000Y-108700000D01*
X162150000Y-113300000D02*
X159850000Y-113300000D01*
X159850000Y-113300000D02*
X159850000Y-108700000D01*
%TO.C,J5*%
X136400000Y-102550000D02*
X147600000Y-102550000D01*
X147600000Y-102550000D02*
X147600000Y-98950000D01*
X136400000Y-98950000D02*
X136400000Y-102550000D01*
X147600000Y-98950000D02*
X136400000Y-98950000D01*
%TO.C,C16*%
X144800000Y-120600000D02*
X142700000Y-120600000D01*
X142700000Y-120600000D02*
X142700000Y-121550000D01*
X145000000Y-121550000D02*
X144800000Y-121550000D01*
X145000000Y-121550000D02*
X146150000Y-122700000D01*
X144800000Y-121550000D02*
X144800000Y-120600000D01*
X142700000Y-121550000D02*
X142500000Y-121550000D01*
X142500000Y-121550000D02*
X141350000Y-122700000D01*
X146150000Y-122700000D02*
X146150000Y-126350000D01*
X141350000Y-122700000D02*
X141350000Y-126350000D01*
X146150000Y-126350000D02*
X144800000Y-126350000D01*
X144800000Y-126350000D02*
X144800000Y-127300000D01*
X142700000Y-126350000D02*
X141350000Y-126350000D01*
X144800000Y-127300000D02*
X142700000Y-127300000D01*
X142700000Y-127300000D02*
X142700000Y-126350000D01*
%TO.C,C15*%
X114600000Y-97775000D02*
X114600000Y-93175000D01*
X116900000Y-97775000D02*
X114600000Y-97775000D01*
X114600000Y-93175000D02*
X116900000Y-93175000D01*
X116900000Y-93175000D02*
X116900000Y-97775000D01*
%TO.C,C4*%
X132400000Y-111700000D02*
X132400000Y-116300000D01*
X130100000Y-111700000D02*
X132400000Y-111700000D01*
X132400000Y-116300000D02*
X130100000Y-116300000D01*
X130100000Y-116300000D02*
X130100000Y-111700000D01*
%TO.C,C2*%
X125150000Y-83900000D02*
X125150000Y-79300000D01*
X127450000Y-83900000D02*
X125150000Y-83900000D01*
X125150000Y-79300000D02*
X127450000Y-79300000D01*
X127450000Y-79300000D02*
X127450000Y-83900000D01*
%TO.C,C26*%
X139150000Y-90700000D02*
X139150000Y-95300000D01*
X136850000Y-90700000D02*
X139150000Y-90700000D01*
X139150000Y-95300000D02*
X136850000Y-95300000D01*
X136850000Y-95300000D02*
X136850000Y-90700000D01*
%TO.C,C6*%
X109994000Y-111458000D02*
X107894000Y-111458000D01*
X107894000Y-111458000D02*
X107894000Y-112408000D01*
X110194000Y-112408000D02*
X109994000Y-112408000D01*
X110194000Y-112408000D02*
X111344000Y-113558000D01*
X109994000Y-112408000D02*
X109994000Y-111458000D01*
X107894000Y-112408000D02*
X107694000Y-112408000D01*
X107694000Y-112408000D02*
X106544000Y-113558000D01*
X111344000Y-113558000D02*
X111344000Y-117208000D01*
X106544000Y-113558000D02*
X106544000Y-117208000D01*
X111344000Y-117208000D02*
X109994000Y-117208000D01*
X109994000Y-117208000D02*
X109994000Y-118158000D01*
X107894000Y-117208000D02*
X106544000Y-117208000D01*
X109994000Y-118158000D02*
X107894000Y-118158000D01*
X107894000Y-118158000D02*
X107894000Y-117208000D01*
%TO.C,J7*%
X190200000Y-66580000D02*
X190200000Y-80330000D01*
X190200000Y-80330000D02*
X193800000Y-80330000D01*
X193800000Y-66580000D02*
X190200000Y-66580000D01*
X193800000Y-80330000D02*
X193800000Y-66580000D01*
%TO.C,H2*%
X180750000Y-63000000D02*
G75*
G03*
X173250000Y-63000000I-3750000J0D01*
G01*
X173250000Y-63000000D02*
G75*
G03*
X180750000Y-63000000I3750000J0D01*
G01*
%TO.C,C8*%
X114572400Y-103444600D02*
X114572400Y-98844600D01*
X116872400Y-103444600D02*
X114572400Y-103444600D01*
X114572400Y-98844600D02*
X116872400Y-98844600D01*
X116872400Y-98844600D02*
X116872400Y-103444600D01*
%TO.C,U4*%
X127950000Y-96500000D02*
X127950000Y-85500000D01*
X127950000Y-96500000D02*
X118450000Y-96500000D01*
X127950000Y-85500000D02*
X118450000Y-85500000D01*
X118450000Y-96500000D02*
X118450000Y-85500000D01*
%TO.C,C5*%
X140020000Y-111680000D02*
X140020000Y-116280000D01*
X137720000Y-111680000D02*
X140020000Y-111680000D01*
X140020000Y-116280000D02*
X137720000Y-116280000D01*
X137720000Y-116280000D02*
X137720000Y-111680000D01*
%TO.C,C3*%
X143475000Y-78600000D02*
X148075000Y-78600000D01*
X143475000Y-80900000D02*
X143475000Y-78600000D01*
X148075000Y-78600000D02*
X148075000Y-80900000D01*
X148075000Y-80900000D02*
X143475000Y-80900000D01*
%TO.C,U13*%
X142237500Y-85870000D02*
X142237500Y-81350000D01*
X142237500Y-76830000D02*
X142237500Y-81350000D01*
X140837500Y-86600000D02*
X140837500Y-85870000D01*
X140837500Y-85870000D02*
X142237500Y-85870000D01*
X140837500Y-76830000D02*
X142237500Y-76830000D01*
X140837500Y-76100000D02*
X140837500Y-76830000D01*
X140107500Y-88000000D02*
X140107500Y-86600000D01*
X140107500Y-86600000D02*
X140837500Y-86600000D01*
X140107500Y-76100000D02*
X140837500Y-76100000D01*
X140107500Y-74700000D02*
X140107500Y-76100000D01*
X135587500Y-88000000D02*
X140107500Y-88000000D01*
X135587500Y-88000000D02*
X131067500Y-88000000D01*
X135587500Y-74700000D02*
X140107500Y-74700000D01*
X135587500Y-74700000D02*
X131067500Y-74700000D01*
X131067500Y-88000000D02*
X131067500Y-86600000D01*
X131067500Y-86600000D02*
X130337500Y-86600000D01*
X131067500Y-76100000D02*
X130337500Y-76100000D01*
X131067500Y-74700000D02*
X131067500Y-76100000D01*
X130337500Y-86600000D02*
X130337500Y-85870000D01*
X130337500Y-85870000D02*
X128937500Y-85870000D01*
X130337500Y-76830000D02*
X128937500Y-76830000D01*
X130337500Y-76100000D02*
X130337500Y-76830000D01*
X128937500Y-85870000D02*
X128937500Y-81350000D01*
X128937500Y-76830000D02*
X128937500Y-81350000D01*
%TO.C,R39*%
X104757500Y-98130000D02*
X109317500Y-98130000D01*
X104757500Y-100370000D02*
X104757500Y-98130000D01*
X109317500Y-98130000D02*
X109317500Y-100370000D01*
X109317500Y-100370000D02*
X104757500Y-100370000D01*
%TO.C,U2*%
X139065000Y-104075000D02*
X133665000Y-104075000D01*
X133665000Y-104075000D02*
X133665000Y-111475000D01*
X139065000Y-111475000D02*
X139065000Y-104075000D01*
X133665000Y-111475000D02*
X139065000Y-111475000D01*
%TO.C,R33*%
X171421548Y-66970000D02*
X171421548Y-71530000D01*
X169181548Y-66970000D02*
X171421548Y-66970000D01*
X171421548Y-71530000D02*
X169181548Y-71530000D01*
X169181548Y-71530000D02*
X169181548Y-66970000D01*
%TO.C,C11*%
X114850000Y-111450000D02*
X112750000Y-111450000D01*
X112750000Y-111450000D02*
X112750000Y-112400000D01*
X115050000Y-112400000D02*
X114850000Y-112400000D01*
X115050000Y-112400000D02*
X116200000Y-113550000D01*
X114850000Y-112400000D02*
X114850000Y-111450000D01*
X112750000Y-112400000D02*
X112550000Y-112400000D01*
X112550000Y-112400000D02*
X111400000Y-113550000D01*
X116200000Y-113550000D02*
X116200000Y-117200000D01*
X111400000Y-113550000D02*
X111400000Y-117200000D01*
X116200000Y-117200000D02*
X114850000Y-117200000D01*
X114850000Y-117200000D02*
X114850000Y-118150000D01*
X112750000Y-117200000D02*
X111400000Y-117200000D01*
X114850000Y-118150000D02*
X112750000Y-118150000D01*
X112750000Y-118150000D02*
X112750000Y-117200000D01*
%TO.C,R15*%
X174870300Y-104188400D02*
X179430300Y-104188400D01*
X174870300Y-106428400D02*
X174870300Y-104188400D01*
X179430300Y-104188400D02*
X179430300Y-106428400D01*
X179430300Y-106428400D02*
X174870300Y-106428400D01*
%TO.C,C25*%
X162150000Y-95700000D02*
X162150000Y-100300000D01*
X159850000Y-95700000D02*
X162150000Y-95700000D01*
X162150000Y-100300000D02*
X159850000Y-100300000D01*
X159850000Y-100300000D02*
X159850000Y-95700000D01*
%TO.C,R11*%
X143620000Y-107720000D02*
X143620000Y-112280000D01*
X141380000Y-107720000D02*
X143620000Y-107720000D01*
X143620000Y-112280000D02*
X141380000Y-112280000D01*
X141380000Y-112280000D02*
X141380000Y-107720000D01*
%TO.C,R3*%
X132543000Y-116260000D02*
X132543000Y-111700000D01*
X134783000Y-116260000D02*
X132543000Y-116260000D01*
X132543000Y-111700000D02*
X134783000Y-111700000D01*
X134783000Y-111700000D02*
X134783000Y-116260000D01*
%TO.C,R4*%
X135434000Y-116260000D02*
X135434000Y-111700000D01*
X137674000Y-116260000D02*
X135434000Y-116260000D01*
X135434000Y-111700000D02*
X137674000Y-111700000D01*
X137674000Y-111700000D02*
X137674000Y-116260000D01*
%TO.C,R14*%
X108760400Y-86292500D02*
X108760400Y-81732500D01*
X111000400Y-86292500D02*
X108760400Y-86292500D01*
X108760400Y-81732500D02*
X111000400Y-81732500D01*
X111000400Y-81732500D02*
X111000400Y-86292500D01*
%TO.C,R20*%
X174808800Y-115897800D02*
X179368800Y-115897800D01*
X174808800Y-118137800D02*
X174808800Y-115897800D01*
X179368800Y-115897800D02*
X179368800Y-118137800D01*
X179368800Y-118137800D02*
X174808800Y-118137800D01*
%TO.C,C7*%
X114674000Y-109295500D02*
X114674000Y-104695500D01*
X116974000Y-109295500D02*
X114674000Y-109295500D01*
X114674000Y-104695500D02*
X116974000Y-104695500D01*
X116974000Y-104695500D02*
X116974000Y-109295500D01*
%TO.C,R8*%
X130880000Y-95280000D02*
X130880000Y-90720000D01*
X133120000Y-95280000D02*
X130880000Y-95280000D01*
X130880000Y-90720000D02*
X133120000Y-90720000D01*
X133120000Y-90720000D02*
X133120000Y-95280000D01*
%TO.C,L1*%
X114404000Y-104715500D02*
X114404000Y-109275500D01*
X112164000Y-104715500D02*
X114404000Y-104715500D01*
X114404000Y-109275500D02*
X112164000Y-109275500D01*
X112164000Y-109275500D02*
X112164000Y-104715500D01*
%TO.C,R7*%
X133880000Y-95280000D02*
X133880000Y-90720000D01*
X136120000Y-95280000D02*
X133880000Y-95280000D01*
X133880000Y-90720000D02*
X136120000Y-90720000D01*
X136120000Y-90720000D02*
X136120000Y-95280000D01*
%TO.C,U3*%
X123900000Y-109300000D02*
X118500000Y-109300000D01*
X118500000Y-109300000D02*
X118500000Y-116700000D01*
X123900000Y-116700000D02*
X123900000Y-109300000D01*
X118500000Y-116700000D02*
X123900000Y-116700000D01*
%TO.C,R18*%
X174834200Y-111224200D02*
X179394200Y-111224200D01*
X174834200Y-113464200D02*
X174834200Y-111224200D01*
X179394200Y-111224200D02*
X179394200Y-113464200D01*
X179394200Y-113464200D02*
X174834200Y-113464200D01*
%TO.C,J8*%
X178950000Y-66580000D02*
X178950000Y-80330000D01*
X178950000Y-80330000D02*
X182550000Y-80330000D01*
X182550000Y-66580000D02*
X178950000Y-66580000D01*
X182550000Y-80330000D02*
X182550000Y-66580000D01*
%TO.C,L2*%
X128550000Y-111300000D02*
X124950000Y-111300000D01*
X124950000Y-111300000D02*
X124950000Y-116700000D01*
X124950000Y-116700000D02*
X128550000Y-116700000D01*
X128550000Y-116700000D02*
X128550000Y-111300000D01*
%TO.C,J1*%
X182320000Y-103400000D02*
X182320000Y-124760000D01*
X182320000Y-124760000D02*
X192220000Y-124760000D01*
X192220000Y-103400000D02*
X182320000Y-103400000D01*
X192220000Y-124760000D02*
X192220000Y-103400000D01*
%TO.C,C23*%
X162150000Y-121700000D02*
X162150000Y-126300000D01*
X159850000Y-121700000D02*
X162150000Y-121700000D01*
X162150000Y-126300000D02*
X159850000Y-126300000D01*
X159850000Y-126300000D02*
X159850000Y-121700000D01*
%TO.C,U11*%
X167125000Y-115875000D02*
X172625000Y-115875000D01*
X172625000Y-115875000D02*
X172625000Y-108075000D01*
X167125000Y-108075000D02*
X167125000Y-115875000D01*
X172625000Y-108075000D02*
X167125000Y-108075000D01*
%TO.C,J10*%
X186450000Y-66580000D02*
X186450000Y-80330000D01*
X186450000Y-80330000D02*
X190050000Y-80330000D01*
X190050000Y-66580000D02*
X186450000Y-66580000D01*
X190050000Y-80330000D02*
X190050000Y-66580000D01*
%TO.C,R30*%
X174819500Y-92515284D02*
X179379500Y-92515284D01*
X174819500Y-94755284D02*
X174819500Y-92515284D01*
X179379500Y-92515284D02*
X179379500Y-94755284D01*
X179379500Y-94755284D02*
X174819500Y-94755284D01*
%TO.C,D1*%
X124394000Y-119242500D02*
X122494000Y-119242500D01*
X124394000Y-119242500D02*
X124394000Y-122442500D01*
X122494000Y-119242500D02*
X122494000Y-122442500D01*
X124394000Y-122442500D02*
X122494000Y-122442500D01*
%TO.C,R28*%
X174819500Y-94855712D02*
X179379500Y-94855712D01*
X174819500Y-97095712D02*
X174819500Y-94855712D01*
X179379500Y-94855712D02*
X179379500Y-97095712D01*
X179379500Y-97095712D02*
X174819500Y-97095712D01*
%TO.C,C9*%
X129090000Y-105937500D02*
X129090000Y-110537500D01*
X126790000Y-105937500D02*
X129090000Y-105937500D01*
X129090000Y-110537500D02*
X126790000Y-110537500D01*
X126790000Y-110537500D02*
X126790000Y-105937500D01*
%TO.C,J2*%
X182320000Y-81400000D02*
X182320000Y-102760000D01*
X182320000Y-102760000D02*
X192220000Y-102760000D01*
X192220000Y-81400000D02*
X182320000Y-81400000D01*
X192220000Y-102760000D02*
X192220000Y-81400000D01*
%TO.C,R19*%
X174819500Y-113561000D02*
X179379500Y-113561000D01*
X174819500Y-115801000D02*
X174819500Y-113561000D01*
X179379500Y-113561000D02*
X179379500Y-115801000D01*
X179379500Y-115801000D02*
X174819500Y-115801000D01*
%TO.C,U6*%
X114100000Y-91050000D02*
X117500000Y-91050000D01*
X117500000Y-91050000D02*
X117500000Y-86950000D01*
X114100000Y-86950000D02*
X114100000Y-91050000D01*
X117500000Y-86950000D02*
X114100000Y-86950000D01*
%TO.C,R24*%
X174819500Y-99536568D02*
X179379500Y-99536568D01*
X174819500Y-101776568D02*
X174819500Y-99536568D01*
X179379500Y-99536568D02*
X179379500Y-101776568D01*
X179379500Y-101776568D02*
X174819500Y-101776568D01*
%TO.C,R29*%
X174758000Y-90174856D02*
X179318000Y-90174856D01*
X174758000Y-92414856D02*
X174758000Y-90174856D01*
X179318000Y-90174856D02*
X179318000Y-92414856D01*
X179318000Y-92414856D02*
X174758000Y-92414856D01*
%TO.C,H4*%
X112750000Y-124000000D02*
G75*
G03*
X105250000Y-124000000I-3750000J0D01*
G01*
X105250000Y-124000000D02*
G75*
G03*
X112750000Y-124000000I3750000J0D01*
G01*
%TO.C,J9*%
X182700000Y-66580000D02*
X182700000Y-80330000D01*
X182700000Y-80330000D02*
X186300000Y-80330000D01*
X186300000Y-66580000D02*
X182700000Y-66580000D01*
X186300000Y-80330000D02*
X186300000Y-66580000D01*
%TO.C,R22*%
X168582500Y-120955000D02*
X173142500Y-120955000D01*
X168582500Y-123195000D02*
X168582500Y-120955000D01*
X173142500Y-120955000D02*
X173142500Y-123195000D01*
X173142500Y-123195000D02*
X168582500Y-123195000D01*
%TO.C,R23*%
X174819500Y-101877000D02*
X179379500Y-101877000D01*
X174819500Y-104117000D02*
X174819500Y-101877000D01*
X179379500Y-101877000D02*
X179379500Y-104117000D01*
X179379500Y-104117000D02*
X174819500Y-104117000D01*
%TO.C,U7*%
X141395000Y-120075000D02*
X146795000Y-120075000D01*
X146795000Y-120075000D02*
X146795000Y-112675000D01*
X141395000Y-112675000D02*
X141395000Y-120075000D01*
X146795000Y-112675000D02*
X141395000Y-112675000D01*
%TO.C,R40*%
X104720000Y-100630000D02*
X109280000Y-100630000D01*
X104720000Y-102870000D02*
X104720000Y-100630000D01*
X109280000Y-100630000D02*
X109280000Y-102870000D01*
X109280000Y-102870000D02*
X104720000Y-102870000D01*
%TO.C,R26*%
X174819500Y-97196140D02*
X179379500Y-97196140D01*
X174819500Y-99436140D02*
X174819500Y-97196140D01*
X179379500Y-97196140D02*
X179379500Y-99436140D01*
X179379500Y-99436140D02*
X174819500Y-99436140D01*
%TO.C,R27*%
X174819500Y-87834428D02*
X179379500Y-87834428D01*
X174819500Y-90074428D02*
X174819500Y-87834428D01*
X179379500Y-87834428D02*
X179379500Y-90074428D01*
X179379500Y-90074428D02*
X174819500Y-90074428D01*
%TO.C,C14*%
X129574000Y-120540500D02*
X127474000Y-120540500D01*
X127474000Y-120540500D02*
X127474000Y-121490500D01*
X129774000Y-121490500D02*
X129574000Y-121490500D01*
X129774000Y-121490500D02*
X130924000Y-122640500D01*
X129574000Y-121490500D02*
X129574000Y-120540500D01*
X127474000Y-121490500D02*
X127274000Y-121490500D01*
X127274000Y-121490500D02*
X126124000Y-122640500D01*
X130924000Y-122640500D02*
X130924000Y-126290500D01*
X126124000Y-122640500D02*
X126124000Y-126290500D01*
X130924000Y-126290500D02*
X129574000Y-126290500D01*
X129574000Y-126290500D02*
X129574000Y-127240500D01*
X127474000Y-126290500D02*
X126124000Y-126290500D01*
X129574000Y-127240500D02*
X127474000Y-127240500D01*
X127474000Y-127240500D02*
X127474000Y-126290500D01*
%TO.C,C22*%
X159150000Y-95700000D02*
X159150000Y-100300000D01*
X156850000Y-95700000D02*
X159150000Y-95700000D01*
X159150000Y-100300000D02*
X156850000Y-100300000D01*
X156850000Y-100300000D02*
X156850000Y-95700000D01*
%TO.C,R5*%
X126520000Y-105957500D02*
X126520000Y-110517500D01*
X124280000Y-105957500D02*
X126520000Y-105957500D01*
X126520000Y-110517500D02*
X124280000Y-110517500D01*
X124280000Y-110517500D02*
X124280000Y-105957500D01*
%TO.C,R12*%
X105944599Y-78851400D02*
X105944599Y-74291400D01*
X108184599Y-78851400D02*
X105944599Y-78851400D01*
X105944599Y-74291400D02*
X108184599Y-74291400D01*
X108184599Y-74291400D02*
X108184599Y-78851400D01*
%TO.C,J3*%
X124370000Y-102800000D02*
X135570000Y-102800000D01*
X135570000Y-102800000D02*
X135570000Y-99200000D01*
X124370000Y-99200000D02*
X124370000Y-102800000D01*
X135570000Y-99200000D02*
X124370000Y-99200000D01*
%TO.C,R25*%
X174823500Y-85494000D02*
X179383500Y-85494000D01*
X174823500Y-87734000D02*
X174823500Y-85494000D01*
X179383500Y-85494000D02*
X179383500Y-87734000D01*
X179383500Y-87734000D02*
X174823500Y-87734000D01*
%TO.C,C1*%
X118975001Y-70000000D02*
X118975001Y-65400000D01*
X121275001Y-70000000D02*
X118975001Y-70000000D01*
X118975001Y-65400000D02*
X121275001Y-65400000D01*
X121275001Y-65400000D02*
X121275001Y-70000000D01*
%TO.C,SW1*%
X113500000Y-64525000D02*
X116000000Y-64525000D01*
X113500000Y-64525000D02*
X113500000Y-60225000D01*
X116000000Y-64525000D02*
X116000000Y-60225000D01*
X113500000Y-60225000D02*
X116000000Y-60225000D01*
%TO.C,C19*%
X106330398Y-86312500D02*
X106330398Y-81712500D01*
X108630398Y-86312500D02*
X106330398Y-86312500D01*
X106330398Y-81712500D02*
X108630398Y-81712500D01*
X108630398Y-81712500D02*
X108630398Y-86312500D01*
%TO.C,C21*%
X159150000Y-108700000D02*
X159150000Y-113300000D01*
X156850000Y-108700000D02*
X159150000Y-108700000D01*
X159150000Y-113300000D02*
X156850000Y-113300000D01*
X156850000Y-113300000D02*
X156850000Y-108700000D01*
%TO.C,C18*%
X116100000Y-72720001D02*
X116100000Y-77320001D01*
X113800000Y-72720001D02*
X116100000Y-72720001D01*
X116100000Y-77320001D02*
X113800000Y-77320001D01*
X113800000Y-77320001D02*
X113800000Y-72720001D01*
%TO.C,U5*%
X121775000Y-122571500D02*
X121775000Y-125971500D01*
X121775000Y-125971500D02*
X125875000Y-125971500D01*
X125875000Y-122571500D02*
X121775000Y-122571500D01*
X125875000Y-125971500D02*
X125875000Y-122571500D01*
%TO.C,D2*%
X105377600Y-67260400D02*
X105377600Y-73760400D01*
X105377600Y-73760400D02*
X112777600Y-73760400D01*
X112777600Y-67260400D02*
X105377600Y-67260400D01*
X112777600Y-73760400D02*
X112777600Y-67260400D01*
%TO.C,R1*%
X123720000Y-65557500D02*
X123720000Y-70117500D01*
X121480000Y-65557500D02*
X123720000Y-65557500D01*
X123720000Y-70117500D02*
X121480000Y-70117500D01*
X121480000Y-70117500D02*
X121480000Y-65557500D01*
%TO.C,H3*%
X112750000Y-63000000D02*
G75*
G03*
X105250000Y-63000000I-3750000J0D01*
G01*
X105250000Y-63000000D02*
G75*
G03*
X112750000Y-63000000I3750000J0D01*
G01*
%TO.C,R31*%
X173870000Y-66970000D02*
X173870000Y-71530000D01*
X171630000Y-66970000D02*
X173870000Y-66970000D01*
X173870000Y-71530000D02*
X171630000Y-71530000D01*
X171630000Y-71530000D02*
X171630000Y-66970000D01*
%TO.C,C17*%
X113800000Y-82400000D02*
X113800000Y-77800000D01*
X116100000Y-82400000D02*
X113800000Y-82400000D01*
X113800000Y-77800000D02*
X116100000Y-77800000D01*
X116100000Y-77800000D02*
X116100000Y-82400000D01*
%TO.C,C27*%
X133700000Y-74224999D02*
X133700000Y-69624999D01*
X136000000Y-74224999D02*
X133700000Y-74224999D01*
X133700000Y-69624999D02*
X136000000Y-69624999D01*
X136000000Y-69624999D02*
X136000000Y-74224999D01*
%TO.C,R16*%
X174859600Y-106525200D02*
X179419600Y-106525200D01*
X174859600Y-108765200D02*
X174859600Y-106525200D01*
X179419600Y-106525200D02*
X179419600Y-108765200D01*
X179419600Y-108765200D02*
X174859600Y-108765200D01*
%TO.C,F1*%
X114000400Y-98864600D02*
X114000400Y-103424600D01*
X110840400Y-98864600D02*
X114000400Y-98864600D01*
X114000400Y-103424600D02*
X110840400Y-103424600D01*
X110840400Y-103424600D02*
X110840400Y-98864600D01*
%TO.C,C12*%
X135800000Y-120600000D02*
X133700000Y-120600000D01*
X133700000Y-120600000D02*
X133700000Y-121550000D01*
X136000000Y-121550000D02*
X135800000Y-121550000D01*
X136000000Y-121550000D02*
X137150000Y-122700000D01*
X135800000Y-121550000D02*
X135800000Y-120600000D01*
X133700000Y-121550000D02*
X133500000Y-121550000D01*
X133500000Y-121550000D02*
X132350000Y-122700000D01*
X137150000Y-122700000D02*
X137150000Y-126350000D01*
X132350000Y-122700000D02*
X132350000Y-126350000D01*
X137150000Y-126350000D02*
X135800000Y-126350000D01*
X135800000Y-126350000D02*
X135800000Y-127300000D01*
X133700000Y-126350000D02*
X132350000Y-126350000D01*
X135800000Y-127300000D02*
X133700000Y-127300000D01*
X133700000Y-127300000D02*
X133700000Y-126350000D01*
%TO.C,Q1*%
X113374998Y-64745000D02*
X113374998Y-69485000D01*
X113374998Y-64745000D02*
X118834998Y-64745000D01*
X118834998Y-69485000D02*
X113374998Y-69485000D01*
X118834998Y-69485000D02*
X118834998Y-64745000D01*
%TO.C,R21*%
X169182500Y-118380000D02*
X173742500Y-118380000D01*
X169182500Y-120620000D02*
X169182500Y-118380000D01*
X173742500Y-118380000D02*
X173742500Y-120620000D01*
X173742500Y-120620000D02*
X169182500Y-120620000D01*
%TO.C,C20*%
X159550000Y-121700000D02*
X159550000Y-126300000D01*
X157250000Y-121700000D02*
X159550000Y-121700000D01*
X159550000Y-126300000D02*
X157250000Y-126300000D01*
X157250000Y-126300000D02*
X157250000Y-121700000D01*
%TO.C,Y1*%
X116722000Y-83495000D02*
X122322000Y-83495000D01*
X122322000Y-83495000D02*
X122322000Y-71395000D01*
X116722000Y-71395000D02*
X116722000Y-83495000D01*
X122322000Y-71395000D02*
X116722000Y-71395000D01*
%TO.C,J6*%
X169065000Y-75525000D02*
X143565000Y-75525000D01*
X169065000Y-55525000D02*
X169065000Y-75525000D01*
X143565000Y-75525000D02*
X143565000Y-55525000D01*
X143565000Y-55525000D02*
X169065000Y-55525000D01*
%TO.C,U12*%
X166450000Y-100550000D02*
X171950000Y-100550000D01*
X171950000Y-100550000D02*
X171950000Y-92750000D01*
X166450000Y-92750000D02*
X166450000Y-100550000D01*
X171950000Y-92750000D02*
X166450000Y-92750000D01*
%TO.C,R10*%
X146120000Y-107720000D02*
X146120000Y-112280000D01*
X143880000Y-107720000D02*
X146120000Y-107720000D01*
X146120000Y-112280000D02*
X143880000Y-112280000D01*
X143880000Y-112280000D02*
X143880000Y-107720000D01*
%TO.C,R17*%
X174834200Y-108887400D02*
X179394200Y-108887400D01*
X174834200Y-111127400D02*
X174834200Y-108887400D01*
X179394200Y-108887400D02*
X179394200Y-111127400D01*
X179394200Y-111127400D02*
X174834200Y-111127400D01*
%TO.C,U8*%
X163850000Y-121500000D02*
X163850000Y-114500000D01*
X163850000Y-114500000D02*
X156150000Y-114500000D01*
X156150000Y-121500000D02*
X163850000Y-121500000D01*
X156150000Y-114500000D02*
X156150000Y-121500000D01*
%TO.C,R32*%
X176370000Y-66970000D02*
X176370000Y-71530000D01*
X174130000Y-66970000D02*
X176370000Y-66970000D01*
X176370000Y-71530000D02*
X174130000Y-71530000D01*
X174130000Y-71530000D02*
X174130000Y-66970000D01*
%TO.C,J4*%
X113254000Y-86880000D02*
X103834000Y-86880000D01*
X113254000Y-86880000D02*
X113254000Y-97520000D01*
X103834000Y-86880000D02*
X103834000Y-97520000D01*
X113254000Y-97520000D02*
X103834000Y-97520000D01*
%TO.C,R6*%
X121262000Y-121864500D02*
X121262000Y-126424500D01*
X119022000Y-121864500D02*
X121262000Y-121864500D01*
X121262000Y-126424500D02*
X119022000Y-126424500D01*
X119022000Y-126424500D02*
X119022000Y-121864500D01*
%TO.C,C10*%
X109987200Y-103352000D02*
X107887200Y-103352000D01*
X107887200Y-103352000D02*
X107887200Y-104302000D01*
X110187200Y-104302000D02*
X109987200Y-104302000D01*
X110187200Y-104302000D02*
X111337200Y-105452000D01*
X109987200Y-104302000D02*
X109987200Y-103352000D01*
X107887200Y-104302000D02*
X107687200Y-104302000D01*
X107687200Y-104302000D02*
X106537200Y-105452000D01*
X111337200Y-105452000D02*
X111337200Y-109102000D01*
X106537200Y-105452000D02*
X106537200Y-109102000D01*
X111337200Y-109102000D02*
X109987200Y-109102000D01*
X109987200Y-109102000D02*
X109987200Y-110052000D01*
X107887200Y-109102000D02*
X106537200Y-109102000D01*
X109987200Y-110052000D02*
X107887200Y-110052000D01*
X107887200Y-110052000D02*
X107887200Y-109102000D01*
%TO.C,U9*%
X163850000Y-108500000D02*
X163850000Y-101500000D01*
X163850000Y-101500000D02*
X156150000Y-101500000D01*
X156150000Y-108500000D02*
X163850000Y-108500000D01*
X156150000Y-101500000D02*
X156150000Y-108500000D01*
%TO.C,R13*%
X109463601Y-78851400D02*
X109463601Y-74291400D01*
X111703601Y-78851400D02*
X109463601Y-78851400D01*
X109463601Y-74291400D02*
X111703601Y-74291400D01*
X111703601Y-74291400D02*
X111703601Y-78851400D01*
%TO.C,R9*%
X149920000Y-121520000D02*
X149920000Y-126080000D01*
X147680000Y-121520000D02*
X149920000Y-121520000D01*
X149920000Y-126080000D02*
X147680000Y-126080000D01*
X147680000Y-126080000D02*
X147680000Y-121520000D01*
%TO.C,R2*%
X117380000Y-64530000D02*
X117380000Y-59970000D01*
X119620000Y-64530000D02*
X117380000Y-64530000D01*
X117380000Y-59970000D02*
X119620000Y-59970000D01*
X119620000Y-59970000D02*
X119620000Y-64530000D01*
%TD*%
M02*
