%TF.GenerationSoftware,KiCad,Pcbnew,7.0.10-7.0.10~ubuntu22.04.1*%
%TF.CreationDate,2024-03-25T01:46:39+01:00*%
%TF.ProjectId,JTAGFinder,4a544147-4669-46e6-9465-722e6b696361,rev?*%
%TF.SameCoordinates,Original*%
%TF.FileFunction,Drillmap*%
%TF.FilePolarity,Positive*%
%FSLAX45Y45*%
G04 Gerber Fmt 4.5, Leading zero omitted, Abs format (unit mm)*
G04 Created by KiCad (PCBNEW 7.0.10-7.0.10~ubuntu22.04.1) date 2024-03-25 01:46:39*
%MOMM*%
%LPD*%
G01*
G04 APERTURE LIST*
%ADD10C,0.100000*%
%ADD11C,0.200000*%
%ADD12C,0.235000*%
G04 APERTURE END LIST*
D10*
X10406500Y-12327500D02*
X10406500Y-6327500D01*
X18906500Y-12827500D02*
G75*
G03*
X19406500Y-12327500I0J500000D01*
G01*
X19406500Y-6327500D02*
G75*
G03*
X18906500Y-5827500I-500000J0D01*
G01*
X10906500Y-5827500D02*
G75*
G03*
X10406500Y-6327500I0J-500000D01*
G01*
X10906500Y-5827500D02*
X18906500Y-5827500D01*
X19406500Y-6327500D02*
X19406500Y-12327500D01*
X18906500Y-12827500D02*
X10906500Y-12827500D01*
X10406500Y-12327500D02*
G75*
G03*
X10906500Y-12827500I500000J0D01*
G01*
D11*
D10*
X11457500Y-6382500D02*
X11492500Y-6417500D01*
X11492500Y-6382500D02*
X11457500Y-6417500D01*
X12157500Y-10707500D02*
X12192500Y-10742500D01*
X12192500Y-10707500D02*
X12157500Y-10742500D01*
X12957500Y-10882500D02*
X12992500Y-10917500D01*
X12992500Y-10882500D02*
X12957500Y-10917500D01*
X13467500Y-7027500D02*
X13502500Y-7062500D01*
X13502500Y-7027500D02*
X13467500Y-7062500D01*
X13552772Y-8276003D02*
X13587772Y-8311003D01*
X13587772Y-8276003D02*
X13552772Y-8311003D01*
X13640697Y-8295220D02*
X13675697Y-8330220D01*
X13675697Y-8295220D02*
X13640697Y-8330220D01*
X13682500Y-7732500D02*
X13717500Y-7767500D01*
X13717500Y-7732500D02*
X13682500Y-7767500D01*
X13713360Y-8348325D02*
X13748360Y-8383325D01*
X13748360Y-8348325D02*
X13713360Y-8383325D01*
X13782500Y-7732500D02*
X13817500Y-7767500D01*
X13817500Y-7732500D02*
X13782500Y-7767500D01*
X13794518Y-8387228D02*
X13829518Y-8422228D01*
X13829518Y-8387228D02*
X13794518Y-8422228D01*
X13907500Y-7736150D02*
X13942500Y-7771150D01*
X13942500Y-7736150D02*
X13907500Y-7771150D01*
X13932500Y-7432500D02*
X13967500Y-7467500D01*
X13967500Y-7432500D02*
X13932500Y-7467500D01*
X13949918Y-8331696D02*
X13984918Y-8366696D01*
X13984918Y-8331696D02*
X13949918Y-8366696D01*
X13950881Y-8514119D02*
X13985881Y-8549119D01*
X13985881Y-8514119D02*
X13950881Y-8549119D01*
X14257500Y-7957500D02*
X14292500Y-7992500D01*
X14292500Y-7957500D02*
X14257500Y-7992500D01*
X14257500Y-8407500D02*
X14292500Y-8442500D01*
X14292500Y-8407500D02*
X14257500Y-8442500D01*
X14457500Y-7482500D02*
X14492500Y-7517500D01*
X14492500Y-7482500D02*
X14457500Y-7517500D01*
X14623535Y-7721150D02*
X14658535Y-7756150D01*
X14658535Y-7721150D02*
X14623535Y-7756150D01*
X14688382Y-7658740D02*
X14723382Y-7693740D01*
X14723382Y-7658740D02*
X14688382Y-7693740D01*
X14751994Y-7595072D02*
X14786994Y-7630072D01*
X14786994Y-7595072D02*
X14751994Y-7630072D01*
X14940996Y-7882010D02*
X14975996Y-7917010D01*
X14975996Y-7882010D02*
X14940996Y-7917010D01*
X15204039Y-7847118D02*
X15239039Y-7882118D01*
X15239039Y-7847118D02*
X15204039Y-7882118D01*
X15232500Y-7932500D02*
X15267500Y-7967500D01*
X15267500Y-7932500D02*
X15232500Y-7967500D01*
X15232500Y-8022500D02*
X15267500Y-8057500D01*
X15267500Y-8022500D02*
X15232500Y-8057500D01*
X15232500Y-8112501D02*
X15267500Y-8147501D01*
X15267500Y-8112501D02*
X15232500Y-8147501D01*
X15232500Y-8202501D02*
X15267500Y-8237501D01*
X15267500Y-8202501D02*
X15232500Y-8237501D01*
X15557500Y-8032500D02*
X15592500Y-8067500D01*
X15592500Y-8032500D02*
X15557500Y-8067500D01*
X15931625Y-8030750D02*
X15966625Y-8065750D01*
X15966625Y-8030750D02*
X15931625Y-8065750D01*
X16032500Y-8032500D02*
X16067500Y-8067500D01*
X16067500Y-8032500D02*
X16032500Y-8067500D01*
X16046035Y-6415179D02*
X16081035Y-6450179D01*
X16081035Y-6415179D02*
X16046035Y-6450179D01*
X16133565Y-8013450D02*
X16168565Y-8048450D01*
X16168565Y-8013450D02*
X16133565Y-8048450D01*
X16134800Y-6430037D02*
X16169800Y-6465037D01*
X16169800Y-6430037D02*
X16134800Y-6465037D01*
X16212431Y-7970088D02*
X16247431Y-8005088D01*
X16247431Y-7970088D02*
X16212431Y-8005088D01*
X16257500Y-6448800D02*
X16292500Y-6483800D01*
X16292500Y-6448800D02*
X16257500Y-6483800D01*
X16347500Y-6448800D02*
X16382500Y-6483800D01*
X16382500Y-6448800D02*
X16347500Y-6483800D01*
X16707500Y-7282500D02*
X16742500Y-7317500D01*
X16742500Y-7282500D02*
X16707500Y-7317500D01*
X16801550Y-7190447D02*
X16836550Y-7225447D01*
X16836550Y-7190447D02*
X16801550Y-7225447D01*
X16802870Y-7291108D02*
X16837870Y-7326108D01*
X16837870Y-7291108D02*
X16802870Y-7326108D01*
X16894162Y-7178611D02*
X16929162Y-7213611D01*
X16929162Y-7178611D02*
X16894162Y-7213611D01*
X17012655Y-6759150D02*
X17047655Y-6794150D01*
X17047655Y-6759150D02*
X17012655Y-6794150D01*
X17257500Y-6761250D02*
X17292500Y-6796250D01*
X17292500Y-6761250D02*
X17257500Y-6796250D01*
X17507500Y-6759150D02*
X17542500Y-6794150D01*
X17542500Y-6759150D02*
X17507500Y-6794150D01*
X10995000Y-9000000D02*
G75*
G03*
X10955000Y-9000000I-20000J0D01*
G01*
X10955000Y-9000000D02*
G75*
G03*
X10995000Y-9000000I20000J0D01*
G01*
X11020000Y-9412269D02*
G75*
G03*
X10980000Y-9412269I-20000J0D01*
G01*
X10980000Y-9412269D02*
G75*
G03*
X11020000Y-9412269I20000J0D01*
G01*
X11399200Y-9042400D02*
G75*
G03*
X11359200Y-9042400I-20000J0D01*
G01*
X11359200Y-9042400D02*
G75*
G03*
X11399200Y-9042400I20000J0D01*
G01*
X11399200Y-9321800D02*
G75*
G03*
X11359200Y-9321800I-20000J0D01*
G01*
X11359200Y-9321800D02*
G75*
G03*
X11399200Y-9321800I20000J0D01*
G01*
X11505000Y-9093200D02*
G75*
G03*
X11465000Y-9093200I-20000J0D01*
G01*
X11465000Y-9093200D02*
G75*
G03*
X11505000Y-9093200I20000J0D01*
G01*
X11592240Y-10261960D02*
G75*
G03*
X11552240Y-10261960I-20000J0D01*
G01*
X11552240Y-10261960D02*
G75*
G03*
X11592240Y-10261960I20000J0D01*
G01*
X11597500Y-9392500D02*
G75*
G03*
X11557500Y-9392500I-20000J0D01*
G01*
X11557500Y-9392500D02*
G75*
G03*
X11597500Y-9392500I20000J0D01*
G01*
X11600000Y-8786250D02*
G75*
G03*
X11560000Y-8786250I-20000J0D01*
G01*
X11560000Y-8786250D02*
G75*
G03*
X11600000Y-8786250I20000J0D01*
G01*
X11695000Y-9013750D02*
G75*
G03*
X11655000Y-9013750I-20000J0D01*
G01*
X11655000Y-9013750D02*
G75*
G03*
X11695000Y-9013750I20000J0D01*
G01*
X12025000Y-6910000D02*
G75*
G03*
X11985000Y-6910000I-20000J0D01*
G01*
X11985000Y-6910000D02*
G75*
G03*
X12025000Y-6910000I20000J0D01*
G01*
X12140000Y-9060000D02*
G75*
G03*
X12100000Y-9060000I-20000J0D01*
G01*
X12100000Y-9060000D02*
G75*
G03*
X12140000Y-9060000I20000J0D01*
G01*
X12272960Y-6639560D02*
G75*
G03*
X12232960Y-6639560I-20000J0D01*
G01*
X12232960Y-6639560D02*
G75*
G03*
X12272960Y-6639560I20000J0D01*
G01*
X12280000Y-6930000D02*
G75*
G03*
X12240000Y-6930000I-20000J0D01*
G01*
X12240000Y-6930000D02*
G75*
G03*
X12280000Y-6930000I20000J0D01*
G01*
X12420000Y-9457500D02*
G75*
G03*
X12380000Y-9457500I-20000J0D01*
G01*
X12380000Y-9457500D02*
G75*
G03*
X12420000Y-9457500I20000J0D01*
G01*
X12432500Y-8665000D02*
G75*
G03*
X12392500Y-8665000I-20000J0D01*
G01*
X12392500Y-8665000D02*
G75*
G03*
X12432500Y-8665000I20000J0D01*
G01*
X12510000Y-8970000D02*
G75*
G03*
X12470000Y-8970000I-20000J0D01*
G01*
X12470000Y-8970000D02*
G75*
G03*
X12510000Y-8970000I20000J0D01*
G01*
X12510000Y-9690000D02*
G75*
G03*
X12470000Y-9690000I-20000J0D01*
G01*
X12470000Y-9690000D02*
G75*
G03*
X12510000Y-9690000I20000J0D01*
G01*
X12650000Y-8310000D02*
G75*
G03*
X12610000Y-8310000I-20000J0D01*
G01*
X12610000Y-8310000D02*
G75*
G03*
X12650000Y-8310000I20000J0D01*
G01*
X12695000Y-11200000D02*
G75*
G03*
X12655000Y-11200000I-20000J0D01*
G01*
X12655000Y-11200000D02*
G75*
G03*
X12695000Y-11200000I20000J0D01*
G01*
X13220000Y-8875000D02*
G75*
G03*
X13180000Y-8875000I-20000J0D01*
G01*
X13180000Y-8875000D02*
G75*
G03*
X13220000Y-8875000I20000J0D01*
G01*
X13235000Y-8505000D02*
G75*
G03*
X13195000Y-8505000I-20000J0D01*
G01*
X13195000Y-8505000D02*
G75*
G03*
X13235000Y-8505000I20000J0D01*
G01*
X13320000Y-8875000D02*
G75*
G03*
X13280000Y-8875000I-20000J0D01*
G01*
X13280000Y-8875000D02*
G75*
G03*
X13320000Y-8875000I20000J0D01*
G01*
X13420000Y-8550000D02*
G75*
G03*
X13380000Y-8550000I-20000J0D01*
G01*
X13380000Y-8550000D02*
G75*
G03*
X13420000Y-8550000I20000J0D01*
G01*
X13420000Y-11550000D02*
G75*
G03*
X13380000Y-11550000I-20000J0D01*
G01*
X13380000Y-11550000D02*
G75*
G03*
X13420000Y-11550000I20000J0D01*
G01*
X13440000Y-8435000D02*
G75*
G03*
X13400000Y-8435000I-20000J0D01*
G01*
X13400000Y-8435000D02*
G75*
G03*
X13440000Y-8435000I20000J0D01*
G01*
X13495000Y-9975000D02*
G75*
G03*
X13455000Y-9975000I-20000J0D01*
G01*
X13455000Y-9975000D02*
G75*
G03*
X13495000Y-9975000I20000J0D01*
G01*
X13510000Y-7335000D02*
G75*
G03*
X13470000Y-7335000I-20000J0D01*
G01*
X13470000Y-7335000D02*
G75*
G03*
X13510000Y-7335000I20000J0D01*
G01*
X13686700Y-11550000D02*
G75*
G03*
X13646700Y-11550000I-20000J0D01*
G01*
X13646700Y-11550000D02*
G75*
G03*
X13686700Y-11550000I20000J0D01*
G01*
X13820000Y-9157500D02*
G75*
G03*
X13780000Y-9157500I-20000J0D01*
G01*
X13780000Y-9157500D02*
G75*
G03*
X13820000Y-9157500I20000J0D01*
G01*
X13959047Y-8441261D02*
G75*
G03*
X13919047Y-8441261I-20000J0D01*
G01*
X13919047Y-8441261D02*
G75*
G03*
X13959047Y-8441261I20000J0D01*
G01*
X13995000Y-8033650D02*
G75*
G03*
X13955000Y-8033650I-20000J0D01*
G01*
X13955000Y-8033650D02*
G75*
G03*
X13995000Y-8033650I20000J0D01*
G01*
X14000000Y-10440000D02*
G75*
G03*
X13960000Y-10440000I-20000J0D01*
G01*
X13960000Y-10440000D02*
G75*
G03*
X14000000Y-10440000I20000J0D01*
G01*
X14270000Y-10850000D02*
G75*
G03*
X14230000Y-10850000I-20000J0D01*
G01*
X14230000Y-10850000D02*
G75*
G03*
X14270000Y-10850000I20000J0D01*
G01*
X14366500Y-11372500D02*
G75*
G03*
X14326500Y-11372500I-20000J0D01*
G01*
X14326500Y-11372500D02*
G75*
G03*
X14366500Y-11372500I20000J0D01*
G01*
X14490000Y-11390000D02*
G75*
G03*
X14450000Y-11390000I-20000J0D01*
G01*
X14450000Y-11390000D02*
G75*
G03*
X14490000Y-11390000I20000J0D01*
G01*
X14500000Y-11890000D02*
G75*
G03*
X14460000Y-11890000I-20000J0D01*
G01*
X14460000Y-11890000D02*
G75*
G03*
X14500000Y-11890000I20000J0D01*
G01*
X14520000Y-11150000D02*
G75*
G03*
X14480000Y-11150000I-20000J0D01*
G01*
X14480000Y-11150000D02*
G75*
G03*
X14520000Y-11150000I20000J0D01*
G01*
X14900000Y-12230000D02*
G75*
G03*
X14860000Y-12230000I-20000J0D01*
G01*
X14860000Y-12230000D02*
G75*
G03*
X14900000Y-12230000I20000J0D01*
G01*
X15470000Y-10800000D02*
G75*
G03*
X15430000Y-10800000I-20000J0D01*
G01*
X15430000Y-10800000D02*
G75*
G03*
X15470000Y-10800000I20000J0D01*
G01*
X15815000Y-9650000D02*
G75*
G03*
X15775000Y-9650000I-20000J0D01*
G01*
X15775000Y-9650000D02*
G75*
G03*
X15815000Y-9650000I20000J0D01*
G01*
X15815000Y-11240000D02*
G75*
G03*
X15775000Y-11240000I-20000J0D01*
G01*
X15775000Y-11240000D02*
G75*
G03*
X15815000Y-11240000I20000J0D01*
G01*
X15820000Y-9945000D02*
G75*
G03*
X15780000Y-9945000I-20000J0D01*
G01*
X15780000Y-9945000D02*
G75*
G03*
X15820000Y-9945000I20000J0D01*
G01*
X15971200Y-10591800D02*
G75*
G03*
X15931200Y-10591800I-20000J0D01*
G01*
X15931200Y-10591800D02*
G75*
G03*
X15971200Y-10591800I20000J0D01*
G01*
X16019691Y-10708860D02*
G75*
G03*
X15979691Y-10708860I-20000J0D01*
G01*
X15979691Y-10708860D02*
G75*
G03*
X16019691Y-10708860I20000J0D01*
G01*
X16041875Y-10521125D02*
G75*
G03*
X16001875Y-10521125I-20000J0D01*
G01*
X16001875Y-10521125D02*
G75*
G03*
X16041875Y-10521125I20000J0D01*
G01*
X16105067Y-10443685D02*
G75*
G03*
X16065067Y-10443685I-20000J0D01*
G01*
X16065067Y-10443685D02*
G75*
G03*
X16105067Y-10443685I20000J0D01*
G01*
X16110900Y-10137899D02*
G75*
G03*
X16070900Y-10137899I-20000J0D01*
G01*
X16070900Y-10137899D02*
G75*
G03*
X16110900Y-10137899I20000J0D01*
G01*
X16110900Y-10237850D02*
G75*
G03*
X16070900Y-10237850I-20000J0D01*
G01*
X16070900Y-10237850D02*
G75*
G03*
X16110900Y-10237850I20000J0D01*
G01*
X16110900Y-10337800D02*
G75*
G03*
X16070900Y-10337800I-20000J0D01*
G01*
X16070900Y-10337800D02*
G75*
G03*
X16110900Y-10337800I20000J0D01*
G01*
X16120000Y-9652500D02*
G75*
G03*
X16080000Y-9652500I-20000J0D01*
G01*
X16080000Y-9652500D02*
G75*
G03*
X16120000Y-9652500I20000J0D01*
G01*
X16120000Y-12250000D02*
G75*
G03*
X16080000Y-12250000I-20000J0D01*
G01*
X16080000Y-12250000D02*
G75*
G03*
X16120000Y-12250000I20000J0D01*
G01*
X16122500Y-9952500D02*
G75*
G03*
X16082500Y-9952500I-20000J0D01*
G01*
X16082500Y-9952500D02*
G75*
G03*
X16122500Y-9952500I20000J0D01*
G01*
X16122500Y-11252500D02*
G75*
G03*
X16082500Y-11252500I-20000J0D01*
G01*
X16082500Y-11252500D02*
G75*
G03*
X16122500Y-11252500I20000J0D01*
G01*
X16123600Y-10947400D02*
G75*
G03*
X16083600Y-10947400I-20000J0D01*
G01*
X16083600Y-10947400D02*
G75*
G03*
X16123600Y-10947400I20000J0D01*
G01*
X16192500Y-11572500D02*
G75*
G03*
X16152500Y-11572500I-20000J0D01*
G01*
X16152500Y-11572500D02*
G75*
G03*
X16192500Y-11572500I20000J0D01*
G01*
X16199800Y-10083800D02*
G75*
G03*
X16159800Y-10083800I-20000J0D01*
G01*
X16159800Y-10083800D02*
G75*
G03*
X16199800Y-10083800I20000J0D01*
G01*
X16222500Y-11437500D02*
G75*
G03*
X16182500Y-11437500I-20000J0D01*
G01*
X16182500Y-11437500D02*
G75*
G03*
X16222500Y-11437500I20000J0D01*
G01*
X16306480Y-9509760D02*
G75*
G03*
X16266480Y-9509760I-20000J0D01*
G01*
X16266480Y-9509760D02*
G75*
G03*
X16306480Y-9509760I20000J0D01*
G01*
X16420000Y-8100000D02*
G75*
G03*
X16380000Y-8100000I-20000J0D01*
G01*
X16380000Y-8100000D02*
G75*
G03*
X16420000Y-8100000I20000J0D01*
G01*
X16495000Y-11955000D02*
G75*
G03*
X16455000Y-11955000I-20000J0D01*
G01*
X16455000Y-11955000D02*
G75*
G03*
X16495000Y-11955000I20000J0D01*
G01*
X16505000Y-11660000D02*
G75*
G03*
X16465000Y-11660000I-20000J0D01*
G01*
X16465000Y-11660000D02*
G75*
G03*
X16505000Y-11660000I20000J0D01*
G01*
X16515000Y-11805000D02*
G75*
G03*
X16475000Y-11805000I-20000J0D01*
G01*
X16475000Y-11805000D02*
G75*
G03*
X16515000Y-11805000I20000J0D01*
G01*
X16580000Y-11885000D02*
G75*
G03*
X16540000Y-11885000I-20000J0D01*
G01*
X16540000Y-11885000D02*
G75*
G03*
X16580000Y-11885000I20000J0D01*
G01*
X16585000Y-11580000D02*
G75*
G03*
X16545000Y-11580000I-20000J0D01*
G01*
X16545000Y-11580000D02*
G75*
G03*
X16585000Y-11580000I20000J0D01*
G01*
X16610000Y-11735000D02*
G75*
G03*
X16570000Y-11735000I-20000J0D01*
G01*
X16570000Y-11735000D02*
G75*
G03*
X16610000Y-11735000I20000J0D01*
G01*
X16631600Y-12217400D02*
G75*
G03*
X16591600Y-12217400I-20000J0D01*
G01*
X16591600Y-12217400D02*
G75*
G03*
X16631600Y-12217400I20000J0D01*
G01*
X16690000Y-9887500D02*
G75*
G03*
X16650000Y-9887500I-20000J0D01*
G01*
X16650000Y-9887500D02*
G75*
G03*
X16690000Y-9887500I20000J0D01*
G01*
X16705000Y-9482500D02*
G75*
G03*
X16665000Y-9482500I-20000J0D01*
G01*
X16665000Y-9482500D02*
G75*
G03*
X16705000Y-9482500I20000J0D01*
G01*
X16717500Y-12122500D02*
G75*
G03*
X16677500Y-12122500I-20000J0D01*
G01*
X16677500Y-12122500D02*
G75*
G03*
X16717500Y-12122500I20000J0D01*
G01*
X16732500Y-11535000D02*
G75*
G03*
X16692500Y-11535000I-20000J0D01*
G01*
X16692500Y-11535000D02*
G75*
G03*
X16732500Y-11535000I20000J0D01*
G01*
X16737500Y-10892500D02*
G75*
G03*
X16697500Y-10892500I-20000J0D01*
G01*
X16697500Y-10892500D02*
G75*
G03*
X16737500Y-10892500I20000J0D01*
G01*
X16790000Y-11635000D02*
G75*
G03*
X16750000Y-11635000I-20000J0D01*
G01*
X16750000Y-11635000D02*
G75*
G03*
X16790000Y-11635000I20000J0D01*
G01*
X16840000Y-11725000D02*
G75*
G03*
X16800000Y-11725000I-20000J0D01*
G01*
X16800000Y-11725000D02*
G75*
G03*
X16840000Y-11725000I20000J0D01*
G01*
X16945000Y-11740000D02*
G75*
G03*
X16905000Y-11740000I-20000J0D01*
G01*
X16905000Y-11740000D02*
G75*
G03*
X16945000Y-11740000I20000J0D01*
G01*
X17025000Y-11645000D02*
G75*
G03*
X16985000Y-11645000I-20000J0D01*
G01*
X16985000Y-11645000D02*
G75*
G03*
X17025000Y-11645000I20000J0D01*
G01*
X17095000Y-11765000D02*
G75*
G03*
X17055000Y-11765000I-20000J0D01*
G01*
X17055000Y-11765000D02*
G75*
G03*
X17095000Y-11765000I20000J0D01*
G01*
X17165000Y-11610000D02*
G75*
G03*
X17125000Y-11610000I-20000J0D01*
G01*
X17125000Y-11610000D02*
G75*
G03*
X17165000Y-11610000I20000J0D01*
G01*
X17571400Y-11684000D02*
G75*
G03*
X17531400Y-11684000I-20000J0D01*
G01*
X17531400Y-11684000D02*
G75*
G03*
X17571400Y-11684000I20000J0D01*
G01*
X17577550Y-9129486D02*
G75*
G03*
X17537550Y-9129486I-20000J0D01*
G01*
X17537550Y-9129486D02*
G75*
G03*
X17577550Y-9129486I20000J0D01*
G01*
X17583700Y-8895443D02*
G75*
G03*
X17543700Y-8895443I-20000J0D01*
G01*
X17543700Y-8895443D02*
G75*
G03*
X17583700Y-8895443I20000J0D01*
G01*
X17583700Y-9363528D02*
G75*
G03*
X17543700Y-9363528I-20000J0D01*
G01*
X17543700Y-9363528D02*
G75*
G03*
X17583700Y-9363528I20000J0D01*
G01*
X17583700Y-9597571D02*
G75*
G03*
X17543700Y-9597571I-20000J0D01*
G01*
X17543700Y-9597571D02*
G75*
G03*
X17583700Y-9597571I20000J0D01*
G01*
X17583700Y-9831614D02*
G75*
G03*
X17543700Y-9831614I-20000J0D01*
G01*
X17543700Y-9831614D02*
G75*
G03*
X17583700Y-9831614I20000J0D01*
G01*
X17583700Y-10065657D02*
G75*
G03*
X17543700Y-10065657I-20000J0D01*
G01*
X17543700Y-10065657D02*
G75*
G03*
X17583700Y-10065657I20000J0D01*
G01*
X17583700Y-10299700D02*
G75*
G03*
X17543700Y-10299700I-20000J0D01*
G01*
X17543700Y-10299700D02*
G75*
G03*
X17583700Y-10299700I20000J0D01*
G01*
X17583700Y-11468100D02*
G75*
G03*
X17543700Y-11468100I-20000J0D01*
G01*
X17543700Y-11468100D02*
G75*
G03*
X17583700Y-11468100I20000J0D01*
G01*
X17584100Y-8661400D02*
G75*
G03*
X17544100Y-8661400I-20000J0D01*
G01*
X17544100Y-8661400D02*
G75*
G03*
X17584100Y-8661400I20000J0D01*
G01*
X17585170Y-11000740D02*
G75*
G03*
X17545170Y-11000740I-20000J0D01*
G01*
X17545170Y-11000740D02*
G75*
G03*
X17585170Y-11000740I20000J0D01*
G01*
X17585170Y-11234420D02*
G75*
G03*
X17545170Y-11234420I-20000J0D01*
G01*
X17545170Y-11234420D02*
G75*
G03*
X17585170Y-11234420I20000J0D01*
G01*
X17587710Y-10764520D02*
G75*
G03*
X17547710Y-10764520I-20000J0D01*
G01*
X17547710Y-10764520D02*
G75*
G03*
X17587710Y-10764520I20000J0D01*
G01*
X17588780Y-10530840D02*
G75*
G03*
X17548780Y-10530840I-20000J0D01*
G01*
X17548780Y-10530840D02*
G75*
G03*
X17588780Y-10530840I20000J0D01*
G01*
X12650000Y-6322500D02*
X12650000Y-6377500D01*
X12622500Y-6350000D02*
X12677500Y-6350000D01*
X12850000Y-12172500D02*
X12850000Y-12227500D01*
X12822500Y-12200000D02*
X12877500Y-12200000D01*
X13150000Y-7872500D02*
X13150000Y-7927500D01*
X13122500Y-7900000D02*
X13177500Y-7900000D01*
X13150000Y-8172500D02*
X13150000Y-8227500D01*
X13122500Y-8200000D02*
X13177500Y-8200000D01*
X13300000Y-7872500D02*
X13300000Y-7927500D01*
X13272500Y-7900000D02*
X13327500Y-7900000D01*
X13300000Y-8172500D02*
X13300000Y-8227500D01*
X13272500Y-8200000D02*
X13327500Y-8200000D01*
X13450000Y-10322500D02*
X13450000Y-10377500D01*
X13422500Y-10350000D02*
X13477500Y-10350000D01*
X15800000Y-10925000D02*
X15800000Y-10980000D01*
X15772500Y-10952500D02*
X15827500Y-10952500D01*
X15850000Y-12222500D02*
X15850000Y-12277500D01*
X15822500Y-12250000D02*
X15877500Y-12250000D01*
X10714613Y-8809213D02*
X10714613Y-8766787D01*
X10672187Y-8766787D01*
X10672187Y-8809213D01*
X10714613Y-8809213D01*
X10723400Y-8758000D02*
X10663400Y-8758000D01*
X10663400Y-8758000D02*
G75*
G03*
X10663400Y-8818000I0J-30000D01*
G01*
X10663400Y-8818000D02*
X10723400Y-8818000D01*
X10723400Y-8818000D02*
G75*
G03*
X10723400Y-8758000I0J30000D01*
G01*
X10714613Y-9673213D02*
X10714613Y-9630787D01*
X10672187Y-9630787D01*
X10672187Y-9673213D01*
X10714613Y-9673213D01*
X10723400Y-9622000D02*
X10663400Y-9622000D01*
X10663400Y-9622000D02*
G75*
G03*
X10663400Y-9682000I0J-30000D01*
G01*
X10663400Y-9682000D02*
X10723400Y-9682000D01*
X10723400Y-9682000D02*
G75*
G03*
X10723400Y-9622000I0J30000D01*
G01*
X11132613Y-8809213D02*
X11132613Y-8766787D01*
X11090187Y-8766787D01*
X11090187Y-8809213D01*
X11132613Y-8809213D01*
X11166400Y-8758000D02*
X11056400Y-8758000D01*
X11056400Y-8758000D02*
G75*
G03*
X11056400Y-8818000I0J-30000D01*
G01*
X11056400Y-8818000D02*
X11166400Y-8818000D01*
X11166400Y-8818000D02*
G75*
G03*
X11166400Y-8758000I0J30000D01*
G01*
X11132613Y-9673213D02*
X11132613Y-9630787D01*
X11090187Y-9630787D01*
X11090187Y-9673213D01*
X11132613Y-9673213D01*
X11166400Y-9622000D02*
X11056400Y-9622000D01*
X11056400Y-9622000D02*
G75*
G03*
X11056400Y-9682000I0J-30000D01*
G01*
X11056400Y-9682000D02*
X11166400Y-9682000D01*
X11166400Y-9682000D02*
G75*
G03*
X11166400Y-9622000I0J30000D01*
G01*
X14676500Y-7012500D02*
X14711500Y-6977500D01*
X14676500Y-6942500D01*
X14641500Y-6977500D01*
X14676500Y-7012500D01*
X14676500Y-7262500D02*
X14711500Y-7227500D01*
X14676500Y-7192500D01*
X14641500Y-7227500D01*
X14676500Y-7262500D01*
X14776500Y-6812500D02*
X14811500Y-6777500D01*
X14776500Y-6742500D01*
X14741500Y-6777500D01*
X14776500Y-6812500D01*
X14776500Y-7462500D02*
X14811500Y-7427500D01*
X14776500Y-7392500D01*
X14741500Y-7427500D01*
X14776500Y-7462500D01*
X14876500Y-7012500D02*
X14911500Y-6977500D01*
X14876500Y-6942500D01*
X14841500Y-6977500D01*
X14876500Y-7012500D01*
X14876500Y-7262500D02*
X14911500Y-7227500D01*
X14876500Y-7192500D01*
X14841500Y-7227500D01*
X14876500Y-7262500D01*
X14976500Y-6812500D02*
X15011500Y-6777500D01*
X14976500Y-6742500D01*
X14941500Y-6777500D01*
X14976500Y-6812500D01*
X14976500Y-7462500D02*
X15011500Y-7427500D01*
X14976500Y-7392500D01*
X14941500Y-7427500D01*
X14976500Y-7462500D01*
X15076500Y-7012500D02*
X15111500Y-6977500D01*
X15076500Y-6942500D01*
X15041500Y-6977500D01*
X15076500Y-7012500D01*
X15076500Y-7262500D02*
X15111500Y-7227500D01*
X15076500Y-7192500D01*
X15041500Y-7227500D01*
X15076500Y-7262500D01*
X15176500Y-6812500D02*
X15211500Y-6777500D01*
X15176500Y-6742500D01*
X15141500Y-6777500D01*
X15176500Y-6812500D01*
X15176500Y-7462500D02*
X15211500Y-7427500D01*
X15176500Y-7392500D01*
X15141500Y-7427500D01*
X15176500Y-7462500D01*
X15276500Y-7012500D02*
X15311500Y-6977500D01*
X15276500Y-6942500D01*
X15241500Y-6977500D01*
X15276500Y-7012500D01*
X15276500Y-7262500D02*
X15311500Y-7227500D01*
X15276500Y-7192500D01*
X15241500Y-7227500D01*
X15276500Y-7262500D01*
X15376500Y-6812500D02*
X15411500Y-6777500D01*
X15376500Y-6742500D01*
X15341500Y-6777500D01*
X15376500Y-6812500D01*
X15376500Y-7462500D02*
X15411500Y-7427500D01*
X15376500Y-7392500D01*
X15341500Y-7427500D01*
X15376500Y-7462500D01*
X15476500Y-7012500D02*
X15511500Y-6977500D01*
X15476500Y-6942500D01*
X15441500Y-6977500D01*
X15476500Y-7012500D01*
X15476500Y-7262500D02*
X15511500Y-7227500D01*
X15476500Y-7192500D01*
X15441500Y-7227500D01*
X15476500Y-7262500D01*
X15576500Y-6812500D02*
X15611500Y-6777500D01*
X15576500Y-6742500D01*
X15541500Y-6777500D01*
X15576500Y-6812500D01*
X15576500Y-7462500D02*
X15611500Y-7427500D01*
X15576500Y-7392500D01*
X15541500Y-7427500D01*
X15576500Y-7462500D01*
X15676500Y-7012500D02*
X15711500Y-6977500D01*
X15676500Y-6942500D01*
X15641500Y-6977500D01*
X15676500Y-7012500D01*
X15676500Y-7262500D02*
X15711500Y-7227500D01*
X15676500Y-7192500D01*
X15641500Y-7227500D01*
X15676500Y-7262500D01*
X15976500Y-6812500D02*
X16011500Y-6777500D01*
X15976500Y-6742500D01*
X15941500Y-6777500D01*
X15976500Y-6812500D01*
X15976500Y-7462500D02*
X16011500Y-7427500D01*
X15976500Y-7392500D01*
X15941500Y-7427500D01*
X15976500Y-7462500D01*
X16076500Y-7012500D02*
X16111500Y-6977500D01*
X16076500Y-6942500D01*
X16041500Y-6977500D01*
X16076500Y-7012500D01*
X16076500Y-7262500D02*
X16111500Y-7227500D01*
X16076500Y-7192500D01*
X16041500Y-7227500D01*
X16076500Y-7262500D01*
X16176500Y-6812500D02*
X16211500Y-6777500D01*
X16176500Y-6742500D01*
X16141500Y-6777500D01*
X16176500Y-6812500D01*
X16176500Y-7462500D02*
X16211500Y-7427500D01*
X16176500Y-7392500D01*
X16141500Y-7427500D01*
X16176500Y-7462500D01*
X16276500Y-7012500D02*
X16311500Y-6977500D01*
X16276500Y-6942500D01*
X16241500Y-6977500D01*
X16276500Y-7012500D01*
X16276500Y-7262500D02*
X16311500Y-7227500D01*
X16276500Y-7192500D01*
X16241500Y-7227500D01*
X16276500Y-7262500D01*
X16376500Y-6812500D02*
X16411500Y-6777500D01*
X16376500Y-6742500D01*
X16341500Y-6777500D01*
X16376500Y-6812500D01*
X16376500Y-7462500D02*
X16411500Y-7427500D01*
X16376500Y-7392500D01*
X16341500Y-7427500D01*
X16376500Y-7462500D01*
X16476500Y-7012500D02*
X16511500Y-6977500D01*
X16476500Y-6942500D01*
X16441500Y-6977500D01*
X16476500Y-7012500D01*
X16476500Y-7262500D02*
X16511500Y-7227500D01*
X16476500Y-7192500D01*
X16441500Y-7227500D01*
X16476500Y-7262500D01*
X16576500Y-6812500D02*
X16611500Y-6777500D01*
X16576500Y-6742500D01*
X16541500Y-6777500D01*
X16576500Y-6812500D01*
X16576500Y-7462500D02*
X16611500Y-7427500D01*
X16576500Y-7392500D01*
X16541500Y-7427500D01*
X16576500Y-7462500D01*
X11446000Y-6710000D02*
X11521000Y-6785000D01*
X11521000Y-6710000D02*
X11446000Y-6785000D01*
X11521000Y-6747500D02*
G75*
G03*
X11446000Y-6747500I-37500J0D01*
G01*
X11446000Y-6747500D02*
G75*
G03*
X11521000Y-6747500I37500J0D01*
G01*
X11573000Y-6710000D02*
X11648000Y-6785000D01*
X11648000Y-6710000D02*
X11573000Y-6785000D01*
X11648000Y-6747500D02*
G75*
G03*
X11573000Y-6747500I-37500J0D01*
G01*
X11573000Y-6747500D02*
G75*
G03*
X11648000Y-6747500I37500J0D01*
G01*
X11700000Y-6710000D02*
X11775000Y-6785000D01*
X11775000Y-6710000D02*
X11700000Y-6785000D01*
X11775000Y-6747500D02*
G75*
G03*
X11700000Y-6747500I-37500J0D01*
G01*
X11700000Y-6747500D02*
G75*
G03*
X11775000Y-6747500I37500J0D01*
G01*
X11912200Y-7461500D02*
X11992200Y-7541500D01*
X11992200Y-7461500D02*
X11912200Y-7541500D01*
X11952200Y-7461500D02*
X11952200Y-7541500D01*
X11912200Y-7501500D02*
X11992200Y-7501500D01*
X11912200Y-7949500D02*
X11992200Y-8029500D01*
X11992200Y-7949500D02*
X11912200Y-8029500D01*
X11952200Y-7949500D02*
X11952200Y-8029500D01*
X11912200Y-7989500D02*
X11992200Y-7989500D01*
X10607760Y-7006040D02*
X10697760Y-7096040D01*
X10697760Y-7006040D02*
X10607760Y-7096040D01*
X10684580Y-7082860D02*
X10684580Y-7019220D01*
X10620940Y-7019220D01*
X10620940Y-7082860D01*
X10684580Y-7082860D01*
X10861760Y-7006040D02*
X10951760Y-7096040D01*
X10951760Y-7006040D02*
X10861760Y-7096040D01*
X10938580Y-7082860D02*
X10938580Y-7019220D01*
X10874940Y-7019220D01*
X10874940Y-7082860D01*
X10938580Y-7082860D01*
X11115760Y-7006040D02*
X11205760Y-7096040D01*
X11205760Y-7006040D02*
X11115760Y-7096040D01*
X11192580Y-7082860D02*
X11192580Y-7019220D01*
X11128940Y-7019220D01*
X11128940Y-7082860D01*
X11192580Y-7082860D01*
X12567000Y-10050000D02*
X12667000Y-10150000D01*
X12667000Y-10050000D02*
X12567000Y-10150000D01*
X12617000Y-10150000D02*
X12667000Y-10100000D01*
X12617000Y-10050000D01*
X12567000Y-10100000D01*
X12617000Y-10150000D01*
X12821000Y-10050000D02*
X12921000Y-10150000D01*
X12921000Y-10050000D02*
X12821000Y-10150000D01*
X12871000Y-10150000D02*
X12921000Y-10100000D01*
X12871000Y-10050000D01*
X12821000Y-10100000D01*
X12871000Y-10150000D01*
X13075000Y-10050000D02*
X13175000Y-10150000D01*
X13175000Y-10050000D02*
X13075000Y-10150000D01*
X13125000Y-10150000D02*
X13175000Y-10100000D01*
X13125000Y-10050000D01*
X13075000Y-10100000D01*
X13125000Y-10150000D01*
X13329000Y-10050000D02*
X13429000Y-10150000D01*
X13429000Y-10050000D02*
X13329000Y-10150000D01*
X13379000Y-10150000D02*
X13429000Y-10100000D01*
X13379000Y-10050000D01*
X13329000Y-10100000D01*
X13379000Y-10150000D01*
X13770000Y-10025000D02*
X13870000Y-10125000D01*
X13870000Y-10025000D02*
X13770000Y-10125000D01*
X13820000Y-10125000D02*
X13870000Y-10075000D01*
X13820000Y-10025000D01*
X13770000Y-10075000D01*
X13820000Y-10125000D01*
X14024000Y-10025000D02*
X14124000Y-10125000D01*
X14124000Y-10025000D02*
X14024000Y-10125000D01*
X14074000Y-10125000D02*
X14124000Y-10075000D01*
X14074000Y-10025000D01*
X14024000Y-10075000D01*
X14074000Y-10125000D01*
X14278000Y-10025000D02*
X14378000Y-10125000D01*
X14378000Y-10025000D02*
X14278000Y-10125000D01*
X14328000Y-10125000D02*
X14378000Y-10075000D01*
X14328000Y-10025000D01*
X14278000Y-10075000D01*
X14328000Y-10125000D01*
X14532000Y-10025000D02*
X14632000Y-10125000D01*
X14632000Y-10025000D02*
X14532000Y-10125000D01*
X14582000Y-10125000D02*
X14632000Y-10075000D01*
X14582000Y-10025000D01*
X14532000Y-10075000D01*
X14582000Y-10125000D01*
X18025000Y-6788000D02*
X18125000Y-6888000D01*
X18125000Y-6788000D02*
X18025000Y-6888000D01*
X18075000Y-6888000D02*
X18125000Y-6838000D01*
X18075000Y-6788000D01*
X18025000Y-6838000D01*
X18075000Y-6888000D01*
X18025000Y-7042000D02*
X18125000Y-7142000D01*
X18125000Y-7042000D02*
X18025000Y-7142000D01*
X18075000Y-7142000D02*
X18125000Y-7092000D01*
X18075000Y-7042000D01*
X18025000Y-7092000D01*
X18075000Y-7142000D01*
X18025000Y-7296000D02*
X18125000Y-7396000D01*
X18125000Y-7296000D02*
X18025000Y-7396000D01*
X18075000Y-7396000D02*
X18125000Y-7346000D01*
X18075000Y-7296000D01*
X18025000Y-7346000D01*
X18075000Y-7396000D01*
X18025000Y-7550000D02*
X18125000Y-7650000D01*
X18125000Y-7550000D02*
X18025000Y-7650000D01*
X18075000Y-7650000D02*
X18125000Y-7600000D01*
X18075000Y-7550000D01*
X18025000Y-7600000D01*
X18075000Y-7650000D01*
X18025000Y-7804000D02*
X18125000Y-7904000D01*
X18125000Y-7804000D02*
X18025000Y-7904000D01*
X18075000Y-7904000D02*
X18125000Y-7854000D01*
X18075000Y-7804000D01*
X18025000Y-7854000D01*
X18075000Y-7904000D01*
X18400000Y-6788000D02*
X18500000Y-6888000D01*
X18500000Y-6788000D02*
X18400000Y-6888000D01*
X18450000Y-6888000D02*
X18500000Y-6838000D01*
X18450000Y-6788000D01*
X18400000Y-6838000D01*
X18450000Y-6888000D01*
X18400000Y-7042000D02*
X18500000Y-7142000D01*
X18500000Y-7042000D02*
X18400000Y-7142000D01*
X18450000Y-7142000D02*
X18500000Y-7092000D01*
X18450000Y-7042000D01*
X18400000Y-7092000D01*
X18450000Y-7142000D01*
X18400000Y-7296000D02*
X18500000Y-7396000D01*
X18500000Y-7296000D02*
X18400000Y-7396000D01*
X18450000Y-7396000D02*
X18500000Y-7346000D01*
X18450000Y-7296000D01*
X18400000Y-7346000D01*
X18450000Y-7396000D01*
X18400000Y-7550000D02*
X18500000Y-7650000D01*
X18500000Y-7550000D02*
X18400000Y-7650000D01*
X18450000Y-7650000D02*
X18500000Y-7600000D01*
X18450000Y-7550000D01*
X18400000Y-7600000D01*
X18450000Y-7650000D01*
X18400000Y-7804000D02*
X18500000Y-7904000D01*
X18500000Y-7804000D02*
X18400000Y-7904000D01*
X18450000Y-7904000D02*
X18500000Y-7854000D01*
X18450000Y-7804000D01*
X18400000Y-7854000D01*
X18450000Y-7904000D01*
X18550000Y-8650000D02*
X18650000Y-8750000D01*
X18650000Y-8650000D02*
X18550000Y-8750000D01*
X18600000Y-8750000D02*
X18650000Y-8700000D01*
X18600000Y-8650000D01*
X18550000Y-8700000D01*
X18600000Y-8750000D01*
X18550000Y-8904000D02*
X18650000Y-9004000D01*
X18650000Y-8904000D02*
X18550000Y-9004000D01*
X18600000Y-9004000D02*
X18650000Y-8954000D01*
X18600000Y-8904000D01*
X18550000Y-8954000D01*
X18600000Y-9004000D01*
X18550000Y-9158000D02*
X18650000Y-9258000D01*
X18650000Y-9158000D02*
X18550000Y-9258000D01*
X18600000Y-9258000D02*
X18650000Y-9208000D01*
X18600000Y-9158000D01*
X18550000Y-9208000D01*
X18600000Y-9258000D01*
X18550000Y-9412000D02*
X18650000Y-9512000D01*
X18650000Y-9412000D02*
X18550000Y-9512000D01*
X18600000Y-9512000D02*
X18650000Y-9462000D01*
X18600000Y-9412000D01*
X18550000Y-9462000D01*
X18600000Y-9512000D01*
X18550000Y-9666000D02*
X18650000Y-9766000D01*
X18650000Y-9666000D02*
X18550000Y-9766000D01*
X18600000Y-9766000D02*
X18650000Y-9716000D01*
X18600000Y-9666000D01*
X18550000Y-9716000D01*
X18600000Y-9766000D01*
X18550000Y-10850000D02*
X18650000Y-10950000D01*
X18650000Y-10850000D02*
X18550000Y-10950000D01*
X18600000Y-10950000D02*
X18650000Y-10900000D01*
X18600000Y-10850000D01*
X18550000Y-10900000D01*
X18600000Y-10950000D01*
X18550000Y-11104000D02*
X18650000Y-11204000D01*
X18650000Y-11104000D02*
X18550000Y-11204000D01*
X18600000Y-11204000D02*
X18650000Y-11154000D01*
X18600000Y-11104000D01*
X18550000Y-11154000D01*
X18600000Y-11204000D01*
X18550000Y-11358000D02*
X18650000Y-11458000D01*
X18650000Y-11358000D02*
X18550000Y-11458000D01*
X18600000Y-11458000D02*
X18650000Y-11408000D01*
X18600000Y-11358000D01*
X18550000Y-11408000D01*
X18600000Y-11458000D01*
X18550000Y-11612000D02*
X18650000Y-11712000D01*
X18650000Y-11612000D02*
X18550000Y-11712000D01*
X18600000Y-11712000D02*
X18650000Y-11662000D01*
X18600000Y-11612000D01*
X18550000Y-11662000D01*
X18600000Y-11712000D01*
X18550000Y-11866000D02*
X18650000Y-11966000D01*
X18650000Y-11866000D02*
X18550000Y-11966000D01*
X18600000Y-11966000D02*
X18650000Y-11916000D01*
X18600000Y-11866000D01*
X18550000Y-11916000D01*
X18600000Y-11966000D01*
X18775000Y-6788000D02*
X18875000Y-6888000D01*
X18875000Y-6788000D02*
X18775000Y-6888000D01*
X18825000Y-6888000D02*
X18875000Y-6838000D01*
X18825000Y-6788000D01*
X18775000Y-6838000D01*
X18825000Y-6888000D01*
X18775000Y-7042000D02*
X18875000Y-7142000D01*
X18875000Y-7042000D02*
X18775000Y-7142000D01*
X18825000Y-7142000D02*
X18875000Y-7092000D01*
X18825000Y-7042000D01*
X18775000Y-7092000D01*
X18825000Y-7142000D01*
X18775000Y-7296000D02*
X18875000Y-7396000D01*
X18875000Y-7296000D02*
X18775000Y-7396000D01*
X18825000Y-7396000D02*
X18875000Y-7346000D01*
X18825000Y-7296000D01*
X18775000Y-7346000D01*
X18825000Y-7396000D01*
X18775000Y-7550000D02*
X18875000Y-7650000D01*
X18875000Y-7550000D02*
X18775000Y-7650000D01*
X18825000Y-7650000D02*
X18875000Y-7600000D01*
X18825000Y-7550000D01*
X18775000Y-7600000D01*
X18825000Y-7650000D01*
X18775000Y-7804000D02*
X18875000Y-7904000D01*
X18875000Y-7804000D02*
X18775000Y-7904000D01*
X18825000Y-7904000D02*
X18875000Y-7854000D01*
X18825000Y-7804000D01*
X18775000Y-7854000D01*
X18825000Y-7904000D01*
X18804000Y-8650000D02*
X18904000Y-8750000D01*
X18904000Y-8650000D02*
X18804000Y-8750000D01*
X18854000Y-8750000D02*
X18904000Y-8700000D01*
X18854000Y-8650000D01*
X18804000Y-8700000D01*
X18854000Y-8750000D01*
X18804000Y-8904000D02*
X18904000Y-9004000D01*
X18904000Y-8904000D02*
X18804000Y-9004000D01*
X18854000Y-9004000D02*
X18904000Y-8954000D01*
X18854000Y-8904000D01*
X18804000Y-8954000D01*
X18854000Y-9004000D01*
X18804000Y-9158000D02*
X18904000Y-9258000D01*
X18904000Y-9158000D02*
X18804000Y-9258000D01*
X18854000Y-9258000D02*
X18904000Y-9208000D01*
X18854000Y-9158000D01*
X18804000Y-9208000D01*
X18854000Y-9258000D01*
X18804000Y-9412000D02*
X18904000Y-9512000D01*
X18904000Y-9412000D02*
X18804000Y-9512000D01*
X18854000Y-9512000D02*
X18904000Y-9462000D01*
X18854000Y-9412000D01*
X18804000Y-9462000D01*
X18854000Y-9512000D01*
X18804000Y-9666000D02*
X18904000Y-9766000D01*
X18904000Y-9666000D02*
X18804000Y-9766000D01*
X18854000Y-9766000D02*
X18904000Y-9716000D01*
X18854000Y-9666000D01*
X18804000Y-9716000D01*
X18854000Y-9766000D01*
X18804000Y-10850000D02*
X18904000Y-10950000D01*
X18904000Y-10850000D02*
X18804000Y-10950000D01*
X18854000Y-10950000D02*
X18904000Y-10900000D01*
X18854000Y-10850000D01*
X18804000Y-10900000D01*
X18854000Y-10950000D01*
X18804000Y-11104000D02*
X18904000Y-11204000D01*
X18904000Y-11104000D02*
X18804000Y-11204000D01*
X18854000Y-11204000D02*
X18904000Y-11154000D01*
X18854000Y-11104000D01*
X18804000Y-11154000D01*
X18854000Y-11204000D01*
X18804000Y-11358000D02*
X18904000Y-11458000D01*
X18904000Y-11358000D02*
X18804000Y-11458000D01*
X18854000Y-11458000D02*
X18904000Y-11408000D01*
X18854000Y-11358000D01*
X18804000Y-11408000D01*
X18854000Y-11458000D01*
X18804000Y-11612000D02*
X18904000Y-11712000D01*
X18904000Y-11612000D02*
X18804000Y-11712000D01*
X18854000Y-11712000D02*
X18904000Y-11662000D01*
X18854000Y-11612000D01*
X18804000Y-11662000D01*
X18854000Y-11712000D01*
X18804000Y-11866000D02*
X18904000Y-11966000D01*
X18904000Y-11866000D02*
X18804000Y-11966000D01*
X18854000Y-11966000D02*
X18904000Y-11916000D01*
X18854000Y-11866000D01*
X18804000Y-11916000D01*
X18854000Y-11966000D01*
X19150000Y-6788000D02*
X19250000Y-6888000D01*
X19250000Y-6788000D02*
X19150000Y-6888000D01*
X19200000Y-6888000D02*
X19250000Y-6838000D01*
X19200000Y-6788000D01*
X19150000Y-6838000D01*
X19200000Y-6888000D01*
X19150000Y-7042000D02*
X19250000Y-7142000D01*
X19250000Y-7042000D02*
X19150000Y-7142000D01*
X19200000Y-7142000D02*
X19250000Y-7092000D01*
X19200000Y-7042000D01*
X19150000Y-7092000D01*
X19200000Y-7142000D01*
X19150000Y-7296000D02*
X19250000Y-7396000D01*
X19250000Y-7296000D02*
X19150000Y-7396000D01*
X19200000Y-7396000D02*
X19250000Y-7346000D01*
X19200000Y-7296000D01*
X19150000Y-7346000D01*
X19200000Y-7396000D01*
X19150000Y-7550000D02*
X19250000Y-7650000D01*
X19250000Y-7550000D02*
X19150000Y-7650000D01*
X19200000Y-7650000D02*
X19250000Y-7600000D01*
X19200000Y-7550000D01*
X19150000Y-7600000D01*
X19200000Y-7650000D01*
X19150000Y-7804000D02*
X19250000Y-7904000D01*
X19250000Y-7804000D02*
X19150000Y-7904000D01*
X19200000Y-7904000D02*
X19250000Y-7854000D01*
X19200000Y-7804000D01*
X19150000Y-7854000D01*
X19200000Y-7904000D01*
D12*
X15841500Y-6210000D02*
X15841500Y-6445000D01*
X15724000Y-6327500D02*
X15959000Y-6327500D01*
X15959000Y-6327500D02*
G75*
G03*
X15724000Y-6327500I-117500J0D01*
G01*
X15724000Y-6327500D02*
G75*
G03*
X15959000Y-6327500I117500J0D01*
G01*
X16756500Y-6210000D02*
X16756500Y-6445000D01*
X16639000Y-6327500D02*
X16874000Y-6327500D01*
X16874000Y-6327500D02*
G75*
G03*
X16639000Y-6327500I-117500J0D01*
G01*
X16639000Y-6327500D02*
G75*
G03*
X16874000Y-6327500I117500J0D01*
G01*
D11*
X10662277Y-13143984D02*
X10662277Y-12943984D01*
X10662277Y-12943984D02*
X10709896Y-12943984D01*
X10709896Y-12943984D02*
X10738467Y-12953508D01*
X10738467Y-12953508D02*
X10757515Y-12972555D01*
X10757515Y-12972555D02*
X10767039Y-12991603D01*
X10767039Y-12991603D02*
X10776563Y-13029698D01*
X10776563Y-13029698D02*
X10776563Y-13058269D01*
X10776563Y-13058269D02*
X10767039Y-13096365D01*
X10767039Y-13096365D02*
X10757515Y-13115412D01*
X10757515Y-13115412D02*
X10738467Y-13134460D01*
X10738467Y-13134460D02*
X10709896Y-13143984D01*
X10709896Y-13143984D02*
X10662277Y-13143984D01*
X10862277Y-13143984D02*
X10862277Y-13010650D01*
X10862277Y-13048746D02*
X10871801Y-13029698D01*
X10871801Y-13029698D02*
X10881324Y-13020174D01*
X10881324Y-13020174D02*
X10900372Y-13010650D01*
X10900372Y-13010650D02*
X10919420Y-13010650D01*
X10986086Y-13143984D02*
X10986086Y-13010650D01*
X10986086Y-12943984D02*
X10976563Y-12953508D01*
X10976563Y-12953508D02*
X10986086Y-12963031D01*
X10986086Y-12963031D02*
X10995610Y-12953508D01*
X10995610Y-12953508D02*
X10986086Y-12943984D01*
X10986086Y-12943984D02*
X10986086Y-12963031D01*
X11109896Y-13143984D02*
X11090848Y-13134460D01*
X11090848Y-13134460D02*
X11081324Y-13115412D01*
X11081324Y-13115412D02*
X11081324Y-12943984D01*
X11214658Y-13143984D02*
X11195610Y-13134460D01*
X11195610Y-13134460D02*
X11186086Y-13115412D01*
X11186086Y-13115412D02*
X11186086Y-12943984D01*
X11443229Y-13143984D02*
X11443229Y-12943984D01*
X11443229Y-12943984D02*
X11509896Y-13086841D01*
X11509896Y-13086841D02*
X11576562Y-12943984D01*
X11576562Y-12943984D02*
X11576562Y-13143984D01*
X11757515Y-13143984D02*
X11757515Y-13039222D01*
X11757515Y-13039222D02*
X11747991Y-13020174D01*
X11747991Y-13020174D02*
X11728943Y-13010650D01*
X11728943Y-13010650D02*
X11690848Y-13010650D01*
X11690848Y-13010650D02*
X11671801Y-13020174D01*
X11757515Y-13134460D02*
X11738467Y-13143984D01*
X11738467Y-13143984D02*
X11690848Y-13143984D01*
X11690848Y-13143984D02*
X11671801Y-13134460D01*
X11671801Y-13134460D02*
X11662277Y-13115412D01*
X11662277Y-13115412D02*
X11662277Y-13096365D01*
X11662277Y-13096365D02*
X11671801Y-13077317D01*
X11671801Y-13077317D02*
X11690848Y-13067793D01*
X11690848Y-13067793D02*
X11738467Y-13067793D01*
X11738467Y-13067793D02*
X11757515Y-13058269D01*
X11852753Y-13010650D02*
X11852753Y-13210650D01*
X11852753Y-13020174D02*
X11871801Y-13010650D01*
X11871801Y-13010650D02*
X11909896Y-13010650D01*
X11909896Y-13010650D02*
X11928943Y-13020174D01*
X11928943Y-13020174D02*
X11938467Y-13029698D01*
X11938467Y-13029698D02*
X11947991Y-13048746D01*
X11947991Y-13048746D02*
X11947991Y-13105888D01*
X11947991Y-13105888D02*
X11938467Y-13124936D01*
X11938467Y-13124936D02*
X11928943Y-13134460D01*
X11928943Y-13134460D02*
X11909896Y-13143984D01*
X11909896Y-13143984D02*
X11871801Y-13143984D01*
X11871801Y-13143984D02*
X11852753Y-13134460D01*
X12033705Y-13124936D02*
X12043229Y-13134460D01*
X12043229Y-13134460D02*
X12033705Y-13143984D01*
X12033705Y-13143984D02*
X12024182Y-13134460D01*
X12024182Y-13134460D02*
X12033705Y-13124936D01*
X12033705Y-13124936D02*
X12033705Y-13143984D01*
X12033705Y-13020174D02*
X12043229Y-13029698D01*
X12043229Y-13029698D02*
X12033705Y-13039222D01*
X12033705Y-13039222D02*
X12024182Y-13029698D01*
X12024182Y-13029698D02*
X12033705Y-13020174D01*
X12033705Y-13020174D02*
X12033705Y-13039222D01*
D10*
X10366500Y-13455000D02*
X10401500Y-13490000D01*
X10401500Y-13455000D02*
X10366500Y-13490000D01*
D11*
X10700372Y-13363984D02*
X10719420Y-13363984D01*
X10719420Y-13363984D02*
X10738467Y-13373508D01*
X10738467Y-13373508D02*
X10747991Y-13383031D01*
X10747991Y-13383031D02*
X10757515Y-13402079D01*
X10757515Y-13402079D02*
X10767039Y-13440174D01*
X10767039Y-13440174D02*
X10767039Y-13487793D01*
X10767039Y-13487793D02*
X10757515Y-13525888D01*
X10757515Y-13525888D02*
X10747991Y-13544936D01*
X10747991Y-13544936D02*
X10738467Y-13554460D01*
X10738467Y-13554460D02*
X10719420Y-13563984D01*
X10719420Y-13563984D02*
X10700372Y-13563984D01*
X10700372Y-13563984D02*
X10681324Y-13554460D01*
X10681324Y-13554460D02*
X10671801Y-13544936D01*
X10671801Y-13544936D02*
X10662277Y-13525888D01*
X10662277Y-13525888D02*
X10652753Y-13487793D01*
X10652753Y-13487793D02*
X10652753Y-13440174D01*
X10652753Y-13440174D02*
X10662277Y-13402079D01*
X10662277Y-13402079D02*
X10671801Y-13383031D01*
X10671801Y-13383031D02*
X10681324Y-13373508D01*
X10681324Y-13373508D02*
X10700372Y-13363984D01*
X10852753Y-13544936D02*
X10862277Y-13554460D01*
X10862277Y-13554460D02*
X10852753Y-13563984D01*
X10852753Y-13563984D02*
X10843229Y-13554460D01*
X10843229Y-13554460D02*
X10852753Y-13544936D01*
X10852753Y-13544936D02*
X10852753Y-13563984D01*
X10928944Y-13363984D02*
X11052753Y-13363984D01*
X11052753Y-13363984D02*
X10986086Y-13440174D01*
X10986086Y-13440174D02*
X11014658Y-13440174D01*
X11014658Y-13440174D02*
X11033705Y-13449698D01*
X11033705Y-13449698D02*
X11043229Y-13459222D01*
X11043229Y-13459222D02*
X11052753Y-13478269D01*
X11052753Y-13478269D02*
X11052753Y-13525888D01*
X11052753Y-13525888D02*
X11043229Y-13544936D01*
X11043229Y-13544936D02*
X11033705Y-13554460D01*
X11033705Y-13554460D02*
X11014658Y-13563984D01*
X11014658Y-13563984D02*
X10957515Y-13563984D01*
X10957515Y-13563984D02*
X10938467Y-13554460D01*
X10938467Y-13554460D02*
X10928944Y-13544936D01*
X11233705Y-13363984D02*
X11138467Y-13363984D01*
X11138467Y-13363984D02*
X11128944Y-13459222D01*
X11128944Y-13459222D02*
X11138467Y-13449698D01*
X11138467Y-13449698D02*
X11157515Y-13440174D01*
X11157515Y-13440174D02*
X11205134Y-13440174D01*
X11205134Y-13440174D02*
X11224182Y-13449698D01*
X11224182Y-13449698D02*
X11233705Y-13459222D01*
X11233705Y-13459222D02*
X11243229Y-13478269D01*
X11243229Y-13478269D02*
X11243229Y-13525888D01*
X11243229Y-13525888D02*
X11233705Y-13544936D01*
X11233705Y-13544936D02*
X11224182Y-13554460D01*
X11224182Y-13554460D02*
X11205134Y-13563984D01*
X11205134Y-13563984D02*
X11157515Y-13563984D01*
X11157515Y-13563984D02*
X11138467Y-13554460D01*
X11138467Y-13554460D02*
X11128944Y-13544936D01*
X11367039Y-13363984D02*
X11386086Y-13363984D01*
X11386086Y-13363984D02*
X11405134Y-13373508D01*
X11405134Y-13373508D02*
X11414658Y-13383031D01*
X11414658Y-13383031D02*
X11424182Y-13402079D01*
X11424182Y-13402079D02*
X11433705Y-13440174D01*
X11433705Y-13440174D02*
X11433705Y-13487793D01*
X11433705Y-13487793D02*
X11424182Y-13525888D01*
X11424182Y-13525888D02*
X11414658Y-13544936D01*
X11414658Y-13544936D02*
X11405134Y-13554460D01*
X11405134Y-13554460D02*
X11386086Y-13563984D01*
X11386086Y-13563984D02*
X11367039Y-13563984D01*
X11367039Y-13563984D02*
X11347991Y-13554460D01*
X11347991Y-13554460D02*
X11338467Y-13544936D01*
X11338467Y-13544936D02*
X11328943Y-13525888D01*
X11328943Y-13525888D02*
X11319420Y-13487793D01*
X11319420Y-13487793D02*
X11319420Y-13440174D01*
X11319420Y-13440174D02*
X11328943Y-13402079D01*
X11328943Y-13402079D02*
X11338467Y-13383031D01*
X11338467Y-13383031D02*
X11347991Y-13373508D01*
X11347991Y-13373508D02*
X11367039Y-13363984D01*
X11519420Y-13563984D02*
X11519420Y-13430650D01*
X11519420Y-13449698D02*
X11528943Y-13440174D01*
X11528943Y-13440174D02*
X11547991Y-13430650D01*
X11547991Y-13430650D02*
X11576563Y-13430650D01*
X11576563Y-13430650D02*
X11595610Y-13440174D01*
X11595610Y-13440174D02*
X11605134Y-13459222D01*
X11605134Y-13459222D02*
X11605134Y-13563984D01*
X11605134Y-13459222D02*
X11614658Y-13440174D01*
X11614658Y-13440174D02*
X11633705Y-13430650D01*
X11633705Y-13430650D02*
X11662277Y-13430650D01*
X11662277Y-13430650D02*
X11681324Y-13440174D01*
X11681324Y-13440174D02*
X11690848Y-13459222D01*
X11690848Y-13459222D02*
X11690848Y-13563984D01*
X11786086Y-13563984D02*
X11786086Y-13430650D01*
X11786086Y-13449698D02*
X11795610Y-13440174D01*
X11795610Y-13440174D02*
X11814658Y-13430650D01*
X11814658Y-13430650D02*
X11843229Y-13430650D01*
X11843229Y-13430650D02*
X11862277Y-13440174D01*
X11862277Y-13440174D02*
X11871801Y-13459222D01*
X11871801Y-13459222D02*
X11871801Y-13563984D01*
X11871801Y-13459222D02*
X11881324Y-13440174D01*
X11881324Y-13440174D02*
X11900372Y-13430650D01*
X11900372Y-13430650D02*
X11928943Y-13430650D01*
X11928943Y-13430650D02*
X11947991Y-13440174D01*
X11947991Y-13440174D02*
X11957515Y-13459222D01*
X11957515Y-13459222D02*
X11957515Y-13563984D01*
X12347991Y-13354460D02*
X12176563Y-13611603D01*
X12605134Y-13363984D02*
X12624182Y-13363984D01*
X12624182Y-13363984D02*
X12643229Y-13373508D01*
X12643229Y-13373508D02*
X12652753Y-13383031D01*
X12652753Y-13383031D02*
X12662277Y-13402079D01*
X12662277Y-13402079D02*
X12671801Y-13440174D01*
X12671801Y-13440174D02*
X12671801Y-13487793D01*
X12671801Y-13487793D02*
X12662277Y-13525888D01*
X12662277Y-13525888D02*
X12652753Y-13544936D01*
X12652753Y-13544936D02*
X12643229Y-13554460D01*
X12643229Y-13554460D02*
X12624182Y-13563984D01*
X12624182Y-13563984D02*
X12605134Y-13563984D01*
X12605134Y-13563984D02*
X12586086Y-13554460D01*
X12586086Y-13554460D02*
X12576563Y-13544936D01*
X12576563Y-13544936D02*
X12567039Y-13525888D01*
X12567039Y-13525888D02*
X12557515Y-13487793D01*
X12557515Y-13487793D02*
X12557515Y-13440174D01*
X12557515Y-13440174D02*
X12567039Y-13402079D01*
X12567039Y-13402079D02*
X12576563Y-13383031D01*
X12576563Y-13383031D02*
X12586086Y-13373508D01*
X12586086Y-13373508D02*
X12605134Y-13363984D01*
X12757515Y-13544936D02*
X12767039Y-13554460D01*
X12767039Y-13554460D02*
X12757515Y-13563984D01*
X12757515Y-13563984D02*
X12747991Y-13554460D01*
X12747991Y-13554460D02*
X12757515Y-13544936D01*
X12757515Y-13544936D02*
X12757515Y-13563984D01*
X12890848Y-13363984D02*
X12909896Y-13363984D01*
X12909896Y-13363984D02*
X12928944Y-13373508D01*
X12928944Y-13373508D02*
X12938467Y-13383031D01*
X12938467Y-13383031D02*
X12947991Y-13402079D01*
X12947991Y-13402079D02*
X12957515Y-13440174D01*
X12957515Y-13440174D02*
X12957515Y-13487793D01*
X12957515Y-13487793D02*
X12947991Y-13525888D01*
X12947991Y-13525888D02*
X12938467Y-13544936D01*
X12938467Y-13544936D02*
X12928944Y-13554460D01*
X12928944Y-13554460D02*
X12909896Y-13563984D01*
X12909896Y-13563984D02*
X12890848Y-13563984D01*
X12890848Y-13563984D02*
X12871801Y-13554460D01*
X12871801Y-13554460D02*
X12862277Y-13544936D01*
X12862277Y-13544936D02*
X12852753Y-13525888D01*
X12852753Y-13525888D02*
X12843229Y-13487793D01*
X12843229Y-13487793D02*
X12843229Y-13440174D01*
X12843229Y-13440174D02*
X12852753Y-13402079D01*
X12852753Y-13402079D02*
X12862277Y-13383031D01*
X12862277Y-13383031D02*
X12871801Y-13373508D01*
X12871801Y-13373508D02*
X12890848Y-13363984D01*
X13147991Y-13563984D02*
X13033706Y-13563984D01*
X13090848Y-13563984D02*
X13090848Y-13363984D01*
X13090848Y-13363984D02*
X13071801Y-13392555D01*
X13071801Y-13392555D02*
X13052753Y-13411603D01*
X13052753Y-13411603D02*
X13033706Y-13421127D01*
X13214658Y-13363984D02*
X13338467Y-13363984D01*
X13338467Y-13363984D02*
X13271801Y-13440174D01*
X13271801Y-13440174D02*
X13300372Y-13440174D01*
X13300372Y-13440174D02*
X13319420Y-13449698D01*
X13319420Y-13449698D02*
X13328944Y-13459222D01*
X13328944Y-13459222D02*
X13338467Y-13478269D01*
X13338467Y-13478269D02*
X13338467Y-13525888D01*
X13338467Y-13525888D02*
X13328944Y-13544936D01*
X13328944Y-13544936D02*
X13319420Y-13554460D01*
X13319420Y-13554460D02*
X13300372Y-13563984D01*
X13300372Y-13563984D02*
X13243229Y-13563984D01*
X13243229Y-13563984D02*
X13224182Y-13554460D01*
X13224182Y-13554460D02*
X13214658Y-13544936D01*
X13452753Y-13449698D02*
X13433706Y-13440174D01*
X13433706Y-13440174D02*
X13424182Y-13430650D01*
X13424182Y-13430650D02*
X13414658Y-13411603D01*
X13414658Y-13411603D02*
X13414658Y-13402079D01*
X13414658Y-13402079D02*
X13424182Y-13383031D01*
X13424182Y-13383031D02*
X13433706Y-13373508D01*
X13433706Y-13373508D02*
X13452753Y-13363984D01*
X13452753Y-13363984D02*
X13490848Y-13363984D01*
X13490848Y-13363984D02*
X13509896Y-13373508D01*
X13509896Y-13373508D02*
X13519420Y-13383031D01*
X13519420Y-13383031D02*
X13528944Y-13402079D01*
X13528944Y-13402079D02*
X13528944Y-13411603D01*
X13528944Y-13411603D02*
X13519420Y-13430650D01*
X13519420Y-13430650D02*
X13509896Y-13440174D01*
X13509896Y-13440174D02*
X13490848Y-13449698D01*
X13490848Y-13449698D02*
X13452753Y-13449698D01*
X13452753Y-13449698D02*
X13433706Y-13459222D01*
X13433706Y-13459222D02*
X13424182Y-13468746D01*
X13424182Y-13468746D02*
X13414658Y-13487793D01*
X13414658Y-13487793D02*
X13414658Y-13525888D01*
X13414658Y-13525888D02*
X13424182Y-13544936D01*
X13424182Y-13544936D02*
X13433706Y-13554460D01*
X13433706Y-13554460D02*
X13452753Y-13563984D01*
X13452753Y-13563984D02*
X13490848Y-13563984D01*
X13490848Y-13563984D02*
X13509896Y-13554460D01*
X13509896Y-13554460D02*
X13519420Y-13544936D01*
X13519420Y-13544936D02*
X13528944Y-13525888D01*
X13528944Y-13525888D02*
X13528944Y-13487793D01*
X13528944Y-13487793D02*
X13519420Y-13468746D01*
X13519420Y-13468746D02*
X13509896Y-13459222D01*
X13509896Y-13459222D02*
X13490848Y-13449698D01*
X13605134Y-13363984D02*
X13605134Y-13402079D01*
X13681325Y-13363984D02*
X13681325Y-13402079D01*
X13976563Y-13640174D02*
X13967039Y-13630650D01*
X13967039Y-13630650D02*
X13947991Y-13602079D01*
X13947991Y-13602079D02*
X13938468Y-13583031D01*
X13938468Y-13583031D02*
X13928944Y-13554460D01*
X13928944Y-13554460D02*
X13919420Y-13506841D01*
X13919420Y-13506841D02*
X13919420Y-13468746D01*
X13919420Y-13468746D02*
X13928944Y-13421127D01*
X13928944Y-13421127D02*
X13938468Y-13392555D01*
X13938468Y-13392555D02*
X13947991Y-13373508D01*
X13947991Y-13373508D02*
X13967039Y-13344936D01*
X13967039Y-13344936D02*
X13976563Y-13335412D01*
X14138468Y-13430650D02*
X14138468Y-13563984D01*
X14090848Y-13354460D02*
X14043229Y-13497317D01*
X14043229Y-13497317D02*
X14167039Y-13497317D01*
X14233706Y-13383031D02*
X14243229Y-13373508D01*
X14243229Y-13373508D02*
X14262277Y-13363984D01*
X14262277Y-13363984D02*
X14309896Y-13363984D01*
X14309896Y-13363984D02*
X14328944Y-13373508D01*
X14328944Y-13373508D02*
X14338468Y-13383031D01*
X14338468Y-13383031D02*
X14347991Y-13402079D01*
X14347991Y-13402079D02*
X14347991Y-13421127D01*
X14347991Y-13421127D02*
X14338468Y-13449698D01*
X14338468Y-13449698D02*
X14224182Y-13563984D01*
X14224182Y-13563984D02*
X14347991Y-13563984D01*
X14586087Y-13563984D02*
X14586087Y-13363984D01*
X14671801Y-13563984D02*
X14671801Y-13459222D01*
X14671801Y-13459222D02*
X14662277Y-13440174D01*
X14662277Y-13440174D02*
X14643230Y-13430650D01*
X14643230Y-13430650D02*
X14614658Y-13430650D01*
X14614658Y-13430650D02*
X14595610Y-13440174D01*
X14595610Y-13440174D02*
X14586087Y-13449698D01*
X14795610Y-13563984D02*
X14776563Y-13554460D01*
X14776563Y-13554460D02*
X14767039Y-13544936D01*
X14767039Y-13544936D02*
X14757515Y-13525888D01*
X14757515Y-13525888D02*
X14757515Y-13468746D01*
X14757515Y-13468746D02*
X14767039Y-13449698D01*
X14767039Y-13449698D02*
X14776563Y-13440174D01*
X14776563Y-13440174D02*
X14795610Y-13430650D01*
X14795610Y-13430650D02*
X14824182Y-13430650D01*
X14824182Y-13430650D02*
X14843230Y-13440174D01*
X14843230Y-13440174D02*
X14852753Y-13449698D01*
X14852753Y-13449698D02*
X14862277Y-13468746D01*
X14862277Y-13468746D02*
X14862277Y-13525888D01*
X14862277Y-13525888D02*
X14852753Y-13544936D01*
X14852753Y-13544936D02*
X14843230Y-13554460D01*
X14843230Y-13554460D02*
X14824182Y-13563984D01*
X14824182Y-13563984D02*
X14795610Y-13563984D01*
X14976563Y-13563984D02*
X14957515Y-13554460D01*
X14957515Y-13554460D02*
X14947991Y-13535412D01*
X14947991Y-13535412D02*
X14947991Y-13363984D01*
X15128944Y-13554460D02*
X15109896Y-13563984D01*
X15109896Y-13563984D02*
X15071801Y-13563984D01*
X15071801Y-13563984D02*
X15052753Y-13554460D01*
X15052753Y-13554460D02*
X15043230Y-13535412D01*
X15043230Y-13535412D02*
X15043230Y-13459222D01*
X15043230Y-13459222D02*
X15052753Y-13440174D01*
X15052753Y-13440174D02*
X15071801Y-13430650D01*
X15071801Y-13430650D02*
X15109896Y-13430650D01*
X15109896Y-13430650D02*
X15128944Y-13440174D01*
X15128944Y-13440174D02*
X15138468Y-13459222D01*
X15138468Y-13459222D02*
X15138468Y-13478269D01*
X15138468Y-13478269D02*
X15043230Y-13497317D01*
X15214658Y-13554460D02*
X15233706Y-13563984D01*
X15233706Y-13563984D02*
X15271801Y-13563984D01*
X15271801Y-13563984D02*
X15290849Y-13554460D01*
X15290849Y-13554460D02*
X15300372Y-13535412D01*
X15300372Y-13535412D02*
X15300372Y-13525888D01*
X15300372Y-13525888D02*
X15290849Y-13506841D01*
X15290849Y-13506841D02*
X15271801Y-13497317D01*
X15271801Y-13497317D02*
X15243230Y-13497317D01*
X15243230Y-13497317D02*
X15224182Y-13487793D01*
X15224182Y-13487793D02*
X15214658Y-13468746D01*
X15214658Y-13468746D02*
X15214658Y-13459222D01*
X15214658Y-13459222D02*
X15224182Y-13440174D01*
X15224182Y-13440174D02*
X15243230Y-13430650D01*
X15243230Y-13430650D02*
X15271801Y-13430650D01*
X15271801Y-13430650D02*
X15290849Y-13440174D01*
X15367039Y-13640174D02*
X15376563Y-13630650D01*
X15376563Y-13630650D02*
X15395611Y-13602079D01*
X15395611Y-13602079D02*
X15405134Y-13583031D01*
X15405134Y-13583031D02*
X15414658Y-13554460D01*
X15414658Y-13554460D02*
X15424182Y-13506841D01*
X15424182Y-13506841D02*
X15424182Y-13468746D01*
X15424182Y-13468746D02*
X15414658Y-13421127D01*
X15414658Y-13421127D02*
X15405134Y-13392555D01*
X15405134Y-13392555D02*
X15395611Y-13373508D01*
X15395611Y-13373508D02*
X15376563Y-13344936D01*
X15376563Y-13344936D02*
X15367039Y-13335412D01*
D10*
X10401500Y-13736500D02*
G75*
G03*
X10361500Y-13736500I-20000J0D01*
G01*
X10361500Y-13736500D02*
G75*
G03*
X10401500Y-13736500I20000J0D01*
G01*
D11*
X10700372Y-13627984D02*
X10719420Y-13627984D01*
X10719420Y-13627984D02*
X10738467Y-13637508D01*
X10738467Y-13637508D02*
X10747991Y-13647031D01*
X10747991Y-13647031D02*
X10757515Y-13666079D01*
X10757515Y-13666079D02*
X10767039Y-13704174D01*
X10767039Y-13704174D02*
X10767039Y-13751793D01*
X10767039Y-13751793D02*
X10757515Y-13789888D01*
X10757515Y-13789888D02*
X10747991Y-13808936D01*
X10747991Y-13808936D02*
X10738467Y-13818460D01*
X10738467Y-13818460D02*
X10719420Y-13827984D01*
X10719420Y-13827984D02*
X10700372Y-13827984D01*
X10700372Y-13827984D02*
X10681324Y-13818460D01*
X10681324Y-13818460D02*
X10671801Y-13808936D01*
X10671801Y-13808936D02*
X10662277Y-13789888D01*
X10662277Y-13789888D02*
X10652753Y-13751793D01*
X10652753Y-13751793D02*
X10652753Y-13704174D01*
X10652753Y-13704174D02*
X10662277Y-13666079D01*
X10662277Y-13666079D02*
X10671801Y-13647031D01*
X10671801Y-13647031D02*
X10681324Y-13637508D01*
X10681324Y-13637508D02*
X10700372Y-13627984D01*
X10852753Y-13808936D02*
X10862277Y-13818460D01*
X10862277Y-13818460D02*
X10852753Y-13827984D01*
X10852753Y-13827984D02*
X10843229Y-13818460D01*
X10843229Y-13818460D02*
X10852753Y-13808936D01*
X10852753Y-13808936D02*
X10852753Y-13827984D01*
X11033705Y-13694650D02*
X11033705Y-13827984D01*
X10986086Y-13618460D02*
X10938467Y-13761317D01*
X10938467Y-13761317D02*
X11062277Y-13761317D01*
X11176563Y-13627984D02*
X11195610Y-13627984D01*
X11195610Y-13627984D02*
X11214658Y-13637508D01*
X11214658Y-13637508D02*
X11224182Y-13647031D01*
X11224182Y-13647031D02*
X11233705Y-13666079D01*
X11233705Y-13666079D02*
X11243229Y-13704174D01*
X11243229Y-13704174D02*
X11243229Y-13751793D01*
X11243229Y-13751793D02*
X11233705Y-13789888D01*
X11233705Y-13789888D02*
X11224182Y-13808936D01*
X11224182Y-13808936D02*
X11214658Y-13818460D01*
X11214658Y-13818460D02*
X11195610Y-13827984D01*
X11195610Y-13827984D02*
X11176563Y-13827984D01*
X11176563Y-13827984D02*
X11157515Y-13818460D01*
X11157515Y-13818460D02*
X11147991Y-13808936D01*
X11147991Y-13808936D02*
X11138467Y-13789888D01*
X11138467Y-13789888D02*
X11128944Y-13751793D01*
X11128944Y-13751793D02*
X11128944Y-13704174D01*
X11128944Y-13704174D02*
X11138467Y-13666079D01*
X11138467Y-13666079D02*
X11147991Y-13647031D01*
X11147991Y-13647031D02*
X11157515Y-13637508D01*
X11157515Y-13637508D02*
X11176563Y-13627984D01*
X11367039Y-13627984D02*
X11386086Y-13627984D01*
X11386086Y-13627984D02*
X11405134Y-13637508D01*
X11405134Y-13637508D02*
X11414658Y-13647031D01*
X11414658Y-13647031D02*
X11424182Y-13666079D01*
X11424182Y-13666079D02*
X11433705Y-13704174D01*
X11433705Y-13704174D02*
X11433705Y-13751793D01*
X11433705Y-13751793D02*
X11424182Y-13789888D01*
X11424182Y-13789888D02*
X11414658Y-13808936D01*
X11414658Y-13808936D02*
X11405134Y-13818460D01*
X11405134Y-13818460D02*
X11386086Y-13827984D01*
X11386086Y-13827984D02*
X11367039Y-13827984D01*
X11367039Y-13827984D02*
X11347991Y-13818460D01*
X11347991Y-13818460D02*
X11338467Y-13808936D01*
X11338467Y-13808936D02*
X11328943Y-13789888D01*
X11328943Y-13789888D02*
X11319420Y-13751793D01*
X11319420Y-13751793D02*
X11319420Y-13704174D01*
X11319420Y-13704174D02*
X11328943Y-13666079D01*
X11328943Y-13666079D02*
X11338467Y-13647031D01*
X11338467Y-13647031D02*
X11347991Y-13637508D01*
X11347991Y-13637508D02*
X11367039Y-13627984D01*
X11519420Y-13827984D02*
X11519420Y-13694650D01*
X11519420Y-13713698D02*
X11528943Y-13704174D01*
X11528943Y-13704174D02*
X11547991Y-13694650D01*
X11547991Y-13694650D02*
X11576563Y-13694650D01*
X11576563Y-13694650D02*
X11595610Y-13704174D01*
X11595610Y-13704174D02*
X11605134Y-13723222D01*
X11605134Y-13723222D02*
X11605134Y-13827984D01*
X11605134Y-13723222D02*
X11614658Y-13704174D01*
X11614658Y-13704174D02*
X11633705Y-13694650D01*
X11633705Y-13694650D02*
X11662277Y-13694650D01*
X11662277Y-13694650D02*
X11681324Y-13704174D01*
X11681324Y-13704174D02*
X11690848Y-13723222D01*
X11690848Y-13723222D02*
X11690848Y-13827984D01*
X11786086Y-13827984D02*
X11786086Y-13694650D01*
X11786086Y-13713698D02*
X11795610Y-13704174D01*
X11795610Y-13704174D02*
X11814658Y-13694650D01*
X11814658Y-13694650D02*
X11843229Y-13694650D01*
X11843229Y-13694650D02*
X11862277Y-13704174D01*
X11862277Y-13704174D02*
X11871801Y-13723222D01*
X11871801Y-13723222D02*
X11871801Y-13827984D01*
X11871801Y-13723222D02*
X11881324Y-13704174D01*
X11881324Y-13704174D02*
X11900372Y-13694650D01*
X11900372Y-13694650D02*
X11928943Y-13694650D01*
X11928943Y-13694650D02*
X11947991Y-13704174D01*
X11947991Y-13704174D02*
X11957515Y-13723222D01*
X11957515Y-13723222D02*
X11957515Y-13827984D01*
X12347991Y-13618460D02*
X12176563Y-13875603D01*
X12605134Y-13627984D02*
X12624182Y-13627984D01*
X12624182Y-13627984D02*
X12643229Y-13637508D01*
X12643229Y-13637508D02*
X12652753Y-13647031D01*
X12652753Y-13647031D02*
X12662277Y-13666079D01*
X12662277Y-13666079D02*
X12671801Y-13704174D01*
X12671801Y-13704174D02*
X12671801Y-13751793D01*
X12671801Y-13751793D02*
X12662277Y-13789888D01*
X12662277Y-13789888D02*
X12652753Y-13808936D01*
X12652753Y-13808936D02*
X12643229Y-13818460D01*
X12643229Y-13818460D02*
X12624182Y-13827984D01*
X12624182Y-13827984D02*
X12605134Y-13827984D01*
X12605134Y-13827984D02*
X12586086Y-13818460D01*
X12586086Y-13818460D02*
X12576563Y-13808936D01*
X12576563Y-13808936D02*
X12567039Y-13789888D01*
X12567039Y-13789888D02*
X12557515Y-13751793D01*
X12557515Y-13751793D02*
X12557515Y-13704174D01*
X12557515Y-13704174D02*
X12567039Y-13666079D01*
X12567039Y-13666079D02*
X12576563Y-13647031D01*
X12576563Y-13647031D02*
X12586086Y-13637508D01*
X12586086Y-13637508D02*
X12605134Y-13627984D01*
X12757515Y-13808936D02*
X12767039Y-13818460D01*
X12767039Y-13818460D02*
X12757515Y-13827984D01*
X12757515Y-13827984D02*
X12747991Y-13818460D01*
X12747991Y-13818460D02*
X12757515Y-13808936D01*
X12757515Y-13808936D02*
X12757515Y-13827984D01*
X12890848Y-13627984D02*
X12909896Y-13627984D01*
X12909896Y-13627984D02*
X12928944Y-13637508D01*
X12928944Y-13637508D02*
X12938467Y-13647031D01*
X12938467Y-13647031D02*
X12947991Y-13666079D01*
X12947991Y-13666079D02*
X12957515Y-13704174D01*
X12957515Y-13704174D02*
X12957515Y-13751793D01*
X12957515Y-13751793D02*
X12947991Y-13789888D01*
X12947991Y-13789888D02*
X12938467Y-13808936D01*
X12938467Y-13808936D02*
X12928944Y-13818460D01*
X12928944Y-13818460D02*
X12909896Y-13827984D01*
X12909896Y-13827984D02*
X12890848Y-13827984D01*
X12890848Y-13827984D02*
X12871801Y-13818460D01*
X12871801Y-13818460D02*
X12862277Y-13808936D01*
X12862277Y-13808936D02*
X12852753Y-13789888D01*
X12852753Y-13789888D02*
X12843229Y-13751793D01*
X12843229Y-13751793D02*
X12843229Y-13704174D01*
X12843229Y-13704174D02*
X12852753Y-13666079D01*
X12852753Y-13666079D02*
X12862277Y-13647031D01*
X12862277Y-13647031D02*
X12871801Y-13637508D01*
X12871801Y-13637508D02*
X12890848Y-13627984D01*
X13147991Y-13827984D02*
X13033706Y-13827984D01*
X13090848Y-13827984D02*
X13090848Y-13627984D01*
X13090848Y-13627984D02*
X13071801Y-13656555D01*
X13071801Y-13656555D02*
X13052753Y-13675603D01*
X13052753Y-13675603D02*
X13033706Y-13685127D01*
X13328944Y-13627984D02*
X13233706Y-13627984D01*
X13233706Y-13627984D02*
X13224182Y-13723222D01*
X13224182Y-13723222D02*
X13233706Y-13713698D01*
X13233706Y-13713698D02*
X13252753Y-13704174D01*
X13252753Y-13704174D02*
X13300372Y-13704174D01*
X13300372Y-13704174D02*
X13319420Y-13713698D01*
X13319420Y-13713698D02*
X13328944Y-13723222D01*
X13328944Y-13723222D02*
X13338467Y-13742269D01*
X13338467Y-13742269D02*
X13338467Y-13789888D01*
X13338467Y-13789888D02*
X13328944Y-13808936D01*
X13328944Y-13808936D02*
X13319420Y-13818460D01*
X13319420Y-13818460D02*
X13300372Y-13827984D01*
X13300372Y-13827984D02*
X13252753Y-13827984D01*
X13252753Y-13827984D02*
X13233706Y-13818460D01*
X13233706Y-13818460D02*
X13224182Y-13808936D01*
X13405134Y-13627984D02*
X13538467Y-13627984D01*
X13538467Y-13627984D02*
X13452753Y-13827984D01*
X13605134Y-13627984D02*
X13605134Y-13666079D01*
X13681325Y-13627984D02*
X13681325Y-13666079D01*
X13976563Y-13904174D02*
X13967039Y-13894650D01*
X13967039Y-13894650D02*
X13947991Y-13866079D01*
X13947991Y-13866079D02*
X13938468Y-13847031D01*
X13938468Y-13847031D02*
X13928944Y-13818460D01*
X13928944Y-13818460D02*
X13919420Y-13770841D01*
X13919420Y-13770841D02*
X13919420Y-13732746D01*
X13919420Y-13732746D02*
X13928944Y-13685127D01*
X13928944Y-13685127D02*
X13938468Y-13656555D01*
X13938468Y-13656555D02*
X13947991Y-13637508D01*
X13947991Y-13637508D02*
X13967039Y-13608936D01*
X13967039Y-13608936D02*
X13976563Y-13599412D01*
X14062277Y-13827984D02*
X14100372Y-13827984D01*
X14100372Y-13827984D02*
X14119420Y-13818460D01*
X14119420Y-13818460D02*
X14128944Y-13808936D01*
X14128944Y-13808936D02*
X14147991Y-13780365D01*
X14147991Y-13780365D02*
X14157515Y-13742269D01*
X14157515Y-13742269D02*
X14157515Y-13666079D01*
X14157515Y-13666079D02*
X14147991Y-13647031D01*
X14147991Y-13647031D02*
X14138468Y-13637508D01*
X14138468Y-13637508D02*
X14119420Y-13627984D01*
X14119420Y-13627984D02*
X14081325Y-13627984D01*
X14081325Y-13627984D02*
X14062277Y-13637508D01*
X14062277Y-13637508D02*
X14052753Y-13647031D01*
X14052753Y-13647031D02*
X14043229Y-13666079D01*
X14043229Y-13666079D02*
X14043229Y-13713698D01*
X14043229Y-13713698D02*
X14052753Y-13732746D01*
X14052753Y-13732746D02*
X14062277Y-13742269D01*
X14062277Y-13742269D02*
X14081325Y-13751793D01*
X14081325Y-13751793D02*
X14119420Y-13751793D01*
X14119420Y-13751793D02*
X14138468Y-13742269D01*
X14138468Y-13742269D02*
X14147991Y-13732746D01*
X14147991Y-13732746D02*
X14157515Y-13713698D01*
X14347991Y-13827984D02*
X14233706Y-13827984D01*
X14290848Y-13827984D02*
X14290848Y-13627984D01*
X14290848Y-13627984D02*
X14271801Y-13656555D01*
X14271801Y-13656555D02*
X14252753Y-13675603D01*
X14252753Y-13675603D02*
X14233706Y-13685127D01*
X14586087Y-13827984D02*
X14586087Y-13627984D01*
X14671801Y-13827984D02*
X14671801Y-13723222D01*
X14671801Y-13723222D02*
X14662277Y-13704174D01*
X14662277Y-13704174D02*
X14643230Y-13694650D01*
X14643230Y-13694650D02*
X14614658Y-13694650D01*
X14614658Y-13694650D02*
X14595610Y-13704174D01*
X14595610Y-13704174D02*
X14586087Y-13713698D01*
X14795610Y-13827984D02*
X14776563Y-13818460D01*
X14776563Y-13818460D02*
X14767039Y-13808936D01*
X14767039Y-13808936D02*
X14757515Y-13789888D01*
X14757515Y-13789888D02*
X14757515Y-13732746D01*
X14757515Y-13732746D02*
X14767039Y-13713698D01*
X14767039Y-13713698D02*
X14776563Y-13704174D01*
X14776563Y-13704174D02*
X14795610Y-13694650D01*
X14795610Y-13694650D02*
X14824182Y-13694650D01*
X14824182Y-13694650D02*
X14843230Y-13704174D01*
X14843230Y-13704174D02*
X14852753Y-13713698D01*
X14852753Y-13713698D02*
X14862277Y-13732746D01*
X14862277Y-13732746D02*
X14862277Y-13789888D01*
X14862277Y-13789888D02*
X14852753Y-13808936D01*
X14852753Y-13808936D02*
X14843230Y-13818460D01*
X14843230Y-13818460D02*
X14824182Y-13827984D01*
X14824182Y-13827984D02*
X14795610Y-13827984D01*
X14976563Y-13827984D02*
X14957515Y-13818460D01*
X14957515Y-13818460D02*
X14947991Y-13799412D01*
X14947991Y-13799412D02*
X14947991Y-13627984D01*
X15128944Y-13818460D02*
X15109896Y-13827984D01*
X15109896Y-13827984D02*
X15071801Y-13827984D01*
X15071801Y-13827984D02*
X15052753Y-13818460D01*
X15052753Y-13818460D02*
X15043230Y-13799412D01*
X15043230Y-13799412D02*
X15043230Y-13723222D01*
X15043230Y-13723222D02*
X15052753Y-13704174D01*
X15052753Y-13704174D02*
X15071801Y-13694650D01*
X15071801Y-13694650D02*
X15109896Y-13694650D01*
X15109896Y-13694650D02*
X15128944Y-13704174D01*
X15128944Y-13704174D02*
X15138468Y-13723222D01*
X15138468Y-13723222D02*
X15138468Y-13742269D01*
X15138468Y-13742269D02*
X15043230Y-13761317D01*
X15214658Y-13818460D02*
X15233706Y-13827984D01*
X15233706Y-13827984D02*
X15271801Y-13827984D01*
X15271801Y-13827984D02*
X15290849Y-13818460D01*
X15290849Y-13818460D02*
X15300372Y-13799412D01*
X15300372Y-13799412D02*
X15300372Y-13789888D01*
X15300372Y-13789888D02*
X15290849Y-13770841D01*
X15290849Y-13770841D02*
X15271801Y-13761317D01*
X15271801Y-13761317D02*
X15243230Y-13761317D01*
X15243230Y-13761317D02*
X15224182Y-13751793D01*
X15224182Y-13751793D02*
X15214658Y-13732746D01*
X15214658Y-13732746D02*
X15214658Y-13723222D01*
X15214658Y-13723222D02*
X15224182Y-13704174D01*
X15224182Y-13704174D02*
X15243230Y-13694650D01*
X15243230Y-13694650D02*
X15271801Y-13694650D01*
X15271801Y-13694650D02*
X15290849Y-13704174D01*
X15367039Y-13904174D02*
X15376563Y-13894650D01*
X15376563Y-13894650D02*
X15395611Y-13866079D01*
X15395611Y-13866079D02*
X15405134Y-13847031D01*
X15405134Y-13847031D02*
X15414658Y-13818460D01*
X15414658Y-13818460D02*
X15424182Y-13770841D01*
X15424182Y-13770841D02*
X15424182Y-13732746D01*
X15424182Y-13732746D02*
X15414658Y-13685127D01*
X15414658Y-13685127D02*
X15405134Y-13656555D01*
X15405134Y-13656555D02*
X15395611Y-13637508D01*
X15395611Y-13637508D02*
X15376563Y-13608936D01*
X15376563Y-13608936D02*
X15367039Y-13599412D01*
D10*
X10374000Y-13973000D02*
X10374000Y-14028000D01*
X10346500Y-14000500D02*
X10401500Y-14000500D01*
D11*
X10700372Y-13891984D02*
X10719420Y-13891984D01*
X10719420Y-13891984D02*
X10738467Y-13901508D01*
X10738467Y-13901508D02*
X10747991Y-13911031D01*
X10747991Y-13911031D02*
X10757515Y-13930079D01*
X10757515Y-13930079D02*
X10767039Y-13968174D01*
X10767039Y-13968174D02*
X10767039Y-14015793D01*
X10767039Y-14015793D02*
X10757515Y-14053888D01*
X10757515Y-14053888D02*
X10747991Y-14072936D01*
X10747991Y-14072936D02*
X10738467Y-14082460D01*
X10738467Y-14082460D02*
X10719420Y-14091984D01*
X10719420Y-14091984D02*
X10700372Y-14091984D01*
X10700372Y-14091984D02*
X10681324Y-14082460D01*
X10681324Y-14082460D02*
X10671801Y-14072936D01*
X10671801Y-14072936D02*
X10662277Y-14053888D01*
X10662277Y-14053888D02*
X10652753Y-14015793D01*
X10652753Y-14015793D02*
X10652753Y-13968174D01*
X10652753Y-13968174D02*
X10662277Y-13930079D01*
X10662277Y-13930079D02*
X10671801Y-13911031D01*
X10671801Y-13911031D02*
X10681324Y-13901508D01*
X10681324Y-13901508D02*
X10700372Y-13891984D01*
X10852753Y-14072936D02*
X10862277Y-14082460D01*
X10862277Y-14082460D02*
X10852753Y-14091984D01*
X10852753Y-14091984D02*
X10843229Y-14082460D01*
X10843229Y-14082460D02*
X10852753Y-14072936D01*
X10852753Y-14072936D02*
X10852753Y-14091984D01*
X11043229Y-13891984D02*
X10947991Y-13891984D01*
X10947991Y-13891984D02*
X10938467Y-13987222D01*
X10938467Y-13987222D02*
X10947991Y-13977698D01*
X10947991Y-13977698D02*
X10967039Y-13968174D01*
X10967039Y-13968174D02*
X11014658Y-13968174D01*
X11014658Y-13968174D02*
X11033705Y-13977698D01*
X11033705Y-13977698D02*
X11043229Y-13987222D01*
X11043229Y-13987222D02*
X11052753Y-14006269D01*
X11052753Y-14006269D02*
X11052753Y-14053888D01*
X11052753Y-14053888D02*
X11043229Y-14072936D01*
X11043229Y-14072936D02*
X11033705Y-14082460D01*
X11033705Y-14082460D02*
X11014658Y-14091984D01*
X11014658Y-14091984D02*
X10967039Y-14091984D01*
X10967039Y-14091984D02*
X10947991Y-14082460D01*
X10947991Y-14082460D02*
X10938467Y-14072936D01*
X11233705Y-13891984D02*
X11138467Y-13891984D01*
X11138467Y-13891984D02*
X11128944Y-13987222D01*
X11128944Y-13987222D02*
X11138467Y-13977698D01*
X11138467Y-13977698D02*
X11157515Y-13968174D01*
X11157515Y-13968174D02*
X11205134Y-13968174D01*
X11205134Y-13968174D02*
X11224182Y-13977698D01*
X11224182Y-13977698D02*
X11233705Y-13987222D01*
X11233705Y-13987222D02*
X11243229Y-14006269D01*
X11243229Y-14006269D02*
X11243229Y-14053888D01*
X11243229Y-14053888D02*
X11233705Y-14072936D01*
X11233705Y-14072936D02*
X11224182Y-14082460D01*
X11224182Y-14082460D02*
X11205134Y-14091984D01*
X11205134Y-14091984D02*
X11157515Y-14091984D01*
X11157515Y-14091984D02*
X11138467Y-14082460D01*
X11138467Y-14082460D02*
X11128944Y-14072936D01*
X11367039Y-13891984D02*
X11386086Y-13891984D01*
X11386086Y-13891984D02*
X11405134Y-13901508D01*
X11405134Y-13901508D02*
X11414658Y-13911031D01*
X11414658Y-13911031D02*
X11424182Y-13930079D01*
X11424182Y-13930079D02*
X11433705Y-13968174D01*
X11433705Y-13968174D02*
X11433705Y-14015793D01*
X11433705Y-14015793D02*
X11424182Y-14053888D01*
X11424182Y-14053888D02*
X11414658Y-14072936D01*
X11414658Y-14072936D02*
X11405134Y-14082460D01*
X11405134Y-14082460D02*
X11386086Y-14091984D01*
X11386086Y-14091984D02*
X11367039Y-14091984D01*
X11367039Y-14091984D02*
X11347991Y-14082460D01*
X11347991Y-14082460D02*
X11338467Y-14072936D01*
X11338467Y-14072936D02*
X11328943Y-14053888D01*
X11328943Y-14053888D02*
X11319420Y-14015793D01*
X11319420Y-14015793D02*
X11319420Y-13968174D01*
X11319420Y-13968174D02*
X11328943Y-13930079D01*
X11328943Y-13930079D02*
X11338467Y-13911031D01*
X11338467Y-13911031D02*
X11347991Y-13901508D01*
X11347991Y-13901508D02*
X11367039Y-13891984D01*
X11519420Y-14091984D02*
X11519420Y-13958650D01*
X11519420Y-13977698D02*
X11528943Y-13968174D01*
X11528943Y-13968174D02*
X11547991Y-13958650D01*
X11547991Y-13958650D02*
X11576563Y-13958650D01*
X11576563Y-13958650D02*
X11595610Y-13968174D01*
X11595610Y-13968174D02*
X11605134Y-13987222D01*
X11605134Y-13987222D02*
X11605134Y-14091984D01*
X11605134Y-13987222D02*
X11614658Y-13968174D01*
X11614658Y-13968174D02*
X11633705Y-13958650D01*
X11633705Y-13958650D02*
X11662277Y-13958650D01*
X11662277Y-13958650D02*
X11681324Y-13968174D01*
X11681324Y-13968174D02*
X11690848Y-13987222D01*
X11690848Y-13987222D02*
X11690848Y-14091984D01*
X11786086Y-14091984D02*
X11786086Y-13958650D01*
X11786086Y-13977698D02*
X11795610Y-13968174D01*
X11795610Y-13968174D02*
X11814658Y-13958650D01*
X11814658Y-13958650D02*
X11843229Y-13958650D01*
X11843229Y-13958650D02*
X11862277Y-13968174D01*
X11862277Y-13968174D02*
X11871801Y-13987222D01*
X11871801Y-13987222D02*
X11871801Y-14091984D01*
X11871801Y-13987222D02*
X11881324Y-13968174D01*
X11881324Y-13968174D02*
X11900372Y-13958650D01*
X11900372Y-13958650D02*
X11928943Y-13958650D01*
X11928943Y-13958650D02*
X11947991Y-13968174D01*
X11947991Y-13968174D02*
X11957515Y-13987222D01*
X11957515Y-13987222D02*
X11957515Y-14091984D01*
X12347991Y-13882460D02*
X12176563Y-14139603D01*
X12605134Y-13891984D02*
X12624182Y-13891984D01*
X12624182Y-13891984D02*
X12643229Y-13901508D01*
X12643229Y-13901508D02*
X12652753Y-13911031D01*
X12652753Y-13911031D02*
X12662277Y-13930079D01*
X12662277Y-13930079D02*
X12671801Y-13968174D01*
X12671801Y-13968174D02*
X12671801Y-14015793D01*
X12671801Y-14015793D02*
X12662277Y-14053888D01*
X12662277Y-14053888D02*
X12652753Y-14072936D01*
X12652753Y-14072936D02*
X12643229Y-14082460D01*
X12643229Y-14082460D02*
X12624182Y-14091984D01*
X12624182Y-14091984D02*
X12605134Y-14091984D01*
X12605134Y-14091984D02*
X12586086Y-14082460D01*
X12586086Y-14082460D02*
X12576563Y-14072936D01*
X12576563Y-14072936D02*
X12567039Y-14053888D01*
X12567039Y-14053888D02*
X12557515Y-14015793D01*
X12557515Y-14015793D02*
X12557515Y-13968174D01*
X12557515Y-13968174D02*
X12567039Y-13930079D01*
X12567039Y-13930079D02*
X12576563Y-13911031D01*
X12576563Y-13911031D02*
X12586086Y-13901508D01*
X12586086Y-13901508D02*
X12605134Y-13891984D01*
X12757515Y-14072936D02*
X12767039Y-14082460D01*
X12767039Y-14082460D02*
X12757515Y-14091984D01*
X12757515Y-14091984D02*
X12747991Y-14082460D01*
X12747991Y-14082460D02*
X12757515Y-14072936D01*
X12757515Y-14072936D02*
X12757515Y-14091984D01*
X12890848Y-13891984D02*
X12909896Y-13891984D01*
X12909896Y-13891984D02*
X12928944Y-13901508D01*
X12928944Y-13901508D02*
X12938467Y-13911031D01*
X12938467Y-13911031D02*
X12947991Y-13930079D01*
X12947991Y-13930079D02*
X12957515Y-13968174D01*
X12957515Y-13968174D02*
X12957515Y-14015793D01*
X12957515Y-14015793D02*
X12947991Y-14053888D01*
X12947991Y-14053888D02*
X12938467Y-14072936D01*
X12938467Y-14072936D02*
X12928944Y-14082460D01*
X12928944Y-14082460D02*
X12909896Y-14091984D01*
X12909896Y-14091984D02*
X12890848Y-14091984D01*
X12890848Y-14091984D02*
X12871801Y-14082460D01*
X12871801Y-14082460D02*
X12862277Y-14072936D01*
X12862277Y-14072936D02*
X12852753Y-14053888D01*
X12852753Y-14053888D02*
X12843229Y-14015793D01*
X12843229Y-14015793D02*
X12843229Y-13968174D01*
X12843229Y-13968174D02*
X12852753Y-13930079D01*
X12852753Y-13930079D02*
X12862277Y-13911031D01*
X12862277Y-13911031D02*
X12871801Y-13901508D01*
X12871801Y-13901508D02*
X12890848Y-13891984D01*
X13033706Y-13911031D02*
X13043229Y-13901508D01*
X13043229Y-13901508D02*
X13062277Y-13891984D01*
X13062277Y-13891984D02*
X13109896Y-13891984D01*
X13109896Y-13891984D02*
X13128944Y-13901508D01*
X13128944Y-13901508D02*
X13138467Y-13911031D01*
X13138467Y-13911031D02*
X13147991Y-13930079D01*
X13147991Y-13930079D02*
X13147991Y-13949127D01*
X13147991Y-13949127D02*
X13138467Y-13977698D01*
X13138467Y-13977698D02*
X13024182Y-14091984D01*
X13024182Y-14091984D02*
X13147991Y-14091984D01*
X13338467Y-14091984D02*
X13224182Y-14091984D01*
X13281325Y-14091984D02*
X13281325Y-13891984D01*
X13281325Y-13891984D02*
X13262277Y-13920555D01*
X13262277Y-13920555D02*
X13243229Y-13939603D01*
X13243229Y-13939603D02*
X13224182Y-13949127D01*
X13405134Y-13891984D02*
X13538467Y-13891984D01*
X13538467Y-13891984D02*
X13452753Y-14091984D01*
X13605134Y-13891984D02*
X13605134Y-13930079D01*
X13681325Y-13891984D02*
X13681325Y-13930079D01*
X13976563Y-14168174D02*
X13967039Y-14158650D01*
X13967039Y-14158650D02*
X13947991Y-14130079D01*
X13947991Y-14130079D02*
X13938468Y-14111031D01*
X13938468Y-14111031D02*
X13928944Y-14082460D01*
X13928944Y-14082460D02*
X13919420Y-14034841D01*
X13919420Y-14034841D02*
X13919420Y-13996746D01*
X13919420Y-13996746D02*
X13928944Y-13949127D01*
X13928944Y-13949127D02*
X13938468Y-13920555D01*
X13938468Y-13920555D02*
X13947991Y-13901508D01*
X13947991Y-13901508D02*
X13967039Y-13872936D01*
X13967039Y-13872936D02*
X13976563Y-13863412D01*
X14062277Y-14091984D02*
X14100372Y-14091984D01*
X14100372Y-14091984D02*
X14119420Y-14082460D01*
X14119420Y-14082460D02*
X14128944Y-14072936D01*
X14128944Y-14072936D02*
X14147991Y-14044365D01*
X14147991Y-14044365D02*
X14157515Y-14006269D01*
X14157515Y-14006269D02*
X14157515Y-13930079D01*
X14157515Y-13930079D02*
X14147991Y-13911031D01*
X14147991Y-13911031D02*
X14138468Y-13901508D01*
X14138468Y-13901508D02*
X14119420Y-13891984D01*
X14119420Y-13891984D02*
X14081325Y-13891984D01*
X14081325Y-13891984D02*
X14062277Y-13901508D01*
X14062277Y-13901508D02*
X14052753Y-13911031D01*
X14052753Y-13911031D02*
X14043229Y-13930079D01*
X14043229Y-13930079D02*
X14043229Y-13977698D01*
X14043229Y-13977698D02*
X14052753Y-13996746D01*
X14052753Y-13996746D02*
X14062277Y-14006269D01*
X14062277Y-14006269D02*
X14081325Y-14015793D01*
X14081325Y-14015793D02*
X14119420Y-14015793D01*
X14119420Y-14015793D02*
X14138468Y-14006269D01*
X14138468Y-14006269D02*
X14147991Y-13996746D01*
X14147991Y-13996746D02*
X14157515Y-13977698D01*
X14395610Y-14091984D02*
X14395610Y-13891984D01*
X14481325Y-14091984D02*
X14481325Y-13987222D01*
X14481325Y-13987222D02*
X14471801Y-13968174D01*
X14471801Y-13968174D02*
X14452753Y-13958650D01*
X14452753Y-13958650D02*
X14424182Y-13958650D01*
X14424182Y-13958650D02*
X14405134Y-13968174D01*
X14405134Y-13968174D02*
X14395610Y-13977698D01*
X14605134Y-14091984D02*
X14586087Y-14082460D01*
X14586087Y-14082460D02*
X14576563Y-14072936D01*
X14576563Y-14072936D02*
X14567039Y-14053888D01*
X14567039Y-14053888D02*
X14567039Y-13996746D01*
X14567039Y-13996746D02*
X14576563Y-13977698D01*
X14576563Y-13977698D02*
X14586087Y-13968174D01*
X14586087Y-13968174D02*
X14605134Y-13958650D01*
X14605134Y-13958650D02*
X14633706Y-13958650D01*
X14633706Y-13958650D02*
X14652753Y-13968174D01*
X14652753Y-13968174D02*
X14662277Y-13977698D01*
X14662277Y-13977698D02*
X14671801Y-13996746D01*
X14671801Y-13996746D02*
X14671801Y-14053888D01*
X14671801Y-14053888D02*
X14662277Y-14072936D01*
X14662277Y-14072936D02*
X14652753Y-14082460D01*
X14652753Y-14082460D02*
X14633706Y-14091984D01*
X14633706Y-14091984D02*
X14605134Y-14091984D01*
X14786087Y-14091984D02*
X14767039Y-14082460D01*
X14767039Y-14082460D02*
X14757515Y-14063412D01*
X14757515Y-14063412D02*
X14757515Y-13891984D01*
X14938468Y-14082460D02*
X14919420Y-14091984D01*
X14919420Y-14091984D02*
X14881325Y-14091984D01*
X14881325Y-14091984D02*
X14862277Y-14082460D01*
X14862277Y-14082460D02*
X14852753Y-14063412D01*
X14852753Y-14063412D02*
X14852753Y-13987222D01*
X14852753Y-13987222D02*
X14862277Y-13968174D01*
X14862277Y-13968174D02*
X14881325Y-13958650D01*
X14881325Y-13958650D02*
X14919420Y-13958650D01*
X14919420Y-13958650D02*
X14938468Y-13968174D01*
X14938468Y-13968174D02*
X14947991Y-13987222D01*
X14947991Y-13987222D02*
X14947991Y-14006269D01*
X14947991Y-14006269D02*
X14852753Y-14025317D01*
X15024182Y-14082460D02*
X15043230Y-14091984D01*
X15043230Y-14091984D02*
X15081325Y-14091984D01*
X15081325Y-14091984D02*
X15100372Y-14082460D01*
X15100372Y-14082460D02*
X15109896Y-14063412D01*
X15109896Y-14063412D02*
X15109896Y-14053888D01*
X15109896Y-14053888D02*
X15100372Y-14034841D01*
X15100372Y-14034841D02*
X15081325Y-14025317D01*
X15081325Y-14025317D02*
X15052753Y-14025317D01*
X15052753Y-14025317D02*
X15033706Y-14015793D01*
X15033706Y-14015793D02*
X15024182Y-13996746D01*
X15024182Y-13996746D02*
X15024182Y-13987222D01*
X15024182Y-13987222D02*
X15033706Y-13968174D01*
X15033706Y-13968174D02*
X15052753Y-13958650D01*
X15052753Y-13958650D02*
X15081325Y-13958650D01*
X15081325Y-13958650D02*
X15100372Y-13968174D01*
X15176563Y-14168174D02*
X15186087Y-14158650D01*
X15186087Y-14158650D02*
X15205134Y-14130079D01*
X15205134Y-14130079D02*
X15214658Y-14111031D01*
X15214658Y-14111031D02*
X15224182Y-14082460D01*
X15224182Y-14082460D02*
X15233706Y-14034841D01*
X15233706Y-14034841D02*
X15233706Y-13996746D01*
X15233706Y-13996746D02*
X15224182Y-13949127D01*
X15224182Y-13949127D02*
X15214658Y-13920555D01*
X15214658Y-13920555D02*
X15205134Y-13901508D01*
X15205134Y-13901508D02*
X15186087Y-13872936D01*
X15186087Y-13872936D02*
X15176563Y-13863412D01*
D10*
X10392713Y-14285713D02*
X10392713Y-14243287D01*
X10350287Y-14243287D01*
X10350287Y-14285713D01*
X10392713Y-14285713D01*
D11*
X10700372Y-14155984D02*
X10719420Y-14155984D01*
X10719420Y-14155984D02*
X10738467Y-14165508D01*
X10738467Y-14165508D02*
X10747991Y-14175031D01*
X10747991Y-14175031D02*
X10757515Y-14194079D01*
X10757515Y-14194079D02*
X10767039Y-14232174D01*
X10767039Y-14232174D02*
X10767039Y-14279793D01*
X10767039Y-14279793D02*
X10757515Y-14317888D01*
X10757515Y-14317888D02*
X10747991Y-14336936D01*
X10747991Y-14336936D02*
X10738467Y-14346460D01*
X10738467Y-14346460D02*
X10719420Y-14355984D01*
X10719420Y-14355984D02*
X10700372Y-14355984D01*
X10700372Y-14355984D02*
X10681324Y-14346460D01*
X10681324Y-14346460D02*
X10671801Y-14336936D01*
X10671801Y-14336936D02*
X10662277Y-14317888D01*
X10662277Y-14317888D02*
X10652753Y-14279793D01*
X10652753Y-14279793D02*
X10652753Y-14232174D01*
X10652753Y-14232174D02*
X10662277Y-14194079D01*
X10662277Y-14194079D02*
X10671801Y-14175031D01*
X10671801Y-14175031D02*
X10681324Y-14165508D01*
X10681324Y-14165508D02*
X10700372Y-14155984D01*
X10852753Y-14336936D02*
X10862277Y-14346460D01*
X10862277Y-14346460D02*
X10852753Y-14355984D01*
X10852753Y-14355984D02*
X10843229Y-14346460D01*
X10843229Y-14346460D02*
X10852753Y-14336936D01*
X10852753Y-14336936D02*
X10852753Y-14355984D01*
X11033705Y-14155984D02*
X10995610Y-14155984D01*
X10995610Y-14155984D02*
X10976563Y-14165508D01*
X10976563Y-14165508D02*
X10967039Y-14175031D01*
X10967039Y-14175031D02*
X10947991Y-14203603D01*
X10947991Y-14203603D02*
X10938467Y-14241698D01*
X10938467Y-14241698D02*
X10938467Y-14317888D01*
X10938467Y-14317888D02*
X10947991Y-14336936D01*
X10947991Y-14336936D02*
X10957515Y-14346460D01*
X10957515Y-14346460D02*
X10976563Y-14355984D01*
X10976563Y-14355984D02*
X11014658Y-14355984D01*
X11014658Y-14355984D02*
X11033705Y-14346460D01*
X11033705Y-14346460D02*
X11043229Y-14336936D01*
X11043229Y-14336936D02*
X11052753Y-14317888D01*
X11052753Y-14317888D02*
X11052753Y-14270269D01*
X11052753Y-14270269D02*
X11043229Y-14251222D01*
X11043229Y-14251222D02*
X11033705Y-14241698D01*
X11033705Y-14241698D02*
X11014658Y-14232174D01*
X11014658Y-14232174D02*
X10976563Y-14232174D01*
X10976563Y-14232174D02*
X10957515Y-14241698D01*
X10957515Y-14241698D02*
X10947991Y-14251222D01*
X10947991Y-14251222D02*
X10938467Y-14270269D01*
X11176563Y-14155984D02*
X11195610Y-14155984D01*
X11195610Y-14155984D02*
X11214658Y-14165508D01*
X11214658Y-14165508D02*
X11224182Y-14175031D01*
X11224182Y-14175031D02*
X11233705Y-14194079D01*
X11233705Y-14194079D02*
X11243229Y-14232174D01*
X11243229Y-14232174D02*
X11243229Y-14279793D01*
X11243229Y-14279793D02*
X11233705Y-14317888D01*
X11233705Y-14317888D02*
X11224182Y-14336936D01*
X11224182Y-14336936D02*
X11214658Y-14346460D01*
X11214658Y-14346460D02*
X11195610Y-14355984D01*
X11195610Y-14355984D02*
X11176563Y-14355984D01*
X11176563Y-14355984D02*
X11157515Y-14346460D01*
X11157515Y-14346460D02*
X11147991Y-14336936D01*
X11147991Y-14336936D02*
X11138467Y-14317888D01*
X11138467Y-14317888D02*
X11128944Y-14279793D01*
X11128944Y-14279793D02*
X11128944Y-14232174D01*
X11128944Y-14232174D02*
X11138467Y-14194079D01*
X11138467Y-14194079D02*
X11147991Y-14175031D01*
X11147991Y-14175031D02*
X11157515Y-14165508D01*
X11157515Y-14165508D02*
X11176563Y-14155984D01*
X11367039Y-14155984D02*
X11386086Y-14155984D01*
X11386086Y-14155984D02*
X11405134Y-14165508D01*
X11405134Y-14165508D02*
X11414658Y-14175031D01*
X11414658Y-14175031D02*
X11424182Y-14194079D01*
X11424182Y-14194079D02*
X11433705Y-14232174D01*
X11433705Y-14232174D02*
X11433705Y-14279793D01*
X11433705Y-14279793D02*
X11424182Y-14317888D01*
X11424182Y-14317888D02*
X11414658Y-14336936D01*
X11414658Y-14336936D02*
X11405134Y-14346460D01*
X11405134Y-14346460D02*
X11386086Y-14355984D01*
X11386086Y-14355984D02*
X11367039Y-14355984D01*
X11367039Y-14355984D02*
X11347991Y-14346460D01*
X11347991Y-14346460D02*
X11338467Y-14336936D01*
X11338467Y-14336936D02*
X11328943Y-14317888D01*
X11328943Y-14317888D02*
X11319420Y-14279793D01*
X11319420Y-14279793D02*
X11319420Y-14232174D01*
X11319420Y-14232174D02*
X11328943Y-14194079D01*
X11328943Y-14194079D02*
X11338467Y-14175031D01*
X11338467Y-14175031D02*
X11347991Y-14165508D01*
X11347991Y-14165508D02*
X11367039Y-14155984D01*
X11519420Y-14355984D02*
X11519420Y-14222650D01*
X11519420Y-14241698D02*
X11528943Y-14232174D01*
X11528943Y-14232174D02*
X11547991Y-14222650D01*
X11547991Y-14222650D02*
X11576563Y-14222650D01*
X11576563Y-14222650D02*
X11595610Y-14232174D01*
X11595610Y-14232174D02*
X11605134Y-14251222D01*
X11605134Y-14251222D02*
X11605134Y-14355984D01*
X11605134Y-14251222D02*
X11614658Y-14232174D01*
X11614658Y-14232174D02*
X11633705Y-14222650D01*
X11633705Y-14222650D02*
X11662277Y-14222650D01*
X11662277Y-14222650D02*
X11681324Y-14232174D01*
X11681324Y-14232174D02*
X11690848Y-14251222D01*
X11690848Y-14251222D02*
X11690848Y-14355984D01*
X11786086Y-14355984D02*
X11786086Y-14222650D01*
X11786086Y-14241698D02*
X11795610Y-14232174D01*
X11795610Y-14232174D02*
X11814658Y-14222650D01*
X11814658Y-14222650D02*
X11843229Y-14222650D01*
X11843229Y-14222650D02*
X11862277Y-14232174D01*
X11862277Y-14232174D02*
X11871801Y-14251222D01*
X11871801Y-14251222D02*
X11871801Y-14355984D01*
X11871801Y-14251222D02*
X11881324Y-14232174D01*
X11881324Y-14232174D02*
X11900372Y-14222650D01*
X11900372Y-14222650D02*
X11928943Y-14222650D01*
X11928943Y-14222650D02*
X11947991Y-14232174D01*
X11947991Y-14232174D02*
X11957515Y-14251222D01*
X11957515Y-14251222D02*
X11957515Y-14355984D01*
X12347991Y-14146460D02*
X12176563Y-14403603D01*
X12605134Y-14155984D02*
X12624182Y-14155984D01*
X12624182Y-14155984D02*
X12643229Y-14165508D01*
X12643229Y-14165508D02*
X12652753Y-14175031D01*
X12652753Y-14175031D02*
X12662277Y-14194079D01*
X12662277Y-14194079D02*
X12671801Y-14232174D01*
X12671801Y-14232174D02*
X12671801Y-14279793D01*
X12671801Y-14279793D02*
X12662277Y-14317888D01*
X12662277Y-14317888D02*
X12652753Y-14336936D01*
X12652753Y-14336936D02*
X12643229Y-14346460D01*
X12643229Y-14346460D02*
X12624182Y-14355984D01*
X12624182Y-14355984D02*
X12605134Y-14355984D01*
X12605134Y-14355984D02*
X12586086Y-14346460D01*
X12586086Y-14346460D02*
X12576563Y-14336936D01*
X12576563Y-14336936D02*
X12567039Y-14317888D01*
X12567039Y-14317888D02*
X12557515Y-14279793D01*
X12557515Y-14279793D02*
X12557515Y-14232174D01*
X12557515Y-14232174D02*
X12567039Y-14194079D01*
X12567039Y-14194079D02*
X12576563Y-14175031D01*
X12576563Y-14175031D02*
X12586086Y-14165508D01*
X12586086Y-14165508D02*
X12605134Y-14155984D01*
X12757515Y-14336936D02*
X12767039Y-14346460D01*
X12767039Y-14346460D02*
X12757515Y-14355984D01*
X12757515Y-14355984D02*
X12747991Y-14346460D01*
X12747991Y-14346460D02*
X12757515Y-14336936D01*
X12757515Y-14336936D02*
X12757515Y-14355984D01*
X12890848Y-14155984D02*
X12909896Y-14155984D01*
X12909896Y-14155984D02*
X12928944Y-14165508D01*
X12928944Y-14165508D02*
X12938467Y-14175031D01*
X12938467Y-14175031D02*
X12947991Y-14194079D01*
X12947991Y-14194079D02*
X12957515Y-14232174D01*
X12957515Y-14232174D02*
X12957515Y-14279793D01*
X12957515Y-14279793D02*
X12947991Y-14317888D01*
X12947991Y-14317888D02*
X12938467Y-14336936D01*
X12938467Y-14336936D02*
X12928944Y-14346460D01*
X12928944Y-14346460D02*
X12909896Y-14355984D01*
X12909896Y-14355984D02*
X12890848Y-14355984D01*
X12890848Y-14355984D02*
X12871801Y-14346460D01*
X12871801Y-14346460D02*
X12862277Y-14336936D01*
X12862277Y-14336936D02*
X12852753Y-14317888D01*
X12852753Y-14317888D02*
X12843229Y-14279793D01*
X12843229Y-14279793D02*
X12843229Y-14232174D01*
X12843229Y-14232174D02*
X12852753Y-14194079D01*
X12852753Y-14194079D02*
X12862277Y-14175031D01*
X12862277Y-14175031D02*
X12871801Y-14165508D01*
X12871801Y-14165508D02*
X12890848Y-14155984D01*
X13033706Y-14175031D02*
X13043229Y-14165508D01*
X13043229Y-14165508D02*
X13062277Y-14155984D01*
X13062277Y-14155984D02*
X13109896Y-14155984D01*
X13109896Y-14155984D02*
X13128944Y-14165508D01*
X13128944Y-14165508D02*
X13138467Y-14175031D01*
X13138467Y-14175031D02*
X13147991Y-14194079D01*
X13147991Y-14194079D02*
X13147991Y-14213127D01*
X13147991Y-14213127D02*
X13138467Y-14241698D01*
X13138467Y-14241698D02*
X13024182Y-14355984D01*
X13024182Y-14355984D02*
X13147991Y-14355984D01*
X13214658Y-14155984D02*
X13338467Y-14155984D01*
X13338467Y-14155984D02*
X13271801Y-14232174D01*
X13271801Y-14232174D02*
X13300372Y-14232174D01*
X13300372Y-14232174D02*
X13319420Y-14241698D01*
X13319420Y-14241698D02*
X13328944Y-14251222D01*
X13328944Y-14251222D02*
X13338467Y-14270269D01*
X13338467Y-14270269D02*
X13338467Y-14317888D01*
X13338467Y-14317888D02*
X13328944Y-14336936D01*
X13328944Y-14336936D02*
X13319420Y-14346460D01*
X13319420Y-14346460D02*
X13300372Y-14355984D01*
X13300372Y-14355984D02*
X13243229Y-14355984D01*
X13243229Y-14355984D02*
X13224182Y-14346460D01*
X13224182Y-14346460D02*
X13214658Y-14336936D01*
X13509896Y-14155984D02*
X13471801Y-14155984D01*
X13471801Y-14155984D02*
X13452753Y-14165508D01*
X13452753Y-14165508D02*
X13443229Y-14175031D01*
X13443229Y-14175031D02*
X13424182Y-14203603D01*
X13424182Y-14203603D02*
X13414658Y-14241698D01*
X13414658Y-14241698D02*
X13414658Y-14317888D01*
X13414658Y-14317888D02*
X13424182Y-14336936D01*
X13424182Y-14336936D02*
X13433706Y-14346460D01*
X13433706Y-14346460D02*
X13452753Y-14355984D01*
X13452753Y-14355984D02*
X13490848Y-14355984D01*
X13490848Y-14355984D02*
X13509896Y-14346460D01*
X13509896Y-14346460D02*
X13519420Y-14336936D01*
X13519420Y-14336936D02*
X13528944Y-14317888D01*
X13528944Y-14317888D02*
X13528944Y-14270269D01*
X13528944Y-14270269D02*
X13519420Y-14251222D01*
X13519420Y-14251222D02*
X13509896Y-14241698D01*
X13509896Y-14241698D02*
X13490848Y-14232174D01*
X13490848Y-14232174D02*
X13452753Y-14232174D01*
X13452753Y-14232174D02*
X13433706Y-14241698D01*
X13433706Y-14241698D02*
X13424182Y-14251222D01*
X13424182Y-14251222D02*
X13414658Y-14270269D01*
X13605134Y-14155984D02*
X13605134Y-14194079D01*
X13681325Y-14155984D02*
X13681325Y-14194079D01*
X13976563Y-14432174D02*
X13967039Y-14422650D01*
X13967039Y-14422650D02*
X13947991Y-14394079D01*
X13947991Y-14394079D02*
X13938468Y-14375031D01*
X13938468Y-14375031D02*
X13928944Y-14346460D01*
X13928944Y-14346460D02*
X13919420Y-14298841D01*
X13919420Y-14298841D02*
X13919420Y-14260746D01*
X13919420Y-14260746D02*
X13928944Y-14213127D01*
X13928944Y-14213127D02*
X13938468Y-14184555D01*
X13938468Y-14184555D02*
X13947991Y-14165508D01*
X13947991Y-14165508D02*
X13967039Y-14136936D01*
X13967039Y-14136936D02*
X13976563Y-14127412D01*
X14090848Y-14155984D02*
X14109896Y-14155984D01*
X14109896Y-14155984D02*
X14128944Y-14165508D01*
X14128944Y-14165508D02*
X14138468Y-14175031D01*
X14138468Y-14175031D02*
X14147991Y-14194079D01*
X14147991Y-14194079D02*
X14157515Y-14232174D01*
X14157515Y-14232174D02*
X14157515Y-14279793D01*
X14157515Y-14279793D02*
X14147991Y-14317888D01*
X14147991Y-14317888D02*
X14138468Y-14336936D01*
X14138468Y-14336936D02*
X14128944Y-14346460D01*
X14128944Y-14346460D02*
X14109896Y-14355984D01*
X14109896Y-14355984D02*
X14090848Y-14355984D01*
X14090848Y-14355984D02*
X14071801Y-14346460D01*
X14071801Y-14346460D02*
X14062277Y-14336936D01*
X14062277Y-14336936D02*
X14052753Y-14317888D01*
X14052753Y-14317888D02*
X14043229Y-14279793D01*
X14043229Y-14279793D02*
X14043229Y-14232174D01*
X14043229Y-14232174D02*
X14052753Y-14194079D01*
X14052753Y-14194079D02*
X14062277Y-14175031D01*
X14062277Y-14175031D02*
X14071801Y-14165508D01*
X14071801Y-14165508D02*
X14090848Y-14155984D01*
X14395610Y-14355984D02*
X14395610Y-14155984D01*
X14481325Y-14355984D02*
X14481325Y-14251222D01*
X14481325Y-14251222D02*
X14471801Y-14232174D01*
X14471801Y-14232174D02*
X14452753Y-14222650D01*
X14452753Y-14222650D02*
X14424182Y-14222650D01*
X14424182Y-14222650D02*
X14405134Y-14232174D01*
X14405134Y-14232174D02*
X14395610Y-14241698D01*
X14605134Y-14355984D02*
X14586087Y-14346460D01*
X14586087Y-14346460D02*
X14576563Y-14336936D01*
X14576563Y-14336936D02*
X14567039Y-14317888D01*
X14567039Y-14317888D02*
X14567039Y-14260746D01*
X14567039Y-14260746D02*
X14576563Y-14241698D01*
X14576563Y-14241698D02*
X14586087Y-14232174D01*
X14586087Y-14232174D02*
X14605134Y-14222650D01*
X14605134Y-14222650D02*
X14633706Y-14222650D01*
X14633706Y-14222650D02*
X14652753Y-14232174D01*
X14652753Y-14232174D02*
X14662277Y-14241698D01*
X14662277Y-14241698D02*
X14671801Y-14260746D01*
X14671801Y-14260746D02*
X14671801Y-14317888D01*
X14671801Y-14317888D02*
X14662277Y-14336936D01*
X14662277Y-14336936D02*
X14652753Y-14346460D01*
X14652753Y-14346460D02*
X14633706Y-14355984D01*
X14633706Y-14355984D02*
X14605134Y-14355984D01*
X14786087Y-14355984D02*
X14767039Y-14346460D01*
X14767039Y-14346460D02*
X14757515Y-14327412D01*
X14757515Y-14327412D02*
X14757515Y-14155984D01*
X14938468Y-14346460D02*
X14919420Y-14355984D01*
X14919420Y-14355984D02*
X14881325Y-14355984D01*
X14881325Y-14355984D02*
X14862277Y-14346460D01*
X14862277Y-14346460D02*
X14852753Y-14327412D01*
X14852753Y-14327412D02*
X14852753Y-14251222D01*
X14852753Y-14251222D02*
X14862277Y-14232174D01*
X14862277Y-14232174D02*
X14881325Y-14222650D01*
X14881325Y-14222650D02*
X14919420Y-14222650D01*
X14919420Y-14222650D02*
X14938468Y-14232174D01*
X14938468Y-14232174D02*
X14947991Y-14251222D01*
X14947991Y-14251222D02*
X14947991Y-14270269D01*
X14947991Y-14270269D02*
X14852753Y-14289317D01*
X15024182Y-14346460D02*
X15043230Y-14355984D01*
X15043230Y-14355984D02*
X15081325Y-14355984D01*
X15081325Y-14355984D02*
X15100372Y-14346460D01*
X15100372Y-14346460D02*
X15109896Y-14327412D01*
X15109896Y-14327412D02*
X15109896Y-14317888D01*
X15109896Y-14317888D02*
X15100372Y-14298841D01*
X15100372Y-14298841D02*
X15081325Y-14289317D01*
X15081325Y-14289317D02*
X15052753Y-14289317D01*
X15052753Y-14289317D02*
X15033706Y-14279793D01*
X15033706Y-14279793D02*
X15024182Y-14260746D01*
X15024182Y-14260746D02*
X15024182Y-14251222D01*
X15024182Y-14251222D02*
X15033706Y-14232174D01*
X15033706Y-14232174D02*
X15052753Y-14222650D01*
X15052753Y-14222650D02*
X15081325Y-14222650D01*
X15081325Y-14222650D02*
X15100372Y-14232174D01*
X15347992Y-14279793D02*
X15500373Y-14279793D01*
X15424182Y-14355984D02*
X15424182Y-14203603D01*
X15833706Y-14222650D02*
X15833706Y-14355984D01*
X15786087Y-14146460D02*
X15738468Y-14289317D01*
X15738468Y-14289317D02*
X15862277Y-14289317D01*
X16081325Y-14346460D02*
X16100373Y-14355984D01*
X16100373Y-14355984D02*
X16138468Y-14355984D01*
X16138468Y-14355984D02*
X16157515Y-14346460D01*
X16157515Y-14346460D02*
X16167039Y-14327412D01*
X16167039Y-14327412D02*
X16167039Y-14317888D01*
X16167039Y-14317888D02*
X16157515Y-14298841D01*
X16157515Y-14298841D02*
X16138468Y-14289317D01*
X16138468Y-14289317D02*
X16109896Y-14289317D01*
X16109896Y-14289317D02*
X16090849Y-14279793D01*
X16090849Y-14279793D02*
X16081325Y-14260746D01*
X16081325Y-14260746D02*
X16081325Y-14251222D01*
X16081325Y-14251222D02*
X16090849Y-14232174D01*
X16090849Y-14232174D02*
X16109896Y-14222650D01*
X16109896Y-14222650D02*
X16138468Y-14222650D01*
X16138468Y-14222650D02*
X16157515Y-14232174D01*
X16281325Y-14355984D02*
X16262277Y-14346460D01*
X16262277Y-14346460D02*
X16252754Y-14327412D01*
X16252754Y-14327412D02*
X16252754Y-14155984D01*
X16386087Y-14355984D02*
X16367039Y-14346460D01*
X16367039Y-14346460D02*
X16357515Y-14336936D01*
X16357515Y-14336936D02*
X16347992Y-14317888D01*
X16347992Y-14317888D02*
X16347992Y-14260746D01*
X16347992Y-14260746D02*
X16357515Y-14241698D01*
X16357515Y-14241698D02*
X16367039Y-14232174D01*
X16367039Y-14232174D02*
X16386087Y-14222650D01*
X16386087Y-14222650D02*
X16414658Y-14222650D01*
X16414658Y-14222650D02*
X16433706Y-14232174D01*
X16433706Y-14232174D02*
X16443230Y-14241698D01*
X16443230Y-14241698D02*
X16452754Y-14260746D01*
X16452754Y-14260746D02*
X16452754Y-14317888D01*
X16452754Y-14317888D02*
X16443230Y-14336936D01*
X16443230Y-14336936D02*
X16433706Y-14346460D01*
X16433706Y-14346460D02*
X16414658Y-14355984D01*
X16414658Y-14355984D02*
X16386087Y-14355984D01*
X16509896Y-14222650D02*
X16586087Y-14222650D01*
X16538468Y-14155984D02*
X16538468Y-14327412D01*
X16538468Y-14327412D02*
X16547992Y-14346460D01*
X16547992Y-14346460D02*
X16567039Y-14355984D01*
X16567039Y-14355984D02*
X16586087Y-14355984D01*
X16643230Y-14346460D02*
X16662277Y-14355984D01*
X16662277Y-14355984D02*
X16700373Y-14355984D01*
X16700373Y-14355984D02*
X16719420Y-14346460D01*
X16719420Y-14346460D02*
X16728944Y-14327412D01*
X16728944Y-14327412D02*
X16728944Y-14317888D01*
X16728944Y-14317888D02*
X16719420Y-14298841D01*
X16719420Y-14298841D02*
X16700373Y-14289317D01*
X16700373Y-14289317D02*
X16671801Y-14289317D01*
X16671801Y-14289317D02*
X16652754Y-14279793D01*
X16652754Y-14279793D02*
X16643230Y-14260746D01*
X16643230Y-14260746D02*
X16643230Y-14251222D01*
X16643230Y-14251222D02*
X16652754Y-14232174D01*
X16652754Y-14232174D02*
X16671801Y-14222650D01*
X16671801Y-14222650D02*
X16700373Y-14222650D01*
X16700373Y-14222650D02*
X16719420Y-14232174D01*
X16795611Y-14432174D02*
X16805135Y-14422650D01*
X16805135Y-14422650D02*
X16824182Y-14394079D01*
X16824182Y-14394079D02*
X16833706Y-14375031D01*
X16833706Y-14375031D02*
X16843230Y-14346460D01*
X16843230Y-14346460D02*
X16852754Y-14298841D01*
X16852754Y-14298841D02*
X16852754Y-14260746D01*
X16852754Y-14260746D02*
X16843230Y-14213127D01*
X16843230Y-14213127D02*
X16833706Y-14184555D01*
X16833706Y-14184555D02*
X16824182Y-14165508D01*
X16824182Y-14165508D02*
X16805135Y-14136936D01*
X16805135Y-14136936D02*
X16795611Y-14127412D01*
D10*
X10366500Y-14563500D02*
X10401500Y-14528500D01*
X10366500Y-14493500D01*
X10331500Y-14528500D01*
X10366500Y-14563500D01*
D11*
X10700372Y-14419984D02*
X10719420Y-14419984D01*
X10719420Y-14419984D02*
X10738467Y-14429508D01*
X10738467Y-14429508D02*
X10747991Y-14439031D01*
X10747991Y-14439031D02*
X10757515Y-14458079D01*
X10757515Y-14458079D02*
X10767039Y-14496174D01*
X10767039Y-14496174D02*
X10767039Y-14543793D01*
X10767039Y-14543793D02*
X10757515Y-14581888D01*
X10757515Y-14581888D02*
X10747991Y-14600936D01*
X10747991Y-14600936D02*
X10738467Y-14610460D01*
X10738467Y-14610460D02*
X10719420Y-14619984D01*
X10719420Y-14619984D02*
X10700372Y-14619984D01*
X10700372Y-14619984D02*
X10681324Y-14610460D01*
X10681324Y-14610460D02*
X10671801Y-14600936D01*
X10671801Y-14600936D02*
X10662277Y-14581888D01*
X10662277Y-14581888D02*
X10652753Y-14543793D01*
X10652753Y-14543793D02*
X10652753Y-14496174D01*
X10652753Y-14496174D02*
X10662277Y-14458079D01*
X10662277Y-14458079D02*
X10671801Y-14439031D01*
X10671801Y-14439031D02*
X10681324Y-14429508D01*
X10681324Y-14429508D02*
X10700372Y-14419984D01*
X10852753Y-14600936D02*
X10862277Y-14610460D01*
X10862277Y-14610460D02*
X10852753Y-14619984D01*
X10852753Y-14619984D02*
X10843229Y-14610460D01*
X10843229Y-14610460D02*
X10852753Y-14600936D01*
X10852753Y-14600936D02*
X10852753Y-14619984D01*
X10928944Y-14419984D02*
X11062277Y-14419984D01*
X11062277Y-14419984D02*
X10976563Y-14619984D01*
X11176563Y-14419984D02*
X11195610Y-14419984D01*
X11195610Y-14419984D02*
X11214658Y-14429508D01*
X11214658Y-14429508D02*
X11224182Y-14439031D01*
X11224182Y-14439031D02*
X11233705Y-14458079D01*
X11233705Y-14458079D02*
X11243229Y-14496174D01*
X11243229Y-14496174D02*
X11243229Y-14543793D01*
X11243229Y-14543793D02*
X11233705Y-14581888D01*
X11233705Y-14581888D02*
X11224182Y-14600936D01*
X11224182Y-14600936D02*
X11214658Y-14610460D01*
X11214658Y-14610460D02*
X11195610Y-14619984D01*
X11195610Y-14619984D02*
X11176563Y-14619984D01*
X11176563Y-14619984D02*
X11157515Y-14610460D01*
X11157515Y-14610460D02*
X11147991Y-14600936D01*
X11147991Y-14600936D02*
X11138467Y-14581888D01*
X11138467Y-14581888D02*
X11128944Y-14543793D01*
X11128944Y-14543793D02*
X11128944Y-14496174D01*
X11128944Y-14496174D02*
X11138467Y-14458079D01*
X11138467Y-14458079D02*
X11147991Y-14439031D01*
X11147991Y-14439031D02*
X11157515Y-14429508D01*
X11157515Y-14429508D02*
X11176563Y-14419984D01*
X11367039Y-14419984D02*
X11386086Y-14419984D01*
X11386086Y-14419984D02*
X11405134Y-14429508D01*
X11405134Y-14429508D02*
X11414658Y-14439031D01*
X11414658Y-14439031D02*
X11424182Y-14458079D01*
X11424182Y-14458079D02*
X11433705Y-14496174D01*
X11433705Y-14496174D02*
X11433705Y-14543793D01*
X11433705Y-14543793D02*
X11424182Y-14581888D01*
X11424182Y-14581888D02*
X11414658Y-14600936D01*
X11414658Y-14600936D02*
X11405134Y-14610460D01*
X11405134Y-14610460D02*
X11386086Y-14619984D01*
X11386086Y-14619984D02*
X11367039Y-14619984D01*
X11367039Y-14619984D02*
X11347991Y-14610460D01*
X11347991Y-14610460D02*
X11338467Y-14600936D01*
X11338467Y-14600936D02*
X11328943Y-14581888D01*
X11328943Y-14581888D02*
X11319420Y-14543793D01*
X11319420Y-14543793D02*
X11319420Y-14496174D01*
X11319420Y-14496174D02*
X11328943Y-14458079D01*
X11328943Y-14458079D02*
X11338467Y-14439031D01*
X11338467Y-14439031D02*
X11347991Y-14429508D01*
X11347991Y-14429508D02*
X11367039Y-14419984D01*
X11519420Y-14619984D02*
X11519420Y-14486650D01*
X11519420Y-14505698D02*
X11528943Y-14496174D01*
X11528943Y-14496174D02*
X11547991Y-14486650D01*
X11547991Y-14486650D02*
X11576563Y-14486650D01*
X11576563Y-14486650D02*
X11595610Y-14496174D01*
X11595610Y-14496174D02*
X11605134Y-14515222D01*
X11605134Y-14515222D02*
X11605134Y-14619984D01*
X11605134Y-14515222D02*
X11614658Y-14496174D01*
X11614658Y-14496174D02*
X11633705Y-14486650D01*
X11633705Y-14486650D02*
X11662277Y-14486650D01*
X11662277Y-14486650D02*
X11681324Y-14496174D01*
X11681324Y-14496174D02*
X11690848Y-14515222D01*
X11690848Y-14515222D02*
X11690848Y-14619984D01*
X11786086Y-14619984D02*
X11786086Y-14486650D01*
X11786086Y-14505698D02*
X11795610Y-14496174D01*
X11795610Y-14496174D02*
X11814658Y-14486650D01*
X11814658Y-14486650D02*
X11843229Y-14486650D01*
X11843229Y-14486650D02*
X11862277Y-14496174D01*
X11862277Y-14496174D02*
X11871801Y-14515222D01*
X11871801Y-14515222D02*
X11871801Y-14619984D01*
X11871801Y-14515222D02*
X11881324Y-14496174D01*
X11881324Y-14496174D02*
X11900372Y-14486650D01*
X11900372Y-14486650D02*
X11928943Y-14486650D01*
X11928943Y-14486650D02*
X11947991Y-14496174D01*
X11947991Y-14496174D02*
X11957515Y-14515222D01*
X11957515Y-14515222D02*
X11957515Y-14619984D01*
X12347991Y-14410460D02*
X12176563Y-14667603D01*
X12605134Y-14419984D02*
X12624182Y-14419984D01*
X12624182Y-14419984D02*
X12643229Y-14429508D01*
X12643229Y-14429508D02*
X12652753Y-14439031D01*
X12652753Y-14439031D02*
X12662277Y-14458079D01*
X12662277Y-14458079D02*
X12671801Y-14496174D01*
X12671801Y-14496174D02*
X12671801Y-14543793D01*
X12671801Y-14543793D02*
X12662277Y-14581888D01*
X12662277Y-14581888D02*
X12652753Y-14600936D01*
X12652753Y-14600936D02*
X12643229Y-14610460D01*
X12643229Y-14610460D02*
X12624182Y-14619984D01*
X12624182Y-14619984D02*
X12605134Y-14619984D01*
X12605134Y-14619984D02*
X12586086Y-14610460D01*
X12586086Y-14610460D02*
X12576563Y-14600936D01*
X12576563Y-14600936D02*
X12567039Y-14581888D01*
X12567039Y-14581888D02*
X12557515Y-14543793D01*
X12557515Y-14543793D02*
X12557515Y-14496174D01*
X12557515Y-14496174D02*
X12567039Y-14458079D01*
X12567039Y-14458079D02*
X12576563Y-14439031D01*
X12576563Y-14439031D02*
X12586086Y-14429508D01*
X12586086Y-14429508D02*
X12605134Y-14419984D01*
X12757515Y-14600936D02*
X12767039Y-14610460D01*
X12767039Y-14610460D02*
X12757515Y-14619984D01*
X12757515Y-14619984D02*
X12747991Y-14610460D01*
X12747991Y-14610460D02*
X12757515Y-14600936D01*
X12757515Y-14600936D02*
X12757515Y-14619984D01*
X12890848Y-14419984D02*
X12909896Y-14419984D01*
X12909896Y-14419984D02*
X12928944Y-14429508D01*
X12928944Y-14429508D02*
X12938467Y-14439031D01*
X12938467Y-14439031D02*
X12947991Y-14458079D01*
X12947991Y-14458079D02*
X12957515Y-14496174D01*
X12957515Y-14496174D02*
X12957515Y-14543793D01*
X12957515Y-14543793D02*
X12947991Y-14581888D01*
X12947991Y-14581888D02*
X12938467Y-14600936D01*
X12938467Y-14600936D02*
X12928944Y-14610460D01*
X12928944Y-14610460D02*
X12909896Y-14619984D01*
X12909896Y-14619984D02*
X12890848Y-14619984D01*
X12890848Y-14619984D02*
X12871801Y-14610460D01*
X12871801Y-14610460D02*
X12862277Y-14600936D01*
X12862277Y-14600936D02*
X12852753Y-14581888D01*
X12852753Y-14581888D02*
X12843229Y-14543793D01*
X12843229Y-14543793D02*
X12843229Y-14496174D01*
X12843229Y-14496174D02*
X12852753Y-14458079D01*
X12852753Y-14458079D02*
X12862277Y-14439031D01*
X12862277Y-14439031D02*
X12871801Y-14429508D01*
X12871801Y-14429508D02*
X12890848Y-14419984D01*
X13033706Y-14439031D02*
X13043229Y-14429508D01*
X13043229Y-14429508D02*
X13062277Y-14419984D01*
X13062277Y-14419984D02*
X13109896Y-14419984D01*
X13109896Y-14419984D02*
X13128944Y-14429508D01*
X13128944Y-14429508D02*
X13138467Y-14439031D01*
X13138467Y-14439031D02*
X13147991Y-14458079D01*
X13147991Y-14458079D02*
X13147991Y-14477127D01*
X13147991Y-14477127D02*
X13138467Y-14505698D01*
X13138467Y-14505698D02*
X13024182Y-14619984D01*
X13024182Y-14619984D02*
X13147991Y-14619984D01*
X13214658Y-14419984D02*
X13347991Y-14419984D01*
X13347991Y-14419984D02*
X13262277Y-14619984D01*
X13509896Y-14419984D02*
X13471801Y-14419984D01*
X13471801Y-14419984D02*
X13452753Y-14429508D01*
X13452753Y-14429508D02*
X13443229Y-14439031D01*
X13443229Y-14439031D02*
X13424182Y-14467603D01*
X13424182Y-14467603D02*
X13414658Y-14505698D01*
X13414658Y-14505698D02*
X13414658Y-14581888D01*
X13414658Y-14581888D02*
X13424182Y-14600936D01*
X13424182Y-14600936D02*
X13433706Y-14610460D01*
X13433706Y-14610460D02*
X13452753Y-14619984D01*
X13452753Y-14619984D02*
X13490848Y-14619984D01*
X13490848Y-14619984D02*
X13509896Y-14610460D01*
X13509896Y-14610460D02*
X13519420Y-14600936D01*
X13519420Y-14600936D02*
X13528944Y-14581888D01*
X13528944Y-14581888D02*
X13528944Y-14534269D01*
X13528944Y-14534269D02*
X13519420Y-14515222D01*
X13519420Y-14515222D02*
X13509896Y-14505698D01*
X13509896Y-14505698D02*
X13490848Y-14496174D01*
X13490848Y-14496174D02*
X13452753Y-14496174D01*
X13452753Y-14496174D02*
X13433706Y-14505698D01*
X13433706Y-14505698D02*
X13424182Y-14515222D01*
X13424182Y-14515222D02*
X13414658Y-14534269D01*
X13605134Y-14419984D02*
X13605134Y-14458079D01*
X13681325Y-14419984D02*
X13681325Y-14458079D01*
X13976563Y-14696174D02*
X13967039Y-14686650D01*
X13967039Y-14686650D02*
X13947991Y-14658079D01*
X13947991Y-14658079D02*
X13938468Y-14639031D01*
X13938468Y-14639031D02*
X13928944Y-14610460D01*
X13928944Y-14610460D02*
X13919420Y-14562841D01*
X13919420Y-14562841D02*
X13919420Y-14524746D01*
X13919420Y-14524746D02*
X13928944Y-14477127D01*
X13928944Y-14477127D02*
X13938468Y-14448555D01*
X13938468Y-14448555D02*
X13947991Y-14429508D01*
X13947991Y-14429508D02*
X13967039Y-14400936D01*
X13967039Y-14400936D02*
X13976563Y-14391412D01*
X14033706Y-14419984D02*
X14157515Y-14419984D01*
X14157515Y-14419984D02*
X14090848Y-14496174D01*
X14090848Y-14496174D02*
X14119420Y-14496174D01*
X14119420Y-14496174D02*
X14138468Y-14505698D01*
X14138468Y-14505698D02*
X14147991Y-14515222D01*
X14147991Y-14515222D02*
X14157515Y-14534269D01*
X14157515Y-14534269D02*
X14157515Y-14581888D01*
X14157515Y-14581888D02*
X14147991Y-14600936D01*
X14147991Y-14600936D02*
X14138468Y-14610460D01*
X14138468Y-14610460D02*
X14119420Y-14619984D01*
X14119420Y-14619984D02*
X14062277Y-14619984D01*
X14062277Y-14619984D02*
X14043229Y-14610460D01*
X14043229Y-14610460D02*
X14033706Y-14600936D01*
X14328944Y-14419984D02*
X14290848Y-14419984D01*
X14290848Y-14419984D02*
X14271801Y-14429508D01*
X14271801Y-14429508D02*
X14262277Y-14439031D01*
X14262277Y-14439031D02*
X14243229Y-14467603D01*
X14243229Y-14467603D02*
X14233706Y-14505698D01*
X14233706Y-14505698D02*
X14233706Y-14581888D01*
X14233706Y-14581888D02*
X14243229Y-14600936D01*
X14243229Y-14600936D02*
X14252753Y-14610460D01*
X14252753Y-14610460D02*
X14271801Y-14619984D01*
X14271801Y-14619984D02*
X14309896Y-14619984D01*
X14309896Y-14619984D02*
X14328944Y-14610460D01*
X14328944Y-14610460D02*
X14338468Y-14600936D01*
X14338468Y-14600936D02*
X14347991Y-14581888D01*
X14347991Y-14581888D02*
X14347991Y-14534269D01*
X14347991Y-14534269D02*
X14338468Y-14515222D01*
X14338468Y-14515222D02*
X14328944Y-14505698D01*
X14328944Y-14505698D02*
X14309896Y-14496174D01*
X14309896Y-14496174D02*
X14271801Y-14496174D01*
X14271801Y-14496174D02*
X14252753Y-14505698D01*
X14252753Y-14505698D02*
X14243229Y-14515222D01*
X14243229Y-14515222D02*
X14233706Y-14534269D01*
X14586087Y-14619984D02*
X14586087Y-14419984D01*
X14671801Y-14619984D02*
X14671801Y-14515222D01*
X14671801Y-14515222D02*
X14662277Y-14496174D01*
X14662277Y-14496174D02*
X14643230Y-14486650D01*
X14643230Y-14486650D02*
X14614658Y-14486650D01*
X14614658Y-14486650D02*
X14595610Y-14496174D01*
X14595610Y-14496174D02*
X14586087Y-14505698D01*
X14795610Y-14619984D02*
X14776563Y-14610460D01*
X14776563Y-14610460D02*
X14767039Y-14600936D01*
X14767039Y-14600936D02*
X14757515Y-14581888D01*
X14757515Y-14581888D02*
X14757515Y-14524746D01*
X14757515Y-14524746D02*
X14767039Y-14505698D01*
X14767039Y-14505698D02*
X14776563Y-14496174D01*
X14776563Y-14496174D02*
X14795610Y-14486650D01*
X14795610Y-14486650D02*
X14824182Y-14486650D01*
X14824182Y-14486650D02*
X14843230Y-14496174D01*
X14843230Y-14496174D02*
X14852753Y-14505698D01*
X14852753Y-14505698D02*
X14862277Y-14524746D01*
X14862277Y-14524746D02*
X14862277Y-14581888D01*
X14862277Y-14581888D02*
X14852753Y-14600936D01*
X14852753Y-14600936D02*
X14843230Y-14610460D01*
X14843230Y-14610460D02*
X14824182Y-14619984D01*
X14824182Y-14619984D02*
X14795610Y-14619984D01*
X14976563Y-14619984D02*
X14957515Y-14610460D01*
X14957515Y-14610460D02*
X14947991Y-14591412D01*
X14947991Y-14591412D02*
X14947991Y-14419984D01*
X15128944Y-14610460D02*
X15109896Y-14619984D01*
X15109896Y-14619984D02*
X15071801Y-14619984D01*
X15071801Y-14619984D02*
X15052753Y-14610460D01*
X15052753Y-14610460D02*
X15043230Y-14591412D01*
X15043230Y-14591412D02*
X15043230Y-14515222D01*
X15043230Y-14515222D02*
X15052753Y-14496174D01*
X15052753Y-14496174D02*
X15071801Y-14486650D01*
X15071801Y-14486650D02*
X15109896Y-14486650D01*
X15109896Y-14486650D02*
X15128944Y-14496174D01*
X15128944Y-14496174D02*
X15138468Y-14515222D01*
X15138468Y-14515222D02*
X15138468Y-14534269D01*
X15138468Y-14534269D02*
X15043230Y-14553317D01*
X15214658Y-14610460D02*
X15233706Y-14619984D01*
X15233706Y-14619984D02*
X15271801Y-14619984D01*
X15271801Y-14619984D02*
X15290849Y-14610460D01*
X15290849Y-14610460D02*
X15300372Y-14591412D01*
X15300372Y-14591412D02*
X15300372Y-14581888D01*
X15300372Y-14581888D02*
X15290849Y-14562841D01*
X15290849Y-14562841D02*
X15271801Y-14553317D01*
X15271801Y-14553317D02*
X15243230Y-14553317D01*
X15243230Y-14553317D02*
X15224182Y-14543793D01*
X15224182Y-14543793D02*
X15214658Y-14524746D01*
X15214658Y-14524746D02*
X15214658Y-14515222D01*
X15214658Y-14515222D02*
X15224182Y-14496174D01*
X15224182Y-14496174D02*
X15243230Y-14486650D01*
X15243230Y-14486650D02*
X15271801Y-14486650D01*
X15271801Y-14486650D02*
X15290849Y-14496174D01*
X15367039Y-14696174D02*
X15376563Y-14686650D01*
X15376563Y-14686650D02*
X15395611Y-14658079D01*
X15395611Y-14658079D02*
X15405134Y-14639031D01*
X15405134Y-14639031D02*
X15414658Y-14610460D01*
X15414658Y-14610460D02*
X15424182Y-14562841D01*
X15424182Y-14562841D02*
X15424182Y-14524746D01*
X15424182Y-14524746D02*
X15414658Y-14477127D01*
X15414658Y-14477127D02*
X15405134Y-14448555D01*
X15405134Y-14448555D02*
X15395611Y-14429508D01*
X15395611Y-14429508D02*
X15376563Y-14400936D01*
X15376563Y-14400936D02*
X15367039Y-14391412D01*
D10*
X10326500Y-14755000D02*
X10401500Y-14830000D01*
X10401500Y-14755000D02*
X10326500Y-14830000D01*
X10401500Y-14792500D02*
G75*
G03*
X10326500Y-14792500I-37500J0D01*
G01*
X10326500Y-14792500D02*
G75*
G03*
X10401500Y-14792500I37500J0D01*
G01*
D11*
X10700372Y-14683984D02*
X10719420Y-14683984D01*
X10719420Y-14683984D02*
X10738467Y-14693508D01*
X10738467Y-14693508D02*
X10747991Y-14703031D01*
X10747991Y-14703031D02*
X10757515Y-14722079D01*
X10757515Y-14722079D02*
X10767039Y-14760174D01*
X10767039Y-14760174D02*
X10767039Y-14807793D01*
X10767039Y-14807793D02*
X10757515Y-14845888D01*
X10757515Y-14845888D02*
X10747991Y-14864936D01*
X10747991Y-14864936D02*
X10738467Y-14874460D01*
X10738467Y-14874460D02*
X10719420Y-14883984D01*
X10719420Y-14883984D02*
X10700372Y-14883984D01*
X10700372Y-14883984D02*
X10681324Y-14874460D01*
X10681324Y-14874460D02*
X10671801Y-14864936D01*
X10671801Y-14864936D02*
X10662277Y-14845888D01*
X10662277Y-14845888D02*
X10652753Y-14807793D01*
X10652753Y-14807793D02*
X10652753Y-14760174D01*
X10652753Y-14760174D02*
X10662277Y-14722079D01*
X10662277Y-14722079D02*
X10671801Y-14703031D01*
X10671801Y-14703031D02*
X10681324Y-14693508D01*
X10681324Y-14693508D02*
X10700372Y-14683984D01*
X10852753Y-14864936D02*
X10862277Y-14874460D01*
X10862277Y-14874460D02*
X10852753Y-14883984D01*
X10852753Y-14883984D02*
X10843229Y-14874460D01*
X10843229Y-14874460D02*
X10852753Y-14864936D01*
X10852753Y-14864936D02*
X10852753Y-14883984D01*
X10928944Y-14683984D02*
X11062277Y-14683984D01*
X11062277Y-14683984D02*
X10976563Y-14883984D01*
X11233705Y-14683984D02*
X11138467Y-14683984D01*
X11138467Y-14683984D02*
X11128944Y-14779222D01*
X11128944Y-14779222D02*
X11138467Y-14769698D01*
X11138467Y-14769698D02*
X11157515Y-14760174D01*
X11157515Y-14760174D02*
X11205134Y-14760174D01*
X11205134Y-14760174D02*
X11224182Y-14769698D01*
X11224182Y-14769698D02*
X11233705Y-14779222D01*
X11233705Y-14779222D02*
X11243229Y-14798269D01*
X11243229Y-14798269D02*
X11243229Y-14845888D01*
X11243229Y-14845888D02*
X11233705Y-14864936D01*
X11233705Y-14864936D02*
X11224182Y-14874460D01*
X11224182Y-14874460D02*
X11205134Y-14883984D01*
X11205134Y-14883984D02*
X11157515Y-14883984D01*
X11157515Y-14883984D02*
X11138467Y-14874460D01*
X11138467Y-14874460D02*
X11128944Y-14864936D01*
X11367039Y-14683984D02*
X11386086Y-14683984D01*
X11386086Y-14683984D02*
X11405134Y-14693508D01*
X11405134Y-14693508D02*
X11414658Y-14703031D01*
X11414658Y-14703031D02*
X11424182Y-14722079D01*
X11424182Y-14722079D02*
X11433705Y-14760174D01*
X11433705Y-14760174D02*
X11433705Y-14807793D01*
X11433705Y-14807793D02*
X11424182Y-14845888D01*
X11424182Y-14845888D02*
X11414658Y-14864936D01*
X11414658Y-14864936D02*
X11405134Y-14874460D01*
X11405134Y-14874460D02*
X11386086Y-14883984D01*
X11386086Y-14883984D02*
X11367039Y-14883984D01*
X11367039Y-14883984D02*
X11347991Y-14874460D01*
X11347991Y-14874460D02*
X11338467Y-14864936D01*
X11338467Y-14864936D02*
X11328943Y-14845888D01*
X11328943Y-14845888D02*
X11319420Y-14807793D01*
X11319420Y-14807793D02*
X11319420Y-14760174D01*
X11319420Y-14760174D02*
X11328943Y-14722079D01*
X11328943Y-14722079D02*
X11338467Y-14703031D01*
X11338467Y-14703031D02*
X11347991Y-14693508D01*
X11347991Y-14693508D02*
X11367039Y-14683984D01*
X11519420Y-14883984D02*
X11519420Y-14750650D01*
X11519420Y-14769698D02*
X11528943Y-14760174D01*
X11528943Y-14760174D02*
X11547991Y-14750650D01*
X11547991Y-14750650D02*
X11576563Y-14750650D01*
X11576563Y-14750650D02*
X11595610Y-14760174D01*
X11595610Y-14760174D02*
X11605134Y-14779222D01*
X11605134Y-14779222D02*
X11605134Y-14883984D01*
X11605134Y-14779222D02*
X11614658Y-14760174D01*
X11614658Y-14760174D02*
X11633705Y-14750650D01*
X11633705Y-14750650D02*
X11662277Y-14750650D01*
X11662277Y-14750650D02*
X11681324Y-14760174D01*
X11681324Y-14760174D02*
X11690848Y-14779222D01*
X11690848Y-14779222D02*
X11690848Y-14883984D01*
X11786086Y-14883984D02*
X11786086Y-14750650D01*
X11786086Y-14769698D02*
X11795610Y-14760174D01*
X11795610Y-14760174D02*
X11814658Y-14750650D01*
X11814658Y-14750650D02*
X11843229Y-14750650D01*
X11843229Y-14750650D02*
X11862277Y-14760174D01*
X11862277Y-14760174D02*
X11871801Y-14779222D01*
X11871801Y-14779222D02*
X11871801Y-14883984D01*
X11871801Y-14779222D02*
X11881324Y-14760174D01*
X11881324Y-14760174D02*
X11900372Y-14750650D01*
X11900372Y-14750650D02*
X11928943Y-14750650D01*
X11928943Y-14750650D02*
X11947991Y-14760174D01*
X11947991Y-14760174D02*
X11957515Y-14779222D01*
X11957515Y-14779222D02*
X11957515Y-14883984D01*
X12347991Y-14674460D02*
X12176563Y-14931603D01*
X12605134Y-14683984D02*
X12624182Y-14683984D01*
X12624182Y-14683984D02*
X12643229Y-14693508D01*
X12643229Y-14693508D02*
X12652753Y-14703031D01*
X12652753Y-14703031D02*
X12662277Y-14722079D01*
X12662277Y-14722079D02*
X12671801Y-14760174D01*
X12671801Y-14760174D02*
X12671801Y-14807793D01*
X12671801Y-14807793D02*
X12662277Y-14845888D01*
X12662277Y-14845888D02*
X12652753Y-14864936D01*
X12652753Y-14864936D02*
X12643229Y-14874460D01*
X12643229Y-14874460D02*
X12624182Y-14883984D01*
X12624182Y-14883984D02*
X12605134Y-14883984D01*
X12605134Y-14883984D02*
X12586086Y-14874460D01*
X12586086Y-14874460D02*
X12576563Y-14864936D01*
X12576563Y-14864936D02*
X12567039Y-14845888D01*
X12567039Y-14845888D02*
X12557515Y-14807793D01*
X12557515Y-14807793D02*
X12557515Y-14760174D01*
X12557515Y-14760174D02*
X12567039Y-14722079D01*
X12567039Y-14722079D02*
X12576563Y-14703031D01*
X12576563Y-14703031D02*
X12586086Y-14693508D01*
X12586086Y-14693508D02*
X12605134Y-14683984D01*
X12757515Y-14864936D02*
X12767039Y-14874460D01*
X12767039Y-14874460D02*
X12757515Y-14883984D01*
X12757515Y-14883984D02*
X12747991Y-14874460D01*
X12747991Y-14874460D02*
X12757515Y-14864936D01*
X12757515Y-14864936D02*
X12757515Y-14883984D01*
X12890848Y-14683984D02*
X12909896Y-14683984D01*
X12909896Y-14683984D02*
X12928944Y-14693508D01*
X12928944Y-14693508D02*
X12938467Y-14703031D01*
X12938467Y-14703031D02*
X12947991Y-14722079D01*
X12947991Y-14722079D02*
X12957515Y-14760174D01*
X12957515Y-14760174D02*
X12957515Y-14807793D01*
X12957515Y-14807793D02*
X12947991Y-14845888D01*
X12947991Y-14845888D02*
X12938467Y-14864936D01*
X12938467Y-14864936D02*
X12928944Y-14874460D01*
X12928944Y-14874460D02*
X12909896Y-14883984D01*
X12909896Y-14883984D02*
X12890848Y-14883984D01*
X12890848Y-14883984D02*
X12871801Y-14874460D01*
X12871801Y-14874460D02*
X12862277Y-14864936D01*
X12862277Y-14864936D02*
X12852753Y-14845888D01*
X12852753Y-14845888D02*
X12843229Y-14807793D01*
X12843229Y-14807793D02*
X12843229Y-14760174D01*
X12843229Y-14760174D02*
X12852753Y-14722079D01*
X12852753Y-14722079D02*
X12862277Y-14703031D01*
X12862277Y-14703031D02*
X12871801Y-14693508D01*
X12871801Y-14693508D02*
X12890848Y-14683984D01*
X13033706Y-14703031D02*
X13043229Y-14693508D01*
X13043229Y-14693508D02*
X13062277Y-14683984D01*
X13062277Y-14683984D02*
X13109896Y-14683984D01*
X13109896Y-14683984D02*
X13128944Y-14693508D01*
X13128944Y-14693508D02*
X13138467Y-14703031D01*
X13138467Y-14703031D02*
X13147991Y-14722079D01*
X13147991Y-14722079D02*
X13147991Y-14741127D01*
X13147991Y-14741127D02*
X13138467Y-14769698D01*
X13138467Y-14769698D02*
X13024182Y-14883984D01*
X13024182Y-14883984D02*
X13147991Y-14883984D01*
X13243229Y-14883984D02*
X13281325Y-14883984D01*
X13281325Y-14883984D02*
X13300372Y-14874460D01*
X13300372Y-14874460D02*
X13309896Y-14864936D01*
X13309896Y-14864936D02*
X13328944Y-14836365D01*
X13328944Y-14836365D02*
X13338467Y-14798269D01*
X13338467Y-14798269D02*
X13338467Y-14722079D01*
X13338467Y-14722079D02*
X13328944Y-14703031D01*
X13328944Y-14703031D02*
X13319420Y-14693508D01*
X13319420Y-14693508D02*
X13300372Y-14683984D01*
X13300372Y-14683984D02*
X13262277Y-14683984D01*
X13262277Y-14683984D02*
X13243229Y-14693508D01*
X13243229Y-14693508D02*
X13233706Y-14703031D01*
X13233706Y-14703031D02*
X13224182Y-14722079D01*
X13224182Y-14722079D02*
X13224182Y-14769698D01*
X13224182Y-14769698D02*
X13233706Y-14788746D01*
X13233706Y-14788746D02*
X13243229Y-14798269D01*
X13243229Y-14798269D02*
X13262277Y-14807793D01*
X13262277Y-14807793D02*
X13300372Y-14807793D01*
X13300372Y-14807793D02*
X13319420Y-14798269D01*
X13319420Y-14798269D02*
X13328944Y-14788746D01*
X13328944Y-14788746D02*
X13338467Y-14769698D01*
X13519420Y-14683984D02*
X13424182Y-14683984D01*
X13424182Y-14683984D02*
X13414658Y-14779222D01*
X13414658Y-14779222D02*
X13424182Y-14769698D01*
X13424182Y-14769698D02*
X13443229Y-14760174D01*
X13443229Y-14760174D02*
X13490848Y-14760174D01*
X13490848Y-14760174D02*
X13509896Y-14769698D01*
X13509896Y-14769698D02*
X13519420Y-14779222D01*
X13519420Y-14779222D02*
X13528944Y-14798269D01*
X13528944Y-14798269D02*
X13528944Y-14845888D01*
X13528944Y-14845888D02*
X13519420Y-14864936D01*
X13519420Y-14864936D02*
X13509896Y-14874460D01*
X13509896Y-14874460D02*
X13490848Y-14883984D01*
X13490848Y-14883984D02*
X13443229Y-14883984D01*
X13443229Y-14883984D02*
X13424182Y-14874460D01*
X13424182Y-14874460D02*
X13414658Y-14864936D01*
X13605134Y-14683984D02*
X13605134Y-14722079D01*
X13681325Y-14683984D02*
X13681325Y-14722079D01*
X13976563Y-14960174D02*
X13967039Y-14950650D01*
X13967039Y-14950650D02*
X13947991Y-14922079D01*
X13947991Y-14922079D02*
X13938468Y-14903031D01*
X13938468Y-14903031D02*
X13928944Y-14874460D01*
X13928944Y-14874460D02*
X13919420Y-14826841D01*
X13919420Y-14826841D02*
X13919420Y-14788746D01*
X13919420Y-14788746D02*
X13928944Y-14741127D01*
X13928944Y-14741127D02*
X13938468Y-14712555D01*
X13938468Y-14712555D02*
X13947991Y-14693508D01*
X13947991Y-14693508D02*
X13967039Y-14664936D01*
X13967039Y-14664936D02*
X13976563Y-14655412D01*
X14033706Y-14683984D02*
X14157515Y-14683984D01*
X14157515Y-14683984D02*
X14090848Y-14760174D01*
X14090848Y-14760174D02*
X14119420Y-14760174D01*
X14119420Y-14760174D02*
X14138468Y-14769698D01*
X14138468Y-14769698D02*
X14147991Y-14779222D01*
X14147991Y-14779222D02*
X14157515Y-14798269D01*
X14157515Y-14798269D02*
X14157515Y-14845888D01*
X14157515Y-14845888D02*
X14147991Y-14864936D01*
X14147991Y-14864936D02*
X14138468Y-14874460D01*
X14138468Y-14874460D02*
X14119420Y-14883984D01*
X14119420Y-14883984D02*
X14062277Y-14883984D01*
X14062277Y-14883984D02*
X14043229Y-14874460D01*
X14043229Y-14874460D02*
X14033706Y-14864936D01*
X14395610Y-14883984D02*
X14395610Y-14683984D01*
X14481325Y-14883984D02*
X14481325Y-14779222D01*
X14481325Y-14779222D02*
X14471801Y-14760174D01*
X14471801Y-14760174D02*
X14452753Y-14750650D01*
X14452753Y-14750650D02*
X14424182Y-14750650D01*
X14424182Y-14750650D02*
X14405134Y-14760174D01*
X14405134Y-14760174D02*
X14395610Y-14769698D01*
X14605134Y-14883984D02*
X14586087Y-14874460D01*
X14586087Y-14874460D02*
X14576563Y-14864936D01*
X14576563Y-14864936D02*
X14567039Y-14845888D01*
X14567039Y-14845888D02*
X14567039Y-14788746D01*
X14567039Y-14788746D02*
X14576563Y-14769698D01*
X14576563Y-14769698D02*
X14586087Y-14760174D01*
X14586087Y-14760174D02*
X14605134Y-14750650D01*
X14605134Y-14750650D02*
X14633706Y-14750650D01*
X14633706Y-14750650D02*
X14652753Y-14760174D01*
X14652753Y-14760174D02*
X14662277Y-14769698D01*
X14662277Y-14769698D02*
X14671801Y-14788746D01*
X14671801Y-14788746D02*
X14671801Y-14845888D01*
X14671801Y-14845888D02*
X14662277Y-14864936D01*
X14662277Y-14864936D02*
X14652753Y-14874460D01*
X14652753Y-14874460D02*
X14633706Y-14883984D01*
X14633706Y-14883984D02*
X14605134Y-14883984D01*
X14786087Y-14883984D02*
X14767039Y-14874460D01*
X14767039Y-14874460D02*
X14757515Y-14855412D01*
X14757515Y-14855412D02*
X14757515Y-14683984D01*
X14938468Y-14874460D02*
X14919420Y-14883984D01*
X14919420Y-14883984D02*
X14881325Y-14883984D01*
X14881325Y-14883984D02*
X14862277Y-14874460D01*
X14862277Y-14874460D02*
X14852753Y-14855412D01*
X14852753Y-14855412D02*
X14852753Y-14779222D01*
X14852753Y-14779222D02*
X14862277Y-14760174D01*
X14862277Y-14760174D02*
X14881325Y-14750650D01*
X14881325Y-14750650D02*
X14919420Y-14750650D01*
X14919420Y-14750650D02*
X14938468Y-14760174D01*
X14938468Y-14760174D02*
X14947991Y-14779222D01*
X14947991Y-14779222D02*
X14947991Y-14798269D01*
X14947991Y-14798269D02*
X14852753Y-14817317D01*
X15024182Y-14874460D02*
X15043230Y-14883984D01*
X15043230Y-14883984D02*
X15081325Y-14883984D01*
X15081325Y-14883984D02*
X15100372Y-14874460D01*
X15100372Y-14874460D02*
X15109896Y-14855412D01*
X15109896Y-14855412D02*
X15109896Y-14845888D01*
X15109896Y-14845888D02*
X15100372Y-14826841D01*
X15100372Y-14826841D02*
X15081325Y-14817317D01*
X15081325Y-14817317D02*
X15052753Y-14817317D01*
X15052753Y-14817317D02*
X15033706Y-14807793D01*
X15033706Y-14807793D02*
X15024182Y-14788746D01*
X15024182Y-14788746D02*
X15024182Y-14779222D01*
X15024182Y-14779222D02*
X15033706Y-14760174D01*
X15033706Y-14760174D02*
X15052753Y-14750650D01*
X15052753Y-14750650D02*
X15081325Y-14750650D01*
X15081325Y-14750650D02*
X15100372Y-14760174D01*
X15176563Y-14960174D02*
X15186087Y-14950650D01*
X15186087Y-14950650D02*
X15205134Y-14922079D01*
X15205134Y-14922079D02*
X15214658Y-14903031D01*
X15214658Y-14903031D02*
X15224182Y-14874460D01*
X15224182Y-14874460D02*
X15233706Y-14826841D01*
X15233706Y-14826841D02*
X15233706Y-14788746D01*
X15233706Y-14788746D02*
X15224182Y-14741127D01*
X15224182Y-14741127D02*
X15214658Y-14712555D01*
X15214658Y-14712555D02*
X15205134Y-14693508D01*
X15205134Y-14693508D02*
X15186087Y-14664936D01*
X15186087Y-14664936D02*
X15176563Y-14655412D01*
D10*
X10321500Y-15016500D02*
X10401500Y-15096500D01*
X10401500Y-15016500D02*
X10321500Y-15096500D01*
X10361500Y-15016500D02*
X10361500Y-15096500D01*
X10321500Y-15056500D02*
X10401500Y-15056500D01*
D11*
X10700372Y-14947984D02*
X10719420Y-14947984D01*
X10719420Y-14947984D02*
X10738467Y-14957508D01*
X10738467Y-14957508D02*
X10747991Y-14967031D01*
X10747991Y-14967031D02*
X10757515Y-14986079D01*
X10757515Y-14986079D02*
X10767039Y-15024174D01*
X10767039Y-15024174D02*
X10767039Y-15071793D01*
X10767039Y-15071793D02*
X10757515Y-15109888D01*
X10757515Y-15109888D02*
X10747991Y-15128936D01*
X10747991Y-15128936D02*
X10738467Y-15138460D01*
X10738467Y-15138460D02*
X10719420Y-15147984D01*
X10719420Y-15147984D02*
X10700372Y-15147984D01*
X10700372Y-15147984D02*
X10681324Y-15138460D01*
X10681324Y-15138460D02*
X10671801Y-15128936D01*
X10671801Y-15128936D02*
X10662277Y-15109888D01*
X10662277Y-15109888D02*
X10652753Y-15071793D01*
X10652753Y-15071793D02*
X10652753Y-15024174D01*
X10652753Y-15024174D02*
X10662277Y-14986079D01*
X10662277Y-14986079D02*
X10671801Y-14967031D01*
X10671801Y-14967031D02*
X10681324Y-14957508D01*
X10681324Y-14957508D02*
X10700372Y-14947984D01*
X10852753Y-15128936D02*
X10862277Y-15138460D01*
X10862277Y-15138460D02*
X10852753Y-15147984D01*
X10852753Y-15147984D02*
X10843229Y-15138460D01*
X10843229Y-15138460D02*
X10852753Y-15128936D01*
X10852753Y-15128936D02*
X10852753Y-15147984D01*
X10976563Y-15033698D02*
X10957515Y-15024174D01*
X10957515Y-15024174D02*
X10947991Y-15014650D01*
X10947991Y-15014650D02*
X10938467Y-14995603D01*
X10938467Y-14995603D02*
X10938467Y-14986079D01*
X10938467Y-14986079D02*
X10947991Y-14967031D01*
X10947991Y-14967031D02*
X10957515Y-14957508D01*
X10957515Y-14957508D02*
X10976563Y-14947984D01*
X10976563Y-14947984D02*
X11014658Y-14947984D01*
X11014658Y-14947984D02*
X11033705Y-14957508D01*
X11033705Y-14957508D02*
X11043229Y-14967031D01*
X11043229Y-14967031D02*
X11052753Y-14986079D01*
X11052753Y-14986079D02*
X11052753Y-14995603D01*
X11052753Y-14995603D02*
X11043229Y-15014650D01*
X11043229Y-15014650D02*
X11033705Y-15024174D01*
X11033705Y-15024174D02*
X11014658Y-15033698D01*
X11014658Y-15033698D02*
X10976563Y-15033698D01*
X10976563Y-15033698D02*
X10957515Y-15043222D01*
X10957515Y-15043222D02*
X10947991Y-15052746D01*
X10947991Y-15052746D02*
X10938467Y-15071793D01*
X10938467Y-15071793D02*
X10938467Y-15109888D01*
X10938467Y-15109888D02*
X10947991Y-15128936D01*
X10947991Y-15128936D02*
X10957515Y-15138460D01*
X10957515Y-15138460D02*
X10976563Y-15147984D01*
X10976563Y-15147984D02*
X11014658Y-15147984D01*
X11014658Y-15147984D02*
X11033705Y-15138460D01*
X11033705Y-15138460D02*
X11043229Y-15128936D01*
X11043229Y-15128936D02*
X11052753Y-15109888D01*
X11052753Y-15109888D02*
X11052753Y-15071793D01*
X11052753Y-15071793D02*
X11043229Y-15052746D01*
X11043229Y-15052746D02*
X11033705Y-15043222D01*
X11033705Y-15043222D02*
X11014658Y-15033698D01*
X11176563Y-14947984D02*
X11195610Y-14947984D01*
X11195610Y-14947984D02*
X11214658Y-14957508D01*
X11214658Y-14957508D02*
X11224182Y-14967031D01*
X11224182Y-14967031D02*
X11233705Y-14986079D01*
X11233705Y-14986079D02*
X11243229Y-15024174D01*
X11243229Y-15024174D02*
X11243229Y-15071793D01*
X11243229Y-15071793D02*
X11233705Y-15109888D01*
X11233705Y-15109888D02*
X11224182Y-15128936D01*
X11224182Y-15128936D02*
X11214658Y-15138460D01*
X11214658Y-15138460D02*
X11195610Y-15147984D01*
X11195610Y-15147984D02*
X11176563Y-15147984D01*
X11176563Y-15147984D02*
X11157515Y-15138460D01*
X11157515Y-15138460D02*
X11147991Y-15128936D01*
X11147991Y-15128936D02*
X11138467Y-15109888D01*
X11138467Y-15109888D02*
X11128944Y-15071793D01*
X11128944Y-15071793D02*
X11128944Y-15024174D01*
X11128944Y-15024174D02*
X11138467Y-14986079D01*
X11138467Y-14986079D02*
X11147991Y-14967031D01*
X11147991Y-14967031D02*
X11157515Y-14957508D01*
X11157515Y-14957508D02*
X11176563Y-14947984D01*
X11367039Y-14947984D02*
X11386086Y-14947984D01*
X11386086Y-14947984D02*
X11405134Y-14957508D01*
X11405134Y-14957508D02*
X11414658Y-14967031D01*
X11414658Y-14967031D02*
X11424182Y-14986079D01*
X11424182Y-14986079D02*
X11433705Y-15024174D01*
X11433705Y-15024174D02*
X11433705Y-15071793D01*
X11433705Y-15071793D02*
X11424182Y-15109888D01*
X11424182Y-15109888D02*
X11414658Y-15128936D01*
X11414658Y-15128936D02*
X11405134Y-15138460D01*
X11405134Y-15138460D02*
X11386086Y-15147984D01*
X11386086Y-15147984D02*
X11367039Y-15147984D01*
X11367039Y-15147984D02*
X11347991Y-15138460D01*
X11347991Y-15138460D02*
X11338467Y-15128936D01*
X11338467Y-15128936D02*
X11328943Y-15109888D01*
X11328943Y-15109888D02*
X11319420Y-15071793D01*
X11319420Y-15071793D02*
X11319420Y-15024174D01*
X11319420Y-15024174D02*
X11328943Y-14986079D01*
X11328943Y-14986079D02*
X11338467Y-14967031D01*
X11338467Y-14967031D02*
X11347991Y-14957508D01*
X11347991Y-14957508D02*
X11367039Y-14947984D01*
X11519420Y-15147984D02*
X11519420Y-15014650D01*
X11519420Y-15033698D02*
X11528943Y-15024174D01*
X11528943Y-15024174D02*
X11547991Y-15014650D01*
X11547991Y-15014650D02*
X11576563Y-15014650D01*
X11576563Y-15014650D02*
X11595610Y-15024174D01*
X11595610Y-15024174D02*
X11605134Y-15043222D01*
X11605134Y-15043222D02*
X11605134Y-15147984D01*
X11605134Y-15043222D02*
X11614658Y-15024174D01*
X11614658Y-15024174D02*
X11633705Y-15014650D01*
X11633705Y-15014650D02*
X11662277Y-15014650D01*
X11662277Y-15014650D02*
X11681324Y-15024174D01*
X11681324Y-15024174D02*
X11690848Y-15043222D01*
X11690848Y-15043222D02*
X11690848Y-15147984D01*
X11786086Y-15147984D02*
X11786086Y-15014650D01*
X11786086Y-15033698D02*
X11795610Y-15024174D01*
X11795610Y-15024174D02*
X11814658Y-15014650D01*
X11814658Y-15014650D02*
X11843229Y-15014650D01*
X11843229Y-15014650D02*
X11862277Y-15024174D01*
X11862277Y-15024174D02*
X11871801Y-15043222D01*
X11871801Y-15043222D02*
X11871801Y-15147984D01*
X11871801Y-15043222D02*
X11881324Y-15024174D01*
X11881324Y-15024174D02*
X11900372Y-15014650D01*
X11900372Y-15014650D02*
X11928943Y-15014650D01*
X11928943Y-15014650D02*
X11947991Y-15024174D01*
X11947991Y-15024174D02*
X11957515Y-15043222D01*
X11957515Y-15043222D02*
X11957515Y-15147984D01*
X12347991Y-14938460D02*
X12176563Y-15195603D01*
X12605134Y-14947984D02*
X12624182Y-14947984D01*
X12624182Y-14947984D02*
X12643229Y-14957508D01*
X12643229Y-14957508D02*
X12652753Y-14967031D01*
X12652753Y-14967031D02*
X12662277Y-14986079D01*
X12662277Y-14986079D02*
X12671801Y-15024174D01*
X12671801Y-15024174D02*
X12671801Y-15071793D01*
X12671801Y-15071793D02*
X12662277Y-15109888D01*
X12662277Y-15109888D02*
X12652753Y-15128936D01*
X12652753Y-15128936D02*
X12643229Y-15138460D01*
X12643229Y-15138460D02*
X12624182Y-15147984D01*
X12624182Y-15147984D02*
X12605134Y-15147984D01*
X12605134Y-15147984D02*
X12586086Y-15138460D01*
X12586086Y-15138460D02*
X12576563Y-15128936D01*
X12576563Y-15128936D02*
X12567039Y-15109888D01*
X12567039Y-15109888D02*
X12557515Y-15071793D01*
X12557515Y-15071793D02*
X12557515Y-15024174D01*
X12557515Y-15024174D02*
X12567039Y-14986079D01*
X12567039Y-14986079D02*
X12576563Y-14967031D01*
X12576563Y-14967031D02*
X12586086Y-14957508D01*
X12586086Y-14957508D02*
X12605134Y-14947984D01*
X12757515Y-15128936D02*
X12767039Y-15138460D01*
X12767039Y-15138460D02*
X12757515Y-15147984D01*
X12757515Y-15147984D02*
X12747991Y-15138460D01*
X12747991Y-15138460D02*
X12757515Y-15128936D01*
X12757515Y-15128936D02*
X12757515Y-15147984D01*
X12890848Y-14947984D02*
X12909896Y-14947984D01*
X12909896Y-14947984D02*
X12928944Y-14957508D01*
X12928944Y-14957508D02*
X12938467Y-14967031D01*
X12938467Y-14967031D02*
X12947991Y-14986079D01*
X12947991Y-14986079D02*
X12957515Y-15024174D01*
X12957515Y-15024174D02*
X12957515Y-15071793D01*
X12957515Y-15071793D02*
X12947991Y-15109888D01*
X12947991Y-15109888D02*
X12938467Y-15128936D01*
X12938467Y-15128936D02*
X12928944Y-15138460D01*
X12928944Y-15138460D02*
X12909896Y-15147984D01*
X12909896Y-15147984D02*
X12890848Y-15147984D01*
X12890848Y-15147984D02*
X12871801Y-15138460D01*
X12871801Y-15138460D02*
X12862277Y-15128936D01*
X12862277Y-15128936D02*
X12852753Y-15109888D01*
X12852753Y-15109888D02*
X12843229Y-15071793D01*
X12843229Y-15071793D02*
X12843229Y-15024174D01*
X12843229Y-15024174D02*
X12852753Y-14986079D01*
X12852753Y-14986079D02*
X12862277Y-14967031D01*
X12862277Y-14967031D02*
X12871801Y-14957508D01*
X12871801Y-14957508D02*
X12890848Y-14947984D01*
X13024182Y-14947984D02*
X13147991Y-14947984D01*
X13147991Y-14947984D02*
X13081325Y-15024174D01*
X13081325Y-15024174D02*
X13109896Y-15024174D01*
X13109896Y-15024174D02*
X13128944Y-15033698D01*
X13128944Y-15033698D02*
X13138467Y-15043222D01*
X13138467Y-15043222D02*
X13147991Y-15062269D01*
X13147991Y-15062269D02*
X13147991Y-15109888D01*
X13147991Y-15109888D02*
X13138467Y-15128936D01*
X13138467Y-15128936D02*
X13128944Y-15138460D01*
X13128944Y-15138460D02*
X13109896Y-15147984D01*
X13109896Y-15147984D02*
X13052753Y-15147984D01*
X13052753Y-15147984D02*
X13033706Y-15138460D01*
X13033706Y-15138460D02*
X13024182Y-15128936D01*
X13338467Y-15147984D02*
X13224182Y-15147984D01*
X13281325Y-15147984D02*
X13281325Y-14947984D01*
X13281325Y-14947984D02*
X13262277Y-14976555D01*
X13262277Y-14976555D02*
X13243229Y-14995603D01*
X13243229Y-14995603D02*
X13224182Y-15005127D01*
X13519420Y-14947984D02*
X13424182Y-14947984D01*
X13424182Y-14947984D02*
X13414658Y-15043222D01*
X13414658Y-15043222D02*
X13424182Y-15033698D01*
X13424182Y-15033698D02*
X13443229Y-15024174D01*
X13443229Y-15024174D02*
X13490848Y-15024174D01*
X13490848Y-15024174D02*
X13509896Y-15033698D01*
X13509896Y-15033698D02*
X13519420Y-15043222D01*
X13519420Y-15043222D02*
X13528944Y-15062269D01*
X13528944Y-15062269D02*
X13528944Y-15109888D01*
X13528944Y-15109888D02*
X13519420Y-15128936D01*
X13519420Y-15128936D02*
X13509896Y-15138460D01*
X13509896Y-15138460D02*
X13490848Y-15147984D01*
X13490848Y-15147984D02*
X13443229Y-15147984D01*
X13443229Y-15147984D02*
X13424182Y-15138460D01*
X13424182Y-15138460D02*
X13414658Y-15128936D01*
X13605134Y-14947984D02*
X13605134Y-14986079D01*
X13681325Y-14947984D02*
X13681325Y-14986079D01*
X13976563Y-15224174D02*
X13967039Y-15214650D01*
X13967039Y-15214650D02*
X13947991Y-15186079D01*
X13947991Y-15186079D02*
X13938468Y-15167031D01*
X13938468Y-15167031D02*
X13928944Y-15138460D01*
X13928944Y-15138460D02*
X13919420Y-15090841D01*
X13919420Y-15090841D02*
X13919420Y-15052746D01*
X13919420Y-15052746D02*
X13928944Y-15005127D01*
X13928944Y-15005127D02*
X13938468Y-14976555D01*
X13938468Y-14976555D02*
X13947991Y-14957508D01*
X13947991Y-14957508D02*
X13967039Y-14928936D01*
X13967039Y-14928936D02*
X13976563Y-14919412D01*
X14043229Y-14967031D02*
X14052753Y-14957508D01*
X14052753Y-14957508D02*
X14071801Y-14947984D01*
X14071801Y-14947984D02*
X14119420Y-14947984D01*
X14119420Y-14947984D02*
X14138468Y-14957508D01*
X14138468Y-14957508D02*
X14147991Y-14967031D01*
X14147991Y-14967031D02*
X14157515Y-14986079D01*
X14157515Y-14986079D02*
X14157515Y-15005127D01*
X14157515Y-15005127D02*
X14147991Y-15033698D01*
X14147991Y-15033698D02*
X14033706Y-15147984D01*
X14033706Y-15147984D02*
X14157515Y-15147984D01*
X14395610Y-15147984D02*
X14395610Y-14947984D01*
X14481325Y-15147984D02*
X14481325Y-15043222D01*
X14481325Y-15043222D02*
X14471801Y-15024174D01*
X14471801Y-15024174D02*
X14452753Y-15014650D01*
X14452753Y-15014650D02*
X14424182Y-15014650D01*
X14424182Y-15014650D02*
X14405134Y-15024174D01*
X14405134Y-15024174D02*
X14395610Y-15033698D01*
X14605134Y-15147984D02*
X14586087Y-15138460D01*
X14586087Y-15138460D02*
X14576563Y-15128936D01*
X14576563Y-15128936D02*
X14567039Y-15109888D01*
X14567039Y-15109888D02*
X14567039Y-15052746D01*
X14567039Y-15052746D02*
X14576563Y-15033698D01*
X14576563Y-15033698D02*
X14586087Y-15024174D01*
X14586087Y-15024174D02*
X14605134Y-15014650D01*
X14605134Y-15014650D02*
X14633706Y-15014650D01*
X14633706Y-15014650D02*
X14652753Y-15024174D01*
X14652753Y-15024174D02*
X14662277Y-15033698D01*
X14662277Y-15033698D02*
X14671801Y-15052746D01*
X14671801Y-15052746D02*
X14671801Y-15109888D01*
X14671801Y-15109888D02*
X14662277Y-15128936D01*
X14662277Y-15128936D02*
X14652753Y-15138460D01*
X14652753Y-15138460D02*
X14633706Y-15147984D01*
X14633706Y-15147984D02*
X14605134Y-15147984D01*
X14786087Y-15147984D02*
X14767039Y-15138460D01*
X14767039Y-15138460D02*
X14757515Y-15119412D01*
X14757515Y-15119412D02*
X14757515Y-14947984D01*
X14938468Y-15138460D02*
X14919420Y-15147984D01*
X14919420Y-15147984D02*
X14881325Y-15147984D01*
X14881325Y-15147984D02*
X14862277Y-15138460D01*
X14862277Y-15138460D02*
X14852753Y-15119412D01*
X14852753Y-15119412D02*
X14852753Y-15043222D01*
X14852753Y-15043222D02*
X14862277Y-15024174D01*
X14862277Y-15024174D02*
X14881325Y-15014650D01*
X14881325Y-15014650D02*
X14919420Y-15014650D01*
X14919420Y-15014650D02*
X14938468Y-15024174D01*
X14938468Y-15024174D02*
X14947991Y-15043222D01*
X14947991Y-15043222D02*
X14947991Y-15062269D01*
X14947991Y-15062269D02*
X14852753Y-15081317D01*
X15024182Y-15138460D02*
X15043230Y-15147984D01*
X15043230Y-15147984D02*
X15081325Y-15147984D01*
X15081325Y-15147984D02*
X15100372Y-15138460D01*
X15100372Y-15138460D02*
X15109896Y-15119412D01*
X15109896Y-15119412D02*
X15109896Y-15109888D01*
X15109896Y-15109888D02*
X15100372Y-15090841D01*
X15100372Y-15090841D02*
X15081325Y-15081317D01*
X15081325Y-15081317D02*
X15052753Y-15081317D01*
X15052753Y-15081317D02*
X15033706Y-15071793D01*
X15033706Y-15071793D02*
X15024182Y-15052746D01*
X15024182Y-15052746D02*
X15024182Y-15043222D01*
X15024182Y-15043222D02*
X15033706Y-15024174D01*
X15033706Y-15024174D02*
X15052753Y-15014650D01*
X15052753Y-15014650D02*
X15081325Y-15014650D01*
X15081325Y-15014650D02*
X15100372Y-15024174D01*
X15176563Y-15224174D02*
X15186087Y-15214650D01*
X15186087Y-15214650D02*
X15205134Y-15186079D01*
X15205134Y-15186079D02*
X15214658Y-15167031D01*
X15214658Y-15167031D02*
X15224182Y-15138460D01*
X15224182Y-15138460D02*
X15233706Y-15090841D01*
X15233706Y-15090841D02*
X15233706Y-15052746D01*
X15233706Y-15052746D02*
X15224182Y-15005127D01*
X15224182Y-15005127D02*
X15214658Y-14976555D01*
X15214658Y-14976555D02*
X15205134Y-14957508D01*
X15205134Y-14957508D02*
X15186087Y-14928936D01*
X15186087Y-14928936D02*
X15176563Y-14919412D01*
D10*
X10311500Y-15275500D02*
X10401500Y-15365500D01*
X10401500Y-15275500D02*
X10311500Y-15365500D01*
X10388320Y-15352320D02*
X10388320Y-15288680D01*
X10324680Y-15288680D01*
X10324680Y-15352320D01*
X10388320Y-15352320D01*
D11*
X10700372Y-15211984D02*
X10719420Y-15211984D01*
X10719420Y-15211984D02*
X10738467Y-15221508D01*
X10738467Y-15221508D02*
X10747991Y-15231031D01*
X10747991Y-15231031D02*
X10757515Y-15250079D01*
X10757515Y-15250079D02*
X10767039Y-15288174D01*
X10767039Y-15288174D02*
X10767039Y-15335793D01*
X10767039Y-15335793D02*
X10757515Y-15373888D01*
X10757515Y-15373888D02*
X10747991Y-15392936D01*
X10747991Y-15392936D02*
X10738467Y-15402460D01*
X10738467Y-15402460D02*
X10719420Y-15411984D01*
X10719420Y-15411984D02*
X10700372Y-15411984D01*
X10700372Y-15411984D02*
X10681324Y-15402460D01*
X10681324Y-15402460D02*
X10671801Y-15392936D01*
X10671801Y-15392936D02*
X10662277Y-15373888D01*
X10662277Y-15373888D02*
X10652753Y-15335793D01*
X10652753Y-15335793D02*
X10652753Y-15288174D01*
X10652753Y-15288174D02*
X10662277Y-15250079D01*
X10662277Y-15250079D02*
X10671801Y-15231031D01*
X10671801Y-15231031D02*
X10681324Y-15221508D01*
X10681324Y-15221508D02*
X10700372Y-15211984D01*
X10852753Y-15392936D02*
X10862277Y-15402460D01*
X10862277Y-15402460D02*
X10852753Y-15411984D01*
X10852753Y-15411984D02*
X10843229Y-15402460D01*
X10843229Y-15402460D02*
X10852753Y-15392936D01*
X10852753Y-15392936D02*
X10852753Y-15411984D01*
X10957515Y-15411984D02*
X10995610Y-15411984D01*
X10995610Y-15411984D02*
X11014658Y-15402460D01*
X11014658Y-15402460D02*
X11024182Y-15392936D01*
X11024182Y-15392936D02*
X11043229Y-15364365D01*
X11043229Y-15364365D02*
X11052753Y-15326269D01*
X11052753Y-15326269D02*
X11052753Y-15250079D01*
X11052753Y-15250079D02*
X11043229Y-15231031D01*
X11043229Y-15231031D02*
X11033705Y-15221508D01*
X11033705Y-15221508D02*
X11014658Y-15211984D01*
X11014658Y-15211984D02*
X10976563Y-15211984D01*
X10976563Y-15211984D02*
X10957515Y-15221508D01*
X10957515Y-15221508D02*
X10947991Y-15231031D01*
X10947991Y-15231031D02*
X10938467Y-15250079D01*
X10938467Y-15250079D02*
X10938467Y-15297698D01*
X10938467Y-15297698D02*
X10947991Y-15316746D01*
X10947991Y-15316746D02*
X10957515Y-15326269D01*
X10957515Y-15326269D02*
X10976563Y-15335793D01*
X10976563Y-15335793D02*
X11014658Y-15335793D01*
X11014658Y-15335793D02*
X11033705Y-15326269D01*
X11033705Y-15326269D02*
X11043229Y-15316746D01*
X11043229Y-15316746D02*
X11052753Y-15297698D01*
X11176563Y-15211984D02*
X11195610Y-15211984D01*
X11195610Y-15211984D02*
X11214658Y-15221508D01*
X11214658Y-15221508D02*
X11224182Y-15231031D01*
X11224182Y-15231031D02*
X11233705Y-15250079D01*
X11233705Y-15250079D02*
X11243229Y-15288174D01*
X11243229Y-15288174D02*
X11243229Y-15335793D01*
X11243229Y-15335793D02*
X11233705Y-15373888D01*
X11233705Y-15373888D02*
X11224182Y-15392936D01*
X11224182Y-15392936D02*
X11214658Y-15402460D01*
X11214658Y-15402460D02*
X11195610Y-15411984D01*
X11195610Y-15411984D02*
X11176563Y-15411984D01*
X11176563Y-15411984D02*
X11157515Y-15402460D01*
X11157515Y-15402460D02*
X11147991Y-15392936D01*
X11147991Y-15392936D02*
X11138467Y-15373888D01*
X11138467Y-15373888D02*
X11128944Y-15335793D01*
X11128944Y-15335793D02*
X11128944Y-15288174D01*
X11128944Y-15288174D02*
X11138467Y-15250079D01*
X11138467Y-15250079D02*
X11147991Y-15231031D01*
X11147991Y-15231031D02*
X11157515Y-15221508D01*
X11157515Y-15221508D02*
X11176563Y-15211984D01*
X11367039Y-15211984D02*
X11386086Y-15211984D01*
X11386086Y-15211984D02*
X11405134Y-15221508D01*
X11405134Y-15221508D02*
X11414658Y-15231031D01*
X11414658Y-15231031D02*
X11424182Y-15250079D01*
X11424182Y-15250079D02*
X11433705Y-15288174D01*
X11433705Y-15288174D02*
X11433705Y-15335793D01*
X11433705Y-15335793D02*
X11424182Y-15373888D01*
X11424182Y-15373888D02*
X11414658Y-15392936D01*
X11414658Y-15392936D02*
X11405134Y-15402460D01*
X11405134Y-15402460D02*
X11386086Y-15411984D01*
X11386086Y-15411984D02*
X11367039Y-15411984D01*
X11367039Y-15411984D02*
X11347991Y-15402460D01*
X11347991Y-15402460D02*
X11338467Y-15392936D01*
X11338467Y-15392936D02*
X11328943Y-15373888D01*
X11328943Y-15373888D02*
X11319420Y-15335793D01*
X11319420Y-15335793D02*
X11319420Y-15288174D01*
X11319420Y-15288174D02*
X11328943Y-15250079D01*
X11328943Y-15250079D02*
X11338467Y-15231031D01*
X11338467Y-15231031D02*
X11347991Y-15221508D01*
X11347991Y-15221508D02*
X11367039Y-15211984D01*
X11519420Y-15411984D02*
X11519420Y-15278650D01*
X11519420Y-15297698D02*
X11528943Y-15288174D01*
X11528943Y-15288174D02*
X11547991Y-15278650D01*
X11547991Y-15278650D02*
X11576563Y-15278650D01*
X11576563Y-15278650D02*
X11595610Y-15288174D01*
X11595610Y-15288174D02*
X11605134Y-15307222D01*
X11605134Y-15307222D02*
X11605134Y-15411984D01*
X11605134Y-15307222D02*
X11614658Y-15288174D01*
X11614658Y-15288174D02*
X11633705Y-15278650D01*
X11633705Y-15278650D02*
X11662277Y-15278650D01*
X11662277Y-15278650D02*
X11681324Y-15288174D01*
X11681324Y-15288174D02*
X11690848Y-15307222D01*
X11690848Y-15307222D02*
X11690848Y-15411984D01*
X11786086Y-15411984D02*
X11786086Y-15278650D01*
X11786086Y-15297698D02*
X11795610Y-15288174D01*
X11795610Y-15288174D02*
X11814658Y-15278650D01*
X11814658Y-15278650D02*
X11843229Y-15278650D01*
X11843229Y-15278650D02*
X11862277Y-15288174D01*
X11862277Y-15288174D02*
X11871801Y-15307222D01*
X11871801Y-15307222D02*
X11871801Y-15411984D01*
X11871801Y-15307222D02*
X11881324Y-15288174D01*
X11881324Y-15288174D02*
X11900372Y-15278650D01*
X11900372Y-15278650D02*
X11928943Y-15278650D01*
X11928943Y-15278650D02*
X11947991Y-15288174D01*
X11947991Y-15288174D02*
X11957515Y-15307222D01*
X11957515Y-15307222D02*
X11957515Y-15411984D01*
X12347991Y-15202460D02*
X12176563Y-15459603D01*
X12605134Y-15211984D02*
X12624182Y-15211984D01*
X12624182Y-15211984D02*
X12643229Y-15221508D01*
X12643229Y-15221508D02*
X12652753Y-15231031D01*
X12652753Y-15231031D02*
X12662277Y-15250079D01*
X12662277Y-15250079D02*
X12671801Y-15288174D01*
X12671801Y-15288174D02*
X12671801Y-15335793D01*
X12671801Y-15335793D02*
X12662277Y-15373888D01*
X12662277Y-15373888D02*
X12652753Y-15392936D01*
X12652753Y-15392936D02*
X12643229Y-15402460D01*
X12643229Y-15402460D02*
X12624182Y-15411984D01*
X12624182Y-15411984D02*
X12605134Y-15411984D01*
X12605134Y-15411984D02*
X12586086Y-15402460D01*
X12586086Y-15402460D02*
X12576563Y-15392936D01*
X12576563Y-15392936D02*
X12567039Y-15373888D01*
X12567039Y-15373888D02*
X12557515Y-15335793D01*
X12557515Y-15335793D02*
X12557515Y-15288174D01*
X12557515Y-15288174D02*
X12567039Y-15250079D01*
X12567039Y-15250079D02*
X12576563Y-15231031D01*
X12576563Y-15231031D02*
X12586086Y-15221508D01*
X12586086Y-15221508D02*
X12605134Y-15211984D01*
X12757515Y-15392936D02*
X12767039Y-15402460D01*
X12767039Y-15402460D02*
X12757515Y-15411984D01*
X12757515Y-15411984D02*
X12747991Y-15402460D01*
X12747991Y-15402460D02*
X12757515Y-15392936D01*
X12757515Y-15392936D02*
X12757515Y-15411984D01*
X12890848Y-15211984D02*
X12909896Y-15211984D01*
X12909896Y-15211984D02*
X12928944Y-15221508D01*
X12928944Y-15221508D02*
X12938467Y-15231031D01*
X12938467Y-15231031D02*
X12947991Y-15250079D01*
X12947991Y-15250079D02*
X12957515Y-15288174D01*
X12957515Y-15288174D02*
X12957515Y-15335793D01*
X12957515Y-15335793D02*
X12947991Y-15373888D01*
X12947991Y-15373888D02*
X12938467Y-15392936D01*
X12938467Y-15392936D02*
X12928944Y-15402460D01*
X12928944Y-15402460D02*
X12909896Y-15411984D01*
X12909896Y-15411984D02*
X12890848Y-15411984D01*
X12890848Y-15411984D02*
X12871801Y-15402460D01*
X12871801Y-15402460D02*
X12862277Y-15392936D01*
X12862277Y-15392936D02*
X12852753Y-15373888D01*
X12852753Y-15373888D02*
X12843229Y-15335793D01*
X12843229Y-15335793D02*
X12843229Y-15288174D01*
X12843229Y-15288174D02*
X12852753Y-15250079D01*
X12852753Y-15250079D02*
X12862277Y-15231031D01*
X12862277Y-15231031D02*
X12871801Y-15221508D01*
X12871801Y-15221508D02*
X12890848Y-15211984D01*
X13024182Y-15211984D02*
X13147991Y-15211984D01*
X13147991Y-15211984D02*
X13081325Y-15288174D01*
X13081325Y-15288174D02*
X13109896Y-15288174D01*
X13109896Y-15288174D02*
X13128944Y-15297698D01*
X13128944Y-15297698D02*
X13138467Y-15307222D01*
X13138467Y-15307222D02*
X13147991Y-15326269D01*
X13147991Y-15326269D02*
X13147991Y-15373888D01*
X13147991Y-15373888D02*
X13138467Y-15392936D01*
X13138467Y-15392936D02*
X13128944Y-15402460D01*
X13128944Y-15402460D02*
X13109896Y-15411984D01*
X13109896Y-15411984D02*
X13052753Y-15411984D01*
X13052753Y-15411984D02*
X13033706Y-15402460D01*
X13033706Y-15402460D02*
X13024182Y-15392936D01*
X13328944Y-15211984D02*
X13233706Y-15211984D01*
X13233706Y-15211984D02*
X13224182Y-15307222D01*
X13224182Y-15307222D02*
X13233706Y-15297698D01*
X13233706Y-15297698D02*
X13252753Y-15288174D01*
X13252753Y-15288174D02*
X13300372Y-15288174D01*
X13300372Y-15288174D02*
X13319420Y-15297698D01*
X13319420Y-15297698D02*
X13328944Y-15307222D01*
X13328944Y-15307222D02*
X13338467Y-15326269D01*
X13338467Y-15326269D02*
X13338467Y-15373888D01*
X13338467Y-15373888D02*
X13328944Y-15392936D01*
X13328944Y-15392936D02*
X13319420Y-15402460D01*
X13319420Y-15402460D02*
X13300372Y-15411984D01*
X13300372Y-15411984D02*
X13252753Y-15411984D01*
X13252753Y-15411984D02*
X13233706Y-15402460D01*
X13233706Y-15402460D02*
X13224182Y-15392936D01*
X13509896Y-15278650D02*
X13509896Y-15411984D01*
X13462277Y-15202460D02*
X13414658Y-15345317D01*
X13414658Y-15345317D02*
X13538467Y-15345317D01*
X13605134Y-15211984D02*
X13605134Y-15250079D01*
X13681325Y-15211984D02*
X13681325Y-15250079D01*
X13976563Y-15488174D02*
X13967039Y-15478650D01*
X13967039Y-15478650D02*
X13947991Y-15450079D01*
X13947991Y-15450079D02*
X13938468Y-15431031D01*
X13938468Y-15431031D02*
X13928944Y-15402460D01*
X13928944Y-15402460D02*
X13919420Y-15354841D01*
X13919420Y-15354841D02*
X13919420Y-15316746D01*
X13919420Y-15316746D02*
X13928944Y-15269127D01*
X13928944Y-15269127D02*
X13938468Y-15240555D01*
X13938468Y-15240555D02*
X13947991Y-15221508D01*
X13947991Y-15221508D02*
X13967039Y-15192936D01*
X13967039Y-15192936D02*
X13976563Y-15183412D01*
X14033706Y-15211984D02*
X14157515Y-15211984D01*
X14157515Y-15211984D02*
X14090848Y-15288174D01*
X14090848Y-15288174D02*
X14119420Y-15288174D01*
X14119420Y-15288174D02*
X14138468Y-15297698D01*
X14138468Y-15297698D02*
X14147991Y-15307222D01*
X14147991Y-15307222D02*
X14157515Y-15326269D01*
X14157515Y-15326269D02*
X14157515Y-15373888D01*
X14157515Y-15373888D02*
X14147991Y-15392936D01*
X14147991Y-15392936D02*
X14138468Y-15402460D01*
X14138468Y-15402460D02*
X14119420Y-15411984D01*
X14119420Y-15411984D02*
X14062277Y-15411984D01*
X14062277Y-15411984D02*
X14043229Y-15402460D01*
X14043229Y-15402460D02*
X14033706Y-15392936D01*
X14395610Y-15411984D02*
X14395610Y-15211984D01*
X14481325Y-15411984D02*
X14481325Y-15307222D01*
X14481325Y-15307222D02*
X14471801Y-15288174D01*
X14471801Y-15288174D02*
X14452753Y-15278650D01*
X14452753Y-15278650D02*
X14424182Y-15278650D01*
X14424182Y-15278650D02*
X14405134Y-15288174D01*
X14405134Y-15288174D02*
X14395610Y-15297698D01*
X14605134Y-15411984D02*
X14586087Y-15402460D01*
X14586087Y-15402460D02*
X14576563Y-15392936D01*
X14576563Y-15392936D02*
X14567039Y-15373888D01*
X14567039Y-15373888D02*
X14567039Y-15316746D01*
X14567039Y-15316746D02*
X14576563Y-15297698D01*
X14576563Y-15297698D02*
X14586087Y-15288174D01*
X14586087Y-15288174D02*
X14605134Y-15278650D01*
X14605134Y-15278650D02*
X14633706Y-15278650D01*
X14633706Y-15278650D02*
X14652753Y-15288174D01*
X14652753Y-15288174D02*
X14662277Y-15297698D01*
X14662277Y-15297698D02*
X14671801Y-15316746D01*
X14671801Y-15316746D02*
X14671801Y-15373888D01*
X14671801Y-15373888D02*
X14662277Y-15392936D01*
X14662277Y-15392936D02*
X14652753Y-15402460D01*
X14652753Y-15402460D02*
X14633706Y-15411984D01*
X14633706Y-15411984D02*
X14605134Y-15411984D01*
X14786087Y-15411984D02*
X14767039Y-15402460D01*
X14767039Y-15402460D02*
X14757515Y-15383412D01*
X14757515Y-15383412D02*
X14757515Y-15211984D01*
X14938468Y-15402460D02*
X14919420Y-15411984D01*
X14919420Y-15411984D02*
X14881325Y-15411984D01*
X14881325Y-15411984D02*
X14862277Y-15402460D01*
X14862277Y-15402460D02*
X14852753Y-15383412D01*
X14852753Y-15383412D02*
X14852753Y-15307222D01*
X14852753Y-15307222D02*
X14862277Y-15288174D01*
X14862277Y-15288174D02*
X14881325Y-15278650D01*
X14881325Y-15278650D02*
X14919420Y-15278650D01*
X14919420Y-15278650D02*
X14938468Y-15288174D01*
X14938468Y-15288174D02*
X14947991Y-15307222D01*
X14947991Y-15307222D02*
X14947991Y-15326269D01*
X14947991Y-15326269D02*
X14852753Y-15345317D01*
X15024182Y-15402460D02*
X15043230Y-15411984D01*
X15043230Y-15411984D02*
X15081325Y-15411984D01*
X15081325Y-15411984D02*
X15100372Y-15402460D01*
X15100372Y-15402460D02*
X15109896Y-15383412D01*
X15109896Y-15383412D02*
X15109896Y-15373888D01*
X15109896Y-15373888D02*
X15100372Y-15354841D01*
X15100372Y-15354841D02*
X15081325Y-15345317D01*
X15081325Y-15345317D02*
X15052753Y-15345317D01*
X15052753Y-15345317D02*
X15033706Y-15335793D01*
X15033706Y-15335793D02*
X15024182Y-15316746D01*
X15024182Y-15316746D02*
X15024182Y-15307222D01*
X15024182Y-15307222D02*
X15033706Y-15288174D01*
X15033706Y-15288174D02*
X15052753Y-15278650D01*
X15052753Y-15278650D02*
X15081325Y-15278650D01*
X15081325Y-15278650D02*
X15100372Y-15288174D01*
X15176563Y-15488174D02*
X15186087Y-15478650D01*
X15186087Y-15478650D02*
X15205134Y-15450079D01*
X15205134Y-15450079D02*
X15214658Y-15431031D01*
X15214658Y-15431031D02*
X15224182Y-15402460D01*
X15224182Y-15402460D02*
X15233706Y-15354841D01*
X15233706Y-15354841D02*
X15233706Y-15316746D01*
X15233706Y-15316746D02*
X15224182Y-15269127D01*
X15224182Y-15269127D02*
X15214658Y-15240555D01*
X15214658Y-15240555D02*
X15205134Y-15221508D01*
X15205134Y-15221508D02*
X15186087Y-15192936D01*
X15186087Y-15192936D02*
X15176563Y-15183412D01*
D10*
X10301500Y-15534500D02*
X10401500Y-15634500D01*
X10401500Y-15534500D02*
X10301500Y-15634500D01*
X10351500Y-15634500D02*
X10401500Y-15584500D01*
X10351500Y-15534500D01*
X10301500Y-15584500D01*
X10351500Y-15634500D01*
D11*
X10767039Y-15675984D02*
X10652753Y-15675984D01*
X10709896Y-15675984D02*
X10709896Y-15475984D01*
X10709896Y-15475984D02*
X10690848Y-15504555D01*
X10690848Y-15504555D02*
X10671801Y-15523603D01*
X10671801Y-15523603D02*
X10652753Y-15533127D01*
X10852753Y-15656936D02*
X10862277Y-15666460D01*
X10862277Y-15666460D02*
X10852753Y-15675984D01*
X10852753Y-15675984D02*
X10843229Y-15666460D01*
X10843229Y-15666460D02*
X10852753Y-15656936D01*
X10852753Y-15656936D02*
X10852753Y-15675984D01*
X10986086Y-15475984D02*
X11005134Y-15475984D01*
X11005134Y-15475984D02*
X11024182Y-15485508D01*
X11024182Y-15485508D02*
X11033705Y-15495031D01*
X11033705Y-15495031D02*
X11043229Y-15514079D01*
X11043229Y-15514079D02*
X11052753Y-15552174D01*
X11052753Y-15552174D02*
X11052753Y-15599793D01*
X11052753Y-15599793D02*
X11043229Y-15637888D01*
X11043229Y-15637888D02*
X11033705Y-15656936D01*
X11033705Y-15656936D02*
X11024182Y-15666460D01*
X11024182Y-15666460D02*
X11005134Y-15675984D01*
X11005134Y-15675984D02*
X10986086Y-15675984D01*
X10986086Y-15675984D02*
X10967039Y-15666460D01*
X10967039Y-15666460D02*
X10957515Y-15656936D01*
X10957515Y-15656936D02*
X10947991Y-15637888D01*
X10947991Y-15637888D02*
X10938467Y-15599793D01*
X10938467Y-15599793D02*
X10938467Y-15552174D01*
X10938467Y-15552174D02*
X10947991Y-15514079D01*
X10947991Y-15514079D02*
X10957515Y-15495031D01*
X10957515Y-15495031D02*
X10967039Y-15485508D01*
X10967039Y-15485508D02*
X10986086Y-15475984D01*
X11176563Y-15475984D02*
X11195610Y-15475984D01*
X11195610Y-15475984D02*
X11214658Y-15485508D01*
X11214658Y-15485508D02*
X11224182Y-15495031D01*
X11224182Y-15495031D02*
X11233705Y-15514079D01*
X11233705Y-15514079D02*
X11243229Y-15552174D01*
X11243229Y-15552174D02*
X11243229Y-15599793D01*
X11243229Y-15599793D02*
X11233705Y-15637888D01*
X11233705Y-15637888D02*
X11224182Y-15656936D01*
X11224182Y-15656936D02*
X11214658Y-15666460D01*
X11214658Y-15666460D02*
X11195610Y-15675984D01*
X11195610Y-15675984D02*
X11176563Y-15675984D01*
X11176563Y-15675984D02*
X11157515Y-15666460D01*
X11157515Y-15666460D02*
X11147991Y-15656936D01*
X11147991Y-15656936D02*
X11138467Y-15637888D01*
X11138467Y-15637888D02*
X11128944Y-15599793D01*
X11128944Y-15599793D02*
X11128944Y-15552174D01*
X11128944Y-15552174D02*
X11138467Y-15514079D01*
X11138467Y-15514079D02*
X11147991Y-15495031D01*
X11147991Y-15495031D02*
X11157515Y-15485508D01*
X11157515Y-15485508D02*
X11176563Y-15475984D01*
X11367039Y-15475984D02*
X11386086Y-15475984D01*
X11386086Y-15475984D02*
X11405134Y-15485508D01*
X11405134Y-15485508D02*
X11414658Y-15495031D01*
X11414658Y-15495031D02*
X11424182Y-15514079D01*
X11424182Y-15514079D02*
X11433705Y-15552174D01*
X11433705Y-15552174D02*
X11433705Y-15599793D01*
X11433705Y-15599793D02*
X11424182Y-15637888D01*
X11424182Y-15637888D02*
X11414658Y-15656936D01*
X11414658Y-15656936D02*
X11405134Y-15666460D01*
X11405134Y-15666460D02*
X11386086Y-15675984D01*
X11386086Y-15675984D02*
X11367039Y-15675984D01*
X11367039Y-15675984D02*
X11347991Y-15666460D01*
X11347991Y-15666460D02*
X11338467Y-15656936D01*
X11338467Y-15656936D02*
X11328943Y-15637888D01*
X11328943Y-15637888D02*
X11319420Y-15599793D01*
X11319420Y-15599793D02*
X11319420Y-15552174D01*
X11319420Y-15552174D02*
X11328943Y-15514079D01*
X11328943Y-15514079D02*
X11338467Y-15495031D01*
X11338467Y-15495031D02*
X11347991Y-15485508D01*
X11347991Y-15485508D02*
X11367039Y-15475984D01*
X11519420Y-15675984D02*
X11519420Y-15542650D01*
X11519420Y-15561698D02*
X11528943Y-15552174D01*
X11528943Y-15552174D02*
X11547991Y-15542650D01*
X11547991Y-15542650D02*
X11576563Y-15542650D01*
X11576563Y-15542650D02*
X11595610Y-15552174D01*
X11595610Y-15552174D02*
X11605134Y-15571222D01*
X11605134Y-15571222D02*
X11605134Y-15675984D01*
X11605134Y-15571222D02*
X11614658Y-15552174D01*
X11614658Y-15552174D02*
X11633705Y-15542650D01*
X11633705Y-15542650D02*
X11662277Y-15542650D01*
X11662277Y-15542650D02*
X11681324Y-15552174D01*
X11681324Y-15552174D02*
X11690848Y-15571222D01*
X11690848Y-15571222D02*
X11690848Y-15675984D01*
X11786086Y-15675984D02*
X11786086Y-15542650D01*
X11786086Y-15561698D02*
X11795610Y-15552174D01*
X11795610Y-15552174D02*
X11814658Y-15542650D01*
X11814658Y-15542650D02*
X11843229Y-15542650D01*
X11843229Y-15542650D02*
X11862277Y-15552174D01*
X11862277Y-15552174D02*
X11871801Y-15571222D01*
X11871801Y-15571222D02*
X11871801Y-15675984D01*
X11871801Y-15571222D02*
X11881324Y-15552174D01*
X11881324Y-15552174D02*
X11900372Y-15542650D01*
X11900372Y-15542650D02*
X11928943Y-15542650D01*
X11928943Y-15542650D02*
X11947991Y-15552174D01*
X11947991Y-15552174D02*
X11957515Y-15571222D01*
X11957515Y-15571222D02*
X11957515Y-15675984D01*
X12347991Y-15466460D02*
X12176563Y-15723603D01*
X12605134Y-15475984D02*
X12624182Y-15475984D01*
X12624182Y-15475984D02*
X12643229Y-15485508D01*
X12643229Y-15485508D02*
X12652753Y-15495031D01*
X12652753Y-15495031D02*
X12662277Y-15514079D01*
X12662277Y-15514079D02*
X12671801Y-15552174D01*
X12671801Y-15552174D02*
X12671801Y-15599793D01*
X12671801Y-15599793D02*
X12662277Y-15637888D01*
X12662277Y-15637888D02*
X12652753Y-15656936D01*
X12652753Y-15656936D02*
X12643229Y-15666460D01*
X12643229Y-15666460D02*
X12624182Y-15675984D01*
X12624182Y-15675984D02*
X12605134Y-15675984D01*
X12605134Y-15675984D02*
X12586086Y-15666460D01*
X12586086Y-15666460D02*
X12576563Y-15656936D01*
X12576563Y-15656936D02*
X12567039Y-15637888D01*
X12567039Y-15637888D02*
X12557515Y-15599793D01*
X12557515Y-15599793D02*
X12557515Y-15552174D01*
X12557515Y-15552174D02*
X12567039Y-15514079D01*
X12567039Y-15514079D02*
X12576563Y-15495031D01*
X12576563Y-15495031D02*
X12586086Y-15485508D01*
X12586086Y-15485508D02*
X12605134Y-15475984D01*
X12757515Y-15656936D02*
X12767039Y-15666460D01*
X12767039Y-15666460D02*
X12757515Y-15675984D01*
X12757515Y-15675984D02*
X12747991Y-15666460D01*
X12747991Y-15666460D02*
X12757515Y-15656936D01*
X12757515Y-15656936D02*
X12757515Y-15675984D01*
X12890848Y-15475984D02*
X12909896Y-15475984D01*
X12909896Y-15475984D02*
X12928944Y-15485508D01*
X12928944Y-15485508D02*
X12938467Y-15495031D01*
X12938467Y-15495031D02*
X12947991Y-15514079D01*
X12947991Y-15514079D02*
X12957515Y-15552174D01*
X12957515Y-15552174D02*
X12957515Y-15599793D01*
X12957515Y-15599793D02*
X12947991Y-15637888D01*
X12947991Y-15637888D02*
X12938467Y-15656936D01*
X12938467Y-15656936D02*
X12928944Y-15666460D01*
X12928944Y-15666460D02*
X12909896Y-15675984D01*
X12909896Y-15675984D02*
X12890848Y-15675984D01*
X12890848Y-15675984D02*
X12871801Y-15666460D01*
X12871801Y-15666460D02*
X12862277Y-15656936D01*
X12862277Y-15656936D02*
X12852753Y-15637888D01*
X12852753Y-15637888D02*
X12843229Y-15599793D01*
X12843229Y-15599793D02*
X12843229Y-15552174D01*
X12843229Y-15552174D02*
X12852753Y-15514079D01*
X12852753Y-15514079D02*
X12862277Y-15495031D01*
X12862277Y-15495031D02*
X12871801Y-15485508D01*
X12871801Y-15485508D02*
X12890848Y-15475984D01*
X13024182Y-15475984D02*
X13147991Y-15475984D01*
X13147991Y-15475984D02*
X13081325Y-15552174D01*
X13081325Y-15552174D02*
X13109896Y-15552174D01*
X13109896Y-15552174D02*
X13128944Y-15561698D01*
X13128944Y-15561698D02*
X13138467Y-15571222D01*
X13138467Y-15571222D02*
X13147991Y-15590269D01*
X13147991Y-15590269D02*
X13147991Y-15637888D01*
X13147991Y-15637888D02*
X13138467Y-15656936D01*
X13138467Y-15656936D02*
X13128944Y-15666460D01*
X13128944Y-15666460D02*
X13109896Y-15675984D01*
X13109896Y-15675984D02*
X13052753Y-15675984D01*
X13052753Y-15675984D02*
X13033706Y-15666460D01*
X13033706Y-15666460D02*
X13024182Y-15656936D01*
X13243229Y-15675984D02*
X13281325Y-15675984D01*
X13281325Y-15675984D02*
X13300372Y-15666460D01*
X13300372Y-15666460D02*
X13309896Y-15656936D01*
X13309896Y-15656936D02*
X13328944Y-15628365D01*
X13328944Y-15628365D02*
X13338467Y-15590269D01*
X13338467Y-15590269D02*
X13338467Y-15514079D01*
X13338467Y-15514079D02*
X13328944Y-15495031D01*
X13328944Y-15495031D02*
X13319420Y-15485508D01*
X13319420Y-15485508D02*
X13300372Y-15475984D01*
X13300372Y-15475984D02*
X13262277Y-15475984D01*
X13262277Y-15475984D02*
X13243229Y-15485508D01*
X13243229Y-15485508D02*
X13233706Y-15495031D01*
X13233706Y-15495031D02*
X13224182Y-15514079D01*
X13224182Y-15514079D02*
X13224182Y-15561698D01*
X13224182Y-15561698D02*
X13233706Y-15580746D01*
X13233706Y-15580746D02*
X13243229Y-15590269D01*
X13243229Y-15590269D02*
X13262277Y-15599793D01*
X13262277Y-15599793D02*
X13300372Y-15599793D01*
X13300372Y-15599793D02*
X13319420Y-15590269D01*
X13319420Y-15590269D02*
X13328944Y-15580746D01*
X13328944Y-15580746D02*
X13338467Y-15561698D01*
X13509896Y-15542650D02*
X13509896Y-15675984D01*
X13462277Y-15466460D02*
X13414658Y-15609317D01*
X13414658Y-15609317D02*
X13538467Y-15609317D01*
X13605134Y-15475984D02*
X13605134Y-15514079D01*
X13681325Y-15475984D02*
X13681325Y-15514079D01*
X13976563Y-15752174D02*
X13967039Y-15742650D01*
X13967039Y-15742650D02*
X13947991Y-15714079D01*
X13947991Y-15714079D02*
X13938468Y-15695031D01*
X13938468Y-15695031D02*
X13928944Y-15666460D01*
X13928944Y-15666460D02*
X13919420Y-15618841D01*
X13919420Y-15618841D02*
X13919420Y-15580746D01*
X13919420Y-15580746D02*
X13928944Y-15533127D01*
X13928944Y-15533127D02*
X13938468Y-15504555D01*
X13938468Y-15504555D02*
X13947991Y-15485508D01*
X13947991Y-15485508D02*
X13967039Y-15456936D01*
X13967039Y-15456936D02*
X13976563Y-15447412D01*
X14138468Y-15542650D02*
X14138468Y-15675984D01*
X14090848Y-15466460D02*
X14043229Y-15609317D01*
X14043229Y-15609317D02*
X14167039Y-15609317D01*
X14271801Y-15561698D02*
X14252753Y-15552174D01*
X14252753Y-15552174D02*
X14243229Y-15542650D01*
X14243229Y-15542650D02*
X14233706Y-15523603D01*
X14233706Y-15523603D02*
X14233706Y-15514079D01*
X14233706Y-15514079D02*
X14243229Y-15495031D01*
X14243229Y-15495031D02*
X14252753Y-15485508D01*
X14252753Y-15485508D02*
X14271801Y-15475984D01*
X14271801Y-15475984D02*
X14309896Y-15475984D01*
X14309896Y-15475984D02*
X14328944Y-15485508D01*
X14328944Y-15485508D02*
X14338468Y-15495031D01*
X14338468Y-15495031D02*
X14347991Y-15514079D01*
X14347991Y-15514079D02*
X14347991Y-15523603D01*
X14347991Y-15523603D02*
X14338468Y-15542650D01*
X14338468Y-15542650D02*
X14328944Y-15552174D01*
X14328944Y-15552174D02*
X14309896Y-15561698D01*
X14309896Y-15561698D02*
X14271801Y-15561698D01*
X14271801Y-15561698D02*
X14252753Y-15571222D01*
X14252753Y-15571222D02*
X14243229Y-15580746D01*
X14243229Y-15580746D02*
X14233706Y-15599793D01*
X14233706Y-15599793D02*
X14233706Y-15637888D01*
X14233706Y-15637888D02*
X14243229Y-15656936D01*
X14243229Y-15656936D02*
X14252753Y-15666460D01*
X14252753Y-15666460D02*
X14271801Y-15675984D01*
X14271801Y-15675984D02*
X14309896Y-15675984D01*
X14309896Y-15675984D02*
X14328944Y-15666460D01*
X14328944Y-15666460D02*
X14338468Y-15656936D01*
X14338468Y-15656936D02*
X14347991Y-15637888D01*
X14347991Y-15637888D02*
X14347991Y-15599793D01*
X14347991Y-15599793D02*
X14338468Y-15580746D01*
X14338468Y-15580746D02*
X14328944Y-15571222D01*
X14328944Y-15571222D02*
X14309896Y-15561698D01*
X14586087Y-15675984D02*
X14586087Y-15475984D01*
X14671801Y-15675984D02*
X14671801Y-15571222D01*
X14671801Y-15571222D02*
X14662277Y-15552174D01*
X14662277Y-15552174D02*
X14643230Y-15542650D01*
X14643230Y-15542650D02*
X14614658Y-15542650D01*
X14614658Y-15542650D02*
X14595610Y-15552174D01*
X14595610Y-15552174D02*
X14586087Y-15561698D01*
X14795610Y-15675984D02*
X14776563Y-15666460D01*
X14776563Y-15666460D02*
X14767039Y-15656936D01*
X14767039Y-15656936D02*
X14757515Y-15637888D01*
X14757515Y-15637888D02*
X14757515Y-15580746D01*
X14757515Y-15580746D02*
X14767039Y-15561698D01*
X14767039Y-15561698D02*
X14776563Y-15552174D01*
X14776563Y-15552174D02*
X14795610Y-15542650D01*
X14795610Y-15542650D02*
X14824182Y-15542650D01*
X14824182Y-15542650D02*
X14843230Y-15552174D01*
X14843230Y-15552174D02*
X14852753Y-15561698D01*
X14852753Y-15561698D02*
X14862277Y-15580746D01*
X14862277Y-15580746D02*
X14862277Y-15637888D01*
X14862277Y-15637888D02*
X14852753Y-15656936D01*
X14852753Y-15656936D02*
X14843230Y-15666460D01*
X14843230Y-15666460D02*
X14824182Y-15675984D01*
X14824182Y-15675984D02*
X14795610Y-15675984D01*
X14976563Y-15675984D02*
X14957515Y-15666460D01*
X14957515Y-15666460D02*
X14947991Y-15647412D01*
X14947991Y-15647412D02*
X14947991Y-15475984D01*
X15128944Y-15666460D02*
X15109896Y-15675984D01*
X15109896Y-15675984D02*
X15071801Y-15675984D01*
X15071801Y-15675984D02*
X15052753Y-15666460D01*
X15052753Y-15666460D02*
X15043230Y-15647412D01*
X15043230Y-15647412D02*
X15043230Y-15571222D01*
X15043230Y-15571222D02*
X15052753Y-15552174D01*
X15052753Y-15552174D02*
X15071801Y-15542650D01*
X15071801Y-15542650D02*
X15109896Y-15542650D01*
X15109896Y-15542650D02*
X15128944Y-15552174D01*
X15128944Y-15552174D02*
X15138468Y-15571222D01*
X15138468Y-15571222D02*
X15138468Y-15590269D01*
X15138468Y-15590269D02*
X15043230Y-15609317D01*
X15214658Y-15666460D02*
X15233706Y-15675984D01*
X15233706Y-15675984D02*
X15271801Y-15675984D01*
X15271801Y-15675984D02*
X15290849Y-15666460D01*
X15290849Y-15666460D02*
X15300372Y-15647412D01*
X15300372Y-15647412D02*
X15300372Y-15637888D01*
X15300372Y-15637888D02*
X15290849Y-15618841D01*
X15290849Y-15618841D02*
X15271801Y-15609317D01*
X15271801Y-15609317D02*
X15243230Y-15609317D01*
X15243230Y-15609317D02*
X15224182Y-15599793D01*
X15224182Y-15599793D02*
X15214658Y-15580746D01*
X15214658Y-15580746D02*
X15214658Y-15571222D01*
X15214658Y-15571222D02*
X15224182Y-15552174D01*
X15224182Y-15552174D02*
X15243230Y-15542650D01*
X15243230Y-15542650D02*
X15271801Y-15542650D01*
X15271801Y-15542650D02*
X15290849Y-15552174D01*
X15367039Y-15752174D02*
X15376563Y-15742650D01*
X15376563Y-15742650D02*
X15395611Y-15714079D01*
X15395611Y-15714079D02*
X15405134Y-15695031D01*
X15405134Y-15695031D02*
X15414658Y-15666460D01*
X15414658Y-15666460D02*
X15424182Y-15618841D01*
X15424182Y-15618841D02*
X15424182Y-15580746D01*
X15424182Y-15580746D02*
X15414658Y-15533127D01*
X15414658Y-15533127D02*
X15405134Y-15504555D01*
X15405134Y-15504555D02*
X15395611Y-15485508D01*
X15395611Y-15485508D02*
X15376563Y-15456936D01*
X15376563Y-15456936D02*
X15367039Y-15447412D01*
X10301500Y-15748500D02*
X10301500Y-15948500D01*
X10201500Y-15848500D02*
X10401500Y-15848500D01*
X10401500Y-15848500D02*
G75*
G03*
X10201500Y-15848500I-100000J0D01*
G01*
X10201500Y-15848500D02*
G75*
G03*
X10401500Y-15848500I100000J0D01*
G01*
X10652753Y-15759031D02*
X10662277Y-15749508D01*
X10662277Y-15749508D02*
X10681324Y-15739984D01*
X10681324Y-15739984D02*
X10728944Y-15739984D01*
X10728944Y-15739984D02*
X10747991Y-15749508D01*
X10747991Y-15749508D02*
X10757515Y-15759031D01*
X10757515Y-15759031D02*
X10767039Y-15778079D01*
X10767039Y-15778079D02*
X10767039Y-15797127D01*
X10767039Y-15797127D02*
X10757515Y-15825698D01*
X10757515Y-15825698D02*
X10643229Y-15939984D01*
X10643229Y-15939984D02*
X10767039Y-15939984D01*
X10852753Y-15920936D02*
X10862277Y-15930460D01*
X10862277Y-15930460D02*
X10852753Y-15939984D01*
X10852753Y-15939984D02*
X10843229Y-15930460D01*
X10843229Y-15930460D02*
X10852753Y-15920936D01*
X10852753Y-15920936D02*
X10852753Y-15939984D01*
X10928944Y-15739984D02*
X11052753Y-15739984D01*
X11052753Y-15739984D02*
X10986086Y-15816174D01*
X10986086Y-15816174D02*
X11014658Y-15816174D01*
X11014658Y-15816174D02*
X11033705Y-15825698D01*
X11033705Y-15825698D02*
X11043229Y-15835222D01*
X11043229Y-15835222D02*
X11052753Y-15854269D01*
X11052753Y-15854269D02*
X11052753Y-15901888D01*
X11052753Y-15901888D02*
X11043229Y-15920936D01*
X11043229Y-15920936D02*
X11033705Y-15930460D01*
X11033705Y-15930460D02*
X11014658Y-15939984D01*
X11014658Y-15939984D02*
X10957515Y-15939984D01*
X10957515Y-15939984D02*
X10938467Y-15930460D01*
X10938467Y-15930460D02*
X10928944Y-15920936D01*
X11233705Y-15739984D02*
X11138467Y-15739984D01*
X11138467Y-15739984D02*
X11128944Y-15835222D01*
X11128944Y-15835222D02*
X11138467Y-15825698D01*
X11138467Y-15825698D02*
X11157515Y-15816174D01*
X11157515Y-15816174D02*
X11205134Y-15816174D01*
X11205134Y-15816174D02*
X11224182Y-15825698D01*
X11224182Y-15825698D02*
X11233705Y-15835222D01*
X11233705Y-15835222D02*
X11243229Y-15854269D01*
X11243229Y-15854269D02*
X11243229Y-15901888D01*
X11243229Y-15901888D02*
X11233705Y-15920936D01*
X11233705Y-15920936D02*
X11224182Y-15930460D01*
X11224182Y-15930460D02*
X11205134Y-15939984D01*
X11205134Y-15939984D02*
X11157515Y-15939984D01*
X11157515Y-15939984D02*
X11138467Y-15930460D01*
X11138467Y-15930460D02*
X11128944Y-15920936D01*
X11367039Y-15739984D02*
X11386086Y-15739984D01*
X11386086Y-15739984D02*
X11405134Y-15749508D01*
X11405134Y-15749508D02*
X11414658Y-15759031D01*
X11414658Y-15759031D02*
X11424182Y-15778079D01*
X11424182Y-15778079D02*
X11433705Y-15816174D01*
X11433705Y-15816174D02*
X11433705Y-15863793D01*
X11433705Y-15863793D02*
X11424182Y-15901888D01*
X11424182Y-15901888D02*
X11414658Y-15920936D01*
X11414658Y-15920936D02*
X11405134Y-15930460D01*
X11405134Y-15930460D02*
X11386086Y-15939984D01*
X11386086Y-15939984D02*
X11367039Y-15939984D01*
X11367039Y-15939984D02*
X11347991Y-15930460D01*
X11347991Y-15930460D02*
X11338467Y-15920936D01*
X11338467Y-15920936D02*
X11328943Y-15901888D01*
X11328943Y-15901888D02*
X11319420Y-15863793D01*
X11319420Y-15863793D02*
X11319420Y-15816174D01*
X11319420Y-15816174D02*
X11328943Y-15778079D01*
X11328943Y-15778079D02*
X11338467Y-15759031D01*
X11338467Y-15759031D02*
X11347991Y-15749508D01*
X11347991Y-15749508D02*
X11367039Y-15739984D01*
X11519420Y-15939984D02*
X11519420Y-15806650D01*
X11519420Y-15825698D02*
X11528943Y-15816174D01*
X11528943Y-15816174D02*
X11547991Y-15806650D01*
X11547991Y-15806650D02*
X11576563Y-15806650D01*
X11576563Y-15806650D02*
X11595610Y-15816174D01*
X11595610Y-15816174D02*
X11605134Y-15835222D01*
X11605134Y-15835222D02*
X11605134Y-15939984D01*
X11605134Y-15835222D02*
X11614658Y-15816174D01*
X11614658Y-15816174D02*
X11633705Y-15806650D01*
X11633705Y-15806650D02*
X11662277Y-15806650D01*
X11662277Y-15806650D02*
X11681324Y-15816174D01*
X11681324Y-15816174D02*
X11690848Y-15835222D01*
X11690848Y-15835222D02*
X11690848Y-15939984D01*
X11786086Y-15939984D02*
X11786086Y-15806650D01*
X11786086Y-15825698D02*
X11795610Y-15816174D01*
X11795610Y-15816174D02*
X11814658Y-15806650D01*
X11814658Y-15806650D02*
X11843229Y-15806650D01*
X11843229Y-15806650D02*
X11862277Y-15816174D01*
X11862277Y-15816174D02*
X11871801Y-15835222D01*
X11871801Y-15835222D02*
X11871801Y-15939984D01*
X11871801Y-15835222D02*
X11881324Y-15816174D01*
X11881324Y-15816174D02*
X11900372Y-15806650D01*
X11900372Y-15806650D02*
X11928943Y-15806650D01*
X11928943Y-15806650D02*
X11947991Y-15816174D01*
X11947991Y-15816174D02*
X11957515Y-15835222D01*
X11957515Y-15835222D02*
X11957515Y-15939984D01*
X12347991Y-15730460D02*
X12176563Y-15987603D01*
X12605134Y-15739984D02*
X12624182Y-15739984D01*
X12624182Y-15739984D02*
X12643229Y-15749508D01*
X12643229Y-15749508D02*
X12652753Y-15759031D01*
X12652753Y-15759031D02*
X12662277Y-15778079D01*
X12662277Y-15778079D02*
X12671801Y-15816174D01*
X12671801Y-15816174D02*
X12671801Y-15863793D01*
X12671801Y-15863793D02*
X12662277Y-15901888D01*
X12662277Y-15901888D02*
X12652753Y-15920936D01*
X12652753Y-15920936D02*
X12643229Y-15930460D01*
X12643229Y-15930460D02*
X12624182Y-15939984D01*
X12624182Y-15939984D02*
X12605134Y-15939984D01*
X12605134Y-15939984D02*
X12586086Y-15930460D01*
X12586086Y-15930460D02*
X12576563Y-15920936D01*
X12576563Y-15920936D02*
X12567039Y-15901888D01*
X12567039Y-15901888D02*
X12557515Y-15863793D01*
X12557515Y-15863793D02*
X12557515Y-15816174D01*
X12557515Y-15816174D02*
X12567039Y-15778079D01*
X12567039Y-15778079D02*
X12576563Y-15759031D01*
X12576563Y-15759031D02*
X12586086Y-15749508D01*
X12586086Y-15749508D02*
X12605134Y-15739984D01*
X12757515Y-15920936D02*
X12767039Y-15930460D01*
X12767039Y-15930460D02*
X12757515Y-15939984D01*
X12757515Y-15939984D02*
X12747991Y-15930460D01*
X12747991Y-15930460D02*
X12757515Y-15920936D01*
X12757515Y-15920936D02*
X12757515Y-15939984D01*
X12890848Y-15739984D02*
X12909896Y-15739984D01*
X12909896Y-15739984D02*
X12928944Y-15749508D01*
X12928944Y-15749508D02*
X12938467Y-15759031D01*
X12938467Y-15759031D02*
X12947991Y-15778079D01*
X12947991Y-15778079D02*
X12957515Y-15816174D01*
X12957515Y-15816174D02*
X12957515Y-15863793D01*
X12957515Y-15863793D02*
X12947991Y-15901888D01*
X12947991Y-15901888D02*
X12938467Y-15920936D01*
X12938467Y-15920936D02*
X12928944Y-15930460D01*
X12928944Y-15930460D02*
X12909896Y-15939984D01*
X12909896Y-15939984D02*
X12890848Y-15939984D01*
X12890848Y-15939984D02*
X12871801Y-15930460D01*
X12871801Y-15930460D02*
X12862277Y-15920936D01*
X12862277Y-15920936D02*
X12852753Y-15901888D01*
X12852753Y-15901888D02*
X12843229Y-15863793D01*
X12843229Y-15863793D02*
X12843229Y-15816174D01*
X12843229Y-15816174D02*
X12852753Y-15778079D01*
X12852753Y-15778079D02*
X12862277Y-15759031D01*
X12862277Y-15759031D02*
X12871801Y-15749508D01*
X12871801Y-15749508D02*
X12890848Y-15739984D01*
X13052753Y-15939984D02*
X13090848Y-15939984D01*
X13090848Y-15939984D02*
X13109896Y-15930460D01*
X13109896Y-15930460D02*
X13119420Y-15920936D01*
X13119420Y-15920936D02*
X13138467Y-15892365D01*
X13138467Y-15892365D02*
X13147991Y-15854269D01*
X13147991Y-15854269D02*
X13147991Y-15778079D01*
X13147991Y-15778079D02*
X13138467Y-15759031D01*
X13138467Y-15759031D02*
X13128944Y-15749508D01*
X13128944Y-15749508D02*
X13109896Y-15739984D01*
X13109896Y-15739984D02*
X13071801Y-15739984D01*
X13071801Y-15739984D02*
X13052753Y-15749508D01*
X13052753Y-15749508D02*
X13043229Y-15759031D01*
X13043229Y-15759031D02*
X13033706Y-15778079D01*
X13033706Y-15778079D02*
X13033706Y-15825698D01*
X13033706Y-15825698D02*
X13043229Y-15844746D01*
X13043229Y-15844746D02*
X13052753Y-15854269D01*
X13052753Y-15854269D02*
X13071801Y-15863793D01*
X13071801Y-15863793D02*
X13109896Y-15863793D01*
X13109896Y-15863793D02*
X13128944Y-15854269D01*
X13128944Y-15854269D02*
X13138467Y-15844746D01*
X13138467Y-15844746D02*
X13147991Y-15825698D01*
X13224182Y-15759031D02*
X13233706Y-15749508D01*
X13233706Y-15749508D02*
X13252753Y-15739984D01*
X13252753Y-15739984D02*
X13300372Y-15739984D01*
X13300372Y-15739984D02*
X13319420Y-15749508D01*
X13319420Y-15749508D02*
X13328944Y-15759031D01*
X13328944Y-15759031D02*
X13338467Y-15778079D01*
X13338467Y-15778079D02*
X13338467Y-15797127D01*
X13338467Y-15797127D02*
X13328944Y-15825698D01*
X13328944Y-15825698D02*
X13214658Y-15939984D01*
X13214658Y-15939984D02*
X13338467Y-15939984D01*
X13519420Y-15739984D02*
X13424182Y-15739984D01*
X13424182Y-15739984D02*
X13414658Y-15835222D01*
X13414658Y-15835222D02*
X13424182Y-15825698D01*
X13424182Y-15825698D02*
X13443229Y-15816174D01*
X13443229Y-15816174D02*
X13490848Y-15816174D01*
X13490848Y-15816174D02*
X13509896Y-15825698D01*
X13509896Y-15825698D02*
X13519420Y-15835222D01*
X13519420Y-15835222D02*
X13528944Y-15854269D01*
X13528944Y-15854269D02*
X13528944Y-15901888D01*
X13528944Y-15901888D02*
X13519420Y-15920936D01*
X13519420Y-15920936D02*
X13509896Y-15930460D01*
X13509896Y-15930460D02*
X13490848Y-15939984D01*
X13490848Y-15939984D02*
X13443229Y-15939984D01*
X13443229Y-15939984D02*
X13424182Y-15930460D01*
X13424182Y-15930460D02*
X13414658Y-15920936D01*
X13605134Y-15739984D02*
X13605134Y-15778079D01*
X13681325Y-15739984D02*
X13681325Y-15778079D01*
X13976563Y-16016174D02*
X13967039Y-16006650D01*
X13967039Y-16006650D02*
X13947991Y-15978079D01*
X13947991Y-15978079D02*
X13938468Y-15959031D01*
X13938468Y-15959031D02*
X13928944Y-15930460D01*
X13928944Y-15930460D02*
X13919420Y-15882841D01*
X13919420Y-15882841D02*
X13919420Y-15844746D01*
X13919420Y-15844746D02*
X13928944Y-15797127D01*
X13928944Y-15797127D02*
X13938468Y-15768555D01*
X13938468Y-15768555D02*
X13947991Y-15749508D01*
X13947991Y-15749508D02*
X13967039Y-15720936D01*
X13967039Y-15720936D02*
X13976563Y-15711412D01*
X14043229Y-15759031D02*
X14052753Y-15749508D01*
X14052753Y-15749508D02*
X14071801Y-15739984D01*
X14071801Y-15739984D02*
X14119420Y-15739984D01*
X14119420Y-15739984D02*
X14138468Y-15749508D01*
X14138468Y-15749508D02*
X14147991Y-15759031D01*
X14147991Y-15759031D02*
X14157515Y-15778079D01*
X14157515Y-15778079D02*
X14157515Y-15797127D01*
X14157515Y-15797127D02*
X14147991Y-15825698D01*
X14147991Y-15825698D02*
X14033706Y-15939984D01*
X14033706Y-15939984D02*
X14157515Y-15939984D01*
X14395610Y-15939984D02*
X14395610Y-15739984D01*
X14481325Y-15939984D02*
X14481325Y-15835222D01*
X14481325Y-15835222D02*
X14471801Y-15816174D01*
X14471801Y-15816174D02*
X14452753Y-15806650D01*
X14452753Y-15806650D02*
X14424182Y-15806650D01*
X14424182Y-15806650D02*
X14405134Y-15816174D01*
X14405134Y-15816174D02*
X14395610Y-15825698D01*
X14605134Y-15939984D02*
X14586087Y-15930460D01*
X14586087Y-15930460D02*
X14576563Y-15920936D01*
X14576563Y-15920936D02*
X14567039Y-15901888D01*
X14567039Y-15901888D02*
X14567039Y-15844746D01*
X14567039Y-15844746D02*
X14576563Y-15825698D01*
X14576563Y-15825698D02*
X14586087Y-15816174D01*
X14586087Y-15816174D02*
X14605134Y-15806650D01*
X14605134Y-15806650D02*
X14633706Y-15806650D01*
X14633706Y-15806650D02*
X14652753Y-15816174D01*
X14652753Y-15816174D02*
X14662277Y-15825698D01*
X14662277Y-15825698D02*
X14671801Y-15844746D01*
X14671801Y-15844746D02*
X14671801Y-15901888D01*
X14671801Y-15901888D02*
X14662277Y-15920936D01*
X14662277Y-15920936D02*
X14652753Y-15930460D01*
X14652753Y-15930460D02*
X14633706Y-15939984D01*
X14633706Y-15939984D02*
X14605134Y-15939984D01*
X14786087Y-15939984D02*
X14767039Y-15930460D01*
X14767039Y-15930460D02*
X14757515Y-15911412D01*
X14757515Y-15911412D02*
X14757515Y-15739984D01*
X14938468Y-15930460D02*
X14919420Y-15939984D01*
X14919420Y-15939984D02*
X14881325Y-15939984D01*
X14881325Y-15939984D02*
X14862277Y-15930460D01*
X14862277Y-15930460D02*
X14852753Y-15911412D01*
X14852753Y-15911412D02*
X14852753Y-15835222D01*
X14852753Y-15835222D02*
X14862277Y-15816174D01*
X14862277Y-15816174D02*
X14881325Y-15806650D01*
X14881325Y-15806650D02*
X14919420Y-15806650D01*
X14919420Y-15806650D02*
X14938468Y-15816174D01*
X14938468Y-15816174D02*
X14947991Y-15835222D01*
X14947991Y-15835222D02*
X14947991Y-15854269D01*
X14947991Y-15854269D02*
X14852753Y-15873317D01*
X15024182Y-15930460D02*
X15043230Y-15939984D01*
X15043230Y-15939984D02*
X15081325Y-15939984D01*
X15081325Y-15939984D02*
X15100372Y-15930460D01*
X15100372Y-15930460D02*
X15109896Y-15911412D01*
X15109896Y-15911412D02*
X15109896Y-15901888D01*
X15109896Y-15901888D02*
X15100372Y-15882841D01*
X15100372Y-15882841D02*
X15081325Y-15873317D01*
X15081325Y-15873317D02*
X15052753Y-15873317D01*
X15052753Y-15873317D02*
X15033706Y-15863793D01*
X15033706Y-15863793D02*
X15024182Y-15844746D01*
X15024182Y-15844746D02*
X15024182Y-15835222D01*
X15024182Y-15835222D02*
X15033706Y-15816174D01*
X15033706Y-15816174D02*
X15052753Y-15806650D01*
X15052753Y-15806650D02*
X15081325Y-15806650D01*
X15081325Y-15806650D02*
X15100372Y-15816174D01*
X15176563Y-16016174D02*
X15186087Y-16006650D01*
X15186087Y-16006650D02*
X15205134Y-15978079D01*
X15205134Y-15978079D02*
X15214658Y-15959031D01*
X15214658Y-15959031D02*
X15224182Y-15930460D01*
X15224182Y-15930460D02*
X15233706Y-15882841D01*
X15233706Y-15882841D02*
X15233706Y-15844746D01*
X15233706Y-15844746D02*
X15224182Y-15797127D01*
X15224182Y-15797127D02*
X15214658Y-15768555D01*
X15214658Y-15768555D02*
X15205134Y-15749508D01*
X15205134Y-15749508D02*
X15186087Y-15720936D01*
X15186087Y-15720936D02*
X15176563Y-15711412D01*
M02*
